<svg width="18" height="19" viewBox="0 0 18 19" fill="none" xmlns="http://www.w3.org/2000/svg">
<path d="M12.8512 3.52017C14.328 4.37292 15.378 5.82567 15.7687 7.55967C15.9925 8.56373 15.9937 9.60457 15.7725 10.6092C15.5018 11.8617 14.0393 12.2457 12.9293 11.6052L5.81025 7.49517C4.70025 6.85392 4.30125 5.39517 5.25075 4.53417C6.00988 3.83998 6.91172 3.32033 7.893 3.01167C9.59025 2.48442 11.3745 2.66667 12.8512 3.52017ZM12.8512 3.52017C11.8252 2.92767 9.435 5.14767 7.512 8.47767M12.8512 3.52017C13.8765 4.11192 13.1482 7.29117 11.2252 10.6219M9.369 9.54942L6.6615 14.2399M11.9317 16.2837C10.6229 14.9751 8.8479 14.2401 6.99712 14.2401C5.14635 14.2401 3.37136 14.9751 2.0625 16.2837" stroke="#757575" stroke-linecap="round" stroke-linejoin="round"/>
</svg>
