<svg width="50" height="50" viewBox="0 0 50 50" fill="none" xmlns="http://www.w3.org/2000/svg">
<path d="M15.8667 43.7504V41.6671C14.9403 41.6671 14.1479 41.3372 13.4896 40.6775C12.8312 40.0177 12.5014 39.2268 12.5 38.3046V17.9504C12.5 17.0254 12.8299 16.2337 13.4896 15.5754C14.1493 14.9171 14.941 14.5865 15.8646 14.5837H20.6333V9.53581C20.6333 9.10525 20.7931 8.73025 21.1125 8.41081C21.4319 8.09136 21.8063 7.93164 22.2354 7.93164H27.7646C28.1951 7.93164 28.5701 8.09136 28.8896 8.41081C29.209 8.73025 29.3687 9.10525 29.3687 9.53581V14.5837H34.1354C35.0604 14.5837 35.8521 14.9136 36.5104 15.5733C37.1687 16.233 37.4986 17.0247 37.5 17.9483V38.3025C37.5 39.2275 37.1701 40.0191 36.5104 40.6775C35.8507 41.3358 35.059 41.6657 34.1354 41.6671V43.7504H32.0521V41.6671H17.9479V43.7504H15.8667ZM22.7167 14.5837H27.2833V10.0171H22.7167V14.5837ZM25 25.8025C26.8403 25.8025 28.6375 25.5678 30.3917 25.0983C32.1458 24.6289 33.8208 23.9261 35.4167 22.99V17.9483C35.4167 17.5747 35.2965 17.2678 35.0562 17.0275C34.816 16.7872 34.509 16.6671 34.1354 16.6671H15.8646C15.491 16.6671 15.184 16.7872 14.9437 17.0275C14.7035 17.2678 14.5833 17.5754 14.5833 17.9504V22.99C16.1806 23.9275 17.8562 24.6303 19.6104 25.0983C21.3646 25.5664 23.1611 25.8011 25 25.8025ZM23.9583 29.9691V27.8608C22.3139 27.7414 20.7097 27.4809 19.1458 27.0796C17.5819 26.6782 16.0611 26.1025 14.5833 25.3525V38.3025C14.5833 38.6761 14.7035 38.983 14.9437 39.2233C15.184 39.4636 15.4917 39.5837 15.8667 39.5837H34.1354C34.509 39.5837 34.816 39.4636 35.0562 39.2233C35.2965 38.983 35.4167 38.6761 35.4167 38.3025V25.3525C33.9375 26.1025 32.4167 26.6782 30.8542 27.0796C29.2917 27.4809 27.6875 27.7414 26.0417 27.8608V29.9691H23.9583Z" fill="#25466A"/>
</svg>
