<svg width="40" height="42" viewBox="0 0 40 42" fill="none" xmlns="http://www.w3.org/2000/svg">
<g clip-path="url(#clip0_849_12003)">
<path d="M36.6947 17.7966L36.7471 17.708C36.8254 17.5757 36.9038 17.4472 36.9809 17.3206C37.1599 17.027 37.3324 16.744 37.4828 16.4496L37.4833 16.4485C38.2498 14.9899 38.7145 13.4747 38.4768 11.8163L38.4768 11.8161C38.3631 11.0092 37.9883 10.4679 37.4914 10.2309C36.9953 9.99426 36.3504 10.0481 35.6682 10.488L35.6682 10.4881C35.2871 10.7336 34.9593 11.0599 34.6243 11.3933C34.5236 11.4936 34.4222 11.5945 34.3185 11.6941C34.1882 11.8193 34.0683 11.9561 33.9452 12.0965C33.9319 12.1117 33.9186 12.1268 33.9053 12.142C33.7692 12.297 33.628 12.4548 33.4692 12.5951M36.6947 17.7966L33.403 12.5202M36.6947 17.7966L36.7848 17.8465C37.4993 18.2414 38.211 18.6345 38.9198 19.0258L38.9215 19.0267C39.0427 19.0905 39.1605 19.1605 39.2747 19.2362M36.6947 17.7966L36.8844 17.673M33.4692 12.5951L33.403 12.5202M33.4692 12.5951C33.4692 12.5951 33.4693 12.595 33.4693 12.595L33.403 12.5202M33.4692 12.5951C32.9185 13.0834 32.2428 13.263 31.5502 13.3383L31.4664 13.3474L31.4433 13.2663C31.2895 12.7261 31.0554 12.3324 30.7468 12.0706C30.4393 11.8098 30.0492 11.6728 29.5689 11.6609L29.5666 11.6608C29.1226 11.6398 28.6842 11.7661 28.3194 12.02M33.403 12.5202C32.8747 12.9886 32.2231 13.1645 31.5394 13.2389C31.2245 12.1327 30.5693 11.5857 29.5714 11.5609C29.1053 11.5388 28.645 11.6714 28.2621 11.9381M28.3194 12.02C28.3195 12.02 28.3195 12.02 28.3195 12.02L28.2621 11.9381M28.3194 12.02C27.8672 12.3372 27.6357 12.7909 27.5429 13.336L27.5287 13.4193H27.4443H22.6692H22.5904L22.572 13.3428C22.4405 12.7991 22.2153 12.3923 21.9086 12.1161C21.6029 11.8408 21.2084 11.6884 20.7244 11.6663M28.3194 12.02C28.3194 12.0201 28.3193 12.0201 28.3193 12.0202L28.2621 11.9381M28.2621 11.9381C27.7828 12.2742 27.5404 12.7547 27.4443 13.3193H22.6692C22.3996 12.2041 21.7359 11.6123 20.7289 11.5664M36.8844 17.673C36.8834 17.6725 36.8825 17.6719 36.8816 17.6714L36.8332 17.7589L36.9193 17.8099C36.9198 17.809 36.9203 17.8082 36.9208 17.8073C37.6058 18.186 38.2883 18.5629 38.9681 18.9382C39.0925 19.0038 39.2136 19.0756 39.3308 19.1534M36.8844 17.673C36.9443 17.5729 37.0045 17.4742 37.0642 17.3763C37.2441 17.0811 37.4197 16.793 37.5718 16.495C38.3437 15.0262 38.8176 13.4891 38.5758 11.8021C38.3419 10.1423 37.02 9.49733 35.614 10.404L36.8844 17.673ZM39.3308 19.1534L39.2738 19.2356C39.2741 19.2358 39.2744 19.236 39.2747 19.2362M39.3308 19.1534C40.1685 19.7337 40.2532 20.9117 39.3912 21.4406M39.3308 19.1534L39.3912 21.4406M39.2747 19.2362C39.6682 19.5091 39.8817 19.92 39.8985 20.3205C39.9152 20.7193 39.7374 21.1109 39.3389 21.3554L39.3912 21.4406M39.2747 19.2362L39.3912 21.4406M39.3912 21.4406L39.3389 21.3554C39.1679 21.4603 38.9977 21.5664 38.8276 21.6724C37.6768 22.3894 36.5331 23.102 35.2151 23.4302L35.2144 23.4303C34.6196 23.5828 34.0085 23.663 33.3944 23.669M39.3912 21.4406L0.718596 15.7286C1.00724 16.3409 1.33377 16.9348 1.66357 17.5346C1.81238 17.8053 1.96186 18.0772 2.10883 18.3525C2.00749 18.4084 1.90197 18.4666 1.79344 18.5265C1.51682 18.6791 1.22062 18.8425 0.924109 19.0053M39.3912 21.4406C39.2212 21.545 39.0515 21.6507 38.8817 21.7566C37.732 22.473 36.5738 23.1949 35.2393 23.5272L39.3912 21.4406ZM33.3944 23.669C33.3943 23.669 33.3942 23.669 33.3941 23.669L33.3951 23.769L33.3949 23.669C33.3947 23.669 33.3946 23.669 33.3944 23.669ZM33.3944 23.669C29.8155 23.6754 26.2363 23.6755 22.6569 23.6755C17.543 23.6755 12.4289 23.6755 7.31518 23.6944H7.31516C5.61827 23.701 4.06443 23.3756 2.62677 22.4883C2.24888 22.2549 1.85486 22.044 1.46497 21.8352C1.30562 21.7499 1.14695 21.665 0.99036 21.579L0.990044 21.5789C0.474916 21.2985 0.139704 20.9194 0.138591 20.3391C0.137476 19.7575 0.463588 19.3723 0.972237 19.093C0.97224 19.093 0.972244 19.093 0.972247 19.093L0.924109 19.0053M0.924109 19.0053C0.395821 19.2954 0.0373827 19.7089 0.0385916 20.3393C0.0398005 20.9698 0.409119 21.3766 0.942243 21.6667L0.924109 19.0053ZM0.352728 11.203C0.216032 11.5914 0.134733 11.997 0.111228 12.408L0.111204 12.4085C0.0405576 13.5572 0.323429 14.6519 0.809061 15.686L0.352728 11.203ZM0.352728 11.203C0.535359 10.7046 0.873156 10.3554 1.27926 10.186C1.68528 10.0166 2.16733 10.0238 2.64521 10.253C3.02953 10.4375 3.37185 10.7219 3.71835 11.0098C3.75882 11.0434 3.79934 11.0771 3.83999 11.1106C4.08754 11.3193 4.30922 11.5568 4.5003 11.8182L4.5006 11.8186C5.30844 12.9117 6.43228 13.3615 7.73419 13.4119L7.73423 13.4119C8.31995 13.4344 8.90571 13.4326 9.49177 13.4247C9.49195 13.4247 9.49212 13.4247 9.4923 13.4247L9.49096 13.3247M0.352728 11.203L19.4206 12.0296M9.49096 13.3247C9.56833 13.3247 9.70131 13.2334 9.7134 13.1675C9.9032 12.1285 10.8395 11.541 11.7601 11.5609C12.7737 11.5827 13.4737 12.14 13.7547 13.1929C13.7603 13.2124 13.7657 13.2321 13.7716 13.2535C13.7772 13.2739 13.7833 13.296 13.7904 13.3211H18.5655C18.658 12.7571 18.8974 12.2826 19.3622 11.9484M9.49096 13.3247C8.90525 13.3326 8.32135 13.3344 7.73806 13.312L9.49096 13.3247ZM19.3622 11.9484L19.4205 12.0296C19.4206 12.0296 19.4206 12.0296 19.4206 12.0296M19.3622 11.9484L19.4206 12.0296M19.3622 11.9484C19.7696 11.6558 20.229 11.544 20.7289 11.5664M19.4206 12.0296C19.807 11.7521 20.2433 11.6447 20.7244 11.6663M20.7289 11.5664L20.7243 11.6663C20.7243 11.6663 20.7244 11.6663 20.7244 11.6663M20.7289 11.5664L20.7244 11.6663M38.8275 20.3294L38.669 20.4171C38.3898 20.5718 38.1176 20.7224 37.85 20.8704C37.3175 21.165 36.8035 21.4493 36.2895 21.7353C35.3849 22.2415 34.3641 22.5031 33.3276 22.4945H33.2954H33.2629H33.2303H33.1978H33.1652H33.1326H33.1001H33.0675H33.035H33.0024H32.9698H32.9373H32.9047H32.8722H32.8396H32.807H32.7745H32.7419H32.7094H32.6768H32.6442H32.6117H32.5791H32.5466H32.514H32.4814H32.4489H32.4163H32.3837H32.3512H32.3186H32.2861H32.2535H32.2209H32.1884H32.1558H32.1233H32.0907H32.0581H32.0256H31.993H31.9604H31.9279H31.8953H31.8628H31.8302H31.7976H31.7651H31.7325H31.6999H31.6674H31.6348H31.6023H31.5697H31.5371H31.5046H31.472H31.4394H31.4069H31.3743H31.3418H31.3092H31.2766H31.2441H31.2115H31.1789H31.1464H31.1138H31.0813H31.0487H31.0161H30.9836H30.951H30.9184H30.8859H30.8533H30.8207H30.7882H30.7556H30.7231H30.6905H30.6579H30.6254H30.5928H30.5602H30.5277H30.4951H30.4625H30.43H30.3974H30.3649H30.3323H30.2997H30.2672H30.2346H30.202H30.1695H30.1369H30.1043H30.0718H30.0392H30.0066H29.9741H29.9415H29.909H29.8764H29.8438H29.8113H29.7787H29.7461H29.7136H29.681H29.6484H29.6159H29.5833H29.5507H29.5182H29.4856H29.453H29.4205H29.3879H29.3553H29.3228H29.2902H29.2576H29.2251H29.1925H29.16H29.1274H29.0948H29.0623H29.0297H28.9971H28.9646H28.932H28.8994H28.8669H28.8343H28.8017H28.7692H28.7366H28.704H28.6715H28.6389H28.6063H28.5738H28.5412H28.5086H28.4761H28.4435H28.4109H28.3784H28.3458H28.3132H28.2807H28.2481H28.2155H28.183H28.1504H28.1178H28.0853H28.0527H28.0201H27.9875H27.955H27.9224H27.8898H27.8573H27.8247H27.7921H27.7596H27.727H27.6944H27.6619H27.6293H27.5967H27.5642H27.5316H27.499H27.4665H27.4339H27.4013H27.3688H27.3362H27.3036H27.2711H27.2385H27.2059H27.1733H27.1408H27.1082H27.0756H27.0431H27.0105H26.9779H26.9454H26.9128H26.8802H26.8477H26.8151H26.7825H26.75H26.7174H26.6848H26.6522H26.6197H26.5871H26.5545H26.522H26.4894H26.4568H26.4243H26.3917H26.3591H26.3265H26.294H26.2614H26.2288H26.1963H26.1637H26.1311H26.0986H26.066H26.0334H26.0008H25.9683H25.9357H25.9031H25.8706H25.838H25.8054H25.7729H25.7403H25.7077H25.6751H25.6426H25.61H25.5774H25.5449H25.5123H25.4797H25.4471H25.4146H25.382H25.3494H25.3169H25.2843H25.2517H25.2191H25.1866H25.154H25.1214H25.0889H25.0563H25.0237H24.9911H24.9586H24.926H24.8934H24.8609H24.8283H24.7957H24.7631H24.7306H24.698H24.6654H24.6329H24.6003H24.5677H24.5351H24.5026H24.47H24.4374H24.4048H24.3723H24.3397H24.3071H24.2746H24.242H24.2094H24.1768H24.1443H24.1117H24.0791H24.0465H24.014H23.9814H23.9488H23.9162H23.8837H23.8511H23.8185H23.786H23.7534H23.7208H23.6882H23.6557H23.6231H23.5905H23.5579H23.5254H23.4928H23.4602H23.4276H23.3951H23.3625H23.3299H23.2973H23.2648H23.2322H23.1996H23.1671H23.1345H23.1019H23.0693H23.0368H23.0042H22.9716H22.939H22.9065H22.8739H22.8413H22.8087H22.7762H22.7436H22.711H22.6784H22.6459H22.6133H22.5807H22.5481H22.5156H22.483H22.4504H22.4178H22.3853H22.3527H22.3201H22.2875H22.255H22.2224H22.1898H22.1572H22.1246H22.0921H22.0595H22.0269H21.9943H21.9618H21.9292H21.8966H21.864H21.8315H21.7989H21.7663H21.7337H21.7012H21.6686H21.636H21.6034H21.5709H21.5383H21.5057H21.4731H21.4405H21.408H21.3754H21.3428H21.3102H21.2777H21.2451H21.2125H21.1799H21.1474H21.1148H21.0822H21.0496H21.017H20.9845H20.9519H20.9193H20.8867H20.8542H20.8216H20.789H20.7564H20.7238H20.6913H20.6587H20.6261H20.5935H20.561H20.5284H20.4958H20.4632H20.4306H20.3981H20.3655H20.3329H20.3003H20.2678H20.2352H20.2026H20.17H20.1374H20.1049H20.0723H20.0397H20.0071H19.9745H19.942H19.9094H19.8768H19.8442H19.8116H19.7791H19.7465H19.7139H19.6813H19.6488H19.6162H19.5836H19.551H19.5184H19.4859H19.4533H19.4207H19.3881H19.3555H19.323H19.2904H19.2578H19.2252H19.1926H19.1601H19.1275H19.0949H19.0623H19.0297H18.9972H18.9646H18.932H18.8994H18.8668H18.8343H18.8017H18.7691H18.7365H18.7039H18.6714H18.6388H18.6062H18.5736H18.541H18.5084H18.4759H18.4433H18.4107H18.3781H18.3455H18.313H18.2804H18.2478H18.2152H18.1826H18.1501H18.1175H18.0849H18.0523H18.0197H17.9871H17.9546H17.922H17.8894H17.8568H17.8242H17.7917H17.7591H17.7265H17.6939H17.6613H17.6287H17.5962H17.5636H17.531H17.4984H17.4658H17.4333H17.4007H17.3681H17.3355H17.3029H17.2703H17.2378H17.2052H17.1726H17.14H17.1074H17.0748H17.0423H17.0097H16.9771H16.9445H16.9119H16.8793H16.8468H16.8142H16.7816H16.749H16.7164H16.6838H16.6513C15.5515 22.4945 14.4519 22.4932 13.3523 22.4919C11.1536 22.4894 8.9552 22.4868 6.75659 22.4945C5.64821 22.5077 4.55695 22.2204 3.59875 21.6631C3.07938 21.3627 2.55235 21.0761 2.00877 20.7805C1.79903 20.6665 1.58683 20.5511 1.37166 20.433L1.22588 20.3531L1.36486 20.2618C1.39758 20.2403 1.42853 20.2189 1.45825 20.1984C1.51284 20.1607 1.56331 20.1259 1.6131 20.0983L1.61329 20.0982L4.0156 18.7747C4.01565 18.7746 4.0157 18.7746 4.01574 18.7746C4.7281 18.3782 5.53021 18.1712 6.34541 18.1733C6.3455 18.1733 6.34559 18.1733 6.34567 18.1733M38.8275 20.3294L6.34541 18.2733L6.34567 18.1733M38.8275 20.3294L38.6688 20.242C38.4042 20.0965 38.1458 19.9565 37.8921 19.819C37.3394 19.5195 36.8094 19.2322 36.2884 18.9275M38.8275 20.3294L36.2884 18.9275M6.34567 18.1733L6.39828 18.1733H6.45115H6.50402H6.55689H6.60976H6.66263H6.7155H6.76837H6.82124H6.87411H6.92698H6.97985H7.03272H7.0856H7.13847H7.19134H7.24421H7.29708H7.34995H7.40282H7.45569H7.50856H7.56143H7.6143H7.66717H7.72004H7.77291H7.82578H7.87865H7.93152H7.98439H8.03726H8.09013H8.143H8.19587H8.24874H8.30161H8.35448H8.40735H8.46023H8.51309H8.56597H8.61884H8.67171H8.72458H8.77745H8.83032H8.88319H8.93606H8.98893H9.0418H9.09467H9.14754H9.20041H9.25328H9.30615H9.35902H9.41189H9.46476H9.51763H9.5705H9.62337H9.67624H9.72911H9.78198H9.83485H9.88772H9.9406H9.99347H10.0463H10.0992H10.1521H10.2049H10.2578H10.3107H10.3636H10.4164H10.4693H10.5222H10.575H10.6279H10.6808H10.7337H10.7865H10.8394H10.8923H10.9451H10.998H11.0509H11.1037H11.1566H11.2095H11.2624H11.3152H11.3681H11.421H11.4738H11.5267H11.5796H11.6324H11.6853H11.7382H11.7911H11.8439H11.8968H11.9497H12.0025H12.0554H12.1083H12.1612H12.214H12.2669H12.3198H12.3726H12.4255H12.4784H12.5312H12.5841H12.637H12.6899H12.7427H12.7956H12.8485H12.9013H12.9542H13.0071H13.0599H13.1128H13.1657H13.2186H13.2714H13.3243H13.3772H13.43H13.4829H13.5358H13.5887H13.6415H13.6944H13.7473H13.8001H13.853H13.9059H13.9587H14.0116H14.0645H14.1174H14.1702H14.2231H14.276H14.3288H14.3817H14.4346H14.4874H14.5403H14.5932H14.6461H14.6989H14.7518H14.8047H14.8575H14.9104H14.9633H15.0162H15.069H15.1219H15.1748H15.2276H15.2805H15.3334H15.3862H15.4391H15.492H15.5449H15.5977H15.6506H15.7035H15.7563H15.8092H15.8621H15.9149H15.9678H16.0207H16.0736H16.1264H16.1793H16.2322H16.285H16.3379H16.3908H16.4437H16.4965H16.5494H16.6023H16.6551H16.708H16.7609H16.8137H16.8666H16.9195H16.9724H17.0252H17.0781H17.131H17.1838H17.2367H17.2896H17.3424H17.3953H17.4482H17.5011H17.5539H17.6068H17.6597H17.7125H17.7654H17.8183H17.8712H17.924H17.9769H18.0298H18.0826H18.1355H18.1884H18.2412H18.2941H18.347H18.3999H18.4527H18.5056H18.5585H18.6113H18.6642H18.7171H18.7699H18.8228H18.8757H18.9286H18.9814H19.0343H19.0872H19.14H19.1929H19.2458H19.2987H19.3515H19.4044H19.4573H19.5101H19.563H19.6159H19.6687H19.7216H19.7745H19.8274H19.8802H19.9331H19.986H20.0388H20.0917H20.1446H20.1974H20.2503H20.3032H20.3561H20.4089H20.4618H20.5147H20.5675H20.6204H20.6733H20.7262H20.779H20.8319H20.8848H20.9376H20.9905H21.0434H21.0962H21.1491H21.202H21.2549H21.3077H21.3606H21.4135H21.4663H21.5192H21.5721H21.6249H21.6778H21.7307H21.7836H21.8364H21.8893H21.9422H21.995H22.0479H22.1008H22.1537H22.2065H22.2594H22.3123H22.3651H22.418H22.4709H22.5237H22.5766H22.6295H22.6824H22.7352H22.7881H22.841H22.8938H22.9467H22.9996H23.0524H23.1053H23.1582H23.2111H23.2639H23.3168H23.3697H23.4225H23.4754H23.5283H23.5812H23.634H23.6869H23.7398H23.7926H23.8455H23.8984H23.9512H24.0041H24.057H24.1099H24.1627H24.2156H24.2685H24.3213H24.3742H24.4271H24.4799H24.5328H24.5857H24.6386H24.6914H24.7443H24.7972H24.85H24.9029H24.9558H25.0087H25.0615H25.1144H25.1673H25.2201H25.273H25.3259H25.3787H25.4316H25.4845H25.5374H25.5902H25.6431H25.696H25.7488H25.8017H25.8546H25.9074H25.9603H26.0132H26.0661H26.1189H26.1718H26.2247H26.2775H26.3304H26.3833H26.4362H26.489H26.5419H26.5948H26.6476H26.7005H26.7534H26.8062H26.8591H26.912H26.9649H27.0177H27.0706H27.1235H27.1763H27.2292H27.2821H27.3349H27.3878H27.4407H27.4936H27.5464H27.5993H27.6522H27.705H27.7579H27.8108H27.8637H27.9165H27.9694H28.0223H28.0751H28.128H28.1809H28.2337H28.2866H28.3395H28.3924H28.4452H28.4981H28.551H28.6038H28.6567H28.7096H28.7624H28.8153H28.8682H28.9211H28.9739H29.0268H29.0797H29.1325H29.1854H29.2383H29.2912H29.344H29.3969H29.4498H29.5026H29.5555H29.6084H29.6612H29.7141H29.767H29.8199H29.8727H29.9256H29.9785H30.0313H30.0842H30.1371H30.1899H30.2428H30.2957H30.3486H30.4014H30.4543H30.5072H30.56H30.6129H30.6658H30.7187H30.7715H30.8244H30.8773H30.9301H30.983H31.0359H31.0887H31.1416H31.1945H31.2474H31.3002H31.3531H31.406H31.4588H31.5117H31.5646H31.6175H31.6703H31.7232H31.7761H31.8289H31.8818H31.9347H31.9875H32.0404H32.0933H32.1462H32.199H32.2519H32.3048H32.3576H32.4105H32.4634H32.5162H32.5691H32.622H32.6749H32.7277H32.7806H32.8335H32.8863H32.9392H32.9921H33.0449H33.0978H33.1507H33.2036H33.2564H33.3093H33.3622H33.415H33.4151C34.4343 18.1739 35.3956 18.4044 36.2884 18.9275M6.34567 18.1733L36.2884 18.9275M29.4059 12.8055C29.2642 12.8163 29.1351 12.8568 29.0263 12.9379C28.9172 13.0191 28.8357 13.1355 28.7805 13.286L28.7312 13.4205H28.8744H30.1268H30.2904L30.2159 13.2749C30.1238 13.0949 30.0082 12.9682 29.8673 12.8913C29.7267 12.8146 29.5704 12.7927 29.4059 12.8055ZM29.4059 12.8055C29.4059 12.8055 29.406 12.8055 29.406 12.8055L29.4136 12.9052L29.4058 12.8055C29.4058 12.8055 29.4059 12.8055 29.4059 12.8055ZM28.8744 13.3205V13.2205H28.9183C28.9022 13.2513 28.8876 13.2846 28.8744 13.3205ZM28.8744 13.3205L28.9683 13.3549C28.9727 13.343 28.9772 13.3316 28.9818 13.3205H28.8744ZM30.1268 13.3205L30.0378 13.366C30.0297 13.3502 30.0215 13.335 30.0132 13.3205H30.1268ZM30.1268 13.3205V13.2205H30.0692C30.0892 13.2512 30.1084 13.2845 30.1268 13.3205ZM12.5075 13.4205H12.3488H11.123H10.9955L11.0259 13.2966C11.0626 13.1468 11.1354 13.0323 11.238 12.9515C11.3394 12.8717 11.4629 12.8301 11.5934 12.8127L12.5075 13.4205ZM12.5075 13.4205L12.439 13.2773M12.5075 13.4205L12.439 13.2773M12.439 13.2773C12.3466 13.0842 12.2255 12.9527 12.0763 12.8777M12.439 13.2773L12.0763 12.8777M12.0763 12.8777C11.9279 12.8031 11.7631 12.7902 11.5934 12.8127L12.0763 12.8777ZM3.31663 17.6967L3.36772 17.7718L32.8735 16.9801C32.8735 16.9801 32.8735 16.9801 32.8736 16.9801C33.6986 16.9801 34.5065 17.0313 35.2983 17.2409L35.2989 17.241C35.3571 17.2561 35.4269 17.2514 35.4844 17.2382C35.5144 17.2313 35.5451 17.2213 35.5729 17.2075C35.5995 17.1943 35.6305 17.1743 35.6533 17.1441L35.6546 17.1424C36.7108 15.6813 37.4277 14.0876 37.3417 12.2182L37.3416 12.2168C37.3308 12.0373 37.296 11.8601 37.2381 11.6899C37.1822 11.5215 37.1026 11.3864 36.9719 11.325C36.8389 11.2624 36.687 11.2917 36.5268 11.3663L36.5267 11.3664C36.2935 11.4754 36.034 11.6049 35.8396 11.7953L35.8393 11.7957C35.4651 12.1656 35.1112 12.5555 34.7791 12.9636C34.1917 13.6855 33.3762 14.1861 32.4666 14.3833L32.4656 14.3835C32.2236 14.4387 31.9819 14.4852 31.7436 14.5311C31.6863 14.5421 31.6292 14.5531 31.5723 14.5642L31.4986 14.5785L31.4918 14.6533C31.4554 15.0542 31.4052 15.2848 31.3225 15.4167C31.2838 15.4784 31.2385 15.517 31.1823 15.5418C31.1239 15.5677 31.0478 15.5812 30.9442 15.5821C30.863 15.582 30.7673 15.5759 30.6843 15.5579C30.5955 15.5386 30.546 15.5109 30.528 15.4869C30.4524 15.3854 30.3949 15.2666 30.3392 15.1318C30.3183 15.0812 30.2969 15.0263 30.2747 14.9694C30.2403 14.8811 30.2039 14.7879 30.1646 14.6983L30.1384 14.6385H30.073H22.7127H22.6223L22.6132 14.7284C22.5775 15.0783 22.5249 15.2882 22.4428 15.4124C22.4037 15.4714 22.3582 15.5106 22.3026 15.5367C22.2456 15.5635 22.1729 15.5789 22.0771 15.5821C21.9965 15.5847 21.8997 15.5806 21.8158 15.5643C21.7252 15.5466 21.6764 15.5195 21.66 15.4976C21.5807 15.3914 21.5197 15.2683 21.4615 15.1319C21.439 15.0793 21.416 15.0222 21.3923 14.9635C21.3573 14.8768 21.3209 14.7863 21.2824 14.701L21.2559 14.6421H21.1913H13.817H13.7241L13.7173 14.7348C13.6917 15.0809 13.6412 15.2874 13.559 15.4106C13.4843 15.5228 13.3745 15.5778 13.1811 15.5907L13.181 15.5907C12.9427 15.6069 12.8224 15.5709 12.7335 15.4649C12.6848 15.4067 12.6402 15.3212 12.5974 15.1946C12.5548 15.0683 12.5158 14.9069 12.4753 14.7011L12.4594 14.6204H12.3772H12.0587C11.721 14.6204 11.3835 14.6212 11.0462 14.622C10.1663 14.6242 9.28751 14.6264 8.40862 14.6137L8.40859 14.6137C7.86989 14.6062 7.33214 14.5661 6.79827 14.4937L6.79824 14.4937C5.6387 14.337 4.66235 13.8636 3.95514 12.9018C3.68506 12.5302 3.37935 12.1859 3.04235 11.8738L3.04236 11.8738L3.04158 11.8731C2.78839 11.6435 2.49511 11.4624 2.17638 11.3389L2.17611 11.3388C1.95549 11.2541 1.75389 11.2494 1.59438 11.3512C1.43728 11.4514 1.34904 11.6374 1.31251 11.8694L1.3125 11.8693L1.3123 11.8707C1.27719 12.1162 1.26779 12.3646 1.28427 12.612C1.36971 14.2292 2.02067 15.6439 2.83514 16.9846C2.93502 17.1492 3.04697 17.3092 3.16 17.4707C3.21234 17.5455 3.26491 17.6206 3.31663 17.6967ZM35.3239 17.1442C35.3988 17.1636 35.5342 17.1358 35.5735 17.0838L35.3239 17.1442ZM21.2215 13.4205H21.3667L21.3149 13.2848C21.2478 13.1089 21.1468 12.9851 21.0164 12.9072C20.8875 12.8301 20.7391 12.8034 20.5858 12.804C20.4301 12.8047 20.2866 12.8379 20.1662 12.9189C20.045 13.0004 19.9567 13.1241 19.901 13.2883L19.8561 13.4205H19.9957H21.2215Z" fill="#25466A" stroke="white" stroke-width="0.2"/>
<path d="M29.7678 26.8049L29.7688 26.8057C29.9384 26.9419 30.0936 27.0952 30.2319 27.2631M29.7678 26.8049L35.0681 26.3429C35.6151 25.7036 36.2872 25.3249 37.1381 25.3208C37.3132 25.3208 37.4523 25.3715 37.5527 25.4569C37.6529 25.5422 37.7221 25.6687 37.7461 25.8347C37.7685 25.9905 37.7336 26.1493 37.6552 26.2691C37.578 26.3871 37.4602 26.4657 37.3102 26.473C36.4554 26.5134 35.9814 27.0553 35.5378 27.621C35.1281 28.1425 34.6855 28.6197 34.0881 28.8873C33.8613 28.9876 33.6218 29.0534 33.3741 29.1215C33.2637 29.1519 33.1516 29.1827 33.0383 29.2172C32.1527 29.1453 31.467 28.7566 30.9086 28.1083C30.7927 27.9736 30.6833 27.8327 30.5725 27.6894L30.5635 27.6779C30.4562 27.5392 30.3473 27.3984 30.2319 27.2631M29.7678 26.8049C29.4948 26.5914 29.1978 26.4742 28.8981 26.4718C28.5975 26.4694 28.3041 26.5827 28.0405 26.8125L28.0404 26.8125M29.7678 26.8049L28.0404 26.8125M30.2319 27.2631C30.2321 27.2633 30.2323 27.2635 30.2325 27.2637L30.1553 27.3273L30.2314 27.2624C30.2315 27.2626 30.2317 27.2629 30.2319 27.2631ZM28.0404 26.8125C27.6634 27.1414 27.3384 27.532 27.0232 27.9109L26.9897 27.9512L26.9896 27.9512M28.0404 26.8125L26.9896 27.9512M26.9896 27.9512C26.6142 28.4026 26.2104 28.7824 25.6681 28.9796C24.5869 29.3725 23.3594 28.998 22.5395 28.0076L22.4624 28.0714M26.9896 27.9512L22.4624 28.0714M22.4624 28.0714L22.5395 28.0076C22.4402 27.8877 22.3456 27.7642 22.2498 27.639C22.2263 27.6083 22.2027 27.5775 22.179 27.5466C22.0591 27.3908 21.9358 27.2342 21.8014 27.0865C21.4563 26.7072 21.0681 26.5012 20.665 26.4908C20.2619 26.4804 19.8644 26.6662 19.5019 27.0287C19.3355 27.195 19.1821 27.3731 19.0319 27.5491C19.0209 27.562 19.0099 27.5749 18.999 27.5877C18.8595 27.7513 18.7222 27.9123 18.5763 28.0643C18.088 28.5717 17.5533 28.9853 16.8585 29.1186L16.8773 29.2168L16.8585 29.1186C16.0592 29.2719 15.3643 29.0579 14.793 28.4889L14.7929 28.4888M22.4624 28.0714L14.7929 28.4888M14.7929 28.4888C14.6219 28.319 14.4637 28.1353 14.3048 27.9471C14.2834 27.9219 14.2621 27.8965 14.2406 27.871C14.1036 27.7084 13.9646 27.5434 13.8177 27.3861C13.6122 27.1565 13.3828 26.9494 13.1335 26.7683L13.1335 26.7682M14.7929 28.4888L13.1335 26.7682M13.1335 26.7682L13.1316 26.7669M13.1335 26.7682L13.1316 26.7669M13.1316 26.7669C12.8365 26.5631 12.5163 26.472 12.2012 26.4966C11.8861 26.5211 11.5835 26.6607 11.3224 26.9056L11.3223 26.9056M13.1316 26.7669L11.3223 26.9056M11.3223 26.9056C11.1719 27.0469 11.0361 27.2117 10.9054 27.3704C10.8429 27.4463 10.7815 27.5209 10.7202 27.5908C10.6361 27.6865 10.5564 27.7828 10.4779 27.8776C10.3005 28.0919 10.1291 28.299 9.92604 28.4774L9.92603 28.4774M11.3223 26.9056L9.92603 28.4774M9.92603 28.4774C8.82643 29.4441 7.28298 29.3688 6.26838 28.3069C5.99806 28.0145 5.74412 27.7074 5.50773 27.387L5.50774 27.387M9.92603 28.4774L5.50774 27.387M5.50774 27.387L5.50671 27.3856M5.50774 27.387L5.50671 27.3856M5.50671 27.3856C5.17368 26.9499 4.7636 26.6258 4.19442 26.5267C4.07389 26.501 3.95636 26.4627 3.84373 26.4127L3.84376 26.4126M5.50671 27.3856L3.84376 26.4126M3.84376 26.4126L3.84024 26.4112M3.84376 26.4126L3.84024 26.4112M3.84024 26.4112C3.66756 26.3421 3.56828 26.268 3.51433 26.1862C3.46199 26.1068 3.44273 26.0054 3.46272 25.8589C3.48699 25.6874 3.54968 25.5575 3.64067 25.4687C3.73104 25.3806 3.8572 25.3253 4.02362 25.3164L4.02364 25.3164M3.84024 26.4112L4.02364 25.3164M4.02364 25.3164C4.66289 25.2821 5.22707 25.476 5.68507 25.915L5.68519 25.9151L4.02364 25.3164ZM7.27659 27.6108L7.27606 27.6104C7.02707 27.4081 6.80619 27.1641 6.59481 26.9306C6.56452 26.8971 6.53443 26.8639 6.50447 26.831C6.50439 26.8309 6.5043 26.8308 6.50421 26.8307L7.27659 27.6108ZM7.27659 27.6108C7.59526 27.8662 7.93379 27.9936 8.27259 27.9794C8.61156 27.9651 8.93706 27.8097 9.23051 27.5254L9.16094 27.4536L9.23034 27.5256C9.46226 27.302 9.66334 27.0436 9.85839 26.7929C9.92263 26.7103 9.98622 26.6285 10.05 26.5492L10.0503 26.5488M7.27659 27.6108L10.0503 26.5488M10.0503 26.5488C10.5056 25.9769 11.0324 25.5307 11.7455 25.3815L11.7455 25.3815M10.0503 26.5488L11.7455 25.3815M11.7455 25.3815C12.8002 25.1606 13.6731 25.5003 14.3877 26.2929C14.5057 26.4239 14.6147 26.564 14.7253 26.7078C14.7346 26.7198 14.7438 26.7319 14.7531 26.744C14.854 26.8752 14.9569 27.0091 15.067 27.137M11.7455 25.3815L15.6173 27.676M15.6173 27.676L15.6173 27.676C15.4166 27.5148 15.2323 27.3342 15.067 27.137M15.6173 27.676L15.6186 27.6771M15.6173 27.676L15.6186 27.6771M15.067 27.137C15.0668 27.1368 15.0667 27.1366 15.0665 27.1364L15.1432 27.0722L15.0674 27.1375C15.0672 27.1373 15.0671 27.1371 15.067 27.137ZM15.6186 27.6771C15.8829 27.8821 16.1614 27.9974 16.4443 28.002C16.7284 28.0066 17.0047 27.8994 17.2628 27.6818L17.2629 27.6817M15.6186 27.6771L17.2629 27.6817M17.2629 27.6817C17.673 27.3349 18.0342 26.9249 18.3751 26.5174L18.3751 26.5174M17.2629 27.6817L18.3751 26.5174M18.3751 26.5174C18.8205 25.9843 19.2869 25.5345 19.958 25.3867L19.958 25.3867M18.3751 26.5174L19.958 25.3867M19.958 25.3867C21.0618 25.1433 21.9467 25.5758 22.7112 26.3599C22.8437 26.4959 22.9648 26.6443 23.0864 26.7977C23.1082 26.8253 23.13 26.853 23.152 26.8808C23.2515 27.007 23.3529 27.1355 23.46 27.2583L23.5349 27.1929L19.958 25.3867ZM30.1625 25.5411L30.1117 25.6273C29.1707 25.0721 28.0373 25.2317 27.1141 26.0621C26.9149 26.2416 26.7332 26.4422 26.5535 26.6508C26.4983 26.7147 26.4432 26.7797 26.3877 26.845C26.2637 26.9911 26.1383 27.1388 26.0089 27.2804L30.1625 25.5411ZM30.1625 25.5411L30.1117 25.6273C30.399 25.7967 30.6417 26.0489 30.8908 26.3078C30.9356 26.3543 30.9806 26.4011 31.0261 26.4476M30.1625 25.5411L31.0976 26.3777M34.2519 27.3541L34.2518 27.3541C33.8898 27.7519 33.5037 27.9721 33.0993 27.9872C32.6945 28.0024 32.2958 27.8112 31.9106 27.4391M34.2519 27.3541L31.5018 26.8357C31.3708 26.6795 31.2397 26.5232 31.0976 26.3777M34.2519 27.3541C34.3999 27.1912 34.5355 27.0184 34.6677 26.8471M34.2519 27.3541L34.6677 26.8471M31.9106 27.4391L31.9801 27.3672L31.9106 27.4391C31.9106 27.4391 31.9106 27.4391 31.9106 27.4391ZM31.9106 27.4391C31.748 27.2821 31.6016 27.1101 31.4593 26.9406C31.4481 26.9272 31.4368 26.9138 31.4256 26.9005C31.2941 26.7437 31.1654 26.5902 31.0261 26.4476M31.0261 26.4476L31.0976 26.3777M31.0261 26.4476C31.0261 26.4476 31.0261 26.4476 31.0261 26.4476L31.0976 26.3777M34.6677 26.8471C34.6839 26.8261 34.7001 26.8052 34.7162 26.7842M34.6677 26.8471L34.7162 26.7842M34.7162 26.7842C34.8323 26.6336 34.9467 26.4853 35.068 26.343L34.7162 26.7842Z" fill="#25466A" stroke="white" stroke-width="0.2"/>
<path d="M8.22297 31.9022L8.22297 31.9023C9.03552 31.9231 9.69771 31.5457 10.2474 30.9293L10.248 30.9286C10.4014 30.7596 10.5434 30.5798 10.6878 30.397C10.6998 30.3817 10.7119 30.3664 10.724 30.3511C10.8801 30.1536 11.0401 29.9538 11.2169 29.7687C11.523 29.4479 11.8744 29.274 12.2422 29.2566C12.6094 29.2392 12.9792 29.3787 13.3218 29.6587L13.3223 29.6591C13.4887 29.7969 13.644 29.9476 13.7867 30.1099M8.22297 31.9022L21.7347 29.9223C21.4881 29.6352 21.1877 29.4243 20.7929 29.3753L20.8053 29.2761C20.8053 29.2761 20.8053 29.2761 20.8053 29.2761C20.2134 29.2022 19.78 29.4809 19.4186 29.8679C19.2738 30.0219 19.1357 30.1782 18.9988 30.3333C18.7512 30.6137 18.5071 30.89 18.2338 31.141C17.6029 31.7198 16.8827 32.0511 16.0089 31.8888L16.0088 31.8888C15.434 31.7822 14.9707 31.4931 14.591 31.0515L14.5151 31.1167M8.22297 31.9022H8.22041M8.22297 31.9022H8.22041M13.7867 30.1099C13.9627 30.3077 14.1345 30.5116 14.3053 30.7143C14.4007 30.8275 14.4957 30.9404 14.5911 31.0516L14.5151 31.1167M13.7867 30.1099C13.7868 30.11 13.7869 30.1101 13.7869 30.1102L13.7118 30.1762M13.7867 30.1099C13.7867 30.1099 13.7866 30.1098 13.7865 30.1097L13.7118 30.1762M14.5151 31.1167C14.908 31.5737 15.391 31.8759 15.9906 31.9871L13.7118 30.1762M14.5151 31.1167C14.4186 31.0041 14.323 30.8906 14.2274 30.7771C14.0572 30.5751 13.8871 30.3732 13.7118 30.1762M8.22041 31.9022C7.14268 31.9022 6.41229 31.3494 5.80601 30.5365L5.80601 30.5365M8.22041 31.9022L5.80601 30.5365M5.80601 30.5365C5.75078 30.4624 5.69342 30.3905 5.63708 30.32L5.63095 30.3123C5.57641 30.244 5.52292 30.1771 5.47147 30.1088L5.47143 30.1087M5.80601 30.5365L5.47143 30.1087M5.47143 30.1087C5.15256 29.6859 4.74785 29.3835 4.20101 29.2891C4.07061 29.2629 3.94348 29.2224 3.82193 29.1685L3.82195 29.1684M5.47143 30.1087L3.82195 29.1684M3.82195 29.1684L3.81926 29.1673M3.82195 29.1684L3.81926 29.1673M3.81926 29.1673C3.69166 29.115 3.59466 29.0518 3.53327 28.9724C3.47432 28.8962 3.44177 28.797 3.4576 28.6563L3.45765 28.6559M3.81926 29.1673L3.45765 28.6559M3.45765 28.6559C3.47673 28.4793 3.52946 28.3485 3.60971 28.2582C3.68871 28.1693 3.80267 28.1102 3.96375 28.0917C4.66704 28.0121 5.26754 28.2532 5.76644 28.751L5.76678 28.7513M3.45765 28.6559L5.76678 28.7513M5.76678 28.7513C5.91604 28.8988 6.05399 29.0598 6.19206 29.2258C6.22101 29.2606 6.25 29.2957 6.27912 29.3309C6.38774 29.4624 6.49798 29.5957 6.61305 29.7236C6.8061 29.9481 7.01567 30.1579 7.24001 30.3511L7.23999 30.3511M5.76678 28.7513L7.23999 30.3511M7.23999 30.3511L7.24198 30.3527M7.23999 30.3511L7.24198 30.3527M7.24198 30.3527C7.56999 30.6209 7.92455 30.7535 8.27819 30.737C8.63198 30.7205 8.97158 30.5554 9.27057 30.2533C9.51673 30.0055 9.73103 29.7255 9.94057 29.4517C9.96987 29.4134 9.99907 29.3753 10.0283 29.3373C10.6904 28.4817 11.5011 27.9826 12.6054 28.0924C13.3808 28.1697 13.9858 28.556 14.4811 29.1527L14.4814 29.1529M7.24198 30.3527L14.4814 29.1529M14.4814 29.1529C14.5897 29.2824 14.6933 29.4161 14.7981 29.5514L14.8038 29.5589C14.9064 29.6913 15.0102 29.8254 15.1188 29.956M14.4814 29.1529L23.535 30.1006M23.535 30.1006L23.5349 30.1006C23.4095 29.9594 23.292 29.8116 23.1766 29.666L23.1683 29.6554C23.0552 29.5127 22.944 29.3723 22.8261 29.2382C22.3045 28.6449 21.6794 28.2229 20.8993 28.1064C19.9366 27.9661 19.1711 28.3384 18.5444 29.0726C18.5019 29.1229 18.4594 29.1733 18.4168 29.2239C18.0894 29.6128 17.7577 30.0067 17.3779 30.3512C17.081 30.6227 16.7704 30.761 16.4493 30.7577C16.1292 30.7544 15.816 30.6108 15.5125 30.3534C15.3699 30.2327 15.2382 30.0997 15.1188 29.956M23.535 30.1006C23.8972 30.508 24.309 30.7248 24.7336 30.7271C25.1581 30.7294 25.5733 30.5172 25.9424 30.1124L25.9424 30.1124M23.535 30.1006L25.9424 30.1124M15.1188 29.956L15.1957 29.8921M15.1188 29.956C15.1188 29.956 15.1189 29.956 15.1189 29.9561L15.1957 29.8921M15.1957 29.8921C15.3114 30.0313 15.439 30.1602 15.5772 30.2771M15.1957 29.8921C15.0882 29.7629 14.9853 29.63 14.8825 29.4971L15.5772 30.2771M15.5772 30.2771C16.1617 30.7728 16.7431 30.7964 17.3107 30.2771C17.6852 29.9374 18.0123 29.549 18.3402 29.1596L15.5772 30.2771ZM25.9424 30.1124C26.0421 30.0029 26.1329 29.8842 26.2204 29.7697C26.2369 29.7481 26.2532 29.7268 26.2695 29.7056C26.3738 29.5701 26.4764 29.4423 26.5939 29.3322L26.594 29.3322M25.9424 30.1124L26.594 29.3322M26.594 29.3322C26.6105 29.3166 26.627 29.3011 26.6436 29.2856C26.9923 28.9581 27.3413 28.6302 27.7385 28.4044L27.7386 28.4044M26.594 29.3322L27.7386 28.4044M27.7386 28.4044C28.8335 27.7805 30.0177 28.0254 30.844 28.9871L30.8441 28.9872M27.7386 28.4044L30.8441 28.9872M30.8441 28.9872C30.9229 29.0787 31.0015 29.1714 31.0804 29.2644C31.3789 29.6165 31.6822 29.9742 32.0203 30.2925C32.3477 30.6007 32.6955 30.7577 33.0535 30.752C33.4105 30.7462 33.7595 30.5789 34.0907 30.2753L34.0907 30.2753M30.8441 28.9872L34.0907 30.2753M34.0907 30.2753L34.0932 30.273M34.0907 30.2753L34.0932 30.273M34.0932 30.273C34.2683 30.1011 34.4323 29.9183 34.5842 29.7255C34.6692 29.6244 34.7512 29.5195 34.8319 29.4163C34.8627 29.377 34.8932 29.338 34.9236 29.2995C35.0354 29.1581 35.1474 29.0219 35.2696 28.897L35.2696 28.897M34.0932 30.273L35.2696 28.897M35.2696 28.897C35.7719 28.3837 36.3773 28.093 37.1045 28.0808C37.2976 28.0778 37.448 28.1288 37.5542 28.2169C37.66 28.3046 37.7314 28.4369 37.753 28.6149L37.7531 28.6151M35.2696 28.897L37.7531 28.6151M37.7531 28.6151C37.7921 28.9317 37.5967 29.2235 37.2623 29.2441L37.2684 29.3439M37.7531 28.6151L37.2684 29.3439M37.2684 29.3439L37.2623 29.2441C36.4917 29.2916 36.0334 29.7526 35.6228 30.2791M37.2684 29.3439L35.6228 30.2791M35.6228 30.2791L35.7017 30.3406M35.6228 30.2791L35.7017 30.3406M35.7017 30.3406L35.6229 30.279C35.3904 30.5763 35.1357 30.8554 34.8608 31.1139M35.7017 30.3406L34.8608 31.1139M35.7017 30.3406C35.4661 30.6419 35.2078 30.9248 34.9292 31.1868M35.7017 30.3406L34.9292 31.1868M34.8608 31.1139L34.9292 31.1868M34.8608 31.1139C34.8607 31.1139 34.8607 31.114 34.8607 31.114L34.9292 31.1868M34.8608 31.1139C34.2503 31.6867 33.5492 31.9478 32.8669 31.9138C32.1845 31.8798 31.5101 31.5501 30.9544 30.9212L34.8608 31.1139ZM34.9292 31.1868C33.6737 32.3649 32.0218 32.2803 30.8794 30.9874L34.9292 31.1868ZM30.1004 29.8647L30.0265 29.932L30.9543 30.9211C30.8403 30.792 30.7362 30.6579 30.6299 30.521C30.5767 30.4525 30.523 30.3833 30.4672 30.3137L30.4669 30.3133C30.4316 30.2698 30.3963 30.2249 30.3605 30.1794C30.2777 30.0741 30.1925 29.9658 30.1005 29.8647C30.1005 29.8647 30.1004 29.8647 30.1004 29.8647Z" fill="#25466A" stroke="white" stroke-width="0.2"/>
</g>
<defs>
<clipPath id="clip0_849_12003">
<rect width="39.9991" height="40.0606" fill="white" transform="translate(0.000457764 0.96875)"/>
</clipPath>
</defs>
</svg>
