<svg width="40" height="40" viewBox="0 0 40 40" fill="none" xmlns="http://www.w3.org/2000/svg">
<path d="M34.4459 20.8295H34.1384V10.6103L34.1337 10.329H34.1152C33.8537 7.46742 31.4619 5.26367 28.5565 5.26367C26.3002 5.26367 24.2442 6.65234 23.3911 8.73445C23.0705 8.74102 22.751 8.80867 22.4472 8.93813C21.823 9.20414 21.3397 9.69734 21.0863 10.3272L21.0724 10.3619C20.9991 10.5438 21.0011 10.7435 21.078 10.9239C21.1549 11.1045 21.2974 11.2441 21.4795 11.3173L24.8302 12.6655C24.9196 12.7016 25.0122 12.7186 25.1031 12.7186C25.3943 12.7186 25.6705 12.5445 25.7856 12.258L25.7997 12.2232C26.053 11.5937 26.0459 10.9032 25.7799 10.2791C25.6606 9.99883 25.495 9.74727 25.2922 9.53195C25.8259 8.20602 27.1174 7.32609 28.5565 7.32609C30.4971 7.32609 32.0759 8.90484 32.0759 10.8455V20.8295H15.7234C15.5762 20.5531 15.2853 20.3645 14.9509 20.3645H11.0759C10.7416 20.3645 10.4507 20.5531 10.3034 20.8295H5.55501C5.27134 20.8295 5.00384 20.94 4.80118 21.1414C4.60001 21.3427 4.48907 21.61 4.48907 21.8945C4.48907 22.4817 4.96728 22.9595 5.55509 22.9595H6.30517V32.207C6.30517 32.9209 6.88626 33.5016 7.60072 33.5016H8.63853V34.2824C8.63853 34.5323 8.84189 34.7358 9.09181 34.7358H9.98173C10.2317 34.7358 10.435 34.5323 10.435 34.2824V33.5016H30.1385V34.2824C30.1385 34.5323 30.342 34.7358 30.5919 34.7358H31.4818C31.7317 34.7358 31.9352 34.5323 31.9352 34.2824V33.5016H32.8551C33.5695 33.5016 34.1509 32.9208 34.1509 32.207V22.9595H34.4461C34.7304 22.9595 34.9977 22.8486 35.1992 22.6473C35.4002 22.4463 35.511 22.1788 35.511 21.8945C35.5109 21.3072 35.0333 20.8295 34.4459 20.8295ZM25.2777 12.0137L25.2637 12.0484C25.2284 12.1363 25.1277 12.1791 25.0402 12.1438L21.6895 10.7956C21.6469 10.7785 21.6134 10.7458 21.5955 10.7035C21.5776 10.6613 21.577 10.6146 21.5944 10.5716L21.6083 10.5369C22.0154 9.52516 23.17 9.0332 24.1813 9.44039C24.6713 9.6375 25.0554 10.0138 25.2625 10.4998C25.4695 10.9857 25.475 11.5233 25.2777 12.0137ZM28.5565 6.76375C26.949 6.76375 25.5003 7.7107 24.8425 9.15445C24.7018 9.06203 24.5511 8.98281 24.3913 8.91852C24.2562 8.86414 24.1181 8.8225 23.9786 8.79203C24.7826 7.00641 26.5844 5.82625 28.5566 5.82625C31.2505 5.82625 33.4533 7.93313 33.5717 10.6227L33.5759 10.6944V20.8291H32.6384V10.8456C32.6384 8.59492 30.8074 6.76375 28.5565 6.76375ZM10.7635 21.2395C10.7635 21.0671 10.9037 20.927 11.076 20.927H14.9509C15.1233 20.927 15.2635 21.0671 15.2635 21.2395V27.7941H10.7635V21.2395ZM10.7635 28.3566H15.2635V28.6613C15.2635 28.8336 15.1233 28.9738 14.9509 28.9738H11.076C10.9037 28.9738 10.7635 28.8336 10.7635 28.6613V28.3566ZM6.30517 22.397H5.55509C5.27751 22.397 5.05165 22.1716 5.05165 21.8945C5.05165 21.7603 5.104 21.6343 5.19845 21.5399C5.29447 21.4445 5.42111 21.392 5.55509 21.392H10.201V22.3969L6.30517 22.397ZM10.201 22.9595V25.2863H6.86759V22.9595H10.201ZM9.87243 34.1732H9.20095V33.5017H9.87243V34.1732ZM31.3725 34.1732H30.7009V33.5017H31.3725V34.1732ZM33.5881 32.207C33.5881 32.6107 33.2593 32.9391 32.8549 32.9391H7.60072C7.1965 32.9391 6.86759 32.6107 6.86759 32.207V25.8488H10.201V28.6613C10.201 29.1438 10.5935 29.5363 11.076 29.5363H14.9509C15.4335 29.5363 15.826 29.1438 15.826 28.6613V25.8488H33.5881V32.207ZM33.5881 25.2863H15.826V22.9595H33.5881V25.2863ZM34.8012 22.2496C34.7063 22.3447 34.5801 22.397 34.4459 22.397H34.1507H15.826V21.392H34.4459C34.7231 21.392 34.9484 21.6173 34.9484 21.8945C34.9484 22.0286 34.8961 22.1546 34.8012 22.2496Z" fill="#757575" stroke="#757575" stroke-width="0.4"/>
<path d="M21.2052 16.1205L21.729 16.3252L22.9718 13.1453L22.4479 12.9405L21.2052 16.1205Z" fill="#757575" stroke="#757575" stroke-width="0.4"/>
<path d="M24.0832 14.0084L23.5592 13.8037L22.6068 16.2414L23.1308 16.4461L24.0832 14.0084Z" fill="#757575" stroke="#757575" stroke-width="0.4"/>
<path d="M20.0985 15.2601L20.6224 15.4648L21.575 13.0272L21.0512 12.8225L20.0985 15.2601Z" fill="#757575" stroke="#757575" stroke-width="0.4"/>
</svg>
