<svg width="40" height="40" viewBox="0 0 40 40" fill="none" xmlns="http://www.w3.org/2000/svg">
<path d="M32.0473 7.7666H7.964C6.64747 7.7666 5.38485 8.28959 4.45392 9.22052C3.52299 10.1515 3 11.4141 3 12.7306V36.0999C3 36.4005 3.1194 36.6888 3.33195 36.9013C3.54449 37.1139 3.83275 37.2333 4.13333 37.2333H8.66667C8.92556 37.2408 9.17923 37.1595 9.38543 37.0027C9.59164 36.846 9.73795 36.6234 9.8 36.3719L10.684 32.6999H29.316L30.2 36.3719C30.2621 36.6234 30.4084 36.846 30.6146 37.0027C30.8208 37.1595 31.0744 37.2408 31.3333 37.2333H35.8667C36.1672 37.2333 36.4555 37.1139 36.6681 36.9013C36.8806 36.6888 37 36.4005 37 36.0999V12.7306C37 11.416 36.4786 10.1551 35.5501 9.22452C34.6216 8.29392 33.3619 7.7696 32.0473 7.7666ZM9.8 30.4333H5.26667V24.7666H34.7333V30.4333H9.8ZM10.9333 18.5786V17.3546C10.9362 17.2172 10.9921 17.0863 11.0892 16.9892C11.1864 16.892 11.3173 16.8362 11.4547 16.8333H16.0787C16.216 16.8362 16.347 16.892 16.4441 16.9892C16.5413 17.0863 16.5971 17.2172 16.6 17.3546V18.5786C16.5971 18.716 16.5413 18.8469 16.4441 18.944C16.347 19.0412 16.216 19.097 16.0787 19.0999H11.4547C11.3173 19.097 11.1864 19.0412 11.0892 18.944C10.9921 18.8469 10.9362 18.716 10.9333 18.5786ZM9.018 21.3666H30.982C31.0752 21.3666 31.1645 21.4036 31.2304 21.4695C31.2963 21.5354 31.3333 21.6248 31.3333 21.7179V22.4999H8.66667V21.7179C8.66667 21.6248 8.70368 21.5354 8.76957 21.4695C8.83546 21.4036 8.92482 21.3666 9.018 21.3666ZM23.4 18.5786V17.3546C23.4029 17.2172 23.4587 17.0863 23.5559 16.9892C23.653 16.892 23.784 16.8362 23.9213 16.8333H28.5453C28.6827 16.8362 28.8136 16.892 28.9108 16.9892C29.0079 17.0863 29.0638 17.2172 29.0667 17.3546V18.5786C29.0638 18.716 29.0079 18.8469 28.9108 18.944C28.8136 19.0412 28.6827 19.097 28.5453 19.0999H23.9213C23.784 19.097 23.653 19.0412 23.5559 18.944C23.4587 18.8469 23.4029 18.716 23.4 18.5786ZM5.26667 12.7306C5.26965 12.0161 5.55479 11.3318 6.05999 10.8266C6.5652 10.3214 7.24954 10.0363 7.964 10.0333H32.0473C32.7607 10.0363 33.4439 10.3218 33.9473 10.8273C34.4507 11.3328 34.7333 12.0172 34.7333 12.7306V22.4999H33.6V21.7179C33.6082 21.0797 33.382 20.4607 32.9642 19.9782C32.5464 19.4956 31.9661 19.1831 31.3333 19.0999C31.3696 18.917 31.3885 18.7311 31.39 18.5446V17.3546C31.3901 16.9837 31.3161 16.6164 31.1725 16.2744C31.0288 15.9324 30.8184 15.6225 30.5535 15.3629C30.2886 15.1032 29.9745 14.8991 29.6297 14.7623C29.2848 14.6256 28.9162 14.5591 28.5453 14.5666H23.9213C23.5552 14.5666 23.1927 14.6387 22.8544 14.7788C22.5162 14.9189 22.2088 15.1243 21.9499 15.3832C21.691 15.6421 21.4857 15.9494 21.3456 16.2877C21.2054 16.6259 21.1333 16.9885 21.1333 17.3546V18.5786C21.1347 18.7538 21.1537 18.9285 21.19 19.0999H18.8667C18.903 18.9285 18.9219 18.7538 18.9233 18.5786V17.3546C18.9234 16.9837 18.8495 16.6164 18.7058 16.2744C18.5622 15.9324 18.3517 15.6225 18.0868 15.3629C17.8219 15.1032 17.5078 14.8991 17.163 14.7623C16.8182 14.6256 16.4495 14.5591 16.0787 14.5666H11.4547C10.7152 14.5666 10.0061 14.8603 9.48325 15.3832C8.9604 15.906 8.66667 16.6152 8.66667 17.3546V18.5786C8.64938 18.7633 8.64938 18.9492 8.66667 19.1339C8.0397 19.2164 7.46409 19.524 7.04708 19.9994C6.63007 20.4748 6.4001 21.0856 6.4 21.7179V22.4999H5.26667V12.7306ZM7.78267 34.9666H5.26667V32.6999H8.34933L7.78267 34.9666ZM34.7333 34.9666H32.2173L31.6507 32.6999H34.7333V34.9666Z" fill="#757575" stroke="#F8F8F8"/>
</svg>
