<svg width="24" height="24" viewBox="0 0 24 24" fill="none" xmlns="http://www.w3.org/2000/svg">
<path d="M9 20.4H5C4.23137 20.4 3.6 19.7686 3.6 19V5C3.6 4.23137 4.23137 3.6 5 3.6H9C9.76863 3.6 10.4 4.23137 10.4 5V19C10.4 19.7686 9.76863 20.4 9 20.4ZM19 20.4H15C14.2314 20.4 13.6 19.7686 13.6 19V14C13.6 13.2314 14.2314 12.6 15 12.6H19C19.7686 12.6 20.4 13.2314 20.4 14V19C20.4 19.7686 19.7686 20.4 19 20.4ZM20.4 5V8C20.4 8.76863 19.7686 9.4 19 9.4H15C14.2314 9.4 13.6 8.76863 13.6 8V5C13.6 4.23137 14.2314 3.6 15 3.6H19C19.7686 3.6 20.4 4.23137 20.4 5Z" stroke="#25466A" stroke-width="1.2"/>
</svg>
