<svg width="40" height="40" viewBox="0 0 40 40" fill="none" xmlns="http://www.w3.org/2000/svg">
<path d="M26.0714 23.5711C25.7872 23.5711 25.5147 23.684 25.3137 23.885C25.1128 24.0859 24.9999 24.3584 24.9999 24.6426C24.9999 24.9267 25.1128 25.1993 25.3137 25.4002C25.5147 25.6011 25.7872 25.714 26.0714 25.714H31.0714C31.3555 25.714 31.628 25.6011 31.829 25.4002C32.0299 25.1993 32.1428 24.9267 32.1428 24.6426C32.1428 24.3584 32.0299 24.0859 31.829 23.885C31.628 23.684 31.3555 23.5711 31.0714 23.5711H26.0714ZM2.86279 12.4997C2.86279 11.0789 3.4272 9.71631 4.43186 8.71165C5.43652 7.70699 6.79913 7.14258 8.21994 7.14258H31.7856C33.2065 7.14258 34.5691 7.70699 35.5737 8.71165C36.5784 9.71631 37.1428 11.0789 37.1428 12.4997V27.4997C37.1428 28.9205 36.5784 30.2831 35.5737 31.2878C34.5691 32.2925 33.2065 32.8569 31.7856 32.8569H8.22136C6.80056 32.8569 5.43795 32.2925 4.43329 31.2878C3.42863 30.2831 2.86422 28.9205 2.86422 27.4997L2.86279 12.4997ZM8.21994 9.28544C7.36745 9.28544 6.54989 9.62408 5.94709 10.2269C5.3443 10.8297 5.00565 11.6472 5.00565 12.4997V13.5711H34.9999V12.4997C34.9999 11.6472 34.6613 10.8297 34.0585 10.2269C33.4557 9.62408 32.6381 9.28544 31.7856 9.28544H8.21994ZM5.00565 27.4997C5.00565 28.3522 5.3443 29.1698 5.94709 29.7726C6.54989 30.3754 7.36745 30.714 8.21994 30.714H31.7856C32.6381 30.714 33.4557 30.3754 34.0585 29.7726C34.6613 29.1698 34.9999 28.3522 34.9999 27.4997V15.714H5.00708L5.00565 27.4997Z" fill="#25466A"/>
</svg>
