<svg width="40" height="40" viewBox="0 0 40 40" fill="none" xmlns="http://www.w3.org/2000/svg">
<g clip-path="url(#clip0_296_13718)">
<path d="M10.4252 21.0155H1.35406V9.50711C1.35406 9.1332 1.05094 8.83008 0.677031 8.83008C0.303125 8.83008 0 9.13328 0 9.50711V21.6925C0 22.0664 0.303125 22.3695 0.677031 22.3695H0.880156V30.4937C0.880156 30.8677 1.18328 31.1708 1.55719 31.1708C1.93109 31.1708 2.23422 30.8677 2.23422 30.4937V25.4161H8.86812V30.4937C8.86812 30.8677 9.17125 31.1708 9.54516 31.1708C9.91906 31.1708 10.2222 30.8677 10.2222 30.4937V22.3695H10.4253C10.7992 22.3695 11.1023 22.0664 11.1023 21.6925C11.1022 21.3187 10.7991 21.0155 10.4252 21.0155ZM8.86805 24.0621H2.23414V22.3695H8.86805V24.0621Z" fill="#757575"/>
<path d="M39.323 8.83008C38.949 8.83008 38.6459 9.1332 38.6459 9.50711V21.0155H29.5739C29.1999 21.0155 28.8969 21.3186 28.8969 21.6925C28.8969 22.0664 29.1999 22.3695 29.5739 22.3695H29.777V30.4937C29.777 30.8677 30.0801 31.1708 30.4541 31.1708C30.8281 31.1708 31.1311 30.8677 31.1311 30.4937V25.4161H37.7659V30.4937C37.7659 30.8677 38.0689 31.1708 38.4429 31.1708C38.8169 31.1708 39.1199 30.8677 39.1199 30.4937V22.3695H39.3231C39.697 22.3695 40.0001 22.0664 40.0001 21.6925V9.50703C40 9.1332 39.6969 8.83008 39.323 8.83008ZM37.7659 24.062H31.1311V22.3695H37.7659V24.062Z" fill="#757575"/>
<path d="M31.6134 14.5614H30.3801H23.0244L20.6052 9.72285C20.4905 9.49348 20.2561 9.34863 19.9997 9.34863C19.7432 9.34863 19.5088 9.49348 19.3941 9.72285L16.9748 14.5614H9.6192H8.38592C8.01202 14.5614 7.70889 14.8645 7.70889 15.2384C7.70889 15.6123 8.01202 15.9154 8.38592 15.9154H8.94217V17.9464C8.94217 18.3203 9.2453 18.6234 9.6192 18.6234H11.8984V30.4932C11.8984 30.8671 12.2015 31.1702 12.5755 31.1702C12.9494 31.1702 13.2525 30.8671 13.2525 30.4932V18.6234H23.0692C23.4432 18.6234 23.7462 18.3203 23.7462 17.9464C23.7462 17.5725 23.4432 17.2693 23.0692 17.2693H10.2962V15.9154H29.7031V17.2693H25.5064C25.1324 17.2693 24.8294 17.5725 24.8294 17.9464C24.8294 18.3203 25.1324 18.6234 25.5064 18.6234H26.7469V30.4932C26.7469 30.8671 27.05 31.1702 27.424 31.1702C27.798 31.1702 28.101 30.8671 28.101 30.4932V18.6234H30.3801C30.7541 18.6234 31.0572 18.3203 31.0572 17.9464V15.9154H31.6135C31.9875 15.9154 32.2905 15.6123 32.2905 15.2384C32.2905 14.8645 31.9874 14.5614 31.6134 14.5614ZM18.4887 14.5614L19.9997 11.5395L21.5107 14.5614H18.4887Z" fill="#757575"/>
</g>
<defs>
<clipPath id="clip0_296_13718">
<rect width="40" height="40" fill="white"/>
</clipPath>
</defs>
</svg>
