<svg width="40" height="40" viewBox="0 0 40 40" fill="none" xmlns="http://www.w3.org/2000/svg">
<path fill-rule="evenodd" clip-rule="evenodd" d="M7.82083 20.7084C7.76576 20.7078 7.71113 20.7182 7.6601 20.7389C7.60907 20.7596 7.56264 20.7902 7.52351 20.8289C7.48437 20.8677 7.45331 20.9138 7.43211 20.9646C7.41091 21.0154 7.4 21.07 7.4 21.125V24.875H19.5833V21.125C19.5833 21.0145 19.5394 20.9086 19.4613 20.8304C19.3832 20.7523 19.2772 20.7084 19.1667 20.7084H7.825C7.82361 20.7084 7.82222 20.7084 7.82083 20.7084ZM7.82687 19.875C7.66245 19.8737 7.49937 19.9048 7.34697 19.9666C7.19387 20.0287 7.05459 20.1205 6.93719 20.2367C6.81979 20.353 6.7266 20.4913 6.663 20.6438C6.5994 20.7963 6.56666 20.9598 6.56667 21.125C6.56667 21.125 6.56667 21.125 6.56667 21.125V25.2917C6.56667 25.5218 6.75321 25.7084 6.98333 25.7084H20C20.2301 25.7084 20.4167 25.5218 20.4167 25.2917V21.125C20.4167 20.7935 20.285 20.4756 20.0505 20.2412C19.8161 20.0067 19.4982 19.875 19.1667 19.875H7.82687Z" fill="#757575"/>
<path d="M6.56667 21.125C6.56666 20.9598 6.5994 20.7963 6.663 20.6438C6.7266 20.4913 6.81979 20.353 6.93719 20.2367C7.05459 20.1205 7.19387 20.0287 7.34697 19.9666C7.49937 19.9048 7.66245 19.8737 7.82687 19.875H19.1667C19.4982 19.875 19.8161 20.0067 20.0505 20.2412C20.285 20.4756 20.4167 20.7935 20.4167 21.125V25.2917C20.4167 25.5218 20.2301 25.7084 20 25.7084H6.98333C6.75321 25.7084 6.56667 25.5218 6.56667 25.2917V21.125ZM6.56667 21.125C6.56667 21.125 6.56667 21.125 6.56667 21.125ZM7.6601 20.7389C7.71113 20.7182 7.76576 20.7078 7.82083 20.7084C7.82222 20.7084 7.82361 20.7084 7.825 20.7084H19.1667C19.2772 20.7084 19.3832 20.7523 19.4613 20.8304C19.5394 20.9086 19.5833 21.0145 19.5833 21.125V24.875H7.4V21.125C7.4 21.07 7.41091 21.0154 7.43211 20.9646C7.45331 20.9138 7.48437 20.8677 7.52351 20.8289C7.56264 20.7902 7.60907 20.7596 7.6601 20.7389Z" stroke="#757575" stroke-width="0.5" stroke-linecap="round" stroke-linejoin="round"/>
<path fill-rule="evenodd" clip-rule="evenodd" d="M8.15833 11.9749C7.95721 11.9749 7.76432 12.0548 7.62211 12.197C7.47989 12.3393 7.4 12.5321 7.4 12.7333V21.1333C7.4 21.3634 7.21345 21.5499 6.98333 21.5499C6.75321 21.5499 6.56667 21.3634 6.56667 21.1333V12.7333C6.56667 12.3111 6.73436 11.9063 7.03285 11.6078C7.33135 11.3093 7.7362 11.1416 8.15833 11.1416H18.825C19.2471 11.1416 19.652 11.3093 19.9505 11.6078C20.249 11.9063 20.4167 12.3111 20.4167 12.7333V21.1333C20.4167 21.3634 20.2301 21.5499 20 21.5499C19.7699 21.5499 19.5833 21.3634 19.5833 21.1333V12.7333C19.5833 12.5321 19.5034 12.3393 19.3612 12.197C19.219 12.0548 19.0261 11.9749 18.825 11.9749H8.15833Z" fill="#757575" stroke="#757575" stroke-width="0.5" stroke-linecap="round" stroke-linejoin="round"/>
<path fill-rule="evenodd" clip-rule="evenodd" d="M21.175 11.9749C20.9739 11.9749 20.781 12.0548 20.6388 12.197C20.4966 12.3393 20.4167 12.5321 20.4167 12.7333V21.1333C20.4167 21.3634 20.2301 21.5499 20 21.5499C19.7699 21.5499 19.5833 21.3634 19.5833 21.1333V12.7333C19.5833 12.3111 19.751 11.9063 20.0495 11.6078C20.348 11.3093 20.7529 11.1416 21.175 11.1416H31.8417C32.2638 11.1416 32.6686 11.3093 32.9671 11.6078C33.2656 11.9063 33.4333 12.3111 33.4333 12.7333V21.1333C33.4333 21.3634 33.2468 21.5499 33.0167 21.5499C32.7865 21.5499 32.6 21.3634 32.6 21.1333V12.7333C32.6 12.5321 32.5201 12.3393 32.3779 12.197C32.2357 12.0548 32.0428 11.9749 31.8417 11.9749H21.175Z" fill="#757575" stroke="#757575" stroke-width="0.5" stroke-linecap="round" stroke-linejoin="round"/>
<path fill-rule="evenodd" clip-rule="evenodd" d="M4.46667 16.7249C4.3871 16.7249 4.3108 16.7565 4.25454 16.8128C4.19828 16.8691 4.16667 16.9454 4.16667 17.0249V24.4416C4.16667 24.4455 4.16661 24.4494 4.16651 24.4533C4.16472 24.5168 4.17569 24.58 4.19877 24.6391C4.22184 24.6983 4.25655 24.7523 4.30083 24.7978C4.34512 24.8433 4.39809 24.8795 4.4566 24.9042C4.51512 24.9289 4.57799 24.9416 4.64151 24.9416H6.56667V17.0249C6.56667 16.9454 6.53506 16.8691 6.4788 16.8128C6.42254 16.7565 6.34623 16.7249 6.26667 16.7249H4.46667ZM3.66528 16.2235C3.87782 16.011 4.16609 15.8916 4.46667 15.8916H6.26667C6.56725 15.8916 6.85552 16.011 7.06806 16.2235C7.2806 16.4361 7.4 16.7244 7.4 17.0249V25.3583C7.4 25.5884 7.21345 25.7749 6.98334 25.7749L4.64183 25.7749C4.64178 25.7749 4.64172 25.7749 4.64167 25.7749C4.46678 25.775 4.29366 25.74 4.13253 25.672C3.97136 25.6039 3.82547 25.5043 3.70349 25.3789C3.5815 25.2535 3.48591 25.1049 3.42236 24.9419C3.35959 24.7809 3.32934 24.609 3.33334 24.4363V17.0249C3.33334 16.7244 3.45274 16.4361 3.66528 16.2235Z" fill="#757575" stroke="#757575" stroke-width="0.5" stroke-linecap="round" stroke-linejoin="round"/>
<path fill-rule="evenodd" clip-rule="evenodd" d="M35.5281 25.7227C35.8125 25.6855 36.0785 25.5556 36.2835 25.3506C36.5288 25.1052 36.6667 24.7724 36.6667 24.4255V17.0088C36.6667 16.7082 36.5473 16.4199 36.3347 16.2074C36.1222 15.9949 35.8339 15.8755 35.5333 15.8755H33.7333C33.4327 15.8755 33.1445 15.9949 32.9319 16.2074C32.7194 16.4199 32.6 16.7082 32.6 17.0088V25.3421C32.6 25.5722 32.7865 25.7588 33.0167 25.7588H35.3583C35.4188 25.7588 35.4763 25.7459 35.5281 25.7227ZM35.2158 24.9255C35.2603 24.9093 35.3083 24.9005 35.3583 24.9005C35.4843 24.9005 35.6051 24.8504 35.6942 24.7613C35.7833 24.6723 35.8333 24.5514 35.8333 24.4255V17.0088C35.8333 16.9292 35.8017 16.8529 35.7455 16.7967C35.6892 16.7404 35.6129 16.7088 35.5333 16.7088H33.7333C33.6538 16.7088 33.5775 16.7404 33.5212 16.7967C33.4649 16.8529 33.4333 16.9292 33.4333 17.0088V24.9255H35.2158Z" fill="#757575" stroke="#757575" stroke-width="0.5" stroke-linecap="round" stroke-linejoin="round"/>
<path fill-rule="evenodd" clip-rule="evenodd" d="M20.8333 20.7083C20.7228 20.7083 20.6168 20.7522 20.5387 20.8304C20.4606 20.9085 20.4167 21.0145 20.4167 21.125V24.875H32.5917V21.125C32.5917 21.0145 32.5478 20.9085 32.4696 20.8304C32.3915 20.7522 32.2855 20.7083 32.175 20.7083H20.8333ZM19.9494 20.2411C20.1839 20.0067 20.5018 19.875 20.8333 19.875H32.175C32.5065 19.875 32.8245 20.0067 33.0589 20.2411C33.2933 20.4755 33.425 20.7935 33.425 21.125V25.2917C33.425 25.5218 33.2384 25.7083 33.0083 25.7083H20C19.7699 25.7083 19.5833 25.5218 19.5833 25.2917V21.125C19.5833 20.7935 19.715 20.4755 19.9494 20.2411Z" fill="#757575" stroke="#757575" stroke-width="0.5" stroke-linecap="round" stroke-linejoin="round"/>
<path fill-rule="evenodd" clip-rule="evenodd" d="M6.56667 25.3415C6.56667 25.1114 6.75321 24.9248 6.98333 24.9248H9.54167C9.77178 24.9248 9.95833 25.1114 9.95833 25.3415V28.4498C9.95833 28.6799 9.77178 28.8665 9.54167 28.8665H6.98333C6.75321 28.8665 6.56667 28.6799 6.56667 28.4498V25.3415ZM7.4 25.7581V28.0331H9.125V25.7581H7.4Z" fill="#757575" stroke="#757575" stroke-width="0.5" stroke-linecap="round" stroke-linejoin="round"/>
<path fill-rule="evenodd" clip-rule="evenodd" d="M30.0417 25.3415C30.0417 25.1114 30.2282 24.9248 30.4583 24.9248H33.0167C33.2468 24.9248 33.4333 25.1114 33.4333 25.3415V28.4498C33.4333 28.6799 33.2468 28.8665 33.0167 28.8665H30.4583C30.2282 28.8665 30.0417 28.6799 30.0417 28.4498V25.3415ZM30.875 25.7581V28.0331H32.6V25.7581H30.875Z" fill="#757575" stroke="#757575" stroke-width="0.5" stroke-linecap="round" stroke-linejoin="round"/>
</svg>
