<svg width="35" height="36" viewBox="0 0 35 36" fill="none" xmlns="http://www.w3.org/2000/svg">
<path d="M20.4165 13.625H26.2498M20.4165 18.7292H24.7915" stroke="#25466A" stroke-width="2" stroke-linecap="round" stroke-linejoin="round"/>
<path d="M24.7915 4.875H10.2082C6.18109 4.875 2.9165 8.13959 2.9165 12.1667V23.8333C2.9165 27.8604 6.18109 31.125 10.2082 31.125H24.7915C28.8186 31.125 32.0832 27.8604 32.0832 23.8333V12.1667C32.0832 8.13959 28.8186 4.875 24.7915 4.875Z" stroke="#25466A" stroke-width="2" stroke-linecap="round" stroke-linejoin="round"/>
<path d="M7.2915 23.834C9.05317 20.07 15.6215 19.8236 17.4998 23.834M15.3123 13.6257C15.3123 14.3992 15.005 15.1411 14.4581 15.688C13.9111 16.235 13.1692 16.5423 12.3957 16.5423C11.6221 16.5423 10.8803 16.235 10.3333 15.688C9.78629 15.1411 9.479 14.3992 9.479 13.6257C9.479 12.8521 9.78629 12.1102 10.3333 11.5633C10.8803 11.0163 11.6221 10.709 12.3957 10.709C13.1692 10.709 13.9111 11.0163 14.4581 11.5633C15.005 12.1102 15.3123 12.8521 15.3123 13.6257Z" stroke="#25466A" stroke-width="2" stroke-linecap="round" stroke-linejoin="round"/>
</svg>
