<svg width="40" height="40" viewBox="0 0 40 40" fill="none" xmlns="http://www.w3.org/2000/svg">
<rect width="40" height="40" rx="20" fill="#F8F8F8"/>
<path fill-rule="evenodd" clip-rule="evenodd" d="M19.5139 10.5764C19.7823 10.3079 20.2176 10.3079 20.4861 10.5764L23.9236 14.0139C24.1921 14.2823 24.1921 14.7177 23.9236 14.9861C23.6552 15.2546 23.2198 15.2546 22.9514 14.9861L20.6875 12.7223V22.793C20.6875 23.1727 20.3797 23.4805 20 23.4805C19.6203 23.4805 19.3125 23.1727 19.3125 22.793V12.7223L17.0486 14.9861C16.7802 15.2546 16.3448 15.2546 16.0764 14.9861C15.8079 14.7177 15.8079 14.2823 16.0764 14.0139L19.5139 10.5764ZM14.8438 17.9375C14.5702 17.9375 14.3079 18.0461 14.1145 18.2395C13.9211 18.4329 13.8125 18.6952 13.8125 18.9688V27.2188C13.8125 27.4923 13.9211 27.7546 14.1145 27.948C14.3079 28.1414 14.5702 28.25 14.8438 28.25H25.1562C25.4298 28.25 25.6921 28.1414 25.8855 27.948C26.0789 27.7546 26.1875 27.4923 26.1875 27.2188V18.9688C26.1875 18.6952 26.0789 18.4329 25.8855 18.2395C25.6921 18.0461 25.4298 17.9375 25.1562 17.9375H23.4375C23.0578 17.9375 22.75 17.6297 22.75 17.25C22.75 16.8703 23.0578 16.5625 23.4375 16.5625H25.1562C25.7944 16.5625 26.4065 16.816 26.8577 17.2673C27.309 17.7185 27.5625 18.3306 27.5625 18.9688V27.2188C27.5625 27.8569 27.309 28.469 26.8577 28.9202C26.4065 29.3715 25.7944 29.625 25.1562 29.625H14.8438C14.2056 29.625 13.5935 29.3715 13.1423 28.9202C12.691 28.469 12.4375 27.8569 12.4375 27.2188V18.9688C12.4375 18.3306 12.691 17.7185 13.1423 17.2673C13.5935 16.816 14.2056 16.5625 14.8438 16.5625H16.5625C16.9422 16.5625 17.25 16.8703 17.25 17.25C17.25 17.6297 16.9422 17.9375 16.5625 17.9375H14.8438Z" fill="#25466A"/>
</svg>
