<svg width="300" height="279" viewBox="0 0 300 279" fill="none" xmlns="http://www.w3.org/2000/svg">
<path d="M286.71 179.255C286.71 179.255 236.822 155.33 205.879 155.33C168.728 155.33 132.629 165.995 118.931 169.514C82.9592 178.761 13.2646 179.255 13.2646 179.255H286.71Z" fill="#DBDBDB"/>
<path d="M13.2646 179.254C13.2646 179.254 41.5911 165.338 73.5923 165.338C95.9303 165.338 127.995 168.223 158.191 172.941C169.688 174.74 229.536 179.254 229.536 179.254H13.2646Z" fill="#C7C7C7"/>
<path d="M275.834 130.298C272.469 130.298 188.421 129.713 164.687 129.713C163.022 129.713 165.124 126.835 166.041 126.637C168.954 125.995 172.001 125.932 174.963 125.657C177.889 125.383 180.757 124.669 183.47 123.541C185.804 122.553 188.139 121.425 190.664 121.016C195.559 120.254 199.834 122.899 204.432 124.07C205.824 124.469 207.284 124.573 208.719 124.375C210.153 124.177 211.531 123.682 212.762 122.92C214.878 121.644 216.811 120.099 219.033 118.999C223.277 116.907 227.906 115.714 232.633 115.494C237.359 115.274 242.079 116.033 246.499 117.722C248.604 118.535 250.618 119.566 252.508 120.797C254.751 122.271 256.684 124.147 258.927 125.6C263.907 128.824 270.064 127.773 275.488 129.621C275.791 129.713 276.123 130.298 275.834 130.298Z" fill="#EBEBEB"/>
<path d="M256.233 24.2566C251.782 24.2566 176.854 24.7504 172.142 24.6022C171.804 24.6022 171.62 24.0944 171.959 23.8969C174.928 22.4298 178.307 22.726 181.382 21.6892C183.195 21.0755 184.309 19.8906 185.572 18.5293C186.623 17.349 187.977 16.4783 189.487 16.0112C190.861 15.5963 192.321 15.5501 193.719 15.8772C195.242 16.2369 196.54 17.1115 198.007 17.6547C201.611 19.016 205.11 17.7252 207.677 15.059C209.793 12.8654 211.909 10.7917 214.766 9.61379C215.942 9.08092 217.216 8.79648 218.507 8.77828C219.799 8.76007 221.08 9.00849 222.271 9.50799C225.007 10.7564 226.869 13.2604 229.479 14.7416C232.512 16.5543 236.201 16.1523 239.566 16.6672C242.93 17.1821 245.54 20.0528 248.502 21.6962C249.47 22.3142 250.585 22.6602 251.733 22.6978C252.396 22.6978 253.045 22.5003 253.701 22.4157C254.723 22.2887 255.69 22.324 256.381 23.1704C256.557 23.382 256.494 24.2566 256.233 24.2566Z" fill="#EBEBEB"/>
<path d="M299.815 51.6086C296.564 51.6086 241.858 51.9683 238.451 51.8625C238.204 51.8625 238.07 51.4887 238.317 51.3688C240.482 50.2967 242.944 50.5083 245.194 49.7536C246.398 49.2674 247.451 48.4717 248.248 47.4471C249.003 46.5828 249.978 45.9393 251.069 45.585C252.076 45.2846 253.143 45.2506 254.166 45.4863C255.239 45.8549 256.287 46.2907 257.305 46.7911C259.929 47.7786 262.482 46.8405 264.358 44.8938C265.91 43.2927 267.426 41.7762 269.535 40.9157C270.394 40.5265 271.324 40.3187 272.267 40.3054C273.21 40.292 274.146 40.4734 275.016 40.8381C277.019 41.748 278.394 43.5748 280.278 44.6751C282.513 45.98 285.215 45.6767 287.655 46.0858C290.096 46.4949 292.014 48.5615 294.18 49.7606C294.889 50.2051 295.706 50.4489 296.543 50.466C297.016 50.4252 297.487 50.3569 297.953 50.2614C298.299 50.1662 298.664 50.1678 299.008 50.2661C299.353 50.3644 299.664 50.5555 299.907 50.8186C300.055 50.9667 300.027 51.6086 299.815 51.6086Z" fill="#EBEBEB"/>
<path d="M125.336 74.1164C122.084 74.1164 67.3851 74.4761 63.9712 74.3633C63.7244 74.3633 63.5904 73.9965 63.8372 73.8766C66.0026 72.7974 68.4643 73.0161 70.7143 72.2543C71.9226 71.7731 72.9797 70.9766 73.7755 69.9479C74.5312 69.0862 75.5061 68.4451 76.5968 68.0928C77.6024 67.7889 78.6703 67.7548 79.6932 67.9941C80.7623 68.3634 81.8081 68.7968 82.825 69.2919C85.4559 70.2864 88.0092 69.3413 89.8783 67.4016C91.423 65.7934 92.9466 64.284 95.0485 63.4235C95.9075 63.0343 96.8376 62.8265 97.7806 62.8132C98.7236 62.7998 99.6592 62.9812 100.529 63.3459C102.539 64.2558 103.915 66.0826 105.798 67.1829C108.034 68.4878 110.735 68.1775 113.169 68.5936C115.602 69.0098 117.535 71.0694 119.7 72.2614C120.407 72.7047 121.221 72.9484 122.056 72.9667C122.529 72.9223 123 72.8541 123.467 72.7622C123.811 72.6677 124.176 72.669 124.52 72.7659C124.864 72.8628 125.175 73.0517 125.42 73.3123C125.576 73.4746 125.554 74.1164 125.336 74.1164Z" fill="#EBEBEB"/>
<path d="M61.6297 40.6356C58.3781 40.6356 3.67198 40.9953 0.265193 40.8825C0.0183249 40.8825 -0.115689 40.5157 0.13118 40.3958C2.29657 39.3237 4.7582 39.5353 7.00823 38.7735C8.21446 38.2921 9.26924 37.4955 10.0623 36.4671C10.8199 35.6075 11.7942 34.9669 12.8837 34.612C13.8852 34.3023 14.9505 34.261 15.9731 34.4921C17.0457 34.8608 18.094 35.2966 19.1118 35.797C21.7357 36.7845 24.289 35.8464 26.1652 33.8996C27.717 32.2985 29.2335 30.782 31.3424 29.9215C32.2015 29.5323 33.1316 29.3246 34.0746 29.3112C35.0176 29.2979 35.9532 29.4792 36.8229 29.8439C38.8261 30.7538 40.2015 32.5807 42.0847 33.681C44.3206 34.9859 47.0221 34.6755 49.4626 35.0917C51.903 35.5078 53.8216 37.5674 55.987 38.7594C56.6964 39.2036 57.513 39.4474 58.3498 39.4648C58.8232 39.4206 59.2941 39.3523 59.7605 39.2602C60.1054 39.1657 60.4696 39.167 60.8138 39.264C61.1581 39.3609 61.4694 39.5498 61.7143 39.8104C61.8695 39.9938 61.8201 40.6356 61.6297 40.6356Z" fill="#EBEBEB"/>
<path d="M272.131 190.874C277.74 190.391 283.38 190.391 288.989 190.874C283.38 191.361 277.74 191.361 272.131 190.874Z" fill="#DBDBDB"/>
<path d="M288.989 238.334C261.149 238.799 230.192 238.785 202.331 238.334C230.199 237.875 261.142 237.861 288.989 238.334Z" fill="#DBDBDB"/>
<path d="M106.828 212.532C79.4609 212.998 49.0397 212.991 21.6514 212.532C49.0467 212.074 79.4891 212.067 106.828 212.532Z" fill="#DBDBDB"/>
<path d="M76.9569 238.334C62.0249 238.807 47.0011 238.807 32.0762 238.334C47.0011 237.855 62.0249 237.855 76.9569 238.334Z" fill="#DBDBDB"/>
<path d="M172.1 253.091C142.053 253.563 108.619 253.549 78.5791 253.091C108.655 252.632 142.06 252.625 172.1 253.091Z" fill="#DBDBDB"/>
<path d="M226.623 243.977C211.698 244.449 196.674 244.449 181.742 243.977C196.674 243.497 211.698 243.497 226.623 243.977Z" fill="#DBDBDB"/>
<path d="M166.161 229.462C151.236 229.934 136.213 229.934 121.281 229.462C136.213 228.989 151.236 228.989 166.161 229.462Z" fill="#DBDBDB"/>
<path d="M269.289 278.384C254.364 278.856 239.34 278.856 224.408 278.384C239.34 277.911 254.364 277.911 269.289 278.384Z" fill="#DBDBDB"/>
<path d="M246.845 269.863C219.407 270.336 188.901 270.322 161.442 269.863C188.908 269.412 219.4 269.398 246.845 269.863Z" fill="#DBDBDB"/>
<path d="M104.543 192.677C89.6178 193.149 74.5871 193.149 59.6621 192.677C74.5871 192.204 89.6108 192.204 104.543 192.677Z" fill="#DBDBDB"/>
<path d="M279.065 194.604C264.14 195.077 249.109 195.077 234.184 194.604C249.109 194.132 264.133 194.132 279.065 194.604Z" fill="#DBDBDB"/>
<path d="M92.7776 184.85C68.0908 185.322 40.5826 185.308 15.8252 184.85C40.5685 184.398 68.0203 184.384 92.7776 184.85Z" fill="#DBDBDB"/>
<path d="M268.054 227.551C261.376 228.031 254.673 228.031 247.995 227.551C254.673 227.071 261.376 227.071 268.054 227.551Z" fill="#DBDBDB"/>
<path d="M110.919 258.882C85.5271 259.348 57.3136 259.341 31.9214 258.882C57.3136 258.424 85.5271 258.41 110.919 258.882Z" fill="#DBDBDB"/>
<path d="M262.884 223.522C229.381 223.988 192.139 223.981 158.614 223.522C192.146 223.064 229.374 223.057 262.884 223.522Z" fill="#DBDBDB"/>
<path d="M143.188 274.11C136.508 274.589 129.802 274.589 123.122 274.11C129.802 273.63 136.508 273.63 143.188 274.11Z" fill="#DBDBDB"/>
<path d="M5.92236 179.255C98.223 178.825 201.753 178.818 294.053 179.255C201.753 179.692 98.223 179.685 5.92236 179.255Z" fill="#DBDBDB"/>
<g opacity="0.2">
<path d="M195.164 72.304C195.164 88.5268 190.883 103.551 183.209 114.977C175.697 126.262 163.918 134.811 150.164 134.811C136.057 134.811 124.454 126.241 116.942 114.977C109.092 103.551 104.952 88.555 104.811 72.304C104.987 55.8696 109.092 41.0504 116.942 29.6169C124.454 18.1904 136.057 9.79688 150.164 9.79688C163.918 9.79688 175.697 18.1904 183.209 29.6169C190.897 41.0504 195.164 55.8696 195.164 72.304Z" fill="#00ADEE"/>
</g>
<g opacity="0.2">
<path d="M188.718 72.3053C188.718 86.2357 185.043 99.1082 178.462 108.884C172.03 118.54 161.929 125.883 150.143 125.883C138.046 125.883 128.101 118.54 121.661 108.884C114.932 99.087 111.413 86.2357 111.258 72.3053C111.413 58.1985 114.932 45.5024 121.661 35.7123C128.101 25.9152 138.046 18.7207 150.143 18.7207C161.929 18.7207 172.008 25.9152 178.462 35.7123C185.043 45.5165 188.718 58.2197 188.718 72.3053Z" fill="#00ADEE"/>
</g>
<g opacity="0.2">
<path d="M178.243 72.304C178.243 82.4679 175.563 91.8418 170.76 98.994C166.069 106.047 158.698 111.394 150.1 111.394C141.276 111.394 134.018 106.033 129.321 98.994C124.384 91.8418 121.844 82.4679 121.731 72.304C121.844 62.0272 124.412 52.759 129.321 45.6069C134.018 38.4618 141.312 33.207 150.1 33.207C158.698 33.207 166.069 38.4618 170.76 45.6069C175.563 52.759 178.243 61.999 178.243 72.304Z" fill="#00ADEE"/>
</g>
<path d="M179.477 211.27H120.497L122.148 187.627L123.805 163.984L125.456 140.334L127.113 116.691L128.764 93.041H171.211L172.861 116.691L174.519 140.334L176.169 163.984L177.827 187.627L179.477 211.27Z" fill="#00ADEE"/>
<path opacity="0.1" d="M172.862 116.691H127.113L128.764 93.041H171.211L172.862 116.691Z" fill="#25466A"/>
<path opacity="0.1" d="M179.477 211.27H120.497L122.148 187.627H177.827L179.477 211.27Z" fill="#25466A"/>
<path opacity="0.1" d="M176.17 163.986H123.805L125.456 140.336H174.519L176.17 163.986Z" fill="#25466A"/>
<path opacity="0.1" d="M128.764 93.041H139.428L153.909 211.27H120.497L128.764 93.041Z" fill="#25466A"/>
<path d="M149.987 102.775C149.23 102.775 148.503 103.076 147.967 103.612C147.432 104.148 147.131 104.874 147.131 105.632L146.531 111.832H153.444L152.844 105.632C152.844 104.874 152.543 104.148 152.007 103.612C151.472 103.076 150.745 102.775 149.987 102.775Z" fill="#25466A"/>
<path d="M161.527 124.944C161.153 124.939 160.783 125.008 160.436 125.148C160.09 125.288 159.775 125.495 159.509 125.757C159.243 126.02 159.032 126.332 158.888 126.677C158.744 127.022 158.67 127.391 158.67 127.765L158.063 133.965H164.983L164.383 127.765C164.374 127.013 164.069 126.296 163.534 125.768C163 125.24 162.278 124.944 161.527 124.944Z" fill="#25466A"/>
<path d="M132.749 148.389C131.997 148.389 131.276 148.685 130.741 149.213C130.206 149.741 129.901 150.459 129.892 151.21L129.292 157.41H136.205L135.605 151.21C135.594 150.459 135.289 149.743 134.754 149.215C134.22 148.687 133.5 148.39 132.749 148.389Z" fill="#25466A"/>
<path d="M149.987 171.934C149.614 171.929 149.243 171.999 148.897 172.138C148.551 172.278 148.235 172.485 147.97 172.748C147.704 173.01 147.493 173.323 147.349 173.667C147.205 174.012 147.131 174.382 147.131 174.755L146.531 180.962H153.444L152.844 174.755C152.844 174.382 152.77 174.012 152.626 173.667C152.482 173.323 152.271 173.01 152.005 172.748C151.74 172.485 151.424 172.278 151.078 172.138C150.732 171.999 150.361 171.929 149.987 171.934Z" fill="#25466A"/>
<path d="M162.839 58.9463H137.136C137.162 55.6347 138.464 52.4606 140.772 50.0854C143.08 47.7102 146.215 46.317 149.525 46.1961C152.834 46.0752 156.063 47.2358 158.538 49.4363C161.013 51.6367 162.543 54.7073 162.811 58.0082C162.832 58.3186 162.839 58.636 162.839 58.9463Z" fill="#00ADEE"/>
<path opacity="0.1" d="M162.846 58.9447H137.136C137.134 58.1065 137.214 57.2701 137.376 56.4478L162.232 55.0371C162.542 56.0054 162.736 57.0069 162.811 58.0207C162.832 58.3169 162.846 58.6273 162.846 58.9447Z" fill="#25466A"/>
<path d="M138.941 74.638V58.1895H137.136V74.638H138.941Z" fill="#C7C7C7"/>
<path d="M143.717 74.638V58.1895H141.911V74.638H143.717Z" fill="#C7C7C7"/>
<path d="M148.499 74.6379V58.1895H146.693V74.6379H148.499Z" fill="#C7C7C7"/>
<path d="M153.281 74.6379V58.1895H151.476V74.6379H153.281Z" fill="#C7C7C7"/>
<path d="M158.056 74.6379V58.1895H156.25V74.6379H158.056Z" fill="#C7C7C7"/>
<path d="M164.362 67.2051H135.612V68.6016H164.362V67.2051Z" fill="#C7C7C7"/>
<path d="M162.838 74.638V58.1895H161.033V74.638H162.838Z" fill="#C7C7C7"/>
<path d="M165.448 74.6387H134.526V89.5072H165.448V74.6387Z" fill="#00ADEE"/>
<path opacity="0.1" d="M165.448 74.6387V77.4318L134.526 82.4538V74.6387H165.448Z" fill="#25466A"/>
<g opacity="0.05">
<path d="M171.535 170.43H164.623V173.35H171.535V170.43Z" fill="#25466A"/>
<path d="M167.677 174.113H160.765V177.033H167.677V174.113Z" fill="#25466A"/>
<path d="M146.03 127.25H139.118V130.17H146.03V127.25Z" fill="#25466A"/>
<path d="M142.172 130.932H135.26V133.852H142.172V130.932Z" fill="#25466A"/>
<path d="M138.328 127.25H131.416V130.17H138.328V127.25Z" fill="#25466A"/>
<path d="M153.189 51.4043H147.899V53.6402H153.189V51.4043Z" fill="#25466A"/>
<path d="M150.234 54.2266H144.944V56.4625H150.234V54.2266Z" fill="#25466A"/>
<path d="M147.3 51.4043H142.01V53.6402H147.3V51.4043Z" fill="#25466A"/>
<path d="M134.526 172.949H127.614V175.869H134.526V172.949Z" fill="#25466A"/>
<path d="M163.466 102.775H156.554V105.695H163.466V102.775Z" fill="#25466A"/>
<path d="M167.317 106.463H160.405V109.383H167.317V106.463Z" fill="#25466A"/>
<path d="M156.9 78.7715H149.987V81.6916H156.9V78.7715Z" fill="#25466A"/>
<path d="M160.758 82.4531H153.845V85.3732H160.758V82.4531Z" fill="#25466A"/>
<path d="M156.399 147.092H149.486V150.012H156.399V147.092Z" fill="#25466A"/>
</g>
<path d="M175.873 88.0059H124.101V98.0852H175.873V88.0059Z" fill="#0A2B3B"/>
<path d="M167.275 72.3027H132.692V75.9423H167.275V72.3027Z" fill="#0A2B3B"/>
<path d="M164.362 58.1895H135.612V61.2154H164.362V58.1895Z" fill="#0A2B3B"/>
<path d="M167.825 187.365C166.711 187.4 165.477 187.464 164.553 186.745C164.088 186.437 163.708 186.017 163.448 185.524C163.188 185.031 163.056 184.481 163.064 183.923C163.064 183.599 163.17 183.401 163.516 183.542C164.032 183.843 164.477 184.252 164.821 184.741C165.284 185.278 165.799 185.767 166.358 186.201C166.753 186.505 167.184 186.766 167.586 187.062L167.734 187.175L167.79 187.217H167.825C167.832 187.214 167.839 187.212 167.847 187.212C167.854 187.212 167.861 187.214 167.868 187.217C167.887 187.223 167.904 187.236 167.914 187.254C167.924 187.272 167.926 187.293 167.921 187.312C167.915 187.332 167.902 187.349 167.884 187.359C167.866 187.368 167.845 187.371 167.825 187.365Z" fill="#25466A"/>
<path d="M167.875 187.287C166.901 187.287 165.85 187.287 165.053 186.653C164.694 186.338 164.389 185.966 164.15 185.552C164.037 185.369 163.699 184.847 163.84 184.607C164.094 184.212 165.251 185.82 165.413 185.968C166.024 186.522 166.767 186.908 167.571 187.09L167.719 187.203C167.151 187.086 166.605 186.876 166.104 186.582C165.489 186.132 164.943 185.595 164.482 184.988C164.362 184.861 164.009 184.452 163.882 184.706C163.755 184.96 164.115 185.411 164.186 185.531C164.419 185.92 164.709 186.272 165.046 186.575C165.822 187.28 166.873 187.231 167.867 187.28C167.875 187.273 167.875 187.28 167.875 187.287Z" fill="white"/>
<path d="M168.432 188.041V188.168C168.422 188.174 168.411 188.177 168.4 188.177C168.389 188.177 168.378 188.174 168.369 188.168V188.126V188.091C168.171 187.35 168.093 186.588 167.889 185.855C167.684 185.121 167.445 184.444 167.303 183.739C167.212 183.288 166.901 181.023 167.896 181.305C168.34 181.425 168.644 182.067 168.806 182.448C169.025 182.965 169.151 183.517 169.18 184.077C169.222 185.432 168.714 186.715 168.432 188.041Z" fill="#25466A"/>
<path d="M168.756 185.223C168.773 184.705 168.719 184.188 168.594 183.685C168.552 183.509 168.333 182.677 168.051 182.698C167.769 182.719 167.839 183.072 167.818 183.191C167.806 183.702 167.875 184.212 168.023 184.701C168.216 185.697 168.337 186.706 168.383 187.72V187.917V188.079C168.383 188.079 168.383 188.115 168.383 188.129V188.171C168.391 188.177 168.401 188.18 168.411 188.18C168.421 188.18 168.431 188.177 168.439 188.171V188.044V188.143V188.037V187.847C168.596 186.979 168.702 186.103 168.756 185.223ZM168.418 187.508C168.418 186.916 168.333 186.323 168.249 185.738C168.164 185.152 168.093 184.793 167.988 184.327C167.924 184.065 167.882 183.799 167.861 183.53C167.861 183.318 167.861 182.557 168.277 183.029C168.528 183.488 168.662 184.002 168.665 184.524C168.711 184.994 168.711 185.466 168.665 185.935C168.587 186.457 168.495 186.979 168.418 187.508Z" fill="white"/>
<path d="M169.032 191.076H168.989C167.973 191.026 166.626 191.118 165.78 190.448C165.423 190.185 165.14 189.835 164.959 189.431C164.777 189.027 164.703 188.583 164.743 188.142C164.962 187.204 166.231 188.332 166.563 188.6C167.438 189.359 168.269 190.167 169.053 191.019L169.032 191.076Z" fill="#25466A"/>
<path d="M169.067 191.078L168.89 190.972C168.227 190.549 167.571 190.097 166.951 189.618C166.788 189.498 165.646 188.482 165.476 188.849C165.371 189.068 165.751 189.512 165.871 189.667C166.088 189.942 166.347 190.181 166.64 190.372C167.356 190.719 168.119 190.956 168.904 191.078H169.01C169.01 191.078 169.074 191.078 169.067 191.078ZM167.056 190.499C166.733 190.353 166.438 190.152 166.182 189.907C166.012 189.745 165.413 189.138 165.575 188.891C165.66 188.757 165.73 188.828 165.893 188.891L166.104 189.018C166.273 189.131 166.429 189.258 166.591 189.385C166.866 189.611 167.148 189.822 167.437 190.034C167.91 190.38 168.396 190.704 168.89 191.007C168.268 190.87 167.656 190.693 167.056 190.478V190.499Z" fill="white"/>
<path d="M170.887 188.996C170.621 190.16 170.015 191.218 169.144 192.036C169.136 192.04 169.126 192.043 169.116 192.043C169.106 192.043 169.096 192.04 169.088 192.036C169.088 192.036 169.088 191.993 169.088 191.972L169.137 191.923C169.307 190.512 169.49 189.172 169.638 187.789C169.638 187.458 169.92 185.384 170.562 185.723C170.957 185.934 170.978 186.781 171.013 187.133C171.069 187.757 171.026 188.385 170.887 188.996Z" fill="#25466A"/>
<path d="M170.52 187.148C170.485 187.028 170.421 186.915 170.294 186.992C170.047 187.148 169.949 188.121 169.906 188.403C169.737 189.51 169.476 190.583 169.201 191.676C169.201 191.767 169.152 191.859 169.13 191.951L169.067 192.036C169.075 192.04 169.085 192.043 169.095 192.043C169.105 192.043 169.115 192.04 169.123 192.036L169.208 191.923C169.642 191.328 169.98 190.668 170.21 189.969C170.357 189.525 170.457 189.066 170.506 188.601C170.601 188.121 170.606 187.628 170.52 187.148ZM169.215 191.831C169.199 191.847 169.187 191.866 169.18 191.887C169.187 191.849 169.199 191.811 169.215 191.775C169.474 190.944 169.681 190.098 169.836 189.242C169.906 188.805 169.956 188.368 170.04 187.93C170.083 187.754 170.167 187.225 170.322 187.148C170.478 187.07 170.471 187.267 170.485 187.38C170.492 187.486 170.492 187.592 170.485 187.698C170.505 189.174 170.061 190.62 169.215 191.831Z" fill="white"/>
<path d="M169.313 195.013H169.109C169.109 194.829 169.109 194.653 169.109 194.477C169.109 193.771 169.052 193.031 169.01 192.311C169.01 191.902 168.961 191.493 168.911 191.091V191.077C168.911 191.077 168.911 191.006 168.911 190.978C168.915 190.943 168.915 190.908 168.911 190.872C168.82 189.956 168.582 189.061 168.206 188.22C168.079 187.938 167.938 187.663 167.79 187.395L167.747 187.318L167.705 187.233L167.67 187.176C167.204 186.351 166.661 185.561 166.153 184.764L165.723 184.059V184.017V183.967C165.088 182.959 164.454 181.936 163.791 180.948C163.791 180.913 163.826 180.878 163.847 180.913C164.298 181.576 164.764 182.218 165.222 182.867L165.406 183.128L165.773 183.643L166.478 184.68C167.159 185.651 167.783 186.662 168.347 187.705L168.46 187.945L168.53 188.093C168.53 188.15 168.58 188.206 168.608 188.27C169.027 189.286 169.266 190.367 169.313 191.465C169.313 191.542 169.313 191.62 169.313 191.698C169.31 191.733 169.31 191.768 169.313 191.803V191.86C169.31 191.883 169.31 191.907 169.313 191.93V191.987C169.313 192.057 169.313 192.121 169.313 192.184C169.313 192.89 169.363 193.63 169.377 194.35L169.313 195.013Z" fill="#25466A"/>
<path d="M163.255 181.948C162.705 181.2 161.992 179.662 162.81 178.858C162.959 178.704 163.159 178.61 163.372 178.594C163.586 178.578 163.798 178.642 163.967 178.774C164.371 179.147 164.642 179.642 164.736 180.184C165.11 181.496 165.357 182.829 165.829 184.106C165.849 184.152 165.865 184.199 165.879 184.247C165.879 184.247 165.879 184.247 165.836 184.247L165.794 184.127C164.843 183.532 163.987 182.797 163.255 181.948Z" fill="#25466A"/>
<path d="M165.836 184.094C165.642 183.783 165.467 183.46 165.314 183.127C165.007 182.439 164.741 181.732 164.517 181.011C164.433 180.729 164.031 179.354 163.537 179.904C163.371 180.182 163.32 180.513 163.396 180.828C163.453 181.279 163.596 181.715 163.819 182.112C164.292 182.877 164.921 183.534 165.667 184.037L165.766 184.115V184.15H165.808C165.808 184.15 165.843 184.101 165.836 184.094ZM165.618 183.939C165.023 183.497 164.498 182.969 164.059 182.373C163.834 182.053 163.661 181.701 163.544 181.329C163.494 181.165 163.459 180.998 163.438 180.828C163.424 180.699 163.424 180.569 163.438 180.44C163.438 180.158 163.558 179.855 163.727 179.819C163.897 179.784 164.002 179.904 164.136 180.144C164.186 180.222 164.228 180.305 164.263 180.391C164.352 180.602 164.428 180.819 164.489 181.04C164.609 181.406 164.722 181.745 164.856 182.126C164.94 182.366 165.039 182.605 165.138 182.831C165.314 183.24 165.519 183.636 165.752 184.016L165.618 183.939Z" fill="white"/>
<path d="M106.256 190.37C105.297 190.61 104.225 190.885 103.294 190.42C102.838 190.236 102.435 189.942 102.121 189.564C101.807 189.186 101.592 188.736 101.495 188.254C101.495 187.965 101.495 187.782 101.82 187.838C102.326 188.007 102.789 188.286 103.174 188.657C103.675 189.037 104.211 189.37 104.775 189.651C105.177 189.841 105.593 189.997 105.995 190.18L106.15 190.251H106.207C106.207 190.251 106.207 190.251 106.249 190.251C106.257 190.25 106.265 190.251 106.272 190.254C106.28 190.256 106.287 190.26 106.293 190.266C106.298 190.271 106.303 190.277 106.307 190.284C106.31 190.291 106.312 190.299 106.313 190.307C106.313 190.315 106.312 190.323 106.309 190.33C106.307 190.338 106.303 190.345 106.298 190.35C106.292 190.356 106.286 190.361 106.279 190.365C106.272 190.368 106.264 190.37 106.256 190.37Z" fill="#25466A"/>
<path d="M106.256 190.287C105.403 190.449 104.493 190.675 103.689 190.238C103.322 190.022 102.989 189.754 102.702 189.441C102.575 189.299 102.18 188.883 102.264 188.672C102.412 188.277 103.717 189.469 103.887 189.575C104.515 189.948 105.229 190.152 105.96 190.167L106.115 190.238C105.597 190.235 105.083 190.149 104.592 189.984C103.975 189.701 103.403 189.33 102.892 188.883C102.772 188.799 102.391 188.502 102.321 188.749C102.25 188.996 102.652 189.321 102.737 189.412C103.008 189.709 103.321 189.964 103.668 190.167C104.472 190.618 105.382 190.414 106.242 190.273L106.256 190.287Z" fill="white"/>
<path d="M106.905 190.843V190.956C106.898 190.963 106.888 190.967 106.877 190.967C106.867 190.967 106.857 190.963 106.849 190.956V190.907C106.546 190.307 106.341 189.651 106.031 189.051C105.72 188.452 105.396 187.916 105.142 187.316C104.98 186.943 104.303 185.024 105.22 185.087C105.629 185.087 106.01 185.624 106.221 185.927C106.504 186.338 106.712 186.797 106.835 187.281C107.015 188.46 107.039 189.658 106.905 190.843Z" fill="#25466A"/>
<path d="M106.68 188.325C106.601 187.871 106.461 187.429 106.263 187.013C106.193 186.872 105.854 186.181 105.607 186.251C105.361 186.322 105.495 186.611 105.502 186.717C105.58 187.165 105.727 187.598 105.939 188C106.291 188.834 106.581 189.692 106.806 190.568C106.803 190.627 106.803 190.685 106.806 190.744C106.806 190.794 106.806 190.836 106.806 190.885V190.977C106.814 190.984 106.824 190.988 106.835 190.988C106.845 190.988 106.855 190.984 106.863 190.977C106.859 190.939 106.859 190.902 106.863 190.864C106.86 190.895 106.86 190.925 106.863 190.956V190.843C106.863 190.794 106.863 190.744 106.863 190.695C106.844 189.902 106.783 189.111 106.68 188.325ZM106.792 190.377C106.658 189.862 106.503 189.362 106.327 188.861C106.151 188.36 106.016 188.064 105.847 187.676C105.742 187.449 105.657 187.213 105.593 186.971C105.551 186.794 105.438 186.124 105.868 186.463C106.171 186.817 106.379 187.241 106.475 187.697C106.585 188.101 106.661 188.514 106.701 188.931C106.75 189.432 106.764 189.905 106.792 190.37V190.377Z" fill="white"/>
<path d="M107.97 193.391H107.935C107.039 193.525 105.876 193.849 105.022 193.391C104.664 193.226 104.354 192.971 104.123 192.651C103.892 192.331 103.747 191.956 103.703 191.564C103.703 190.704 105.036 191.458 105.375 191.635C106.272 192.141 107.141 192.697 107.977 193.299C107.977 193.299 107.992 193.384 107.97 193.391Z" fill="#25466A"/>
<path d="M107.991 193.355L107.822 193.291C107.166 193.044 106.517 192.769 105.889 192.466C105.727 192.388 104.549 191.704 104.479 192.057C104.429 192.261 104.838 192.586 104.965 192.699C105.203 192.896 105.473 193.051 105.762 193.157C106.452 193.338 107.166 193.412 107.878 193.376H107.998C107.998 193.376 108.005 193.369 107.991 193.355ZM106.143 193.214C105.834 193.144 105.538 193.022 105.269 192.854C105.092 192.741 104.465 192.318 104.563 192.078C104.662 191.838 104.69 191.993 104.846 192.036C104.916 192.052 104.985 192.075 105.05 192.106C105.219 192.174 105.384 192.251 105.544 192.339C105.826 192.48 106.108 192.621 106.397 192.748C106.87 192.967 107.349 193.157 107.808 193.341C107.251 193.323 106.695 193.273 106.143 193.192V193.214Z" fill="white"/>
<path d="M109.212 191.232C109.187 192.294 108.848 193.324 108.238 194.194C108.231 194.199 108.223 194.202 108.214 194.202C108.205 194.202 108.196 194.199 108.189 194.194C108.182 194.186 108.178 194.176 108.178 194.166C108.178 194.156 108.182 194.146 108.189 194.138V194.088C108.09 192.854 108.006 191.627 107.879 190.392C107.879 190.103 107.702 188.276 108.323 188.425C108.704 188.537 108.873 189.278 108.972 189.602C109.136 190.13 109.217 190.68 109.212 191.232Z" fill="#25466A"/>
<path d="M108.556 189.667C108.506 189.575 108.436 189.483 108.337 189.575C108.238 189.667 108.238 190.619 108.252 190.866C108.302 191.867 108.252 192.848 108.252 193.842C108.252 193.927 108.252 194.012 108.252 194.096L108.21 194.181C108.217 194.186 108.226 194.189 108.235 194.189C108.243 194.189 108.252 194.186 108.259 194.181C108.282 194.146 108.301 194.108 108.316 194.068C108.587 193.471 108.763 192.836 108.838 192.185C108.88 191.77 108.88 191.351 108.838 190.936C108.826 190.499 108.73 190.068 108.556 189.667ZM108.259 193.983V194.04C108.259 194.005 108.259 193.969 108.259 193.934C108.337 193.163 108.365 192.388 108.344 191.614C108.344 191.226 108.295 190.831 108.295 190.443C108.295 190.273 108.295 189.801 108.393 189.702C108.492 189.603 108.541 189.78 108.577 189.878C108.607 189.968 108.63 190.06 108.647 190.153C108.933 191.446 108.797 192.795 108.259 194.005V193.983Z" fill="white"/>
<path d="M108.922 196.754L108.739 196.796L108.633 196.33C108.485 195.703 108.33 195.082 108.16 194.461C108.069 194.109 107.97 193.756 107.857 193.41C107.856 193.399 107.856 193.387 107.857 193.375C107.857 193.375 107.857 193.319 107.857 193.29C107.857 193.262 107.857 193.234 107.857 193.199C107.613 192.419 107.246 191.683 106.771 191.019C106.609 190.793 106.439 190.582 106.256 190.37C106.243 190.348 106.227 190.329 106.207 190.314L106.157 190.25L106.115 190.208C105.558 189.573 104.944 188.981 104.359 188.381L103.858 187.859V187.824L103.816 187.789C103.11 187.027 102.348 186.251 101.594 185.503C101.594 185.503 101.594 185.44 101.636 185.468C102.144 185.955 102.666 186.442 103.188 186.921L103.392 187.119L103.801 187.5C104.077 187.753 104.345 188.014 104.606 188.275C105.374 188.998 106.1 189.766 106.778 190.575L106.919 190.765C106.953 190.802 106.984 190.842 107.011 190.885L107.11 191.019C107.653 191.832 108.047 192.735 108.273 193.685C108.273 193.749 108.316 193.819 108.33 193.883C108.327 193.913 108.327 193.944 108.33 193.975C108.33 193.975 108.33 194.01 108.33 194.024V194.087C108.33 194.087 108.33 194.123 108.33 194.137L108.372 194.306C108.527 194.934 108.675 195.555 108.816 196.182L108.922 196.754Z" fill="#25466A"/>
<path d="M101.319 186.456C100.699 185.906 99.8028 184.693 100.374 183.847C100.475 183.684 100.633 183.566 100.817 183.514C101.001 183.461 101.197 183.48 101.369 183.565C101.785 183.81 102.108 184.187 102.286 184.637C102.85 185.709 103.308 186.83 103.943 187.86L104.014 187.973L103.95 187.874C103.006 187.538 102.119 187.06 101.319 186.456Z" fill="#25466A"/>
<path d="M103.929 187.86C103.706 187.622 103.497 187.372 103.301 187.112C102.907 186.558 102.546 185.981 102.222 185.384C102.095 185.158 101.516 184.03 101.171 184.601C101.062 184.865 101.062 185.162 101.171 185.426C101.304 185.81 101.51 186.164 101.777 186.47C102.322 187.057 102.989 187.517 103.731 187.817L103.83 187.867H103.865L103.929 187.86ZM103.71 187.768C103.112 187.489 102.558 187.123 102.067 186.682C101.817 186.443 101.605 186.167 101.439 185.864C101.368 185.73 101.306 185.59 101.255 185.447C101.214 185.34 101.184 185.229 101.164 185.116C101.121 184.869 101.164 184.58 101.305 184.523C101.446 184.467 101.566 184.523 101.721 184.728C101.777 184.791 101.828 184.857 101.876 184.926C101.989 185.088 102.095 185.271 102.194 185.447C102.356 185.744 102.525 186.04 102.701 186.329C102.878 186.618 102.948 186.717 103.082 186.9C103.307 187.225 103.555 187.534 103.823 187.824L103.71 187.768Z" fill="white"/>
<path d="M178.137 181.455C177.848 182.513 177.481 183.571 177.108 184.573C176.896 185.158 176.677 185.737 176.466 186.322C176.162 186.941 176.01 187.623 176.021 188.311C176.025 188.342 176.025 188.373 176.021 188.403C176.011 188.414 175.997 188.422 175.983 188.425C175.968 188.429 175.952 188.428 175.938 188.423C175.924 188.417 175.911 188.408 175.902 188.396C175.893 188.384 175.888 188.369 175.887 188.354C175.884 188.34 175.884 188.325 175.887 188.311C175.814 188.121 175.764 187.922 175.739 187.719C175.604 187.18 175.5 186.634 175.429 186.082C175.291 184.956 175.291 183.816 175.429 182.69C175.548 181.682 175.802 180.696 176.184 179.756C176.459 178.859 176.943 178.04 177.594 177.364C178.201 176.906 178.518 177.83 178.603 178.296C178.686 179.37 178.527 180.45 178.137 181.455Z" fill="#0A2B3B"/>
<path d="M177.496 179.035C177.108 178.979 176.635 180.199 176.416 180.728C176.077 181.556 175.84 182.423 175.711 183.309C175.475 184.908 175.516 186.535 175.831 188.12C175.839 188.184 175.851 188.247 175.866 188.31C175.863 188.324 175.863 188.339 175.866 188.353C175.867 188.368 175.872 188.382 175.881 188.395C175.89 188.407 175.903 188.416 175.917 188.422C175.931 188.427 175.947 188.428 175.962 188.424C175.976 188.421 175.99 188.413 176 188.402C175.993 188.268 175.993 188.134 176 188C176 187.873 176 187.753 176 187.64C176.138 186.334 176.413 185.045 176.818 183.796C177.249 182.336 178.032 179.084 177.496 179.035ZM175.902 187.894C175.902 188.073 175.902 188.249 175.902 188.423C175.902 188.289 175.859 188.162 175.845 188.028C175.611 186.63 175.566 185.206 175.711 183.796C175.804 183.002 175.979 182.219 176.233 181.461C176.372 181.055 176.535 180.657 176.72 180.269C176.804 180.107 177.242 179.092 177.482 179.176C177.721 179.261 177.545 180.199 177.538 180.22C177.522 180.414 177.496 180.607 177.46 180.798C177.404 181.186 177.312 181.581 177.228 181.969C177.023 182.809 176.776 183.641 176.522 184.473C176.184 185.585 175.981 186.734 175.916 187.894H175.902Z" fill="white"/>
<path d="M183.844 185.342C182.853 186.585 181.591 187.586 180.155 188.269C179.414 188.664 178.652 189.023 177.898 189.397C177.207 189.698 176.548 190.066 175.93 190.498C175.901 190.514 175.875 190.536 175.852 190.561C175.689 190.695 175.54 190.847 175.408 191.013H175.373V191.069C175.408 191.069 175.373 191.02 175.373 190.998V190.949V190.878C175.824 189.27 177.214 187.782 178.37 186.646C179.49 185.479 180.911 184.644 182.475 184.234C182.87 184.142 183.787 183.867 184.126 184.234C184.464 184.601 184.069 185.066 183.844 185.342Z" fill="#0A2B3B"/>
<path d="M182.758 185.179C182.468 184.791 181.347 185.482 181.058 185.645C180.213 186.143 179.415 186.717 178.674 187.359C177.423 188.335 176.333 189.501 175.443 190.815L175.401 190.857V190.928V190.977L175.457 190.928C175.605 190.794 175.761 190.667 175.916 190.54C175.938 190.514 175.964 190.493 175.993 190.476C177.119 189.637 178.297 188.872 179.52 188.184C180.363 187.692 181.156 187.12 181.89 186.477C182.031 186.329 183.004 185.511 182.758 185.179ZM182.334 185.884C181.276 187.168 179.654 188 178.25 188.819C177.293 189.368 176.388 190.006 175.549 190.723C176.396 189.563 177.395 188.521 178.518 187.627C179.14 187.09 179.792 186.591 180.472 186.131C180.836 185.881 181.218 185.657 181.615 185.461C181.855 185.343 182.108 185.253 182.37 185.193C182.863 185.123 182.511 185.666 182.334 185.884Z" fill="white"/>
<path d="M179.47 191.662C179.215 192.299 178.825 192.874 178.328 193.347C177.376 194.321 176.212 195.076 175.217 195.978L174.773 196.395L174.632 196.606L174.709 196.373C175.152 195.033 175.739 193.744 176.459 192.529C176.902 191.872 177.423 191.27 178.01 190.738C178.3 190.498 178.963 189.99 179.372 190.181C179.781 190.371 179.612 191.323 179.47 191.662Z" fill="#0A2B3B"/>
<path d="M178.829 191.111C178.413 190.758 176.903 192.712 176.713 192.959C175.97 193.891 175.351 194.915 174.872 196.006C174.815 196.126 174.766 196.246 174.717 196.373L174.639 196.605C174.639 196.605 174.766 196.408 174.78 196.394L174.858 196.316L175.225 195.978C175.859 195.272 176.501 194.567 177.122 193.862C177.57 193.351 177.978 192.806 178.342 192.232C178.42 192.127 179.012 191.266 178.829 191.111ZM178.61 191.696C177.679 193.445 176.127 194.708 174.858 196.196L174.794 196.274L174.858 196.133C175.271 195.24 175.769 194.39 176.346 193.594C176.694 193.1 177.074 192.629 177.482 192.183C177.7 191.932 177.936 191.696 178.187 191.478C178.293 191.386 178.61 191.146 178.695 191.21C178.779 191.273 178.674 191.576 178.61 191.696Z" fill="white"/>
<path d="M186.362 177.076C184.528 180.024 180.719 180.962 178.695 183.77C178.631 183.854 178.575 183.946 178.518 184.031C178.513 184.039 178.505 184.046 178.496 184.051C178.486 184.056 178.476 184.059 178.466 184.059C178.455 184.059 178.445 184.056 178.435 184.051C178.426 184.046 178.418 184.039 178.413 184.031C178.413 184.031 178.413 184.031 178.413 183.981L178.455 183.918C179.046 182.022 179.976 180.249 181.199 178.684C182.156 177.287 183.513 176.213 185.092 175.602C185.487 175.468 186.263 175.171 186.63 175.545C186.997 175.919 186.595 176.709 186.362 177.076Z" fill="#0A2B3B"/>
<path d="M185.106 177.027C184.951 176.872 184.669 176.991 184.506 177.027C184.103 177.166 183.717 177.353 183.357 177.584C182.623 178.059 181.964 178.642 181.403 179.312C180.407 180.426 179.554 181.661 178.864 182.987C178.709 183.287 178.57 183.596 178.448 183.911L178.405 184.024C178.411 184.032 178.419 184.04 178.428 184.045C178.437 184.049 178.448 184.052 178.458 184.052C178.469 184.052 178.479 184.049 178.488 184.045C178.497 184.04 178.505 184.032 178.511 184.024C178.56 183.939 178.624 183.854 178.68 183.77C179.041 183.18 179.459 182.627 179.929 182.119C180.685 181.361 181.491 180.654 182.341 180.003C182.68 179.714 185.649 177.563 185.106 177.027ZM184.782 177.732C184.204 178.375 183.561 178.957 182.863 179.467C182.2 180.017 181.53 180.56 180.874 181.125C180.352 181.57 179.868 182.059 179.428 182.585C179.061 183.024 178.735 183.496 178.455 183.995C178.68 183.479 178.937 182.978 179.223 182.493C179.748 181.641 180.322 180.822 180.944 180.039C181.476 179.334 182.092 178.697 182.778 178.141C183.155 177.842 183.565 177.587 183.999 177.379C184.492 177.154 184.916 177.027 185.007 177.189C185.099 177.351 184.937 177.528 184.782 177.725V177.732Z" fill="white"/>
<path d="M181.022 180.058C180.479 180.89 179.95 181.73 179.428 182.576L178.723 183.768L178.455 184.198C177.603 185.479 176.856 186.826 176.219 188.226C175.912 188.976 175.675 189.752 175.514 190.546C175.514 190.631 175.514 190.709 175.464 190.793V190.927C175.464 190.927 175.464 190.977 175.464 191.005C175.337 191.71 175.246 192.416 175.154 193.064C175.034 194.01 174.977 194.955 174.928 195.886C174.928 195.886 174.928 195.942 174.928 195.97C174.932 196.013 174.932 196.055 174.928 196.097V196.161C174.925 196.201 174.925 196.241 174.928 196.281C174.928 196.591 174.893 196.894 174.879 197.198L174.59 197.155C174.541 196.215 174.562 195.272 174.653 194.334C174.65 194.315 174.65 194.296 174.653 194.278V194.003C174.653 193.89 174.653 193.777 174.688 193.664C174.688 193.396 174.752 193.128 174.787 192.86C174.941 191.292 175.282 189.748 175.803 188.261C175.803 188.219 175.838 188.183 175.852 188.141V188.092C175.86 188.06 175.871 188.029 175.887 188L175.944 187.866L176.05 187.626V187.549C176.688 186.327 177.407 185.149 178.201 184.022C178.342 183.81 178.476 183.599 178.617 183.394L178.857 183.042L179.217 182.52C179.788 181.701 180.373 180.89 180.938 180.065C181.022 179.98 181.022 180.023 181.022 180.058Z" fill="#0A2B3B"/>
<path d="M205.187 196.485C204.898 197.543 204.531 198.601 204.157 199.603C203.946 200.188 203.727 200.767 203.522 201.352C203.22 201.971 203.066 202.652 203.071 203.341C203.078 203.371 203.078 203.403 203.071 203.433C203.06 203.442 203.046 203.447 203.032 203.449C203.018 203.451 203.004 203.45 202.99 203.445C202.977 203.44 202.965 203.432 202.956 203.421C202.946 203.41 202.94 203.398 202.937 203.384C202.94 203.37 202.94 203.355 202.937 203.341C202.864 203.15 202.815 202.951 202.789 202.749C202.656 202.21 202.555 201.663 202.486 201.112C202.333 199.987 202.321 198.848 202.45 197.72C202.571 196.71 202.824 195.721 203.205 194.779C203.484 193.885 203.967 193.069 204.616 192.394C205.222 191.929 205.533 192.86 205.617 193.326C205.715 194.398 205.568 195.478 205.187 196.485Z" fill="#0A2B3B"/>
<path d="M204.567 194.067C204.172 194.003 203.699 195.231 203.48 195.76C203.14 196.588 202.903 197.455 202.775 198.341C202.547 199.938 202.587 201.561 202.895 203.145C202.895 203.208 202.895 203.279 202.895 203.342C202.898 203.356 202.898 203.37 202.895 203.384C202.898 203.398 202.904 203.411 202.914 203.422C202.923 203.433 202.935 203.441 202.948 203.446C202.962 203.451 202.976 203.452 202.99 203.45C203.004 203.448 203.018 203.442 203.029 203.434V203.067C203.029 202.94 203.029 202.82 203.029 202.7C203.162 201.396 203.434 200.11 203.84 198.863C204.299 197.368 205.082 194.144 204.567 194.067ZM202.965 202.926C202.965 203.102 202.965 203.279 202.965 203.455C202.965 203.321 202.916 203.194 202.902 203.06C202.67 201.661 202.627 200.238 202.775 198.828C202.864 198.031 203.039 197.246 203.297 196.486C203.431 196.08 203.594 195.684 203.784 195.301C203.861 195.139 204.306 194.123 204.538 194.208C204.771 194.293 204.602 195.231 204.602 195.252C204.602 195.442 204.553 195.633 204.524 195.83C204.461 196.218 204.376 196.613 204.284 197.001C204.08 197.84 203.833 198.673 203.579 199.505C203.242 200.618 203.036 201.766 202.965 202.926Z" fill="white"/>
<path d="M210.921 200.366C209.935 201.614 208.675 202.618 207.239 203.301C206.492 203.696 205.73 204.055 204.975 204.429C204.283 204.727 203.624 205.096 203.007 205.529L202.93 205.586C202.77 205.722 202.624 205.873 202.493 206.037C202.479 206.042 202.464 206.042 202.45 206.037C202.453 206.056 202.453 206.075 202.45 206.094V206.023C202.443 206.015 202.439 206.005 202.439 205.995C202.439 205.985 202.443 205.974 202.45 205.967C202.45 205.967 202.45 205.917 202.45 205.896C202.902 204.288 204.291 202.8 205.448 201.664C206.571 200.5 207.99 199.664 209.553 199.245C209.955 199.16 210.865 198.885 211.203 199.245C211.542 199.605 211.119 200.091 210.921 200.366Z" fill="#0A2B3B"/>
<path d="M209.807 200.244C209.518 199.849 208.397 200.548 208.107 200.71C207.262 201.189 206.459 201.742 205.709 202.36C204.458 203.336 203.368 204.503 202.479 205.817C202.467 205.832 202.452 205.847 202.437 205.859C202.433 205.882 202.433 205.906 202.437 205.929C202.43 205.937 202.426 205.947 202.426 205.958C202.426 205.968 202.43 205.978 202.437 205.986L202.493 205.936L202.951 205.541L203.029 205.485C204.155 204.647 205.333 203.881 206.556 203.193C207.398 202.7 208.192 202.129 208.926 201.486C209.088 201.359 210.054 200.541 209.807 200.244ZM209.384 200.95C208.326 202.233 206.704 203.066 205.307 203.884C204.345 204.429 203.437 205.067 202.599 205.788C203.448 204.626 204.449 203.582 205.575 202.685C206.195 202.152 206.845 201.655 207.522 201.197C207.888 200.945 208.272 200.721 208.672 200.526C208.909 200.407 209.16 200.317 209.419 200.258C209.941 200.153 209.568 200.696 209.384 200.95Z" fill="white"/>
<path d="M201.766 209.351C201.754 209.356 201.741 209.359 201.727 209.359C201.714 209.359 201.701 209.356 201.688 209.351V209.386C201.688 209.386 201.688 209.386 201.653 209.386C200.443 207.823 199.569 206.027 199.086 204.11C198.91 203.312 198.867 202.49 198.959 201.677C199.029 201.127 199.163 200.012 199.664 199.674C200.736 199.011 201.075 202.566 201.145 203.102C201.244 204.082 201.258 205.07 201.336 206.043C201.413 207.016 201.583 208.159 201.745 209.245C201.761 209.257 201.773 209.274 201.777 209.294C201.781 209.314 201.777 209.334 201.766 209.351Z" fill="#0A2B3B"/>
<path d="M206.52 206.693C206.266 207.329 205.876 207.902 205.378 208.372C204.432 209.352 203.262 210.107 202.274 211.01C202.119 211.144 201.971 211.285 201.823 211.426L201.682 211.637C201.682 211.637 201.682 211.546 201.759 211.405C202.203 210.061 202.792 208.77 203.516 207.553C203.957 206.897 204.478 206.297 205.067 205.769C205.349 205.529 206.012 205.021 206.429 205.212C206.845 205.402 206.64 206.354 206.52 206.693Z" fill="#0A2B3B"/>
<path d="M205.885 206.144C205.462 205.791 203.959 207.745 203.769 207.992C203.026 208.922 202.41 209.947 201.935 211.039C201.879 211.159 201.822 211.279 201.773 211.406C201.724 211.533 201.695 211.632 201.695 211.639C201.695 211.646 201.822 211.441 201.843 211.427L201.914 211.349L202.281 211.011C202.916 210.306 203.557 209.6 204.178 208.895C204.629 208.386 205.037 207.841 205.398 207.266C205.469 207.16 206.068 206.299 205.885 206.144ZM205.659 206.722C204.728 208.479 203.177 209.741 201.907 211.23L201.843 211.3C201.867 211.257 201.889 211.212 201.907 211.166C202.323 210.275 202.821 209.425 203.395 208.627C203.746 208.133 204.128 207.662 204.538 207.216C204.756 206.965 204.992 206.729 205.243 206.511C205.356 206.426 205.666 206.186 205.751 206.25C205.836 206.313 205.709 206.595 205.659 206.722Z" fill="white"/>
<path d="M213.418 192.105C211.577 195.054 207.776 195.992 205.751 198.799C205.688 198.884 205.631 198.975 205.575 199.06C205.569 199.069 205.561 199.076 205.552 199.081C205.543 199.086 205.533 199.088 205.522 199.088C205.512 199.088 205.501 199.086 205.492 199.081C205.483 199.076 205.475 199.069 205.469 199.06C205.469 199.06 205.469 199.06 205.469 199.01L205.512 198.947C206.106 197.052 207.035 195.28 208.255 193.713C209.213 192.317 210.57 191.242 212.149 190.631C212.544 190.497 213.327 190.201 213.693 190.575C214.06 190.948 213.644 191.738 213.418 192.105Z" fill="#0A2B3B"/>
<path d="M212.163 192.058C212.008 191.903 211.718 192.023 211.556 192.058C211.152 192.198 210.766 192.385 210.407 192.615C209.675 193.091 209.019 193.673 208.46 194.343C207.461 195.457 206.606 196.692 205.914 198.018C205.758 198.321 205.624 198.625 205.497 198.942L205.455 199.055C205.461 199.064 205.469 199.071 205.478 199.076C205.487 199.081 205.497 199.083 205.508 199.083C205.518 199.083 205.529 199.081 205.538 199.076C205.547 199.071 205.555 199.064 205.561 199.055L205.709 198.836C206.07 198.246 206.488 197.693 206.957 197.186C207.716 196.431 208.522 195.724 209.37 195.07C209.729 194.745 212.699 192.587 212.163 192.058ZM211.831 192.763C211.255 193.408 210.612 193.99 209.913 194.498C209.25 195.049 208.58 195.592 207.924 196.156C207.414 196.603 206.942 197.091 206.513 197.616C206.144 198.055 205.815 198.527 205.533 199.027C205.759 198.511 206.016 198.01 206.301 197.524C206.824 196.671 207.399 195.852 208.022 195.07C208.554 194.367 209.167 193.73 209.849 193.172C210.226 192.874 210.636 192.618 211.07 192.411C211.563 192.185 211.987 192.058 212.078 192.22C212.17 192.382 211.994 192.559 211.831 192.756V192.763Z" fill="white"/>
<path d="M208.079 195.089C207.536 195.922 207.007 196.761 206.485 197.608C206.231 198.003 205.991 198.405 205.744 198.8L205.483 199.23C204.627 200.509 203.877 201.856 203.24 203.257C202.936 204.008 202.7 204.785 202.535 205.578C202.535 205.662 202.535 205.74 202.486 205.825V205.959C202.486 205.959 202.486 206.008 202.486 206.036C202.359 206.742 202.267 207.447 202.182 208.096C202.055 209.041 201.999 209.986 201.95 210.917V211.002C201.95 211.044 201.95 211.087 201.95 211.129V211.192C201.953 211.232 201.953 211.272 201.95 211.312C201.95 211.616 201.95 211.919 201.9 212.229L201.611 212.187C201.562 211.246 201.583 210.303 201.675 209.366C201.675 209.366 201.675 209.33 201.675 209.309C201.675 209.288 201.675 209.126 201.675 209.034C201.679 208.921 201.691 208.807 201.71 208.695C201.71 208.427 201.766 208.159 201.801 207.891C201.958 206.324 202.299 204.78 202.817 203.293C202.817 203.25 202.852 203.208 202.867 203.173V203.116C202.864 203.088 202.864 203.06 202.867 203.032L202.923 202.898C202.958 202.813 202.994 202.735 203.036 202.651V202.58C203.672 201.337 204.39 200.137 205.187 198.99L205.61 198.362L205.843 198.01L206.203 197.488C206.774 196.662 207.36 195.858 207.924 195.033C208.037 195.012 208.1 195.054 208.079 195.089Z" fill="#0A2B3B"/>
<path d="M212.967 220.306H89.6315C89.6315 220.306 89.1731 208.315 93.5321 203.956C97.891 199.597 102.095 198.539 103.506 197.608C106.831 195.046 109.951 192.228 112.837 189.179C116.018 185.787 120.596 180.715 122.966 180.236C125.336 179.756 136.163 177.873 138.399 178.627C140.635 179.382 152.738 188.157 154.036 188.537C155.334 188.918 178.688 198.342 180.804 198.708C182.92 199.075 195.037 201.925 200.363 204.528C207.663 208.104 212.967 220.306 212.967 220.306Z" fill="#25466A"/>
<path d="M176.642 197.276C171.225 197.523 163.205 202.319 161.618 203.053C159.284 204.146 145.24 200.231 139.703 199.759C134.166 199.286 132.403 192.409 132.742 191.295C133.08 190.18 126.69 188.205 127.487 185.553C127.952 184.002 142.362 180.912 142.362 180.912C146.778 183.733 153.119 188.255 154.036 188.523C154.953 188.791 169.292 194.553 176.642 197.276Z" fill="#173455"/>
<path d="M118.247 197.615C118.353 195.781 124.426 192.628 126.006 192.917C127.586 193.206 130.689 195.83 131.127 196.853C131.564 197.876 133.602 202.82 131.656 202.855C129.709 202.891 126.013 200.034 123.975 199.956C121.936 199.879 118.12 199.117 118.247 197.615Z" fill="#173455"/>
<path d="M163.911 204.674C163.53 203.531 169.165 201.317 170.632 201.521C172.099 201.726 173.51 204.138 172.219 204.773C170.929 205.407 169.024 204.512 168.03 204.773C167.035 205.034 164.2 205.541 163.911 204.674Z" fill="#173455"/>
<path d="M89.5047 222.936H63.3013C60.48 222.936 66.5247 215.953 68.9934 214.937C71.4621 213.922 77.923 214.5 79.51 215.643C81.097 216.785 87.826 220.34 88.6794 220.933C88.9993 221.148 89.2483 221.453 89.3951 221.809C89.542 222.166 89.5801 222.558 89.5047 222.936Z" fill="#173455"/>
<path d="M184.083 223.521H237.407C237.407 223.521 234.91 220.699 232.152 220.121C229.394 219.542 223.152 217.723 222.024 216.721C220.895 215.72 211.387 212.016 207.762 212.115C204.136 212.214 198.134 215.522 197.252 216.347C196.371 217.172 193.316 220.149 192.315 220.396C191.313 220.643 186.552 221.221 184.083 223.521Z" fill="#173455"/>
<path d="M226.926 218.831C225.91 219 224.88 219.073 223.85 219.049C223.42 219.007 219.237 217.371 217.7 217.201C216.162 217.032 207.825 216.75 207.218 216.016C206.76 215.466 209.941 213.731 212.036 212.828C216.183 213.928 221.205 216.009 222.023 216.722C222.602 217.236 224.534 217.956 226.658 218.626L226.926 218.831Z" fill="#0A2B3B"/>
<path d="M212.967 218.632C212.967 218.265 215.732 217.99 216.367 218.068C217.001 218.145 219.752 219.098 219.188 219.281C218.311 219.507 217.405 219.6 216.501 219.556C215.626 219.5 212.967 219.048 212.967 218.632Z" fill="#0A2B3B"/>
</svg>
