<svg width="22" height="23" viewBox="0 0 22 23" fill="none" xmlns="http://www.w3.org/2000/svg">
<path d="M8.25 19.25H4.58333C3.85114 19.25 3.25 18.6489 3.25 17.9167V5.08333C3.25 4.35114 3.85114 3.75 4.58333 3.75H8.25C8.98219 3.75 9.58333 4.35114 9.58333 5.08333V17.9167C9.58333 18.6489 8.98219 19.25 8.25 19.25ZM17.4167 19.25H13.75C13.0178 19.25 12.4167 18.6489 12.4167 17.9167V13.3333C12.4167 12.6011 13.0178 12 13.75 12H17.4167C18.1489 12 18.75 12.6011 18.75 13.3333V17.9167C18.75 18.6489 18.1489 19.25 17.4167 19.25ZM18.75 5.08333V7.83333C18.75 8.56552 18.1489 9.16667 17.4167 9.16667H13.75C13.0178 9.16667 12.4167 8.56552 12.4167 7.83333V5.08333C12.4167 4.35114 13.0178 3.75 13.75 3.75H17.4167C18.1489 3.75 18.75 4.35114 18.75 5.08333Z" stroke="#757575"/>
</svg>
