<svg width="18" height="19" viewBox="0 0 18 19" fill="none" xmlns="http://www.w3.org/2000/svg">
<path d="M14.625 3.5H12.375V2.375C12.375 2.27554 12.3355 2.18016 12.2652 2.10984C12.1948 2.03951 12.0995 2 12 2C11.9005 2 11.8052 2.03951 11.7348 2.10984C11.6645 2.18016 11.625 2.27554 11.625 2.375V3.5H6.375V2.375C6.375 2.27554 6.33549 2.18016 6.26516 2.10984C6.19484 2.03951 6.09946 2 6 2C5.90054 2 5.80516 2.03951 5.73483 2.10984C5.66451 2.18016 5.625 2.27554 5.625 2.375V3.5H3.375C2.8779 3.5006 2.40133 3.69833 2.04983 4.04983C1.69833 4.40133 1.5006 4.8779 1.5 5.375V15.125C1.5006 15.6221 1.69833 16.0987 2.04983 16.4502C2.40133 16.8017 2.8779 16.9994 3.375 17H14.625C15.1223 17 15.5992 16.8025 15.9508 16.4508C16.3025 16.0992 16.5 15.6223 16.5 15.125V5.375C16.5 4.87772 16.3025 4.40081 15.9508 4.04917C15.5992 3.69754 15.1223 3.5 14.625 3.5ZM15.75 15.125C15.75 15.4234 15.6315 15.7095 15.4205 15.9205C15.2095 16.1315 14.9234 16.25 14.625 16.25H3.375C3.07663 16.25 2.79048 16.1315 2.5795 15.9205C2.36853 15.7095 2.25 15.4234 2.25 15.125V8.75H15.75V15.125ZM15.75 8H2.25V5.375C2.25 4.754 2.7525 4.25 3.375 4.25H5.625V5.375C5.625 5.47446 5.66451 5.56984 5.73483 5.64016C5.80516 5.71049 5.90054 5.75 6 5.75C6.09946 5.75 6.19484 5.71049 6.26516 5.64016C6.33549 5.56984 6.375 5.47446 6.375 5.375V4.25H11.625V5.375C11.625 5.47446 11.6645 5.56984 11.7348 5.64016C11.8052 5.71049 11.9005 5.75 12 5.75C12.0995 5.75 12.1948 5.71049 12.2652 5.64016C12.3355 5.56984 12.375 5.47446 12.375 5.375V4.25H14.625C14.9234 4.25 15.2095 4.36853 15.4205 4.5795C15.6315 4.79048 15.75 5.07663 15.75 5.375V8Z" fill="#757575"/>
</svg>
