<svg width="40" height="40" viewBox="0 0 40 40" fill="none" xmlns="http://www.w3.org/2000/svg">
<path d="M34.1176 19.5586H5.88238C5.39706 19.5586 5 19.9557 5 20.441C5 20.9263 5.39706 21.3234 5.88238 21.3234H7.64706V38.088C7.64706 38.5733 8.04412 38.9704 8.52944 38.9704C9.01476 38.9704 9.41182 38.5733 9.41182 38.088V21.3233H12.0589V33.6762C12.0589 34.1615 12.4559 34.5586 12.9413 34.5586C13.4266 34.5586 13.8236 34.1615 13.8236 33.6762V21.3233H26.1765V33.6762C26.1765 34.1615 26.5735 34.5586 27.0588 34.5586C27.5442 34.5586 27.9412 34.1615 27.9412 33.6762V21.3233H30.5883V38.088C30.5883 38.5733 30.9853 38.9704 31.4707 38.9704C31.956 38.9704 32.353 38.5733 32.353 38.088V21.3233H34.1176C34.603 21.3233 35 20.9262 35 20.4409C35 19.9557 34.603 19.5586 34.1176 19.5586Z" fill="#757575" stroke="#F8F8F8" stroke-width="0.4"/>
<path d="M15.5883 14.2646H24.4118C24.8971 14.2646 25.2942 13.8675 25.2942 13.3822C25.2942 10.6646 23.4501 8.55571 20.8825 8.15865V1.91159C20.8824 1.42636 20.4853 1.0293 20 1.0293C19.5147 1.0293 19.1176 1.42636 19.1176 1.91168V8.15874C16.55 8.55579 14.7059 10.6646 14.7059 13.3823C14.7059 13.8675 15.1029 14.2646 15.5883 14.2646ZM20 9.85285C21.7382 9.85285 23.0706 10.9205 23.4323 12.4999H16.5677C16.9294 10.9204 18.2618 9.85285 20 9.85285Z" fill="#757575" stroke="#F8F8F8" stroke-width="0.4"/>
</svg>
