<svg width="41" height="42" viewBox="0 0 41 42" fill="none" xmlns="http://www.w3.org/2000/svg">
<rect x="41" y="42" width="41" height="42" rx="20.5" transform="rotate(-180 41 42)" fill="#5B7E9B" fill-opacity="0.1"/>
<path d="M30.5402 22.9135C30.5522 23.0516 30.5353 23.1906 30.4907 23.3219C30.4461 23.4531 30.3747 23.5736 30.2811 23.6757C30.1874 23.7779 30.0736 23.8595 29.9467 23.9153C29.8199 23.9711 29.6828 24 29.5442 24L27.6347 24C27.3695 24 27.1151 23.8946 26.9276 23.7071C26.7401 23.5196 26.6347 23.2652 26.6347 23L26.6347 13.5C26.6347 13.2348 26.7401 12.9804 26.9276 12.7929C27.1151 12.6054 27.3695 12.5 27.6347 12.5L28.7177 12.5C28.968 12.4999 29.2092 12.5937 29.3937 12.7629C29.5782 12.932 29.6925 13.1642 29.7142 13.4135L30.5402 22.9135ZM23.6347 23.3125C23.6347 23.7305 23.3747 24.1045 22.9972 24.2825C22.1727 24.6715 20.7682 25.453 20.1347 26.5095C19.3182 27.8715 19.1642 30.332 19.1392 30.8955C19.1357 30.9745 19.1377 31.0535 19.1272 31.1315C18.9917 32.108 17.1072 30.9675 16.3847 29.7615C15.9922 29.1075 15.9422 28.248 15.9832 27.5765C16.0277 26.8585 16.2382 26.165 16.4447 25.476L16.8847 24.0075L11.4562 24.0075C11.3017 24.0075 11.1493 23.9717 11.0109 23.9029C10.8726 23.8342 10.7521 23.7342 10.6588 23.6111C10.5656 23.4879 10.5021 23.3447 10.4735 23.1929C10.4448 23.0411 10.4517 22.8847 10.4937 22.736L13.1787 13.228C13.238 13.0183 13.3641 12.8337 13.538 12.7023C13.7118 12.5709 13.9238 12.4999 14.1417 12.5L22.6347 12.5C22.8999 12.5 23.1543 12.6054 23.3418 12.7929C23.5293 12.9804 23.6347 13.2348 23.6347 13.5L23.6347 23.3125Z" stroke="#25466A" stroke-linecap="round" stroke-linejoin="round"/>
</svg>
