<svg width="42" height="40" viewBox="0 0 42 40" fill="none" xmlns="http://www.w3.org/2000/svg">
<path d="M37.9674 20.3451C38.2976 28.2026 31.2731 37.0208 20.969 36.9758C10.785 36.9307 3.74546 28.2702 3.99312 19.8873C4.29331 10.3712 11.7156 2.94895 21.2542 3.024C30.7928 3.09905 38.5678 11.4819 37.9674 20.3451ZM21.1791 11.0241C18.7908 10.99 16.4823 11.8838 14.7396 13.5173C12.9969 15.1508 11.9559 17.3967 11.8356 19.7822C11.6405 24.6679 16.0008 29.1257 21.029 29.1182C23.4163 29.0717 25.6951 28.1123 27.3967 26.4372C29.0983 24.7621 30.0934 22.4987 30.1774 20.1125C30.1469 17.7271 29.1919 15.4466 27.5134 13.7513C25.835 12.0561 23.5641 11.0784 21.1791 11.0241ZM14.5374 34.6718C19.378 36.3829 23.7683 36.6005 28.2787 34.0264L25.8021 29.7111H16.8338L14.5374 34.6718ZM35.6109 26.4915C37.5771 21.5834 37.6747 17.2381 35.0255 12.7803L30.8003 15.1818V24.1876L35.6109 26.4915ZM25.1567 10.1836C25.8396 8.81771 26.6051 7.29424 27.4682 5.59065C22.7551 3.38423 18.3873 3.51181 13.6893 6.02593L16.1884 10.1836H25.1567ZM11.2353 24.878V15.8722L6.4622 13.6208C5.41597 15.7617 4.90555 18.1248 4.97484 20.5067C5.04412 22.8886 5.69105 25.218 6.85996 27.2946L11.2353 24.878Z" fill="#25466A"/>
</svg>
