<svg width="22" height="22" viewBox="0 0 22 22" fill="none" xmlns="http://www.w3.org/2000/svg">
<path fill-rule="evenodd" clip-rule="evenodd" d="M15.5783 4.22373C15.5783 2.90501 14.558 1.83398 13.2959 1.83398H9.61578C8.35603 1.83398 7.33337 2.90501 7.33337 4.22373V8.39458L9.71722 11.2573L7.33337 14.1448V18.2921C7.33337 19.6108 8.35485 20.6807 9.61578 20.6807H13.2959C14.5569 20.6807 15.5783 19.6108 15.5783 18.2921V14.0717L13.1084 11.2715L15.5783 8.46889V4.22373ZM14.3988 7.73168L12.0397 11.2573L14.3988 14.8089V18.3475C14.3988 18.9998 13.8716 19.5271 13.2193 19.5271H9.68066C9.02837 19.5271 8.50112 18.9998 8.50112 18.3475V14.8089L10.8602 11.2573L8.50112 7.75527V4.19306C8.50112 3.54078 9.02837 3.01352 9.68066 3.01352H13.2193C13.8716 3.01352 14.3988 3.54078 14.3988 4.19306V7.73168Z" fill="#757575"/>
<path fill-rule="evenodd" clip-rule="evenodd" d="M13.2193 18.3477H9.68066V15.9886L11.45 13.6543L13.2193 15.9886V18.3477Z" fill="#757575"/>
<path fill-rule="evenodd" clip-rule="evenodd" d="M13.2193 6.55273L11.4747 8.88704L9.68066 6.55273H13.2193Z" fill="#757575"/>
</svg>
