<svg width="30" height="30" viewBox="0 0 30 30" fill="none" xmlns="http://www.w3.org/2000/svg">
<path d="M15.7217 6.5952L17.5374 12.5735V13.0117H18.0374H23.5999C24.3233 13.0117 24.6289 13.9372 24.0332 14.3681C24.0329 14.3683 24.0326 14.3685 24.0323 14.3687L19.4843 17.6174L19.1903 17.8273L19.2973 18.1724L21.0848 23.9349L21.0851 23.9356C21.3017 24.6304 20.4934 25.1944 19.9165 24.7523L19.9153 24.7514L15.3028 21.2389L15.0004 21.0087L14.6976 21.2384L10.0851 24.7384L10.0833 24.7398C9.50636 25.1819 8.69806 24.6179 8.91472 23.9231L8.91494 23.9224L10.7024 18.1599L10.8095 17.8148L10.5155 17.6048L5.96551 14.3548L5.96404 14.3538C5.37702 13.9377 5.67118 12.9992 6.39989 12.9992H11.9624H12.3323L12.4405 12.6454L14.2905 6.59543L14.2906 6.59544L14.292 6.59057C14.4986 5.8896 15.5007 5.87139 15.7217 6.5952Z" stroke="#757575"/>
</svg>
