<svg width="40" height="40" viewBox="0 0 40 40" fill="none" xmlns="http://www.w3.org/2000/svg">
<path fill-rule="evenodd" clip-rule="evenodd" d="M7.61644 23.1098C8.76119 21.3201 11.2122 21.3789 12.4292 22.9366C14.0792 25.0488 16.3825 27.0837 20 27.0837C23.681 27.0837 25.9496 25.4523 27.5082 23.3686C28.7082 21.7648 31.3177 21.5023 32.576 23.4061C33.6177 24.9823 34.7477 26.218 36.9533 26.7377C37.6253 26.896 38.0417 27.5691 37.8833 28.241C37.725 28.913 37.0519 29.3294 36.38 29.171C33.2933 28.4437 31.7006 26.6158 30.4903 24.7846C30.3954 24.6409 30.2527 24.568 30.0678 24.5715C29.8702 24.5753 29.6558 24.6714 29.5101 24.8661C27.5641 27.4677 24.6002 29.5837 20 29.5837C15.2624 29.5837 12.3143 26.8506 10.4591 24.4758C10.3396 24.3227 10.1836 24.2645 10.0494 24.2674C9.92281 24.2701 9.80705 24.3247 9.72246 24.4569C8.48997 26.3838 6.89852 28.3985 3.62 29.171C2.94805 29.3294 2.27497 28.913 2.11664 28.241C1.95831 27.5691 2.37468 26.896 3.04664 26.7377C5.38152 26.1875 6.5126 24.8356 7.61644 23.1098Z" fill="#25466A"/>
<path d="M10.4591 24.4758C12.3143 26.8506 15.2624 29.5837 20 29.5837C24.6002 29.5837 27.5641 27.4677 29.5101 24.8661C29.6558 24.6714 29.8702 24.5753 30.0678 24.5715C30.2527 24.568 30.3954 24.6409 30.4903 24.7846C31.7006 26.6158 33.2933 28.4437 36.38 29.171C37.0519 29.3294 37.725 28.913 37.8833 28.241C38.0417 27.5691 37.6253 26.896 36.9533 26.7377C34.7477 26.218 33.6177 24.9823 32.576 23.4061C31.3177 21.5023 28.7082 21.7648 27.5082 23.3686C25.9496 25.4523 23.681 27.0837 20 27.0837C16.3825 27.0837 14.0792 25.0488 12.4292 22.9366C11.2122 21.3789 8.76119 21.3201 7.61644 23.1098C6.5126 24.8356 5.38152 26.1875 3.04664 26.7377C2.37468 26.896 1.95831 27.5691 2.11664 28.241C2.27497 28.913 2.94805 29.3294 3.62 29.171C6.89852 28.3985 8.48997 26.3838 9.72246 24.4569M10.4591 24.4758L10.5 24.5166M10.4591 24.4758C10.3396 24.3227 10.1836 24.2645 10.0494 24.2674C9.92281 24.2701 9.80705 24.3247 9.72246 24.4569M9.72246 24.4569L9.57347 24.6874" stroke="white" stroke-linecap="round" stroke-linejoin="round"/>
<path fill-rule="evenodd" clip-rule="evenodd" d="M7.61644 31.4438C8.76119 29.6541 11.2122 29.7129 12.4292 31.2706C14.0792 33.3828 16.3825 35.4177 20 35.4177C23.681 35.4177 25.9496 33.7863 27.5082 31.7026C28.7082 30.0988 31.3177 29.8363 32.576 31.7401C33.6177 33.3163 34.7477 34.552 36.9533 35.0717C37.6253 35.23 38.0417 35.9031 37.8833 36.575C37.725 37.247 37.0519 37.6634 36.38 37.505C33.2933 36.7777 31.7006 34.9497 30.4903 33.1186C30.3954 32.9749 30.2527 32.902 30.0678 32.9055C29.8702 32.9093 29.6558 33.0054 29.5101 33.2001C27.5641 35.8016 24.6002 37.9177 20 37.9177C15.2624 37.9177 12.3143 35.1845 10.4591 32.8097C10.3396 32.6567 10.1836 32.5985 10.0494 32.6014C9.92281 32.6041 9.80705 32.6587 9.72246 32.7909C8.48997 34.7178 6.89852 36.7325 3.62 37.505C2.94805 37.6634 2.27497 37.247 2.11664 36.575C1.95831 35.9031 2.37468 35.23 3.04664 35.0717C5.38152 34.5215 6.5126 33.1696 7.61644 31.4438Z" fill="#25466A"/>
<path d="M10.4591 32.8097C12.3143 35.1845 15.2624 37.9177 20 37.9177C24.6002 37.9177 27.5641 35.8016 29.5101 33.2001C29.6558 33.0054 29.8702 32.9093 30.0678 32.9055C30.2527 32.902 30.3954 32.9749 30.4903 33.1186C31.7006 34.9497 33.2933 36.7777 36.38 37.505C37.0519 37.6634 37.725 37.247 37.8833 36.575C38.0417 35.9031 37.6253 35.23 36.9533 35.0717C34.7477 34.552 33.6177 33.3163 32.576 31.7401C31.3177 29.8363 28.7082 30.0988 27.5082 31.7026C25.9496 33.7863 23.681 35.4177 20 35.4177C16.3825 35.4177 14.0792 33.3828 12.4292 31.2706C11.2122 29.7129 8.76119 29.6541 7.61644 31.4438C6.5126 33.1696 5.38152 34.5215 3.04664 35.0717C2.37468 35.23 1.95831 35.9031 2.11664 36.575C2.27497 37.247 2.94805 37.6634 3.62 37.505C6.89852 36.7325 8.48997 34.7178 9.72246 32.7909M10.4591 32.8097L10.5 32.9702M10.4591 32.8097C10.3396 32.6567 10.1836 32.5985 10.0494 32.6014C9.92281 32.6041 9.80705 32.6587 9.72246 32.7909M9.72246 32.7909V32.9702" stroke="white" stroke-linecap="round" stroke-linejoin="round"/>
<path fill-rule="evenodd" clip-rule="evenodd" d="M8.90561 18.1265C9.79842 12.8049 14.4245 8.75 20 8.75C25.5756 8.75 30.2018 12.8049 31.0946 18.1265C31.2089 18.8073 30.7495 19.4519 30.0687 19.5661C29.3879 19.6803 28.7433 19.221 28.6291 18.5402C27.9349 14.4028 24.3344 11.25 20 11.25C15.6657 11.25 12.0653 14.4028 11.3712 18.5402C11.2569 19.221 10.6124 19.6803 9.93156 19.5661C9.25072 19.4519 8.79138 18.8074 8.90561 18.1265Z" fill="#25466A" stroke="white" stroke-linecap="round"/>
<path fill-rule="evenodd" clip-rule="evenodd" d="M20 2.08398C20.6904 2.08398 21.25 2.64363 21.25 3.33398V5.00065C21.25 5.69101 20.6904 6.25065 20 6.25065C19.3096 6.25065 18.75 5.69101 18.75 5.00065V3.33398C18.75 2.64363 19.3096 2.08398 20 2.08398Z" fill="#25466A" stroke="white" stroke-linecap="round"/>
<path fill-rule="evenodd" clip-rule="evenodd" d="M33.75 20C33.75 19.3096 34.3096 18.75 35 18.75H36.6667C37.357 18.75 37.9167 19.3096 37.9167 20C37.9167 20.6904 37.357 21.25 36.6667 21.25H35C34.3096 21.25 33.75 20.6904 33.75 20Z" fill="#25466A" stroke="white" stroke-linecap="round"/>
<path fill-rule="evenodd" clip-rule="evenodd" d="M2.08334 20C2.08334 19.3096 2.64299 18.75 3.33334 18.75H5.00001C5.69037 18.75 6.25001 19.3096 6.25001 20C6.25001 20.6904 5.69037 21.25 5.00001 21.25H3.33334C2.64299 21.25 2.08334 20.6904 2.08334 20Z" fill="#25466A" stroke="white" stroke-linecap="round"/>
<path fill-rule="evenodd" clip-rule="evenodd" d="M32.6677 7.33288C33.1558 7.82102 33.1559 8.61247 32.6677 9.10065L32.0131 9.75536C31.5249 10.2435 30.7335 10.2436 30.2453 9.75543C29.7571 9.26729 29.7571 8.47584 30.2452 7.98766L30.8999 7.33295C31.388 6.84477 32.1795 6.84474 32.6677 7.33288Z" fill="#25466A" stroke="white" stroke-linecap="round"/>
<path fill-rule="evenodd" clip-rule="evenodd" d="M7.33181 7.33096C7.81997 6.8428 8.61143 6.8428 9.09958 7.33096L9.75431 7.98569C10.2425 8.47385 10.2425 9.26531 9.75431 9.75346C9.26616 10.2416 8.4747 10.2416 7.98655 9.75346L7.33181 9.09873C6.84366 8.61057 6.84366 7.81912 7.33181 7.33096Z" fill="#25466A" stroke="white" stroke-linecap="round"/>
</svg>
