<svg width="26" height="26" viewBox="0 0 26 26" fill="none" xmlns="http://www.w3.org/2000/svg">
<path fill-rule="evenodd" clip-rule="evenodd" d="M4.33329 13.0001C4.33345 11.3322 4.81485 9.69986 5.71973 8.29883C6.62461 6.8978 7.91453 5.78762 9.43472 5.10151C10.9549 4.41541 12.6408 4.18251 14.29 4.43078C15.9393 4.67904 17.4819 5.39792 18.7327 6.50116C19.9836 7.60439 20.8895 9.04511 21.3418 10.6504C21.7941 12.2558 21.7737 13.9575 21.2828 15.5515C20.7919 17.1455 19.8516 18.564 18.5745 19.6368C17.2975 20.7096 15.7381 21.3911 14.0833 21.5996V15.1667H16.25C16.5373 15.1667 16.8128 15.0526 17.016 14.8494C17.2192 14.6463 17.3333 14.3707 17.3333 14.0834C17.3333 13.7961 17.2192 13.5205 17.016 13.3174C16.8128 13.1142 16.5373 13.0001 16.25 13.0001H14.0833V10.8334C14.0833 10.5461 14.1974 10.2705 14.4006 10.0674C14.6038 9.86422 14.8793 9.75008 15.1666 9.75008H15.7083C15.9956 9.75008 16.2712 9.63594 16.4743 9.43278C16.6775 9.22962 16.7916 8.95407 16.7916 8.66675C16.7916 8.37943 16.6775 8.10388 16.4743 7.90072C16.2712 7.69755 15.9956 7.58342 15.7083 7.58342H15.1666C14.3047 7.58342 13.478 7.92582 12.8685 8.53532C12.259 9.14481 11.9166 9.97146 11.9166 10.8334V13.0001H9.74996C9.46264 13.0001 9.18709 13.1142 8.98393 13.3174C8.78076 13.5205 8.66663 13.7961 8.66663 14.0834C8.66663 14.3707 8.78076 14.6463 8.98393 14.8494C9.18709 15.0526 9.46264 15.1667 9.74996 15.1667H11.9166V21.5996C9.82212 21.3357 7.89595 20.3164 6.49969 18.733C5.10343 17.1497 4.3331 15.1111 4.33329 13.0001ZM13 23.8334C18.9832 23.8334 23.8333 18.9833 23.8333 13.0001C23.8333 7.01683 18.9832 2.16675 13 2.16675C7.01671 2.16675 2.16663 7.01683 2.16663 13.0001C2.16663 18.9833 7.01671 23.8334 13 23.8334Z" fill="white"/>
</svg>
