<svg width="55" height="54" viewBox="0 0 55 54" fill="none" xmlns="http://www.w3.org/2000/svg">
<rect x="0.766663" y="0.271484" width="53.6667" height="53.6667" rx="26.8333" fill="#1976D2" fill-opacity="0.2"/>
<path fill-rule="evenodd" clip-rule="evenodd" d="M18.9333 27.1048C18.9335 25.437 19.4149 23.8046 20.3198 22.4036C21.2246 21.0025 22.5146 19.8924 24.0348 19.2062C25.5549 18.5201 27.2408 18.2872 28.8901 18.5355C30.5393 18.7838 32.0819 19.5027 33.3328 20.6059C34.5836 21.7091 35.4895 23.1498 35.9419 24.7552C36.3942 26.3605 36.3737 28.0623 35.8828 29.6563C35.392 31.2502 34.4516 32.6687 33.1746 33.7415C31.8976 34.8143 30.3381 35.4958 28.6833 35.7043V29.2715H30.85C31.1373 29.2715 31.4129 29.1573 31.616 28.9542C31.8192 28.751 31.9333 28.4755 31.9333 28.1882C31.9333 27.9008 31.8192 27.6253 31.616 27.4221C31.4129 27.219 31.1373 27.1048 30.85 27.1048H28.6833V24.9382C28.6833 24.6508 28.7975 24.3753 29.0006 24.1721C29.2038 23.969 29.4793 23.8548 29.7667 23.8548H30.3083C30.5956 23.8548 30.8712 23.7407 31.0744 23.5375C31.2775 23.3344 31.3917 23.0588 31.3917 22.7715C31.3917 22.4842 31.2775 22.2086 31.0744 22.0055C30.8712 21.8023 30.5956 21.6882 30.3083 21.6882H29.7667C28.9047 21.6882 28.0781 22.0306 27.4686 22.6401C26.8591 23.2495 26.5167 24.0762 26.5167 24.9382V27.1048H24.35C24.0627 27.1048 23.7871 27.219 23.584 27.4221C23.3808 27.6253 23.2667 27.9008 23.2667 28.1882C23.2667 28.4755 23.3808 28.751 23.584 28.9542C23.7871 29.1573 24.0627 29.2715 24.35 29.2715H26.5167V35.7043C24.4222 35.4404 22.496 34.4211 21.0997 32.8378C19.7035 31.2544 18.9331 29.2159 18.9333 27.1048ZM27.6 37.9382C33.5832 37.9382 38.4333 33.0881 38.4333 27.1048C38.4333 21.1216 33.5832 16.2715 27.6 16.2715C21.6167 16.2715 16.7667 21.1216 16.7667 27.1048C16.7667 33.0881 21.6167 37.9382 27.6 37.9382Z" fill="#25466A"/>
</svg>
