<svg width="44" height="40" viewBox="0 0 44 40" fill="none" xmlns="http://www.w3.org/2000/svg">
<g clip-path="url(#clip0_849_11985)">
<path d="M41.7875 32.7491C37.3229 30.3939 32.8577 28.0387 28.3917 25.6835C27.3501 25.136 26.6305 25.2203 26.2409 25.9465C25.8732 26.6276 26.072 27.4126 27.0937 27.9249C27.7318 28.2448 28.3261 28.6452 28.9404 29.0083C27.8709 30.6275 25.9587 31.0475 24.4459 30.0033C23.9337 29.6482 23.4792 29.218 23.0982 28.7276C22.5416 28.0073 21.8678 27.6953 20.9673 27.7954C20.5459 27.8425 20.1185 27.8464 19.6096 27.8719C19.0948 28.6982 18.5342 29.4989 18.079 30.3566C17.5423 31.3713 16.7591 31.8502 15.6042 31.7481C13.9344 31.599 12.2249 31.6304 10.6049 31.2732C5.78443 30.2133 3.0512 26.5824 3.15258 21.6189C3.16375 18.7199 4.28995 15.9334 6.30325 13.8232C8.25328 11.7506 10.3047 9.77228 12.3442 7.78411C13.4057 6.74783 14.6202 6.90091 15.6082 8.07851C15.2961 8.6516 14.7693 9.20507 14.7574 9.76835C14.7455 10.3316 15.2643 10.8812 15.6181 11.572L15.1132 12.1392C13.998 13.3796 13.9384 14.6456 15.0416 15.9017C15.6598 16.6082 16.4073 17.2049 17.1865 17.935L15.1987 20.2902L14.0497 19.4207L13.3977 19.8858L18.3056 24.1644C19.0172 23.5756 18.5541 23.3009 18.2321 23.0065C17.91 22.7121 17.6039 22.4412 17.2719 22.1449C18.0929 21.2067 18.8841 20.3333 19.6374 19.4325C20.9414 17.8761 20.85 16.9281 19.3194 15.6171C18.9218 15.2815 18.5461 14.9341 18.1267 14.569L19.8501 12.5612L19.222 12.1098C18.6256 12.7555 18.0671 13.3757 17.4707 14.0332L15.8646 12.6456L20.1563 7.77233L21.7366 9.14619L20.7427 10.3768L20.3193 9.13834H19.7488C19.4963 10.4749 20.0887 12.0058 21.1402 12.6476C21.8678 13.0911 22.641 13.4581 23.3924 13.8605C23.7462 14.0568 24.0742 14.1412 24.3247 13.5622C23.452 12.5808 21.9393 12.4376 21.011 11.3718C21.331 10.995 21.6511 10.6339 21.9512 10.259C22.5953 9.45629 22.5476 8.74189 21.8141 8.01178C20.9017 7.10503 20.6731 7.03045 19.3572 7.25419C17.6814 5.92744 17.3694 6.39651 16.3178 7.40728C16.1528 7.28559 15.9719 7.16587 15.8049 7.03045C14.485 5.95688 12.9624 5.98828 11.7101 7.17569C10.4279 8.39253 9.18556 9.6506 7.93325 10.9047C7.12024 11.7133 6.2615 12.4847 5.51806 13.3502C2.42902 16.9635 1.39735 21.0654 2.87826 25.6207C4.09082 29.3498 6.8976 31.3576 10.6784 32.1681C12.4953 32.5607 14.3399 32.5882 16.1866 32.5489C16.6512 32.5458 17.1067 32.4219 17.5073 32.1897C17.9079 31.9574 18.2395 31.6251 18.4686 31.2261C18.9894 30.3998 19.4903 29.5598 20.0191 28.6962H21.7107C22.2931 29.2458 22.8298 29.7717 23.3884 30.2663C23.877 30.7203 24.4699 31.0504 25.1161 31.2284C25.7624 31.4064 26.4427 31.4268 27.0988 31.2881C27.7548 31.1493 28.3669 30.8554 28.8826 30.4317C29.3983 30.0079 29.8021 29.4669 30.0595 28.8552C29.7395 28.2939 29.0934 28.1388 28.5845 27.8071C28.0757 27.4754 27.5231 27.1673 26.9168 26.8042L27.2209 25.9917L40.8751 33.2535C41.0739 34.6843 40.9805 34.8864 39.0722 37.1788L39.4698 37.6518C40.7499 37.012 41.3125 35.8893 41.7875 34.7019V32.7491ZM15.3895 13.3188C16.7174 14.4591 18.0412 15.5641 19.3214 16.7142C19.8303 17.1735 19.8243 17.7956 19.3393 18.3746C18.4785 19.3991 17.5741 20.3863 16.6836 21.3853C16.6518 21.4226 16.5683 21.4148 16.3794 21.456L15.8189 20.8907L18.403 17.7819C17.8305 17.2834 17.3018 16.8477 16.8128 16.3805C16.3169 15.9584 15.8569 15.4969 15.4372 15.0008C15.0794 14.5258 14.8727 13.9606 15.3895 13.3286V13.3188ZM18.8165 7.93523L16.3655 10.7458L15.3716 9.84294L17.7828 7.15998L18.8165 7.93523Z" fill="#25466A" stroke="#25466A" stroke-width="0.4"/>
<path d="M8.52363 39.1736C10.3325 40.259 10.9269 40.259 12.7855 39.1736C14.1292 40.2452 15.5167 40.2688 16.9221 39.1403C18.2897 40.208 19.6772 40.3041 21.0965 39.1403C22.488 40.2315 23.8973 40.3041 25.3086 39.1403C26.7001 40.2609 28.0916 40.2629 29.5009 39.154C30.8725 40.2217 32.262 40.308 33.6753 39.154C35.0787 40.257 36.498 40.3041 37.8835 39.154C38.6011 39.6466 39.275 40.1118 40.249 39.9391L40.4319 39.2462C39.2948 39.1305 38.3944 38.7183 37.9769 37.631C36.335 39.6407 35.1165 39.6466 33.727 37.6604C33.2241 38.4082 32.6973 39.1305 31.6796 39.1324C30.6618 39.1344 30.0436 38.5574 29.5586 37.629C29.0298 38.4278 28.4852 39.1305 27.4853 39.1324C26.4854 39.1344 25.8454 38.5632 25.3524 37.6055C24.8236 38.4651 24.2511 39.156 23.2135 39.1344C22.1759 39.1128 21.6233 38.4533 21.1541 37.6604C19.7289 39.9116 17.8762 39.3306 16.9479 37.6604C16.4291 38.3807 15.954 39.1049 14.9025 39.103C13.8509 39.101 13.2725 38.5318 12.7954 37.6271C12.2527 38.3964 11.7399 39.1324 10.7261 39.1344C10.3034 39.1422 9.88772 39.0266 9.53126 38.8021C9.1748 38.5776 8.89342 38.2542 8.72241 37.8724C8.31292 38.1982 7.92729 38.5868 7.46214 38.8537C6.997 39.1206 6.48215 39.2345 5.94346 39.4327C6.56763 40.1805 7.06061 40.1236 8.52363 39.1736Z" fill="#25466A" stroke="#25466A" stroke-width="0.4"/>
<path d="M39.1756 33.2637C30.7234 34.0487 22.309 33.9467 13.837 33.9545C13.2407 35.0654 13.5985 36.0624 14.0875 37.0241C14.5606 37.9466 14.8826 38.1468 15.5803 38.1291C15.8964 37.7228 15.5585 37.4893 15.3279 37.2263C14.7315 36.5433 14.334 35.7876 14.5109 34.7337C14.8428 34.7337 15.1629 34.7337 15.4829 34.7337C21.5099 34.6572 27.539 34.6002 33.5719 34.4864C35.2159 34.455 36.8558 34.247 38.4957 34.1194C38.8655 34.09 39.2213 34.0389 39.1756 33.2637Z" fill="#25466A" stroke="#25466A" stroke-width="0.4"/>
<path d="M23.1022 4.01095C22.8311 4.00178 22.5609 4.04605 22.3074 4.14115C22.0538 4.23625 21.822 4.38028 21.6255 4.56483C21.4289 4.74937 21.2716 4.97074 21.1627 5.21599C21.0538 5.46125 20.9955 5.72547 20.9911 5.99323C20.9732 7.1512 21.9333 8.15215 23.0624 8.15215C23.3421 8.15615 23.6198 8.10454 23.8789 8.00039C24.138 7.89625 24.3732 7.74169 24.5705 7.54593C24.7679 7.35017 24.9233 7.11721 25.0276 6.86091C25.1318 6.60461 25.1828 6.33022 25.1774 6.05407C25.1772 5.78534 25.1233 5.5193 25.0188 5.27114C24.9144 5.02299 24.7614 4.7976 24.5687 4.60785C24.3759 4.41811 24.1472 4.26772 23.8956 4.1653C23.644 4.06288 23.3743 4.01043 23.1022 4.01095ZM23.1399 7.34746C22.8113 7.35376 22.4928 7.23499 22.2504 7.01577C22.008 6.79655 21.8603 6.49366 21.8379 6.16987C21.8336 5.86044 21.9494 5.56112 22.1616 5.33337C22.3738 5.10561 22.6663 4.96671 22.9789 4.94517C23.1422 4.93064 23.3068 4.94815 23.4632 4.9967C23.6195 5.04525 23.7646 5.12388 23.8901 5.22805C24.0156 5.33222 24.1189 5.45988 24.1942 5.60367C24.2694 5.74746 24.3151 5.90454 24.3286 6.06585C24.3391 6.38877 24.222 6.70305 24.002 6.94223C23.782 7.18141 23.4764 7.32673 23.1499 7.34746H23.1399Z" fill="#25466A" stroke="#25466A" stroke-width="0.4"/>
<path d="M15.459 22.9089L15.1171 22.4398C14.6878 22.3947 10.7619 26.6046 10.3603 27.4701C10.6128 27.7684 10.903 27.8155 11.1793 27.5192C12.6065 25.9922 14.0219 24.4594 15.459 22.9089Z" fill="#25466A" stroke="#25466A" stroke-width="0.4"/>
</g>
<defs>
<clipPath id="clip0_849_11985">
<rect width="44" height="40" fill="white" transform="matrix(-1 0 0 1 44 0)"/>
</clipPath>
</defs>
</svg>
