<svg width="40" height="40" viewBox="0 0 40 40" fill="none" xmlns="http://www.w3.org/2000/svg">
<g clip-path="url(#clip0_296_13728)">
<path d="M19.8749 33.5524C19.8785 33.5525 19.8821 33.5531 19.8858 33.5531C19.888 33.5531 19.8901 33.5527 19.8923 33.5527C19.9009 33.5527 19.9095 33.5531 19.9181 33.5531C21.0556 33.5531 22.1605 33.4114 23.217 33.1462C23.2466 33.1411 23.2757 33.1341 23.3038 33.1249C29.1435 31.6174 33.47 26.305 33.47 20.0012C33.47 12.5286 27.3907 6.44922 19.9181 6.44922C12.4456 6.44922 6.36627 12.5285 6.36627 20.0012C6.36627 27.4591 12.4222 33.5291 19.8749 33.5524ZM12.8101 30.0203C12.0925 29.5097 11.4319 28.9239 10.8399 28.2747C10.8472 28.2362 10.8514 28.1966 10.8514 28.1558V24.6224C11.4159 25.1674 12.0781 25.6117 12.8102 25.9238V30.0203H12.8101ZM16.0321 31.6597C15.3508 31.4321 14.6958 31.1466 14.0732 30.8086V26.3135C14.4815 26.3946 14.9031 26.438 15.3349 26.438C15.5705 26.438 15.8029 26.4246 16.0321 26.3998V31.6597ZM19.2542 32.2718C18.5858 32.236 17.9316 32.1461 17.2953 32.0072V26.1331C18.0101 25.9049 18.671 25.5552 19.2542 25.1087V32.2718ZM25.6983 30.8428C25.0753 31.1762 24.4203 31.4575 23.7393 31.6808V26.6772C24.052 26.8716 24.3909 27.0289 24.7504 27.1447C25.0595 27.2442 25.3768 27.3096 25.6983 27.3417V30.8428ZM26.9615 30.0651V27.293C27.677 27.1645 28.3492 26.8685 28.9203 26.4401V28.1559C28.9203 28.2163 28.9292 28.2745 28.9451 28.3298C28.3483 28.9762 27.6834 29.5584 26.9615 30.0651ZM31.958 19.5475C31.9693 19.5039 31.9803 19.4597 31.9945 19.4159C32.0682 19.1868 32.1163 18.9537 32.1403 18.7197C32.1842 19.141 32.207 19.5684 32.207 20.001C32.2069 22.4912 31.4617 24.8102 30.1835 26.7483V24.9688C30.1967 24.9438 30.2103 24.9192 30.2229 24.894C30.2265 24.887 30.2299 24.8799 30.2333 24.8727C30.3164 24.7022 30.3604 24.5372 30.3995 24.3907C30.4145 24.3346 30.4293 24.2781 30.4472 24.222C30.4654 24.1659 30.4863 24.1112 30.5069 24.0566C30.5574 23.9236 30.6139 23.7744 30.647 23.6017L31.8234 19.9466C31.8925 19.802 31.9284 19.6624 31.958 19.5475ZM30.1834 13.2539C30.9071 14.3512 31.46 15.5707 31.8032 16.8746C31.7966 16.8614 31.7907 16.8479 31.784 16.8347C31.433 16.1505 30.8726 15.6182 30.1833 15.3038V13.2539H30.1834ZM26.9615 9.93694C27.6741 10.4373 28.3311 11.0112 28.9219 11.6475C28.9213 11.6589 28.9202 11.6702 28.9202 11.6818V14.9984C28.8713 14.9962 28.8222 14.9948 28.7732 14.9948C28.1216 14.9948 27.4966 15.1809 26.9614 15.5211V9.93694H26.9615ZM23.7394 8.32136C24.4203 8.54472 25.0753 8.8259 25.6983 9.15934V16.8928C25.6983 16.9167 25.6999 16.9402 25.7025 16.9633C25.6454 17.0873 25.5937 17.2139 25.5522 17.3432C25.5497 17.3513 25.5471 17.3593 25.5447 17.3674C25.1548 18.1574 24.5071 18.5791 24.2268 18.7324C24.058 18.8111 23.8958 18.9008 23.7394 18.9987V8.32136ZM23.0308 21.8353C23.3098 20.9682 23.9453 20.2524 24.7742 19.8713C24.7861 19.8659 24.7979 19.8599 24.8096 19.8538C25.1957 19.646 26.1535 19.0364 26.7083 17.8632C26.7215 17.8351 26.7327 17.8061 26.7417 17.7764C26.7458 17.763 26.7495 17.7497 26.7533 17.7362L26.7551 17.7293C26.7885 17.6255 26.8305 17.5226 26.8801 17.4236C26.8852 17.4136 26.8899 17.4033 26.8944 17.393C26.9203 17.3338 27.0348 17.1629 27.1362 17.0318C27.5355 16.5474 28.147 16.2582 28.7733 16.2582C28.9929 16.2581 29.2115 16.2927 29.4232 16.3609C29.9624 16.5345 30.4017 16.9074 30.6602 17.4114C30.9187 17.9154 30.9655 18.49 30.792 19.0289C30.7683 19.1025 30.7505 19.1717 30.7347 19.2329C30.7174 19.3001 30.6978 19.3764 30.6816 19.4062C30.6632 19.4404 30.6479 19.4762 30.636 19.5131L29.4314 23.2559C29.4214 23.2869 29.4139 23.3187 29.4087 23.3509C29.3981 23.4183 29.3629 23.5112 29.3256 23.6096C29.3 23.6773 29.271 23.754 29.2447 23.8355C29.2186 23.9169 29.1975 23.9957 29.1789 24.0654C29.1518 24.1672 29.1261 24.2633 29.0956 24.3239C29.0929 24.3292 29.0903 24.3345 29.0878 24.3398C29.0824 24.3503 29.076 24.3602 29.0707 24.3705C29.0216 24.4282 28.9832 24.495 28.9572 24.5679C28.3704 25.5077 27.3 26.1023 26.1544 26.1023C25.8091 26.1023 25.467 26.0485 25.1377 25.9425C24.3078 25.6753 23.6316 25.101 23.2337 24.3253C22.8356 23.5494 22.7636 22.6652 23.0308 21.8353ZM20.5175 15.9276V7.72713C21.1857 7.7594 21.8399 7.84565 22.4763 7.98096V20.0879C22.4762 20.1152 22.4785 20.142 22.4819 20.1686C22.1998 20.5546 21.9771 20.9856 21.8282 21.4482C21.4577 22.5993 21.5576 23.8257 22.1096 24.9017C22.2191 25.1153 22.3444 25.3173 22.4831 25.5076C22.479 25.5367 22.4762 25.566 22.4762 25.5963V32.0212C21.8398 32.1565 21.1856 32.2428 20.5174 32.2751V23.8737C20.5174 23.8602 20.5162 23.8469 20.5153 23.8337C21.3193 22.7566 21.7958 21.4215 21.7958 19.9772C21.7958 18.5207 21.3108 17.1754 20.4946 16.0937C20.5091 16.0407 20.5175 15.9852 20.5175 15.9276ZM17.2953 7.99495C17.9315 7.85612 18.5858 7.76612 19.2542 7.73033V14.8455C18.671 14.399 18.0102 14.0494 17.2953 13.8211V7.99495ZM14.0734 9.19349C14.6959 8.85543 15.351 8.57004 16.0322 8.34246V13.5545H16.0321C15.803 13.5297 15.5706 13.5163 15.3349 13.5163C14.9032 13.5163 14.4816 13.5597 14.0734 13.6408V9.19349ZM12.8101 9.98186V14.0304C12.0779 14.3425 11.4157 14.7869 10.8513 15.3319V11.8542C10.8513 11.8112 10.8469 11.7692 10.8387 11.7286C11.4312 11.0789 12.0921 10.4927 12.8101 9.98186ZM9.58828 23.0365V26.6504C8.34943 24.7324 7.6295 22.4493 7.6295 20.0012C7.62942 17.5529 8.34935 15.2699 9.5882 13.3519V16.9616C9.5882 16.9828 9.5893 17.0036 9.59141 17.0242C9.13413 17.91 8.87421 18.9136 8.87421 19.9771C8.87421 21.0446 9.13601 22.0517 9.59648 22.9397C9.59156 22.9713 9.58828 23.0035 9.58828 23.0365ZM15.3349 14.7794C18.201 14.7794 20.5328 17.1111 20.5328 19.9771C20.5328 22.8431 18.2011 25.1749 15.3349 25.1749C12.469 25.1749 10.1373 22.8431 10.1373 19.9771C10.1373 17.1111 12.469 14.7794 15.3349 14.7794Z" fill="#757575" stroke="white" stroke-width="0.3"/>
<path d="M38.1598 15.5306H35.6635C35.6584 15.5124 35.6538 15.4942 35.6485 15.4761C35.639 15.4428 35.629 15.4099 35.6191 15.3768L35.606 15.3329C35.5793 15.2432 35.5523 15.1535 35.5241 15.0645C35.5114 15.024 35.4981 14.9834 35.4848 14.9431L35.4733 14.9079C35.4459 14.8238 35.4179 14.7399 35.3891 14.657C35.3705 14.6028 35.3515 14.5491 35.3325 14.4959C35.3033 14.4142 35.2735 14.3329 35.2429 14.251C35.223 14.1981 35.2029 14.1451 35.1826 14.093C35.1509 14.0108 35.1183 13.9294 35.0855 13.8486L35.0788 13.8321C35.0605 13.787 35.0422 13.7419 35.0234 13.6967C34.9879 13.6115 34.9512 13.5269 34.9141 13.4422L34.8948 13.3979C34.8814 13.3672 34.868 13.3364 34.8545 13.3064C34.8103 13.208 34.7648 13.1103 34.7184 13.0122L34.7027 12.9785C34.694 12.9598 34.6855 12.9412 34.6764 12.9223C34.6148 12.7943 34.5518 12.667 34.4871 12.5411L34.4551 12.4804C34.4008 12.3756 34.3458 12.2714 34.2894 12.1682C34.2743 12.1408 34.2591 12.1135 34.2437 12.0863L34.2208 12.0453C34.1752 11.9635 34.1293 11.8817 34.0818 11.7997C34.0599 11.7621 34.0377 11.7248 34.0155 11.6875L34.0006 11.6625C33.9561 11.5873 33.9112 11.5124 33.8657 11.4386C33.8377 11.3931 33.8093 11.3478 33.7764 11.2956C33.7311 11.2238 33.6854 11.1521 33.639 11.0808C33.6082 11.0334 33.5771 10.9861 33.5461 10.9399C33.4986 10.8687 33.4506 10.798 33.4025 10.7281C33.3711 10.6825 33.3397 10.637 33.3079 10.5917C33.2569 10.5193 33.2049 10.4475 33.1526 10.3757L33.1268 10.3402C33.1051 10.3103 33.0835 10.2807 33.0618 10.2513C33.003 10.172 32.9428 10.0936 32.8821 10.0147L32.8544 9.97843C32.839 9.95828 32.8238 9.93812 32.8078 9.91773C32.6362 9.69874 32.4563 9.48084 32.2735 9.27045C32.2549 9.24889 32.2359 9.22764 32.2169 9.20647L32.1902 9.17647C32.1254 9.10303 32.0603 9.02982 31.9938 8.95709C31.9682 8.92927 31.9427 8.90185 31.9169 8.87435L31.8899 8.84552C31.8292 8.78036 31.7681 8.71528 31.7064 8.6513C31.6723 8.61583 31.6378 8.58067 31.6031 8.54544L31.5933 8.53544C31.5328 8.47395 31.472 8.41278 31.4106 8.352C31.3713 8.31317 31.3316 8.27457 31.2927 8.23707C31.2309 8.17699 31.1683 8.11777 31.1045 8.05777L31.0872 8.0416C31.0535 8.01012 31.0198 7.97863 30.9866 7.94824C30.921 7.88793 30.8548 7.82847 30.7873 7.76839L30.752 7.73699C30.7262 7.7141 30.7005 7.6912 30.6742 7.66808C30.6008 7.60409 30.5267 7.5412 30.4516 7.47792L30.4234 7.45386C30.407 7.43964 30.3905 7.4255 30.3737 7.41159C30.3683 7.40706 30.3622 7.40229 30.356 7.39745C29.6738 6.83181 28.94 6.31813 28.1746 5.86984C28.166 5.86414 28.157 5.85859 28.1479 5.85328C28.1379 5.8475 28.1277 5.84164 28.1149 5.83477C27.9729 5.75234 27.8331 5.67382 27.7003 5.60195L27.6431 5.57179C27.5217 5.50656 27.3992 5.44296 27.2754 5.38046C27.234 5.35968 27.1924 5.33913 27.1517 5.31905C27.0425 5.26499 26.9326 5.21241 26.8209 5.16022L26.7112 5.10913C26.5557 5.03811 26.4117 4.97475 26.2712 4.91553L26.2244 4.89631C26.0963 4.84272 25.9618 4.78881 25.8251 4.73584C25.7883 4.72162 25.7514 4.70771 25.7145 4.69373L25.6962 4.68685C25.5817 4.64357 25.4665 4.6017 25.3494 4.56045L25.2318 4.51904C25.0667 4.46248 24.9158 4.41302 24.7713 4.36818L24.7339 4.35708C24.5981 4.31529 24.4579 4.27443 24.3058 4.23216C24.2697 4.22208 24.2335 4.21239 24.1971 4.20263L24.1703 4.19536C24.0515 4.16356 23.9323 4.13294 23.8132 4.10395L23.7773 4.09513C23.7467 4.08755 23.716 4.07997 23.6849 4.07263C23.5128 4.032 23.356 3.99731 23.202 3.96583L23.1796 3.96161C23.0398 3.93325 22.8906 3.90543 22.7228 3.87637C22.6871 3.8702 22.6513 3.86434 22.6157 3.85848L22.5829 3.85309C22.4614 3.83325 22.3392 3.81457 22.2152 3.79707L22.1674 3.79043C22.1381 3.78621 22.1088 3.78207 22.0792 3.77817C21.8978 3.75426 21.7363 3.73512 21.5889 3.7202L21.5705 3.7184C21.4208 3.7034 21.2633 3.6902 21.0897 3.67801C21.0547 3.67551 21.0196 3.67332 20.9845 3.67121L20.9421 3.66871C20.8187 3.66106 20.6949 3.65481 20.5712 3.64996L20.5403 3.64871C20.5014 3.64723 20.4625 3.64559 20.4228 3.64426C20.0409 3.63301 19.7968 3.63277 19.4126 3.64434C19.3736 3.64559 19.3347 3.64715 19.2958 3.64871L19.2653 3.64996C19.1411 3.65488 19.0174 3.66106 18.8934 3.66871L18.8516 3.67121C18.8164 3.67332 18.7813 3.67551 18.747 3.67793C18.5754 3.69004 18.4202 3.70309 18.2694 3.71817C18.264 3.71856 18.2547 3.71942 18.2508 3.71981C18.0998 3.73512 17.9383 3.75418 17.7567 3.77809C17.7273 3.78207 17.698 3.78614 17.6687 3.79035L17.6192 3.79723C17.4969 3.8145 17.3748 3.83309 17.2529 3.85309L17.2203 3.8584C17.1846 3.86418 17.1488 3.87012 17.1124 3.87645C16.9455 3.90536 16.7963 3.93309 16.6526 3.96215L16.6303 3.96653C16.4801 3.99715 16.3233 4.03177 16.1506 4.07255C16.12 4.07981 16.0893 4.08739 16.0587 4.09497L16.0234 4.10364C15.9036 4.13286 15.7844 4.16341 15.6655 4.19536L15.6388 4.20255C15.6025 4.21224 15.5663 4.22192 15.5311 4.23185C15.3782 4.27427 15.2379 4.31521 15.0969 4.35849L15.0657 4.36779C14.9201 4.41294 14.7692 4.46232 14.6028 4.51943L14.4851 4.56084C14.3695 4.60162 14.2544 4.64342 14.1396 4.6867L14.1214 4.69357C14.0845 4.70756 14.0476 4.72146 14.0109 4.73568C13.874 4.78865 13.7395 4.84264 13.6093 4.89709L13.5649 4.91522C13.4241 4.97459 13.2802 5.03803 13.124 5.10928L13.0137 5.16077C12.9033 5.21233 12.7933 5.26483 12.6852 5.31835C12.6435 5.3389 12.6019 5.35944 12.5601 5.38046C12.4367 5.44265 12.3142 5.50624 12.1925 5.57164L12.1365 5.60125C12.0028 5.67359 11.863 5.75219 11.7184 5.83586C11.7083 5.84141 11.698 5.84727 11.688 5.85305C11.679 5.85836 11.67 5.86391 11.6613 5.86961C10.8966 6.31727 10.1635 6.83064 9.48188 7.3955C9.47524 7.40065 9.46868 7.40589 9.4622 7.41136C9.44548 7.42526 9.42892 7.4394 9.41251 7.45362L9.38368 7.47823C9.30923 7.54097 9.23501 7.60386 9.16133 7.66831C9.13532 7.69105 9.10961 7.71386 9.08383 7.73675L9.0475 7.7691C8.98094 7.82832 8.91477 7.88777 8.84992 7.9473C8.81601 7.97848 8.78218 8.00996 8.74851 8.04144L8.73023 8.05855C8.66742 8.11762 8.60484 8.17684 8.54351 8.23621C8.50382 8.27442 8.46437 8.31301 8.42491 8.35192C8.36351 8.41255 8.30272 8.47372 8.24233 8.5352L8.23241 8.54528C8.19788 8.58052 8.16335 8.61567 8.12952 8.65083C8.06764 8.71505 8.00647 8.78013 7.94569 8.84529L7.91873 8.87419C7.89295 8.90162 7.86733 8.92912 7.84154 8.95732C7.77545 9.02967 7.71029 9.10295 7.64599 9.17576L7.61881 9.20631C7.59974 9.22756 7.58084 9.24873 7.56287 9.26943C7.37935 9.48053 7.19942 9.69858 7.02755 9.91788C7.012 9.93781 6.99661 9.95804 6.98122 9.9782L6.95301 10.0151C6.89278 10.0933 6.8327 10.1716 6.77387 10.2509C6.75199 10.2804 6.73043 10.3101 6.70887 10.3398L6.68293 10.3755C6.63082 10.4472 6.57887 10.519 6.52785 10.5914C6.49605 10.6366 6.46457 10.6822 6.43371 10.7273C6.38519 10.7977 6.33714 10.8684 6.29011 10.9389C6.25878 10.9859 6.22769 11.0331 6.19675 11.0808C6.15042 11.1519 6.10472 11.2235 6.05511 11.3023C6.02667 11.3475 5.99815 11.3928 5.9705 11.4378C5.92471 11.5122 5.87987 11.5871 5.83565 11.6615L5.82034 11.6873C5.79807 11.7245 5.77596 11.7619 5.75346 11.8005C5.70651 11.8815 5.66057 11.9634 5.6151 12.045L5.59205 12.086C5.57666 12.1132 5.56143 12.1404 5.5465 12.1678C5.49002 12.2712 5.43502 12.3753 5.38088 12.4797L5.34877 12.5405C5.284 12.6668 5.22095 12.794 5.15923 12.9224C5.15032 12.9409 5.14173 12.9595 5.13306 12.9783L5.11704 13.0128C5.07095 13.11 5.0254 13.2078 4.98157 13.3056C4.96782 13.3361 4.95454 13.3669 4.94118 13.3976L4.92181 13.4423C4.88485 13.5268 4.84805 13.6114 4.81235 13.6967C4.79368 13.7417 4.7754 13.7868 4.75711 13.8319L4.75063 13.8479C4.7175 13.9292 4.685 14.0108 4.65344 14.0923C4.63305 14.145 4.61305 14.198 4.59281 14.2516C4.56242 14.3327 4.53258 14.4141 4.50367 14.4951C4.48438 14.5489 4.46547 14.6026 4.44687 14.6562C4.41797 14.7397 4.39 14.8237 4.3625 14.908L4.35101 14.9429C4.33773 14.9833 4.32453 15.0238 4.31164 15.0643C4.28351 15.1534 4.25664 15.243 4.22992 15.3326L4.21671 15.3766C4.20687 15.4097 4.19695 15.4426 4.18718 15.4763C4.18203 15.4944 4.17742 15.5124 4.17234 15.5305H1.84089C0.825874 15.5306 0 16.4478 0 17.575V22.3615C0 23.4888 0.825874 24.4059 1.84089 24.4059H4.15562C4.55695 25.8452 5.15517 27.2276 5.93917 28.5126C6.12081 28.8105 6.5098 28.9043 6.80731 28.7227C7.10505 28.5411 7.19911 28.1523 7.01747 27.8546C6.12237 26.3877 5.49002 24.7828 5.13946 23.1107C5.13173 23.0737 5.12478 23.0364 5.11743 22.9994C5.09282 22.8776 5.06946 22.7558 5.0479 22.6335C5.0386 22.5806 5.03017 22.5276 5.02134 22.4747C5.00368 22.3676 4.98688 22.2604 4.97149 22.1529C4.96282 22.0922 4.95454 22.0315 4.94665 21.9705C4.93345 21.8696 4.92141 21.7683 4.91016 21.6669C4.90305 21.6029 4.8961 21.5389 4.88985 21.4747C4.88001 21.3739 4.87165 21.2727 4.86384 21.1714C4.85891 21.1085 4.85368 21.0457 4.84962 20.9826C4.84251 20.8732 4.83751 20.7635 4.83266 20.6539C4.83032 20.5998 4.82712 20.5458 4.82532 20.4917C4.82001 20.3282 4.81688 20.1644 4.81688 20.0005C4.81688 19.8549 4.81938 19.7094 4.82352 19.5639C4.82399 19.5495 4.82454 19.5352 4.82516 19.5208L4.82735 19.4665C4.82821 19.4409 4.82962 19.4154 4.83055 19.3898C4.83415 19.2998 4.83774 19.2098 4.8429 19.1199C4.84383 19.1051 4.84469 19.0903 4.84571 19.0755L4.84907 19.0232C4.85024 19.0044 4.85188 18.9857 4.85305 18.9669C4.85993 18.8657 4.86735 18.7648 4.87626 18.6638C4.87813 18.6433 4.87985 18.6228 4.88173 18.6022C4.88438 18.5729 4.88759 18.5437 4.8904 18.5145C4.90141 18.4024 4.91305 18.2905 4.92649 18.1787C4.93095 18.1416 4.93602 18.1044 4.94071 18.0673C4.9554 17.9527 4.97102 17.8382 4.98829 17.724C4.99353 17.6896 4.99899 17.6554 5.00446 17.6211C5.0229 17.5047 5.04259 17.3886 5.06368 17.2728C5.07001 17.2388 5.07618 17.2047 5.08275 17.1707C5.10501 17.0536 5.12853 16.9368 5.15345 16.8203C5.15978 16.7908 5.16595 16.7613 5.17251 16.7318C5.19986 16.6076 5.229 16.4839 5.25955 16.3606C5.2722 16.3095 5.28369 16.2588 5.29697 16.2077L5.32166 16.1165C5.34759 16.0189 5.374 15.9214 5.40166 15.8249C5.40986 15.7967 5.41822 15.7686 5.42666 15.7405L5.44103 15.6927C5.46564 15.6097 5.49057 15.527 5.5165 15.4448C5.52799 15.4087 5.53971 15.3726 5.55158 15.3366L5.56338 15.3006C5.58869 15.2232 5.61432 15.146 5.64111 15.0688C5.65815 15.0195 5.67549 14.9703 5.6933 14.9206C5.72018 14.8452 5.74768 14.7702 5.77557 14.6959C5.79401 14.647 5.81245 14.598 5.83151 14.549C5.86073 14.4734 5.89073 14.3984 5.92128 14.3229L5.92807 14.3063C5.94464 14.2651 5.96135 14.2239 5.97846 14.1831C6.0112 14.1048 6.04503 14.0269 6.07893 13.9495L6.10034 13.9003C6.11144 13.8747 6.12261 13.8492 6.13417 13.8232C6.17487 13.7324 6.21698 13.6423 6.25909 13.5533L6.29831 13.4691C6.35519 13.3509 6.41324 13.2335 6.47316 13.1168L6.50269 13.0609C6.55269 12.9645 6.6034 12.8685 6.65559 12.7729C6.6677 12.7505 6.68027 12.7285 6.69262 12.7063L6.71887 12.6596C6.7609 12.5839 6.80317 12.5086 6.84598 12.4348C6.86567 12.4009 6.8859 12.3671 6.90598 12.3334L6.92207 12.3064C6.96301 12.2373 7.00419 12.1684 7.04661 12.0997C7.07247 12.0576 7.09872 12.0157 7.12841 11.9686C7.17036 11.9021 7.21263 11.8359 7.25528 11.7704C7.28364 11.727 7.31216 11.6835 7.34138 11.6396C7.38513 11.5739 7.42943 11.5088 7.47458 11.4432C7.50333 11.4015 7.53193 11.3599 7.56107 11.3185C7.60834 11.2515 7.65631 11.1852 7.70443 11.1192L7.73185 11.0813C7.75061 11.0554 7.76928 11.0297 7.78826 11.0041C7.84264 10.9308 7.89826 10.8584 7.9535 10.7867L8.02256 10.6966C8.18085 10.4946 8.34702 10.2933 8.51702 10.0977C8.53132 10.0812 8.54601 10.0648 8.56062 10.0486L8.59281 10.0123C8.65289 9.94429 8.71304 9.87655 8.7739 9.81007C8.79617 9.78569 8.81859 9.76171 8.84117 9.73772L8.86953 9.70733C8.9257 9.64718 8.98203 9.5871 9.03953 9.52749C9.07071 9.49506 9.10227 9.46295 9.13375 9.431L9.14383 9.42069C9.19969 9.36373 9.25594 9.30717 9.31259 9.25123C9.3486 9.21568 9.3847 9.18037 9.42173 9.14459C9.47907 9.0892 9.53681 9.03427 9.59408 8.9806L9.61165 8.9642C9.64212 8.93568 9.67259 8.90709 9.70423 8.87818C9.76494 8.82232 9.82634 8.7674 9.88697 8.71333L9.92447 8.67997C9.94713 8.65974 9.96986 8.6395 9.99252 8.61974C10.0603 8.56052 10.1288 8.50231 10.1971 8.44497L10.2588 8.39215C10.264 8.38809 10.2689 8.38411 10.274 8.37989C10.9122 7.84949 11.5997 7.36831 12.3171 6.94963C12.3245 6.94533 12.3318 6.94088 12.339 6.93635L12.3548 6.92736C12.4864 6.85111 12.6154 6.77861 12.7391 6.71158L12.7897 6.68486C12.9019 6.6247 13.0149 6.56603 13.1283 6.50884C13.1662 6.48962 13.2044 6.47079 13.2437 6.45142C13.3445 6.40165 13.446 6.35306 13.5468 6.3061L13.6496 6.25813C13.7937 6.19227 13.9265 6.13375 14.056 6.07914L14.0985 6.0618C14.2205 6.01086 14.3432 5.96164 14.467 5.91375C14.5005 5.90078 14.534 5.88813 14.5675 5.87555L14.586 5.86859C14.6918 5.82859 14.7982 5.78984 14.9037 5.75273L15.0139 5.7139C15.1671 5.66133 15.3065 5.6157 15.44 5.57429C15.4403 5.57421 15.4481 5.57195 15.4484 5.57187L15.4737 5.56437C15.5982 5.52609 15.7275 5.48843 15.8698 5.44882C15.9016 5.43999 15.9336 5.4314 15.9656 5.4228L15.9929 5.41546C16.1024 5.38609 16.2123 5.35796 16.3233 5.33085L16.4408 5.3021C16.6007 5.26444 16.7455 5.23249 16.8861 5.20382L16.9071 5.19968C17.0352 5.17374 17.1729 5.14811 17.3272 5.12139L17.4574 5.09983C17.5698 5.08139 17.6825 5.06428 17.7939 5.04866L17.9221 5.03069C18.0877 5.00881 18.2346 4.99147 18.3742 4.97717C18.3795 4.9767 18.3877 4.97592 18.3913 4.97561C18.5286 4.96186 18.674 4.94959 18.8365 4.93811C18.8669 4.936 18.8974 4.93412 18.9279 4.93233L18.9717 4.92967C19.0856 4.92272 19.2 4.91694 19.3151 4.91241L19.3471 4.91108C19.382 4.90967 19.4169 4.90826 19.4511 4.90717C19.8071 4.89631 20.0286 4.89639 20.384 4.90709C20.419 4.90826 20.4539 4.90959 20.4887 4.91108L20.5211 4.91241C20.6358 4.91694 20.7502 4.92264 20.8635 4.92967L20.9079 4.93233C20.9384 4.9342 20.9689 4.936 21 4.93827C21.1619 4.94975 21.3072 4.96194 21.4413 4.9753L21.4577 4.97678C21.5959 4.99077 21.7451 5.00834 21.9135 5.03069L22.0402 5.04835C22.1534 5.06428 22.2661 5.08147 22.3782 5.09975L22.508 5.12124C22.663 5.14811 22.8006 5.17382 22.9314 5.20022L22.9526 5.20421C23.0906 5.23241 23.2352 5.26444 23.3946 5.30194L23.5132 5.33101C23.6236 5.35788 23.7335 5.38601 23.8427 5.4153L23.8703 5.42273C23.9023 5.43132 23.9342 5.43984 23.967 5.44898C24.1085 5.48827 24.2377 5.52593 24.365 5.56507L24.3959 5.57414C24.5295 5.61554 24.6688 5.66125 24.8206 5.71328L24.9308 5.75211C25.0378 5.78976 25.1441 5.82852 25.2499 5.86852L25.2684 5.87547C25.3019 5.88813 25.3355 5.9007 25.369 5.91367C25.4926 5.96149 25.6155 6.01071 25.7353 6.06078L25.7802 6.07922C25.9095 6.1336 26.0423 6.19212 26.1856 6.25766L26.288 6.30532C26.3899 6.3529 26.4914 6.40157 26.5933 6.45181C26.6315 6.47056 26.6697 6.48946 26.7073 6.50837C26.8211 6.56579 26.9341 6.62447 27.046 6.68455L27.0977 6.71181C27.2206 6.77838 27.3496 6.8508 27.4823 6.92768L27.4966 6.9358C27.5039 6.94049 27.5113 6.94494 27.5188 6.94939C28.2363 7.36815 28.9236 7.84933 29.5619 8.37965C29.5662 8.38317 29.5708 8.387 29.5758 8.39083L29.6383 8.44411C29.7071 8.50208 29.7757 8.5602 29.843 8.61903C29.866 8.63911 29.8887 8.65935 29.9115 8.67966L29.948 8.71216C30.0096 8.76708 30.0711 8.82216 30.1326 8.87873C30.1633 8.90685 30.1938 8.93537 30.2243 8.96396L30.2408 8.97951C30.299 9.03404 30.3569 9.08896 30.4148 9.14506C30.4512 9.18014 30.4873 9.21545 30.5232 9.25092C30.58 9.30694 30.6362 9.3635 30.6921 9.42053L30.7021 9.43069C30.7336 9.4628 30.7652 9.49483 30.7967 9.52756C30.8539 9.58686 30.9102 9.64694 30.9663 9.70718L30.9947 9.73749C31.0173 9.76148 31.0398 9.78546 31.0616 9.80944C31.1228 9.8764 31.183 9.94421 31.2435 10.0127L31.2752 10.0484C31.2898 10.0646 31.3045 10.0809 31.3194 10.0983C31.4888 10.293 31.6549 10.4944 31.8128 10.6961L31.8817 10.7859C31.9375 10.8582 31.993 10.9307 32.0475 11.0041C32.0664 11.0297 32.0851 11.0553 32.1038 11.0812L32.1312 11.1189C32.1794 11.1851 32.2274 11.2515 32.2746 11.3185C32.3038 11.3599 32.3324 11.4016 32.3615 11.4438C32.4062 11.5088 32.4506 11.5739 32.4947 11.6403C32.5236 11.6835 32.5521 11.727 32.5803 11.7702C32.6231 11.836 32.6654 11.9021 32.7107 11.9741C32.7369 12.0159 32.7633 12.0577 32.7895 12.1003C32.8315 12.1686 32.8727 12.2375 32.9141 12.3072L32.9298 12.3336C32.9499 12.3673 32.97 12.401 32.9892 12.4339C33.0325 12.5087 33.0748 12.5841 33.117 12.6599L33.1432 12.7064C33.1555 12.7286 33.1681 12.7507 33.1803 12.7733C33.2324 12.8686 33.2832 12.9646 33.3332 13.0616L33.3627 13.1172C33.4225 13.2336 33.4806 13.3509 33.5372 13.4689L33.5763 13.5525C33.6187 13.6423 33.6608 13.7324 33.7018 13.8238C33.7132 13.8493 33.7243 13.8748 33.7354 13.9004L33.7568 13.9492C33.7908 14.0269 33.8247 14.1048 33.8572 14.1829C33.8743 14.2239 33.891 14.2651 33.9077 14.3063L33.9147 14.3234C33.945 14.3984 33.9751 14.4734 34.0044 14.5494C34.0233 14.598 34.0417 14.647 34.0599 14.6953C34.088 14.7702 34.1154 14.8453 34.1426 14.9213C34.1601 14.9703 34.1775 15.0195 34.1947 15.0694C34.2212 15.1461 34.2469 15.2233 34.2722 15.3004L34.284 15.3367C34.2959 15.3727 34.3077 15.4088 34.319 15.4449C34.3451 15.5272 34.3699 15.6099 34.3946 15.6931L34.4089 15.7407C34.4173 15.7688 34.4258 15.7969 34.4337 15.8246C34.4615 15.9216 34.488 16.0192 34.5141 16.1177L34.5387 16.2081C34.547 16.2403 34.5548 16.2723 34.5629 16.3045C34.5637 16.3082 34.564 16.3121 34.5651 16.3157C34.6016 16.4616 34.6358 16.6081 34.668 16.755C34.6703 16.7658 34.6726 16.7768 34.6749 16.7875C34.7045 16.9246 34.7323 17.062 34.7582 17.1998C34.7612 17.2153 34.7639 17.2307 34.7669 17.2462C34.7915 17.3797 34.8141 17.5134 34.8351 17.6476C34.8383 17.667 34.8413 17.6865 34.8443 17.7059C34.8644 17.8369 34.8823 17.9683 34.899 18.0999C34.9016 18.1215 34.9046 18.143 34.9073 18.1645C34.9226 18.2908 34.9358 18.4173 34.9481 18.544C34.95 18.5636 34.9522 18.583 34.954 18.6028C34.9553 18.6176 34.9566 18.6322 34.9579 18.6469C34.9682 18.7616 34.9766 18.8763 34.9843 18.9913C34.985 19.0018 34.9858 19.0123 34.9865 19.0227L34.9899 19.0757C34.9907 19.0878 34.9914 19.1002 34.9922 19.1124C34.9985 19.2202 35.003 19.3279 35.0071 19.4358C35.0074 19.4463 35.0081 19.4566 35.0084 19.4671L35.0105 19.521C35.011 19.5339 35.0116 19.547 35.0119 19.56C35.0162 19.7068 35.0187 19.8537 35.0187 20.0006C35.0187 20.145 35.0162 20.2892 35.0122 20.4334C35.0112 20.4694 35.0093 20.5054 35.008 20.5414C35.0041 20.6501 34.9995 20.7586 34.9933 20.8671C34.9909 20.9089 34.988 20.9507 34.9853 20.9925C34.9785 21.0972 34.9706 21.2018 34.9616 21.3063C34.9582 21.3465 34.9547 21.3868 34.9508 21.427C34.9404 21.5375 34.9286 21.6479 34.9158 21.7582C34.912 21.7907 34.9086 21.8234 34.9047 21.8559C34.8876 21.994 34.869 22.1318 34.8483 22.2694C34.8477 22.2735 34.8473 22.2777 34.8466 22.2819C34.8252 22.4222 34.8015 22.5621 34.7764 22.7017C34.7676 22.7501 34.7579 22.7981 34.7486 22.8463C34.7323 22.9315 34.7157 23.0165 34.698 23.1013C34.6835 23.1706 34.6681 23.2397 34.6527 23.3086C34.6394 23.368 34.6258 23.4274 34.6117 23.4867C33.0338 30.1384 27.0447 35.1018 19.9171 35.1018C15.3195 35.1018 11.0281 33.0445 8.14311 29.4576C7.92436 29.1858 7.52685 29.1426 7.25513 29.3612C6.98333 29.5799 6.9402 29.9774 7.15872 30.2492C10.2848 34.1358 14.9349 36.365 19.9175 36.365C27.4151 36.365 33.7504 31.2963 35.6788 24.4058H38.1588C39.1739 24.4058 39.9997 23.4887 39.9997 22.3614V17.5749C40.0007 16.4478 39.1748 15.5306 38.1598 15.5306ZM3.86147 16.8321L3.85327 16.8753C3.83436 16.9729 3.81585 17.0706 3.79874 17.1689C3.79202 17.2075 3.78569 17.2464 3.77936 17.2851L3.77225 17.3283C3.76147 17.394 3.75139 17.46 3.74124 17.5259C3.73757 17.5501 3.73343 17.5744 3.72983 17.5986C3.72968 17.5998 3.72944 17.6009 3.72921 17.6021C3.72085 17.6585 3.71319 17.7151 3.70553 17.7716C3.70046 17.8083 3.69608 17.8453 3.69131 17.8822C3.68499 17.931 3.67842 17.9797 3.67256 18.0286C3.6721 18.0328 3.67147 18.037 3.671 18.0412C3.6642 18.0987 3.65764 18.1559 3.65131 18.2138C3.64866 18.2386 3.64655 18.2633 3.64397 18.2881C3.63749 18.3501 3.63124 18.4122 3.62553 18.4743C3.62514 18.4784 3.62467 18.4826 3.62428 18.4866C3.61897 18.5431 3.61381 18.5995 3.60913 18.6567C3.60788 18.6719 3.60702 18.6875 3.60584 18.7028C3.60014 18.7751 3.59514 18.8473 3.59045 18.9197C3.58999 18.9276 3.58928 18.9354 3.58873 18.9433L3.58553 18.9922C3.58319 19.0287 3.58077 19.0652 3.57881 19.1012C3.57834 19.1101 3.57811 19.1191 3.57764 19.128C3.57256 19.2227 3.56897 19.3175 3.56561 19.4124C3.56553 19.416 3.5653 19.4198 3.56522 19.4234L3.56342 19.4677C3.56225 19.4945 3.56123 19.5216 3.56045 19.5483C3.5603 19.5534 3.5603 19.5579 3.56014 19.563C3.55928 19.5942 3.55881 19.6256 3.55819 19.6568C3.55569 19.7756 3.55397 19.8902 3.55397 20.001C3.55397 20.119 3.55577 20.2368 3.55819 20.3546C3.55889 20.387 3.55975 20.4193 3.56061 20.4517C3.56319 20.5478 3.5667 20.6438 3.571 20.7396C3.57209 20.7638 3.57295 20.7881 3.57413 20.8123C3.57991 20.9296 3.58702 21.0468 3.5953 21.1639C3.59709 21.1896 3.59928 21.2151 3.60116 21.2407C3.60834 21.3354 3.61631 21.4299 3.62506 21.5243C3.62803 21.5563 3.63092 21.5883 3.63413 21.6204C3.64561 21.736 3.6578 21.8515 3.67171 21.9667C3.67327 21.9803 3.67522 21.9937 3.67694 22.0073C3.68936 22.1086 3.70288 22.2096 3.71717 22.3106C3.7228 22.3507 3.72882 22.3907 3.73475 22.4307C3.74678 22.511 3.75944 22.5912 3.77264 22.6713C3.77882 22.7089 3.7846 22.7464 3.79108 22.7839C3.80882 22.8874 3.8278 22.9907 3.84749 23.0939C3.85054 23.11 3.85311 23.1265 3.85632 23.1429H1.84089C1.52768 23.1429 1.26323 22.7851 1.26323 22.3616V17.5752C1.26323 17.1517 1.52784 16.7939 1.84089 16.7939H3.86882C3.86632 16.8067 3.86382 16.8194 3.86147 16.8321ZM38.1598 23.1427H35.9802C35.9884 23.1005 35.9954 23.0582 36.0032 23.0159C36.0156 22.9497 36.0279 22.8834 36.0395 22.8169C36.0496 22.7586 36.0592 22.7001 36.0686 22.6418C36.0812 22.5648 36.0935 22.4879 36.105 22.4105C36.1124 22.3608 36.1191 22.3111 36.1259 22.2613C36.1377 22.1769 36.1492 22.0926 36.1596 22.0077C36.1652 21.9626 36.17 21.9175 36.1751 21.8725C36.1852 21.7841 36.1952 21.6958 36.2039 21.607C36.2083 21.5626 36.2118 21.5182 36.2158 21.4737C36.2237 21.3851 36.2317 21.2965 36.2382 21.2076C36.2418 21.1586 36.2444 21.1096 36.2476 21.0605C36.253 20.9761 36.2587 20.8919 36.2628 20.8072C36.2658 20.7474 36.2674 20.6874 36.2696 20.6276C36.2724 20.5532 36.2759 20.4791 36.2776 20.4045C36.2799 20.3106 36.2805 20.2166 36.2812 20.1226C36.2815 20.0819 36.2827 20.0415 36.2827 20.0007C36.2827 19.8865 36.2809 19.7684 36.2782 19.6459C36.2776 19.6204 36.2773 19.595 36.2767 19.5695C36.2765 19.5623 36.2764 19.5556 36.2763 19.5484C36.2755 19.5214 36.2744 19.4944 36.2733 19.4675L36.2716 19.4236C36.2711 19.4102 36.2703 19.3969 36.2699 19.3834C36.2667 19.3002 36.2636 19.2168 36.2592 19.1336C36.2587 19.123 36.2584 19.1122 36.2578 19.1016C36.2559 19.0651 36.2534 19.0285 36.2511 18.992L36.2478 18.9423C36.247 18.9302 36.246 18.9181 36.2452 18.9059C36.241 18.8428 36.2367 18.7796 36.2318 18.7166C36.2303 18.6963 36.2291 18.6762 36.2275 18.6561C36.2228 18.5994 36.2177 18.543 36.2124 18.4871C36.2115 18.4771 36.2104 18.4672 36.2095 18.4571C36.2048 18.4069 36.1997 18.3565 36.1945 18.3063C36.1913 18.2753 36.1886 18.2444 36.1852 18.2133C36.1789 18.1558 36.1724 18.0986 36.1656 18.0411C36.1645 18.0319 36.1631 18.0228 36.162 18.0137C36.1585 17.9843 36.1545 17.955 36.1508 17.9255C36.1443 17.8743 36.138 17.8229 36.1311 17.7718C36.1234 17.7151 36.1156 17.6585 36.1074 17.6021C36.0939 17.5105 36.0793 17.4193 36.0643 17.3279L36.0574 17.285C36.051 17.2461 36.0447 17.2073 36.038 17.1685C36.0208 17.0704 36.0023 16.9728 35.9836 16.8757L35.9752 16.8318C35.9728 16.8191 35.9702 16.8063 35.9678 16.7936H38.1599C38.4731 16.7936 38.7376 17.1514 38.7376 17.5749V22.3615C38.7376 22.785 38.4729 23.1427 38.1598 23.1427Z" fill="#757575" stroke="white" stroke-width="0.3"/>
<path d="M11.1271 18.9633L17.4057 23.8942C17.5213 23.985 17.6588 24.0291 17.7953 24.0291C17.9825 24.0291 18.1679 23.9463 18.2924 23.7877C18.5079 23.5133 18.4601 23.1162 18.1857 22.9009L11.9072 17.9699C11.6332 17.7544 11.2359 17.8021 11.0204 18.0765C10.8049 18.3508 10.8528 18.7479 11.1271 18.9633Z" fill="#757575" stroke="white" stroke-width="0.3"/>
<path d="M12.7313 17.0276L18.8732 21.8511C18.9888 21.942 19.1263 21.986 19.2628 21.986C19.45 21.986 19.6354 21.9032 19.76 21.7445C19.9754 21.4702 19.9276 21.0732 19.6532 20.8578L13.5112 16.0343C13.2371 15.8189 12.84 15.8666 12.6245 16.141C12.4092 16.415 12.457 16.812 12.7313 17.0276Z" fill="#757575" stroke="white" stroke-width="0.3"/>
<path d="M15.694 16.1585L18.8285 18.62C18.9441 18.7108 19.0816 18.7549 19.2181 18.7549C19.4053 18.7549 19.5907 18.6721 19.7152 18.5134C19.9307 18.2391 19.8829 17.8421 19.6085 17.6267L16.474 15.1652C16.1999 14.9498 15.8027 14.9974 15.5873 15.2719C15.3719 15.5459 15.4197 15.9431 15.694 16.1585Z" fill="#757575" stroke="white" stroke-width="0.3"/>
<path d="M14.8467 24.9082C15.0339 24.9082 15.2193 24.8253 15.3438 24.6667C15.5592 24.3923 15.5114 23.9954 15.2371 23.7799L11.6276 20.9454C11.3535 20.73 10.9564 20.7778 10.7409 21.0521C10.5254 21.3265 10.5732 21.7234 10.8476 21.9388L14.4571 24.7733C14.5726 24.8642 14.7102 24.9082 14.8467 24.9082Z" fill="#757575" stroke="white" stroke-width="0.3"/>
<path d="M26.1494 24.4904C27.0759 24.4904 27.8296 23.7366 27.8296 22.8101C27.8296 21.8837 27.0759 21.1299 26.1494 21.1299C25.2229 21.1299 24.4691 21.8836 24.4691 22.8101C24.4691 23.7366 25.2229 24.4904 26.1494 24.4904ZM26.1494 22.3931C26.3795 22.3931 26.5665 22.5802 26.5665 22.8102C26.5665 23.0402 26.3794 23.2273 26.1494 23.2273C25.9194 23.2273 25.7323 23.0402 25.7323 22.8102C25.7323 22.5802 25.9194 22.3931 26.1494 22.3931Z" fill="#757575" stroke="white" stroke-width="0.3"/>
</g>
<defs>
<clipPath id="clip0_296_13728">
<rect width="40" height="40" fill="white"/>
</clipPath>
</defs>
</svg>
