<svg width="18" height="19" viewBox="0 0 18 19" fill="none" xmlns="http://www.w3.org/2000/svg">
<path d="M3.69988 6.5749C3.69988 6.03784 3.91323 5.52277 4.29299 5.14301C4.67275 4.76325 5.18781 4.5499 5.72488 4.5499C6.26194 4.5499 6.77701 4.76325 7.15677 5.14301C7.53653 5.52277 7.74988 6.03784 7.74988 6.5749C7.74988 7.11197 7.53653 7.62703 7.15677 8.00679C6.77701 8.38656 6.26194 8.5999 5.72488 8.5999C5.18781 8.5999 4.67275 8.38656 4.29299 8.00679C3.91323 7.62703 3.69988 7.11197 3.69988 6.5749ZM5.72488 3.6499C4.94912 3.6499 4.20513 3.95807 3.65659 4.50662C3.10805 5.05516 2.79988 5.79914 2.79988 6.5749C2.79988 7.35066 3.10805 8.09465 3.65659 8.64319C4.20513 9.19173 4.94912 9.4999 5.72488 9.4999C6.50064 9.4999 7.24462 9.19173 7.79317 8.64319C8.34171 8.09465 8.64988 7.35066 8.64988 6.5749C8.64988 5.79914 8.34171 5.05516 7.79317 4.50662C7.24462 3.95807 6.50064 3.6499 5.72488 3.6499ZM10.8432 14.1304C11.3274 14.3284 11.9367 14.4499 12.6999 14.4499C14.3928 14.4499 15.3288 13.8487 15.822 13.1593C16.0799 12.7978 16.2412 12.3765 16.2909 11.9353C16.2953 11.8943 16.2983 11.8532 16.2999 11.812V11.7499C16.2999 11.5726 16.265 11.3971 16.1971 11.2333C16.1293 11.0695 16.0298 10.9207 15.9045 10.7953C15.7791 10.6699 15.6303 10.5705 15.4665 10.5027C15.3027 10.4348 15.1272 10.3999 14.9499 10.3999H10.7829C10.9989 10.6609 11.1609 10.966 11.2554 11.2999H14.9499C15.0692 11.2999 15.1837 11.3473 15.2681 11.4317C15.3525 11.5161 15.3999 11.6306 15.3999 11.7499V11.7985L15.3954 11.8435C15.3616 12.129 15.2563 12.4014 15.0894 12.6355C14.7951 13.0486 14.1561 13.5499 12.6999 13.5499C12.0411 13.5499 11.5497 13.4473 11.1816 13.297C11.1078 13.549 11.0007 13.8334 10.8432 14.1304ZM0.999878 12.1999C0.999878 11.7225 1.18952 11.2647 1.52709 10.9271C1.86465 10.5895 2.32249 10.3999 2.79988 10.3999H8.64988C9.12727 10.3999 9.5851 10.5895 9.92267 10.9271C10.2602 11.2647 10.4499 11.7225 10.4499 12.1999V12.2755L10.4481 12.3115L10.4391 12.433C10.3753 13.0163 10.1681 13.5747 9.83608 14.0584C9.20518 14.9719 7.98658 15.7999 5.72488 15.7999C3.46318 15.7999 2.24458 14.9719 1.61368 14.0593C1.28149 13.5753 1.07432 13.0166 1.01068 12.433C1.00554 12.3806 1.00194 12.3281 0.999878 12.2755V12.1999ZM1.89988 12.2539V12.2701L1.90618 12.3448C1.95502 12.7762 2.10891 13.1891 2.35438 13.5472C2.79268 14.1808 3.71158 14.8999 5.72488 14.8999C7.73818 14.8999 8.65708 14.1808 9.09538 13.5472C9.34085 13.1891 9.49474 12.7762 9.54358 12.3448C9.54718 12.3106 9.54898 12.2857 9.54898 12.2701L9.54988 12.2548V12.1999C9.54988 11.9612 9.45506 11.7323 9.28627 11.5635C9.11749 11.3947 8.88857 11.2999 8.64988 11.2999H2.79988C2.56118 11.2999 2.33226 11.3947 2.16348 11.5635C1.9947 11.7323 1.89988 11.9612 1.89988 12.1999V12.2539ZM11.3499 7.2499C11.3499 6.89186 11.4921 6.54848 11.7453 6.29531C11.9985 6.04213 12.3418 5.8999 12.6999 5.8999C13.0579 5.8999 13.4013 6.04213 13.6545 6.29531C13.9076 6.54848 14.0499 6.89186 14.0499 7.2499C14.0499 7.60794 13.9076 7.95132 13.6545 8.2045C13.4013 8.45767 13.0579 8.5999 12.6999 8.5999C12.3418 8.5999 11.9985 8.45767 11.7453 8.2045C11.4921 7.95132 11.3499 7.60794 11.3499 7.2499ZM12.6999 4.9999C12.1031 4.9999 11.5308 5.23696 11.1089 5.65891C10.6869 6.08087 10.4499 6.65317 10.4499 7.2499C10.4499 7.84664 10.6869 8.41894 11.1089 8.84089C11.5308 9.26285 12.1031 9.4999 12.6999 9.4999C13.2966 9.4999 13.8689 9.26285 14.2909 8.84089C14.7128 8.41894 14.9499 7.84664 14.9499 7.2499C14.9499 6.65317 14.7128 6.08087 14.2909 5.65891C13.8689 5.23696 13.2966 4.9999 12.6999 4.9999Z" fill="#757575" stroke="#757575" stroke-width="0.3"/>
</svg>
