<svg width="24" height="24" viewBox="0 0 24 24" fill="none" xmlns="http://www.w3.org/2000/svg">
<path d="M20.25 12.75C20.2475 14.8071 19.4772 16.7893 18.0899 18.3083C16.7027 19.8273 14.7985 20.7738 12.75 20.9625V10.5H17.25V9.00001H12.75V7.39351C13.457 7.21096 14.0731 6.77683 14.483 6.1725C14.8928 5.56817 15.0681 4.83512 14.9761 4.11076C14.8841 3.3864 14.5311 2.72046 13.9832 2.23777C13.4353 1.75507 12.7302 1.48877 12 1.48877C11.2698 1.48877 10.5647 1.75507 10.0168 2.23777C9.46895 2.72046 9.11592 3.3864 9.02391 4.11076C8.93191 4.83512 9.10724 5.56817 9.51705 6.1725C9.92686 6.77683 10.543 7.21096 11.25 7.39351V9.00001H6.75V10.5H11.25V20.9625C9.20154 20.7738 7.29728 19.8273 5.91005 18.3083C4.52283 16.7893 3.75254 14.8071 3.75 12.75H2.25C2.25 15.3359 3.27723 17.8158 5.10571 19.6443C6.93419 21.4728 9.41414 22.5 12 22.5C14.5859 22.5 17.0658 21.4728 18.8943 19.6443C20.7228 17.8158 21.75 15.3359 21.75 12.75H20.25ZM10.5 4.50001C10.5 4.20334 10.588 3.91333 10.7528 3.66665C10.9176 3.41998 11.1519 3.22772 11.426 3.11419C11.7001 3.00066 12.0017 2.97095 12.2926 3.02883C12.5836 3.08671 12.8509 3.22957 13.0607 3.43935C13.2704 3.64913 13.4133 3.9164 13.4712 4.20737C13.5291 4.49834 13.4994 4.79994 13.3858 5.07403C13.2723 5.34812 13.08 5.58239 12.8334 5.74721C12.5867 5.91203 12.2967 6.00001 12 6.00001C11.6022 6.00001 11.2206 5.84197 10.9393 5.56067C10.658 5.27936 10.5 4.89783 10.5 4.50001Z" fill="#25466A"/>
</svg>
