<svg width="22" height="23" viewBox="0 0 22 23" fill="none" xmlns="http://www.w3.org/2000/svg">
<path d="M18.5625 12.1871C18.5602 14.0728 17.8541 15.8897 16.5825 17.2821C15.3108 18.6746 13.5653 19.5422 11.6875 19.7152V10.1246H15.8125V8.74956H11.6875V7.27693C12.3356 7.1096 12.9004 6.71165 13.276 6.15768C13.6517 5.60371 13.8124 4.93174 13.7281 4.26775C13.6437 3.60375 13.3201 2.9933 12.8179 2.55084C12.3157 2.10837 11.6693 1.86426 11 1.86426C10.3307 1.86426 9.68431 2.10837 9.18209 2.55084C8.67987 2.9933 8.35626 3.60375 8.27192 4.26775C8.18758 4.93174 8.3483 5.60371 8.72396 6.15768C9.09962 6.71165 9.66442 7.1096 10.3125 7.27693V8.74956H6.1875V10.1246H10.3125V19.7152C8.43475 19.5422 6.68917 18.6746 5.41755 17.2821C4.14592 15.8897 3.43983 14.0728 3.4375 12.1871H2.0625C2.0625 14.5574 3.00413 16.8307 4.68023 18.5068C6.35634 20.1829 8.62963 21.1246 11 21.1246C13.3704 21.1246 15.6437 20.1829 17.3198 18.5068C18.9959 16.8307 19.9375 14.5574 19.9375 12.1871H18.5625ZM9.625 4.62456C9.625 4.35261 9.70564 4.08677 9.85673 3.86065C10.0078 3.63453 10.2226 3.45829 10.4738 3.35422C10.7251 3.25015 11.0015 3.22292 11.2682 3.27598C11.535 3.32903 11.78 3.45999 11.9723 3.65229C12.1646 3.84458 12.2955 4.08959 12.3486 4.35631C12.4016 4.62303 12.3744 4.8995 12.2703 5.15075C12.1663 5.402 11.99 5.61674 11.7639 5.76783C11.5378 5.91892 11.2719 5.99956 11 5.99956C10.6353 5.99956 10.2856 5.85469 10.0277 5.59683C9.76987 5.33897 9.625 4.98923 9.625 4.62456Z" fill="#757575"/>
</svg>
