<svg width="40" height="40" viewBox="0 0 40 40" fill="none" xmlns="http://www.w3.org/2000/svg">
<g clip-path="url(#clip0_290_13534)">
<g clip-path="url(#clip1_290_13534)">
<mask id="mask0_290_13534" style="mask-type:luminance" maskUnits="userSpaceOnUse" x="-7" y="0" width="54" height="40">
<path d="M46.6667 0H-6.66666V40H46.6667V0Z" fill="white"/>
</mask>
<g mask="url(#mask0_290_13534)">
<path d="M-6.66666 0H46.6667V13.3333H-6.66666V0Z" fill="#FF9933"/>
<path d="M-6.66666 13.333H46.6667V26.6663H-6.66666V13.333Z" fill="white"/>
<path d="M-6.66666 26.667H46.6667V40.0003H-6.66666V26.667Z" fill="#128807"/>
<path d="M20 25.3337C22.9456 25.3337 25.3334 22.9459 25.3334 20.0003C25.3334 17.0548 22.9456 14.667 20 14.667C17.0545 14.667 14.6667 17.0548 14.6667 20.0003C14.6667 22.9459 17.0545 25.3337 20 25.3337Z" fill="#000088"/>
<path d="M20 24.6663C22.5774 24.6663 24.6667 22.577 24.6667 19.9997C24.6667 17.4223 22.5774 15.333 20 15.333C17.4227 15.333 15.3334 17.4223 15.3334 19.9997C15.3334 22.577 17.4227 24.6663 20 24.6663Z" fill="white"/>
<path d="M19.9985 20.9321C20.5139 20.9321 20.9318 20.5142 20.9318 19.9988C20.9318 19.4833 20.5139 19.0654 19.9985 19.0654C19.483 19.0654 19.0651 19.4833 19.0651 19.9988C19.0651 20.5142 19.483 20.9321 19.9985 20.9321Z" fill="#000088"/>
<path d="M24.5972 20.8461C24.7286 20.8634 24.8492 20.7709 24.8665 20.6395C24.8838 20.5081 24.7913 20.3876 24.6598 20.3702C24.5284 20.353 24.4079 20.4454 24.3906 20.5768C24.3733 20.7083 24.4658 20.8288 24.5972 20.8461Z" fill="#000088"/>
<path d="M20.0011 24.6646L20.1611 21.8646L20.0011 20.5312L19.8411 21.8646L20.0011 24.6646Z" fill="#000088"/>
<path d="M24.2204 22.0067C24.3428 22.0575 24.4832 21.9993 24.5339 21.8769C24.5847 21.7544 24.5265 21.614 24.404 21.5633C24.2815 21.5125 24.1412 21.5707 24.0905 21.6931C24.0397 21.8156 24.0979 21.956 24.2204 22.0067Z" fill="#000088"/>
<path d="M18.7931 24.5052L19.6724 21.842L19.8629 20.5127L19.3633 21.7592L18.7931 24.5052Z" fill="#000088"/>
<path d="M23.5545 23.0291C23.6596 23.1097 23.8103 23.0899 23.891 22.9847C23.9717 22.8796 23.9518 22.7289 23.8467 22.6483C23.7415 22.5675 23.5909 22.5874 23.5102 22.6925C23.4295 22.7977 23.4493 22.9483 23.5545 23.0291Z" fill="#000088"/>
<path d="M17.6656 24.0396L19.2042 21.6947L19.7323 20.46L18.927 21.5347L17.6656 24.0396Z" fill="#000088"/>
<path d="M22.6481 23.85C22.7288 23.9551 22.8795 23.975 22.9846 23.8942C23.0898 23.8136 23.1096 23.6629 23.0289 23.5578C22.9482 23.4526 22.7975 23.4328 22.6924 23.5134C22.5873 23.5942 22.5674 23.7448 22.6481 23.85Z" fill="#000088"/>
<path d="M16.6983 23.2987L18.7913 21.432L19.621 20.376L18.565 21.2056L16.6983 23.2987Z" fill="#000088"/>
<path d="M21.5625 24.4032C21.6132 24.5256 21.7535 24.5838 21.876 24.5331C21.9985 24.4824 22.0566 24.342 22.0059 24.2195C21.9552 24.097 21.8148 24.0389 21.6923 24.0896C21.5699 24.1403 21.5117 24.2807 21.5625 24.4032Z" fill="#000088"/>
<path d="M15.9587 22.3333L18.4636 21.0718L19.5383 20.2666L18.3036 20.7947L15.9587 22.3333Z" fill="#000088"/>
<path d="M20.3705 24.6571C20.3879 24.7885 20.5084 24.881 20.6398 24.8637C20.7712 24.8464 20.8637 24.7259 20.8464 24.5945C20.8291 24.4631 20.7086 24.3705 20.5771 24.3878C20.4457 24.4051 20.3533 24.5257 20.3705 24.6571Z" fill="#000088"/>
<path d="M15.4942 21.2065L18.2403 20.6363L19.4867 20.1367L18.1574 20.3273L15.4942 21.2065Z" fill="#000088"/>
<path d="M19.1542 24.5944C19.1369 24.7259 19.2294 24.8464 19.3608 24.8637C19.4922 24.881 19.6128 24.7885 19.6301 24.6571C19.6474 24.5257 19.5549 24.4051 19.4235 24.3878C19.292 24.3705 19.1715 24.463 19.1542 24.5944Z" fill="#000088"/>
<path d="M15.3354 19.9989L18.1354 20.1589L19.4687 19.9989L18.1354 19.8389L15.3354 19.9989Z" fill="#000088"/>
<path d="M17.9934 24.2175C17.9426 24.34 18.0008 24.4804 18.1232 24.5311C18.2457 24.5818 18.3861 24.5237 18.4368 24.4012C18.4876 24.2787 18.4294 24.1384 18.307 24.0877C18.1845 24.0369 18.0441 24.0951 17.9934 24.2175Z" fill="#000088"/>
<path d="M15.4948 18.79L18.158 19.6693L19.4873 19.8598L18.2408 19.3602L15.4948 18.79Z" fill="#000088"/>
<path d="M16.9679 23.5549C16.8872 23.66 16.907 23.8107 17.0122 23.8913C17.1173 23.9721 17.268 23.9522 17.3487 23.8471C17.4294 23.7419 17.4095 23.5913 17.3044 23.5105C17.1992 23.4299 17.0486 23.4497 16.9679 23.5549Z" fill="#000088"/>
<path d="M15.9576 17.666L18.3025 19.2045L19.5372 19.7327L18.4625 18.9274L15.9576 17.666Z" fill="#000088"/>
<path d="M16.1476 22.6483C16.0425 22.7289 16.0226 22.8796 16.1033 22.9847C16.184 23.0899 16.3347 23.1097 16.4398 23.0291C16.545 22.9483 16.5648 22.7977 16.4842 22.6925C16.4034 22.5874 16.2528 22.5675 16.1476 22.6483Z" fill="#000088"/>
<path d="M16.6985 16.6982L18.5653 18.7912L19.6213 19.6209L18.7915 18.565L16.6985 16.6982Z" fill="#000088"/>
<path d="M15.5946 21.5603C15.4721 21.611 15.414 21.7514 15.4647 21.8739C15.5154 21.9963 15.6558 22.0545 15.7783 22.0038C15.9007 21.9531 15.9589 21.8127 15.9081 21.6902C15.8574 21.5677 15.7171 21.5096 15.5946 21.5603Z" fill="#000088"/>
<path d="M17.6646 15.9561L18.926 18.4609L19.7312 19.5357L19.2032 18.3009L17.6646 15.9561Z" fill="#000088"/>
<path d="M15.34 20.3683C15.2086 20.3856 15.1162 20.5062 15.1334 20.6376C15.1508 20.769 15.2713 20.8615 15.4027 20.8442C15.5341 20.8269 15.6266 20.7064 15.6093 20.5749C15.592 20.4435 15.4715 20.351 15.34 20.3683Z" fill="#000088"/>
<path d="M18.7913 15.4912L19.3615 18.2372L19.8611 19.4837L19.6705 18.1544L18.7913 15.4912Z" fill="#000088"/>
<path d="M15.4028 19.1544C15.2714 19.1371 15.1509 19.2296 15.1335 19.361C15.1163 19.4924 15.2087 19.613 15.3402 19.6303C15.4716 19.6476 15.5921 19.5551 15.6095 19.4237C15.6267 19.2922 15.5343 19.1717 15.4028 19.1544Z" fill="#000088"/>
<path d="M19.9989 15.335L19.8389 18.135L19.9989 19.4683L20.1589 18.135L19.9989 15.335Z" fill="#000088"/>
<path d="M15.7797 17.9929C15.6572 17.9422 15.5168 18.0004 15.4661 18.1228C15.4154 18.2453 15.4736 18.3857 15.596 18.4364C15.7185 18.4871 15.8588 18.429 15.9095 18.3065C15.9603 18.1841 15.9021 18.0437 15.7797 17.9929Z" fill="#000088"/>
<path d="M21.2069 15.4951L20.3277 18.1583L20.1371 19.4877L20.6367 18.2411L21.2069 15.4951Z" fill="#000088"/>
<path d="M16.4455 16.9705C16.3404 16.8898 16.1897 16.9096 16.1091 17.0148C16.0283 17.12 16.0482 17.2706 16.1533 17.3513C16.2585 17.432 16.4091 17.4122 16.4899 17.307C16.5705 17.2019 16.5507 17.0512 16.4455 16.9705Z" fill="#000088"/>
<path d="M22.3344 15.96L20.7958 18.3048L20.2677 19.5396L21.073 18.4648L22.3344 15.96Z" fill="#000088"/>
<path d="M17.3519 16.1505C17.2712 16.0454 17.1206 16.0255 17.0154 16.1063C16.9102 16.1869 16.8904 16.3376 16.9711 16.4427C17.0518 16.5479 17.2025 16.5677 17.3076 16.4871C17.4128 16.4063 17.4326 16.2557 17.3519 16.1505Z" fill="#000088"/>
<path d="M23.3018 16.7012L21.2088 18.5679L20.3791 19.6239L21.435 18.7942L23.3018 16.7012Z" fill="#000088"/>
<path d="M18.4375 15.5945C18.3868 15.4721 18.2465 15.4139 18.124 15.4646C18.0015 15.5153 17.9434 15.6557 17.9941 15.7782C18.0448 15.9007 18.1852 15.9588 18.3077 15.9081C18.4301 15.8573 18.4883 15.717 18.4375 15.5945Z" fill="#000088"/>
<path d="M24.0413 17.6641L21.5364 18.9255L20.4617 19.7307L21.6964 19.2027L24.0413 17.6641Z" fill="#000088"/>
<path d="M19.6295 15.3395C19.6122 15.2081 19.4916 15.1157 19.3602 15.1329C19.2288 15.1503 19.1363 15.2708 19.1536 15.4022C19.1709 15.5336 19.2914 15.6261 19.4229 15.6088C19.5543 15.5915 19.6468 15.471 19.6295 15.3395Z" fill="#000088"/>
<path d="M24.5058 18.791L21.7598 19.3612L20.5133 19.8608L21.8426 19.6703L24.5058 18.791Z" fill="#000088"/>
<path d="M20.8457 15.4032C20.8631 15.2718 20.7705 15.1512 20.6391 15.1339C20.5077 15.1166 20.3872 15.2091 20.3699 15.3406C20.3526 15.472 20.4451 15.5925 20.5765 15.6098C20.7079 15.6271 20.8285 15.5346 20.8457 15.4032Z" fill="#000088"/>
<path d="M24.6646 19.9989L21.8646 19.8389L20.5312 19.9989L21.8646 20.1589L24.6646 19.9989Z" fill="#000088"/>
<path d="M22.0067 15.7792C22.0574 15.6567 21.9992 15.5163 21.8768 15.4656C21.7543 15.4149 21.6139 15.4731 21.5632 15.5955C21.5125 15.718 21.5706 15.8583 21.6931 15.9091C21.8155 15.9598 21.9559 15.9017 22.0067 15.7792Z" fill="#000088"/>
<path d="M24.5053 21.2065L21.8421 20.3273L20.5128 20.1367L21.7593 20.6363L24.5053 21.2065Z" fill="#000088"/>
<path d="M23.0321 16.4427C23.1128 16.3376 23.093 16.1869 22.9878 16.1063C22.8826 16.0255 22.732 16.0454 22.6513 16.1505C22.5706 16.2557 22.5904 16.4063 22.6956 16.4871C22.8008 16.5677 22.9514 16.5479 23.0321 16.4427Z" fill="#000088"/>
<path d="M24.0424 22.3313L21.6976 20.7928L20.4628 20.2646L21.5376 21.0699L24.0424 22.3313Z" fill="#000088"/>
<path d="M23.8524 17.3493C23.9576 17.2687 23.9774 17.118 23.8968 17.0129C23.816 16.9077 23.6654 16.8879 23.5602 16.9685C23.4551 17.0493 23.4352 17.1999 23.5159 17.3051C23.5966 17.4102 23.7473 17.4301 23.8524 17.3493Z" fill="#000088"/>
<path d="M23.3015 23.2996L21.4347 21.2066L20.3787 20.377L21.2085 21.4329L23.3015 23.2996Z" fill="#000088"/>
<path d="M24.4054 18.4374C24.5279 18.3866 24.586 18.2463 24.5354 18.1238C24.4846 18.0014 24.3442 17.9432 24.2218 17.9939C24.0993 18.0446 24.0412 18.185 24.0919 18.3075C24.1426 18.43 24.283 18.4881 24.4054 18.4374Z" fill="#000088"/>
<path d="M22.3355 24.0415L21.074 21.5366L20.2688 20.4619L20.7969 21.6966L22.3355 24.0415Z" fill="#000088"/>
<path d="M24.66 19.6293C24.7914 19.612 24.8839 19.4915 24.8666 19.3601C24.8493 19.2287 24.7288 19.1361 24.5974 19.1535C24.466 19.1707 24.3734 19.2913 24.3908 19.4227C24.408 19.5541 24.5286 19.6466 24.66 19.6293Z" fill="#000088"/>
<path d="M21.2087 24.5062L20.6385 21.7601L20.1389 20.5137L20.3294 21.843L21.2087 24.5062Z" fill="#000088"/>
</g>
</g>
</g>
<defs>
<clipPath id="clip0_290_13534">
<rect width="40" height="40" rx="20" fill="white"/>
</clipPath>
<clipPath id="clip1_290_13534">
<rect width="53.3333" height="40" fill="white" transform="translate(-6.66666)"/>
</clipPath>
</defs>
</svg>
