<svg width="55" height="55" viewBox="0 0 55 55" fill="none" xmlns="http://www.w3.org/2000/svg">
<rect x="0.55835" width="54.2083" height="54.2083" rx="27.1042" fill="#FF5F00" fill-opacity="0.2"/>
<path fill-rule="evenodd" clip-rule="evenodd" d="M22.1239 17.8061C20.8127 17.9824 20.0296 18.3166 19.4523 18.8939C18.875 19.4712 18.5407 20.2545 18.3645 21.5659C18.1851 22.9007 18.1834 24.6556 18.1834 27.1042C18.1834 29.5533 18.1851 31.3082 18.3645 32.6428C18.5407 33.954 18.875 34.7371 19.4523 35.3144C20.0296 35.8917 20.8129 36.2259 22.1243 36.4022C23.459 36.5816 25.214 36.5833 27.6625 36.5833C30.1116 36.5833 31.8666 36.5816 33.2011 36.4022C34.5124 36.226 35.2954 35.8917 35.8727 35.3144C36.45 34.7371 36.7843 33.9538 36.9606 32.6424C37.14 31.3077 37.1417 29.5527 37.1417 27.1042C37.1417 24.6551 37.14 22.9001 36.9606 21.5655C36.7843 20.2543 36.4501 19.4713 35.8727 18.8939C35.2955 18.3167 34.5122 17.9824 33.2007 17.8061C31.866 17.6267 30.1111 17.625 27.6625 17.625C25.2134 17.625 23.4585 17.6267 22.1239 17.8061ZM27.6006 16H27.7244C30.0975 16 31.9617 16 33.4172 16.1956C34.9087 16.3961 36.0922 16.8153 37.0218 17.7449C37.9514 18.6745 38.3706 19.8577 38.5711 21.349C38.7667 22.8044 38.7667 24.6686 38.7667 27.0423V27.1661C38.7667 29.5392 38.7667 31.4034 38.5711 32.8589C38.3706 34.3503 37.9514 35.5338 37.0218 36.4634C36.0922 37.393 34.909 37.8123 33.4176 38.0127C31.9623 38.2084 30.0981 38.2083 27.7244 38.2083H27.6006C25.2275 38.2083 23.3633 38.2084 21.9078 38.0127C20.4164 37.8123 19.2329 37.3931 18.3032 36.4634C17.3736 35.5338 16.9544 34.3507 16.754 32.8593C16.5583 31.4039 16.5583 29.5397 16.5583 27.1661V27.0423C16.5583 24.6692 16.5583 22.805 16.754 21.3495C16.9544 19.858 17.3736 18.6745 18.3032 17.7449C19.2328 16.8153 20.416 16.3961 21.9074 16.1956C23.3628 16 25.227 16 27.6006 16Z" fill="#25466A"/>
<path fill-rule="evenodd" clip-rule="evenodd" d="M32.8062 21.1465C32.8062 20.6978 33.17 20.334 33.6187 20.334H33.6295C34.0783 20.334 34.442 20.6978 34.442 21.1465C34.442 21.5952 34.0783 21.959 33.6295 21.959H33.6187C33.17 21.959 32.8062 21.5952 32.8062 21.1465ZM27.6625 23.0423C26.5851 23.0423 25.5518 23.4703 24.7899 24.2322C24.028 24.9941 23.6 26.0274 23.6 27.1048C23.6 28.1823 24.028 29.2156 24.7899 29.9774C25.5518 30.7393 26.5851 31.1673 27.6625 31.1673C28.74 31.1673 29.7733 30.7393 30.5352 29.9774C31.297 29.2156 31.725 28.1823 31.725 27.1048C31.725 26.0274 31.297 24.9941 30.5352 24.2322C29.7733 23.4703 28.74 23.0423 27.6625 23.0423ZM23.6409 23.0831C24.7075 22.0165 26.1541 21.4173 27.6625 21.4173C29.171 21.4173 30.6176 22.0165 31.6842 23.0831C32.7508 24.1498 33.35 25.5964 33.35 27.1048C33.35 28.6132 32.7508 30.0599 31.6842 31.1265C30.6176 32.1931 29.171 32.7923 27.6625 32.7923C26.1541 32.7923 24.7075 32.1931 23.6409 31.1265C22.5743 30.0599 21.975 28.6132 21.975 27.1048C21.975 25.5964 22.5743 24.1498 23.6409 23.0831Z" fill="#25466A"/>
</svg>
