<svg width="26" height="26" viewBox="0 0 26 26" fill="none" xmlns="http://www.w3.org/2000/svg">
<path fill-rule="evenodd" clip-rule="evenodd" d="M7.46141 3.70187C6.1502 3.87813 5.36713 4.21238 4.78982 4.78969C4.21254 5.36697 3.87826 6.15027 3.702 7.46168C3.5226 8.79641 3.52087 10.5514 3.52087 12.9999C3.52087 15.449 3.5226 17.204 3.702 18.5385C3.87825 19.8498 4.2125 20.6328 4.78982 21.2101C5.3671 21.7874 6.15039 22.1217 7.46181 22.298C8.79653 22.4774 10.5515 22.4791 13 22.4791C15.4491 22.4791 17.2041 22.4774 18.5387 22.298C19.8499 22.1217 20.6329 21.7875 21.2103 21.2101C21.7875 20.6329 22.1218 19.8496 22.2981 18.5382C22.4775 17.2034 22.4792 15.4485 22.4792 12.9999C22.4792 10.5508 22.4775 8.79587 22.2981 7.46129C22.1218 6.15007 21.7876 5.36701 21.2103 4.78969C20.633 4.21241 19.8497 3.87814 18.5383 3.70188C17.2036 3.52248 15.4486 3.52075 13 3.52075C10.5509 3.52075 8.79599 3.52248 7.46141 3.70187ZM12.9381 1.89575H13.0619C15.4351 1.89574 17.2992 1.89573 18.7547 2.09136C20.2462 2.29182 21.4297 2.71101 22.3593 3.64064C23.2889 4.57025 23.7081 5.75343 23.9086 7.2448C24.1042 8.70018 24.1042 10.5644 24.1042 12.938V13.0618C24.1042 15.4349 24.1042 17.2991 23.9086 18.7546C23.7081 20.2461 23.2889 21.4296 22.3593 22.3592C21.4297 23.2888 20.2465 23.708 18.7552 23.9085C17.2998 24.1041 15.4356 24.1041 13.0619 24.1041H12.9382C10.565 24.1041 8.70084 24.1041 7.24534 23.9085C5.7539 23.708 4.5704 23.2888 3.64077 22.3592C2.71117 21.4296 2.29195 20.2464 2.09148 18.755C1.89585 17.2997 1.89586 15.4355 1.89587 13.0619V12.938C1.89586 10.5649 1.89585 8.70071 2.09148 7.24522C2.29194 5.75378 2.71113 4.57028 3.64077 3.64064C4.57037 2.71104 5.75355 2.29183 7.24492 2.09136C8.70029 1.89573 10.5645 1.89574 12.9381 1.89575Z" fill="white"/>
<path fill-rule="evenodd" clip-rule="evenodd" d="M18.1437 7.0415C18.1437 6.59277 18.5074 6.229 18.9562 6.229H18.967C19.4157 6.229 19.7795 6.59277 19.7795 7.0415C19.7795 7.49024 19.4157 7.854 18.967 7.854H18.9562C18.5074 7.854 18.1437 7.49024 18.1437 7.0415ZM13 8.93734C11.9226 8.93734 10.8892 9.36535 10.1274 10.1272C9.36551 10.8891 8.9375 11.9224 8.9375 12.9998C8.9375 14.0773 9.36551 15.1106 10.1274 15.8725C10.8892 16.6343 11.9226 17.0623 13 17.0623C14.0774 17.0623 15.1108 16.6343 15.8726 15.8725C16.6345 15.1106 17.0625 14.0773 17.0625 12.9998C17.0625 11.9224 16.6345 10.8891 15.8726 10.1272C15.1108 9.36535 14.0774 8.93734 13 8.93734ZM8.97833 8.97817C10.0449 7.91156 11.4916 7.31234 13 7.31234C14.5084 7.31234 15.9551 7.91156 17.0217 8.97817C18.0883 10.0448 18.6875 11.4914 18.6875 12.9998C18.6875 14.5083 18.0883 15.9549 17.0217 17.0215C15.9551 18.0881 14.5084 18.6873 13 18.6873C11.4916 18.6873 10.0449 18.0881 8.97833 17.0215C7.91172 15.9549 7.3125 14.5083 7.3125 12.9998C7.3125 11.4914 7.91172 10.0448 8.97833 8.97817Z" fill="white"/>
</svg>
