<svg width="40" height="40" viewBox="0 0 40 40" fill="none" xmlns="http://www.w3.org/2000/svg">
<g clip-path="url(#clip0_849_11981)">
<path d="M13.2812 23.1122C12.3828 23.2529 11.4375 23.6201 9.53125 24.5654C8.64844 25.0029 7.82812 25.3857 7.69531 25.4247C7.57031 25.456 7.20312 25.5576 6.88281 25.6435C6.5625 25.7372 6.07031 25.8232 5.78906 25.8466C3.96875 25.9872 3.29688 26.1982 2.89062 26.7529L2.64844 27.0888L2.67188 29.3622C2.69531 31.4091 2.71094 31.6591 2.83594 31.8544C2.91406 31.9716 2.96094 32.0888 2.94531 32.1044C2.92188 32.1279 2.44531 32.1747 1.88281 32.206C0.804688 32.2763 0.46875 32.3857 0.46875 32.6826C0.46875 32.9013 0.78125 33.0732 1.3125 33.1513C1.875 33.2294 3.75 33.1201 4.80469 32.9482C6.03125 32.7451 6.71094 32.7138 7.22656 32.8154C9.21094 33.206 11.8594 33.2841 13.8281 33.0029C14.4531 32.9091 15.1406 32.7919 15.3594 32.7294C15.7109 32.6357 15.8359 32.6435 16.4141 32.7685C17.6562 33.0341 18.9844 33.1669 20.4688 33.1669C21.9531 33.1669 23.2812 33.0341 24.5234 32.7685C25.1016 32.6435 25.2266 32.6357 25.5781 32.7294C27.1719 33.1591 30.3516 33.2997 32.2656 33.0263C32.8047 32.956 33.3203 32.8857 33.4141 32.8857C33.5 32.8779 33.5703 32.8622 33.5547 32.831C33.5391 32.8076 33.7422 32.7607 34.0078 32.7138C34.3984 32.6591 34.6406 32.6747 35.2969 32.7997C35.8984 32.9247 36.0703 32.9872 36.0078 33.0497C35.9375 33.1201 35.9844 33.1201 36.2031 33.0576C36.4141 32.9872 36.6328 32.9951 37.0938 33.0654C37.7734 33.1747 39.7578 33.2138 39.9062 33.1201C39.9609 33.0888 40 32.9013 40 32.6826C40 32.2216 40.0703 32.2451 38.6016 32.1747C38.0312 32.1435 37.5156 32.1044 37.4531 32.081C37.3672 32.0497 37.3438 31.8154 37.3438 30.9638C37.3438 30.0732 37.3203 29.8232 37.1953 29.5419C37 29.0966 36.75 28.7763 36.3203 28.4326C35.875 28.0654 33.7969 27.3779 32.6719 27.2138C32.3672 27.1747 31.9453 27.0966 31.75 27.0576C31.0938 26.9091 29.4219 26.7451 28.5781 26.7451C28.1172 26.7451 27.7266 26.7138 27.6953 26.6747C27.6719 26.6279 27.3438 26.4091 26.9688 26.1904C26.5938 25.9638 26.0625 25.6357 25.7812 25.456C24.1406 24.3935 23.125 23.8076 22.5 23.5497C21.8594 23.2841 21.6719 23.2216 21.4141 23.1904C21.2578 23.1669 20.9219 23.1201 20.6641 23.0732C19.9688 22.956 14.1094 22.9872 13.2812 23.1122ZM17.2656 25.4169V26.7451H16.2969C15.375 26.7451 15.3125 26.7529 15.2031 26.9169C15.0156 27.1826 15.0469 27.4872 15.2812 27.6747C15.4922 27.8388 15.5312 27.8388 21.9062 27.8388C25.4453 27.8388 28.7422 27.8779 29.2578 27.9169C29.7734 27.9638 30.4219 28.0185 30.7031 28.0419C32.0312 28.1513 34.5469 28.7763 35.3516 29.1982L35.6641 29.3544L35.2891 29.4013C34.8438 29.456 34.6641 29.6201 34.6641 29.956C34.6641 30.3622 34.8984 30.4951 35.625 30.4951C36.3359 30.4951 36.3281 30.4872 36.3281 31.2841C36.3281 31.9013 36.3359 31.9013 35.6562 31.6591C35.3516 31.5497 34.9844 31.4872 34.5625 31.4794L33.9297 31.4716L33.7422 31.081C33.4844 30.5497 32.9375 30.0107 32.3359 29.706C31.8594 29.4638 31.7969 29.456 30.8984 29.4482C30.0156 29.4404 29.9375 29.456 29.4922 29.6669C28.5078 30.1513 27.7344 31.0966 27.6641 31.9247C27.6562 32.0263 27.0781 31.9091 26.4062 31.6826C25.5859 31.4013 24.7266 31.4013 23.8594 31.6826C22.7188 32.0576 21.9609 32.1669 20.4688 32.1669C18.9766 32.1669 18.2188 32.0576 17.0781 31.6826C16.2422 31.4169 15.3438 31.4013 14.6172 31.6591C14.1797 31.8076 13.1562 32.0576 12.9688 32.0576C12.9297 32.0576 12.875 31.9247 12.8438 31.7607C12.6953 30.9482 11.9922 30.1279 11.0312 29.6591C10.6172 29.456 10.5234 29.4404 9.64844 29.4404C8.73438 29.4482 8.69531 29.456 8.20312 29.7138C7.60156 30.0341 7.0625 30.5497 6.80469 31.0497C6.61719 31.4013 6.59375 31.4169 6.17969 31.4638C5.9375 31.4951 5.47656 31.5966 5.15625 31.6982C4.64844 31.8622 4.54688 31.8701 4.375 31.7841C3.84375 31.5029 3.67969 31.0966 3.67188 30.0419V29.4013H4.05469C4.53906 29.4013 4.78906 29.2138 4.78906 28.8701C4.78906 28.4716 4.57812 28.3076 4.07812 28.3076H3.64844L3.6875 27.9013C3.73438 27.4169 4 27.1357 4.40625 27.1357C4.78125 27.1357 6.35938 26.9169 7.03125 26.7763C7.35156 26.706 7.97656 26.5107 8.42188 26.3388L9.21875 26.0185L9.875 26.6513C10.6016 27.3466 10.7422 27.4404 11.5156 27.6747C11.9141 27.7997 12.2578 27.8388 12.8672 27.8388C13.6328 27.8388 13.6875 27.831 13.8828 27.6357C14.0391 27.4794 14.0703 27.3935 14.0312 27.1982C13.9453 26.7763 13.875 26.7451 13.0391 26.7451C12.3516 26.7451 12.2656 26.7294 12.2656 26.6044C12.2734 26.3935 12.7891 24.4716 12.8672 24.4013C13.0547 24.2138 14.0938 24.1044 15.6484 24.0966L17.2656 24.0888V25.4169ZM21.2422 24.3232C21.6094 24.4169 22.0781 24.581 22.2969 24.6904C22.6953 24.8857 24.7812 26.1591 25.3516 26.5419L25.6484 26.7451H22.0391C19.2109 26.7451 18.4375 26.7216 18.4375 26.6435C18.4297 26.4794 18.4297 24.6904 18.4297 24.3701L18.4375 24.0732L19.5156 24.1122C20.25 24.1357 20.7891 24.206 21.2422 24.3232ZM10.2891 30.6044C10.8203 30.7451 11.3594 31.1982 11.6016 31.7216C11.7109 31.9404 11.7969 32.1513 11.7969 32.1826C11.7969 32.2529 9.85938 32.1591 9.25781 32.0576C8.53906 31.9326 7.73438 31.7216 7.73438 31.6591C7.73438 31.4794 8.52344 30.8154 8.90625 30.6669C9.41406 30.4716 9.74219 30.456 10.2891 30.6044ZM31.8281 30.7607C32.2188 30.956 32.8125 31.5497 32.8125 31.7529C32.8125 31.9872 29.75 32.3232 29.0469 32.1591L28.7656 32.0966L28.9453 31.706C29.4531 30.6435 30.7344 30.2216 31.8281 30.7607ZM5.3125 34.0497C4.44531 34.3388 3.58594 34.4794 2.28906 34.5497C0.898438 34.6279 0.445312 34.7685 0.484375 35.0966C0.53125 35.4716 0.8125 35.5341 2.34375 35.5263C3.67969 35.5185 4.90625 35.3935 5.98438 35.1435C6.39062 35.0497 6.53125 35.0497 6.92188 35.1435C9.17969 35.6669 12.4766 35.6982 14.8828 35.2216C15.7578 35.0497 15.8516 35.0419 16.2891 35.1435C17.4922 35.4326 18.5469 35.5263 20.4688 35.5263C22.3906 35.5263 23.4453 35.4326 24.6484 35.1435C25.0859 35.0419 25.1797 35.0497 26.0547 35.2216C28.4609 35.6982 31.7578 35.6669 34.0156 35.1435C34.4062 35.0497 34.5469 35.0497 34.9531 35.1435C36.25 35.4404 38.8438 35.6591 39.6328 35.5419L40 35.4872V35.1044C40 34.8935 39.9609 34.6982 39.9141 34.6669C39.8672 34.6435 39.2969 34.5888 38.6484 34.5497C37.3281 34.4794 36.5625 34.3544 35.625 34.0576C34.7812 33.7841 34.2344 33.7919 33.2188 34.0888C31.9141 34.4638 31.4844 34.5185 29.8047 34.5185C28.1172 34.5185 27.7109 34.4638 26.3594 34.081C25.625 33.8701 25.4297 33.8388 24.9219 33.8779C24.6016 33.9013 24.0703 34.0107 23.7422 34.1201C21.9688 34.6982 18.9688 34.6982 17.1953 34.1201C16.8672 34.0107 16.3359 33.9013 16.0156 33.8779C15.5078 33.8388 15.3125 33.8701 14.5781 34.081C13.2266 34.4638 12.8203 34.5185 11.1328 34.5185C9.45312 34.5185 9.02344 34.4638 7.71875 34.0888C6.71094 33.7997 6.125 33.7919 5.3125 34.0497Z" fill="#25466A"/>
</g>
<defs>
<clipPath id="clip0_849_11981">
<rect width="40" height="40" fill="white"/>
</clipPath>
</defs>
</svg>
