<svg width="40" height="40" viewBox="0 0 40 40" fill="none" xmlns="http://www.w3.org/2000/svg">
<g clip-path="url(#clip0_849_11974)">
<path d="M35.4581 26.793C35.3705 26.9906 35.2591 27.2259 35.1234 27.4823C35.2593 27.2257 35.3707 26.9905 35.4581 26.793Z" fill="#25466A"/>
<path d="M0.760957 29.8586C1.8706 29.8586 2.38537 30.266 3.03725 30.7816C3.77859 31.3682 4.61904 32.033 6.25783 32.033C7.89662 32.033 8.73687 31.3682 9.47821 30.7816C10.13 30.266 10.6448 29.8586 11.7543 29.8586C12.8637 29.8586 13.3787 30.266 14.0303 30.7816C14.7718 31.3682 15.6119 32.033 17.2509 32.033C18.8897 32.033 19.7299 31.3682 20.4713 30.7816C21.123 30.266 21.638 29.8586 22.7475 29.8586C23.8571 29.8586 24.3718 30.266 25.0238 30.7816C25.7652 31.3682 26.6054 32.033 28.2442 32.033C29.8832 32.033 30.7235 31.3683 31.465 30.7817C32.117 30.2661 32.6317 29.8586 33.7416 29.8586C34.8514 29.8586 35.3662 30.266 36.0182 30.7817C36.7595 31.3683 37.6 32.033 39.239 32.033C39.6594 32.033 39.9999 31.6923 39.9999 31.272C39.9999 30.8516 39.6593 30.5109 39.239 30.5109C38.1291 30.5109 37.6144 30.1036 36.9624 29.5878C36.6565 29.346 36.3327 29.0914 35.9442 28.875C36.6726 27.7123 37.0193 26.6831 37.0353 26.6347C37.0527 26.5824 37.0629 26.5296 37.0678 26.4769H37.8827C37.8836 26.477 37.8842 26.4769 37.8849 26.4769C38.2734 26.4769 38.5885 26.1619 38.5885 25.7733C38.5885 25.6151 38.5362 25.4691 38.4482 25.3516C38.1541 24.8984 35.8196 21.3886 32.7702 19.3027C27.8274 15.9214 22.242 15.0436 22.0066 15.0079C21.7092 14.9631 21.416 15.1117 21.277 15.3783C21.138 15.645 21.1839 15.9706 21.3913 16.1885C21.4163 16.2148 23.8951 18.8227 24.7943 19.9437C25.1309 20.3632 25.231 20.8782 25.0498 21.2559C24.7559 21.8684 23.7548 22.2197 22.3033 22.2197C20.4985 22.2197 19.537 21.6213 18.5192 20.9878C17.5412 20.3791 16.5298 19.7498 14.8935 19.7498H5.08375C3.73044 19.7498 1.46008 20.5323 1.46008 25.7733C1.46008 26.1619 1.77501 26.4769 2.16372 26.4769H3.34193C3.40455 27.1683 3.69827 28.588 4.9591 30.2477C4.60527 30.081 4.31085 29.8484 3.98154 29.5879C3.24 29.0014 2.39995 28.3366 0.760957 28.3366C0.340579 28.3366 1.52588e-05 28.6773 1.52588e-05 29.0976C1.52588e-05 29.518 0.34068 29.8586 0.760957 29.8586ZM2.88275 25.0696C2.9691 23.147 3.4529 21.1571 5.08375 21.1571H14.8934C16.1277 21.1571 16.8912 21.6323 17.7755 22.1827C18.8633 22.8597 20.0963 23.6271 22.3032 23.6271C24.9231 23.6271 25.9327 22.6687 26.3185 21.8648C26.7389 20.9888 26.5756 19.9152 25.8921 19.0632C25.452 18.5146 24.6795 17.6563 23.9734 16.8896C26.0011 17.4384 29.13 18.5176 31.9757 20.4642C32.0984 20.5481 32.2199 20.6349 32.3402 20.7239C32.3734 20.7485 32.4058 20.7745 32.4387 20.7994C32.5257 20.8651 32.6126 20.9307 32.6985 20.9986C32.7305 21.0242 32.7617 21.0507 32.7937 21.0766C32.8795 21.1458 32.9653 21.2151 33.0495 21.2862C33.0758 21.3086 33.1015 21.3317 33.1278 21.3541C33.2166 21.4302 33.3053 21.5065 33.3925 21.5843C33.4125 21.6023 33.4319 21.6207 33.452 21.6387C33.5443 21.722 33.6364 21.8057 33.7264 21.8906C33.7404 21.9036 33.7538 21.917 33.7676 21.9302C33.8632 22.0205 33.9579 22.1114 34.0507 22.2029C34.0589 22.2109 34.0666 22.219 34.0746 22.2269C34.1726 22.3237 34.2692 22.4208 34.364 22.5182C34.3683 22.5228 34.3727 22.5275 34.3772 22.5321C34.4748 22.6326 34.571 22.7333 34.6648 22.8338C34.6652 22.8341 34.6654 22.8345 34.6658 22.8348C35.4308 23.6531 36.0715 24.4579 36.5277 25.0698H3.9743H2.88275V25.0696ZM4.75314 26.4769H35.5916C35.5806 26.5046 35.5685 26.5343 35.5555 26.5653C35.5532 26.5713 35.5504 26.5779 35.5477 26.5841C35.5367 26.6107 35.525 26.6382 35.5129 26.6669C35.5104 26.6727 35.5075 26.6788 35.505 26.6848C35.4915 26.7166 35.4772 26.7495 35.462 26.7837C35.4606 26.7866 35.4595 26.7896 35.4581 26.7926C35.3707 26.9901 35.2592 27.2253 35.1234 27.4819V27.4821C35.0091 27.6977 34.8781 27.9281 34.7293 28.1637C34.6797 28.2422 34.6282 28.3213 34.5746 28.4005C34.3213 28.3596 34.0453 28.3366 33.7416 28.3366C32.1026 28.3366 31.2622 29.0014 30.5208 29.5879C29.8688 30.1036 29.3541 30.5109 28.2442 30.5109C27.1348 30.5109 26.62 30.1036 25.9679 29.5879C25.2266 29.0014 24.3863 28.3366 22.7475 28.3366C21.1088 28.3366 20.2685 29.0014 19.5272 29.5879C18.8752 30.1036 18.3604 30.5109 17.2509 30.5109C16.1414 30.5109 15.6265 30.1036 14.9748 29.5879C14.2332 29.0014 13.393 28.3366 11.7542 28.3366C10.1154 28.3366 9.27516 29.0014 8.53382 29.5879C8.07143 29.9537 7.67547 30.2628 7.09004 30.4129C7.05767 30.4212 7.02742 30.431 6.99384 30.4382C5.21985 28.6718 4.83446 27.1433 4.75314 26.4769Z" fill="#25466A"/>
<path d="M39.239 34.733C38.1291 34.733 37.6144 34.3256 36.9624 33.8099C36.2208 33.2233 35.3806 32.5586 33.7416 32.5586C32.1026 32.5586 31.2621 33.2234 30.5208 33.81C29.8688 34.3256 29.3541 34.733 28.2442 34.733C27.1348 34.733 26.62 34.3256 25.9679 33.81C25.2266 33.2234 24.3863 32.5586 22.7475 32.5586C21.1088 32.5586 20.2685 33.2234 19.5272 33.81C18.8752 34.3256 18.3604 34.733 17.2509 34.733C16.1414 34.733 15.6265 34.3256 14.9748 33.81C14.2332 33.2234 13.393 32.5586 11.7542 32.5586C10.1154 32.5586 9.27516 33.2234 8.53381 33.81C7.88204 34.3256 7.36727 34.733 6.25772 34.733C5.14808 34.733 4.63331 34.3256 3.98143 33.81C3.23989 33.2234 2.39984 32.5586 0.76085 32.5586C0.340473 32.5586 -9.15527e-05 32.8994 -9.15527e-05 33.3196C-9.15527e-05 33.74 0.340573 34.0807 0.76085 34.0807C1.8705 34.0807 2.38526 34.488 3.03714 35.0037C3.77848 35.5902 4.61894 36.255 6.25772 36.255C7.89651 36.255 8.73677 35.5902 9.47811 35.0037C10.1299 34.488 10.6446 34.0807 11.7542 34.0807C12.8636 34.0807 13.3786 34.488 14.0302 35.0037C14.7717 35.5902 15.6118 36.255 17.2508 36.255C18.8896 36.255 19.7298 35.5902 20.4712 35.0037C21.1229 34.488 21.6379 34.0807 22.7474 34.0807C23.857 34.0807 24.3717 34.488 25.0237 35.0037C25.7651 35.5902 26.6053 36.255 28.2441 36.255C29.8831 36.255 30.7234 35.5903 31.4649 35.0038C32.1169 34.4881 32.6316 34.0807 33.7415 34.0807C34.8513 34.0807 35.3661 34.488 36.0181 35.0038C36.7594 35.5903 37.5999 36.255 39.2389 36.255C39.6592 36.255 39.9998 35.9144 39.9998 35.494C39.9998 35.0736 39.6593 34.733 39.239 34.733Z" fill="#25466A"/>
</g>
<defs>
<clipPath id="clip0_849_11974">
<rect width="40" height="40" fill="white"/>
</clipPath>
</defs>
</svg>
