<svg width="40" height="40" viewBox="0 0 40 40" fill="none" xmlns="http://www.w3.org/2000/svg">
<path fill-rule="evenodd" clip-rule="evenodd" d="M25.5625 25.0625H14.3125V23.8125H25.5625V25.0625Z" fill="#757575"/>
<path fill-rule="evenodd" clip-rule="evenodd" d="M25.5 15H14.4375V13.75H25.5V15Z" fill="#757575"/>
<path fill-rule="evenodd" clip-rule="evenodd" d="M25.5 20.0625H14.4375V18.8125H25.5V20.0625Z" fill="#757575"/>
<path fill-rule="evenodd" clip-rule="evenodd" d="M14.3125 8.75H25.5625V10H14.3125V8.75Z" fill="#757575"/>
<path fill-rule="evenodd" clip-rule="evenodd" d="M16.8125 3.125C15.7827 3.125 14.9375 3.97018 14.9375 5V26.75H13.6875V5C13.6875 3.27982 15.0923 1.875 16.8125 1.875C18.5327 1.875 19.9375 3.27982 19.9375 5H18.6875C18.6875 3.97018 17.8423 3.125 16.8125 3.125Z" fill="#757575"/>
<path fill-rule="evenodd" clip-rule="evenodd" d="M28.0625 3.125C27.0327 3.125 26.1875 3.97018 26.1875 5V26.9375H24.9375V5C24.9375 3.27982 26.3423 1.875 28.0625 1.875C29.7827 1.875 31.1875 3.27982 31.1875 5H29.9375C29.9375 3.97018 29.0923 3.125 28.0625 3.125Z" fill="#757575"/>
<path fill-rule="evenodd" clip-rule="evenodd" d="M1.07296 28.5479C1.07319 28.5476 1.07342 28.5473 0.562497 28.1873C0.0515703 27.8273 0.0518186 27.827 0.0520744 27.8266L0.0526257 27.8258L0.0538699 27.8241C0.0547622 27.8228 0.0557806 27.8214 0.0569249 27.8198C0.0592133 27.8167 0.0620065 27.8128 0.0653043 27.8084C0.0718984 27.7994 0.0805194 27.788 0.0911655 27.7742C0.112443 27.7468 0.141901 27.7101 0.179527 27.6665C0.254627 27.5793 0.363209 27.4631 0.50527 27.3356C0.78818 27.0815 1.21299 26.7744 1.77859 26.5687C2.95271 26.1417 4.57695 26.2066 6.56114 27.6863C8.26445 28.9566 9.45271 28.8917 10.1692 28.6312C10.5489 28.4931 10.839 28.2846 11.0346 28.109C11.1318 28.0217 11.2034 27.9446 11.2486 27.8921C11.2712 27.8659 11.2869 27.8461 11.2958 27.8346C11.2999 27.8294 11.3025 27.826 11.3037 27.8244L11.3043 27.8235L11.307 27.8197L11.8125 28.1873C11.307 27.8197 11.3073 27.8194 11.3075 27.819L11.3081 27.8183L11.3093 27.8165L11.3124 27.8124C11.3147 27.8093 11.3176 27.8055 11.3209 27.8011C11.3276 27.7923 11.3364 27.7809 11.3473 27.7673C11.369 27.7401 11.399 27.7038 11.4374 27.6604C11.514 27.5739 11.6245 27.4583 11.7687 27.3314C12.0558 27.0788 12.4855 26.773 13.0536 26.5681C14.233 26.1428 15.8585 26.2049 17.8152 27.6894C19.4835 28.9549 20.6705 28.8928 21.3973 28.6306C21.7824 28.4917 22.0793 28.2819 22.2805 28.1048C22.3804 28.0169 22.4544 27.9391 22.5014 27.886C22.5248 27.8595 22.5412 27.8395 22.5506 27.8277C22.555 27.8222 22.5579 27.8185 22.5591 27.8169C22.5591 27.8168 22.5592 27.8168 22.5592 27.8167L22.5595 27.8163L22.5597 27.8161L22.5618 27.8132L22.5667 27.8068L23.0625 28.1873C22.5667 27.8068 22.5669 27.8065 22.5672 27.8061L22.5678 27.8054L22.569 27.8037L22.5722 27.7997C22.5739 27.7976 22.5758 27.7951 22.578 27.7923C22.5789 27.7912 22.5799 27.79 22.5809 27.7887C22.5878 27.7802 22.5968 27.7691 22.6079 27.7559C22.6301 27.7294 22.6609 27.6941 22.7001 27.6518C22.7783 27.5675 22.8911 27.4551 23.0376 27.3316C23.3292 27.0857 23.7635 26.7885 24.3328 26.5895C25.5119 26.1773 27.1335 26.233 29.0617 27.6867C30.7291 28.9221 31.9199 28.8636 32.6516 28.6057C33.038 28.4695 33.3351 28.264 33.5358 28.0914C33.6356 28.0056 33.7094 27.9297 33.7561 27.8781C33.7794 27.8524 33.7957 27.8329 33.805 27.8216C33.8093 27.8164 33.812 27.8129 33.8132 27.8113C33.8133 27.8112 33.8134 27.8111 33.8135 27.811L33.8137 27.8108L33.8139 27.8104L33.8246 27.796L33.8395 27.7788L34.3125 28.1873C33.8395 27.7788 33.8397 27.7785 33.8399 27.7783L33.8416 27.7764L33.8446 27.7729C33.8462 27.7712 33.848 27.7691 33.8501 27.7667L33.8533 27.7631C33.8603 27.7553 33.8697 27.7449 33.8813 27.7324C33.9046 27.7072 33.9372 27.673 33.9785 27.6318C34.061 27.5496 34.1795 27.4386 34.3298 27.3161C34.6277 27.0734 35.0656 26.7734 35.6098 26.5705C36.1583 26.3659 36.8246 26.257 37.5568 26.4165C38.2908 26.5763 39.0378 26.9944 39.7646 27.7558L38.8604 28.6189C38.2747 28.0053 37.7404 27.7358 37.2908 27.6378C36.8394 27.5395 36.4198 27.6025 36.0465 27.7417C35.6688 27.8825 35.3489 28.0981 35.1194 28.2851C35.0061 28.3775 34.9185 28.4598 34.8608 28.5172C34.8321 28.5459 34.8111 28.568 34.7983 28.5818C34.7963 28.584 34.7944 28.586 34.7928 28.5878C34.7873 28.5948 34.7808 28.6029 34.7733 28.6121C34.7515 28.6388 34.7213 28.6745 34.6828 28.717C34.606 28.8018 34.4952 28.915 34.3509 29.0391C34.0634 29.2864 33.6339 29.5848 33.0671 29.7846C31.8929 30.1985 30.2718 30.1399 28.3153 28.6894L28.3132 28.6878L28.3111 28.6863C26.6777 27.4541 25.4877 27.51 24.7453 27.7695C24.3536 27.9064 24.0497 28.1132 23.8433 28.2872C23.7407 28.3737 23.6646 28.4501 23.6161 28.5023C23.5919 28.5283 23.5749 28.5481 23.5652 28.5597C23.5619 28.5636 23.5595 28.5665 23.5579 28.5685C23.5567 28.5701 23.5554 28.5718 23.5541 28.5735C23.5474 28.5824 23.5386 28.5937 23.5277 28.6073C23.506 28.6345 23.476 28.6708 23.4376 28.7142C23.361 28.8008 23.2504 28.9163 23.1062 29.0432C22.8192 29.2959 22.3895 29.6016 21.8214 29.8065C20.642 30.2319 19.0165 30.1697 17.0598 28.6852C15.3915 27.4197 14.2045 27.4819 13.4777 27.744C13.0926 27.8829 12.7957 28.0927 12.5945 28.2698C12.4946 28.3577 12.4206 28.4355 12.3736 28.4886C12.3502 28.5151 12.3338 28.5351 12.3244 28.5469C12.3205 28.5517 12.3179 28.5551 12.3165 28.557C12.3145 28.5597 12.3123 28.5628 12.3097 28.5663C12.3031 28.5752 12.2945 28.5867 12.2838 28.6004C12.2626 28.6279 12.2331 28.6645 12.1955 28.7081C12.1204 28.7953 12.0118 28.9115 11.8697 29.0391C11.5868 29.2931 11.162 29.6003 10.5964 29.8059C9.42228 30.2329 7.79805 30.1681 5.81386 28.6883C4.11055 27.4181 2.92228 27.4829 2.20577 27.7434C1.82607 27.8815 1.53603 28.09 1.34043 28.2656C1.24323 28.3529 1.17164 28.43 1.12637 28.4826C1.10382 28.5087 1.08805 28.5285 1.07915 28.54C1.0747 28.5457 1.07199 28.5494 1.07103 28.5507C1.07055 28.5513 1.07051 28.5514 1.07091 28.5508L1.07183 28.5495L1.07255 28.5485L1.07296 28.5479ZM12.3155 28.5583C12.3151 28.5588 12.3152 28.5587 12.3158 28.5579L12.3155 28.5583ZM23.5558 28.571C23.5555 28.5715 23.5556 28.5714 23.5561 28.5706L23.5558 28.571Z" fill="#757575"/>
<path fill-rule="evenodd" clip-rule="evenodd" d="M1.07296 32.2979C1.07319 32.2976 1.07342 32.2973 0.562497 31.9373C0.0515703 31.5773 0.0518186 31.577 0.0520744 31.5766L0.0526257 31.5758L0.0538699 31.5741C0.0547622 31.5728 0.0557806 31.5714 0.0569249 31.5698C0.0592133 31.5667 0.0620065 31.5628 0.0653043 31.5584C0.0718984 31.5494 0.0805194 31.538 0.0911655 31.5242C0.112443 31.4968 0.141901 31.4601 0.179527 31.4165C0.254627 31.3293 0.363209 31.2131 0.50527 31.0856C0.78818 30.8315 1.21299 30.5244 1.77859 30.3187C2.95271 29.8917 4.57695 29.9566 6.56114 31.4363C8.26445 32.7066 9.45271 32.6417 10.1692 32.3812C10.5489 32.2431 10.839 32.0346 11.0346 31.859C11.1318 31.7717 11.2034 31.6946 11.2486 31.6421C11.2712 31.6159 11.2869 31.5961 11.2958 31.5846C11.2999 31.5794 11.3025 31.576 11.3037 31.5744L11.3043 31.5735L11.307 31.5697L11.8125 31.9373C11.307 31.5697 11.3073 31.5694 11.3075 31.569L11.3081 31.5683L11.3093 31.5665L11.3124 31.5624C11.3147 31.5593 11.3176 31.5555 11.3209 31.5511C11.3276 31.5423 11.3364 31.5309 11.3473 31.5173C11.369 31.4901 11.399 31.4538 11.4374 31.4104C11.514 31.3239 11.6245 31.2083 11.7687 31.0814C12.0558 30.8288 12.4855 30.523 13.0536 30.3181C14.233 29.8928 15.8585 29.9549 17.8152 31.4394C19.4835 32.7049 20.6705 32.6428 21.3973 32.3806C21.7824 32.2417 22.0793 32.0319 22.2805 31.8548C22.3804 31.7669 22.4544 31.6891 22.5014 31.636C22.5248 31.6095 22.5412 31.5895 22.5506 31.5777C22.555 31.5722 22.5579 31.5685 22.5591 31.5669C22.5591 31.5668 22.5592 31.5668 22.5592 31.5667L22.5595 31.5663L22.5597 31.5661L22.5618 31.5632L22.5667 31.5568L23.0625 31.9373C22.5667 31.5568 22.5669 31.5565 22.5672 31.5561L22.5678 31.5554L22.569 31.5537L22.5722 31.5497C22.5739 31.5476 22.5758 31.5451 22.578 31.5423C22.5789 31.5412 22.5799 31.54 22.5809 31.5387C22.5878 31.5302 22.5968 31.5191 22.6079 31.5059C22.6301 31.4794 22.6609 31.4441 22.7001 31.4018C22.7783 31.3175 22.8911 31.2051 23.0376 31.0816C23.3292 30.8357 23.7635 30.5385 24.3328 30.3395C25.5119 29.9273 27.1335 29.983 29.0617 31.4367C30.7291 32.6721 31.9199 32.6136 32.6516 32.3557C33.038 32.2195 33.3351 32.014 33.5358 31.8414C33.6356 31.7556 33.7094 31.6797 33.7561 31.6281C33.7794 31.6024 33.7957 31.5829 33.805 31.5716C33.8093 31.5664 33.812 31.5629 33.8132 31.5613C33.8133 31.5612 33.8134 31.5611 33.8135 31.561L33.8137 31.5608L33.8139 31.5604L33.8246 31.546L33.8395 31.5288L34.3125 31.9373C33.8395 31.5288 33.8397 31.5285 33.8399 31.5283L33.8416 31.5264L33.8446 31.5229C33.8462 31.5212 33.848 31.5191 33.8501 31.5167L33.8533 31.5131C33.8603 31.5053 33.8697 31.4949 33.8813 31.4824C33.9046 31.4572 33.9372 31.423 33.9785 31.3818C34.061 31.2996 34.1795 31.1886 34.3298 31.0661C34.6277 30.8234 35.0656 30.5234 35.6098 30.3205C36.1583 30.1159 36.8246 30.007 37.5568 30.1665C38.2908 30.3263 39.0378 30.7444 39.7646 31.5058L38.8604 32.3689C38.2747 31.7553 37.7404 31.4858 37.2908 31.3878C36.8394 31.2895 36.4198 31.3525 36.0465 31.4917C35.6688 31.6325 35.3489 31.8481 35.1194 32.0351C35.0061 32.1275 34.9185 32.2098 34.8608 32.2672C34.8321 32.2959 34.8111 32.318 34.7983 32.3318C34.7963 32.334 34.7944 32.336 34.7928 32.3378C34.7873 32.3448 34.7808 32.3529 34.7733 32.3621C34.7515 32.3888 34.7213 32.4245 34.6828 32.467C34.606 32.5518 34.4952 32.665 34.3509 32.7891C34.0634 33.0364 33.6339 33.3348 33.0671 33.5346C31.8929 33.9485 30.2718 33.8899 28.3153 32.4394L28.3132 32.4378L28.3111 32.4363C26.6777 31.2041 25.4877 31.26 24.7453 31.5195C24.3536 31.6564 24.0497 31.8632 23.8433 32.0372C23.7407 32.1237 23.6646 32.2001 23.6161 32.2523C23.5919 32.2783 23.5749 32.2981 23.5652 32.3097C23.5619 32.3136 23.5595 32.3165 23.5579 32.3185C23.5567 32.3201 23.5554 32.3218 23.5541 32.3235C23.5474 32.3324 23.5386 32.3437 23.5277 32.3573C23.506 32.3845 23.476 32.4208 23.4376 32.4642C23.361 32.5508 23.2504 32.6663 23.1062 32.7932C22.8192 33.0459 22.3895 33.3516 21.8214 33.5565C20.642 33.9819 19.0165 33.9197 17.0598 32.4352C15.3915 31.1697 14.2045 31.2319 13.4777 31.494C13.0926 31.6329 12.7957 31.8427 12.5945 32.0198C12.4946 32.1077 12.4206 32.1855 12.3736 32.2386C12.3502 32.2651 12.3338 32.2851 12.3244 32.2969C12.3205 32.3017 12.3179 32.3051 12.3165 32.307C12.3145 32.3097 12.3123 32.3128 12.3097 32.3163C12.3031 32.3252 12.2945 32.3367 12.2838 32.3504C12.2626 32.3779 12.2331 32.4145 12.1955 32.4581C12.1204 32.5453 12.0118 32.6615 11.8697 32.7891C11.5868 33.0431 11.162 33.3503 10.5964 33.5559C9.42228 33.9829 7.79805 33.9181 5.81386 32.4383C4.11055 31.1681 2.92228 31.2329 2.20577 31.4934C1.82607 31.6315 1.53603 31.84 1.34043 32.0156C1.24323 32.1029 1.17164 32.18 1.12637 32.2326C1.10382 32.2587 1.08805 32.2785 1.07915 32.29C1.0747 32.2957 1.07199 32.2994 1.07103 32.3007C1.07055 32.3013 1.07051 32.3014 1.07091 32.3008L1.07183 32.2995L1.07255 32.2985L1.07296 32.2979ZM12.3155 32.3083C12.3151 32.3088 12.3152 32.3087 12.3158 32.3079L12.3155 32.3083ZM23.5558 32.321C23.5555 32.3215 23.5556 32.3214 23.5561 32.3206L23.5558 32.321Z" fill="#757575"/>
<path fill-rule="evenodd" clip-rule="evenodd" d="M1.07296 36.0479C1.07319 36.0476 1.07342 36.0473 0.562497 35.6873C0.0515703 35.3273 0.0518186 35.327 0.0520744 35.3266L0.0526257 35.3258L0.0538699 35.3241C0.0547622 35.3228 0.0557806 35.3214 0.0569249 35.3198C0.0592133 35.3167 0.0620065 35.3128 0.0653043 35.3084C0.0718984 35.2994 0.0805194 35.288 0.0911655 35.2742C0.112443 35.2468 0.141901 35.2101 0.179527 35.1665C0.254627 35.0793 0.363209 34.9631 0.50527 34.8356C0.78818 34.5815 1.21299 34.2744 1.77859 34.0687C2.95271 33.6417 4.57695 33.7066 6.56114 35.1863C8.26445 36.4566 9.45271 36.3917 10.1692 36.1312C10.5489 35.9931 10.839 35.7846 11.0346 35.609C11.1318 35.5217 11.2034 35.4446 11.2486 35.3921C11.2712 35.3659 11.2869 35.3461 11.2958 35.3346C11.2999 35.3294 11.3025 35.326 11.3037 35.3244L11.3043 35.3235L11.307 35.3197L11.8125 35.6873C11.307 35.3197 11.3073 35.3194 11.3075 35.319L11.3081 35.3183L11.3093 35.3165L11.3124 35.3124C11.3147 35.3093 11.3176 35.3055 11.3209 35.3011C11.3276 35.2923 11.3364 35.2809 11.3473 35.2673C11.369 35.2401 11.399 35.2038 11.4374 35.1604C11.514 35.0739 11.6245 34.9583 11.7687 34.8314C12.0558 34.5788 12.4855 34.273 13.0536 34.0681C14.233 33.6428 15.8585 33.7049 17.8152 35.1894C19.4835 36.4549 20.6705 36.3928 21.3973 36.1306C21.7824 35.9917 22.0793 35.7819 22.2805 35.6048C22.3804 35.5169 22.4544 35.4391 22.5014 35.386C22.5248 35.3595 22.5412 35.3395 22.5506 35.3277C22.555 35.3222 22.5579 35.3185 22.5591 35.3169C22.5591 35.3168 22.5592 35.3168 22.5592 35.3167L22.5595 35.3163L22.5597 35.3161L22.5618 35.3132L22.5667 35.3068L23.0625 35.6873C22.5667 35.3068 22.5669 35.3065 22.5672 35.3061L22.5678 35.3054L22.569 35.3037L22.5722 35.2997C22.5739 35.2976 22.5758 35.2951 22.578 35.2923C22.5789 35.2912 22.5799 35.29 22.5809 35.2887C22.5878 35.2802 22.5968 35.2691 22.6079 35.2559C22.6301 35.2294 22.6609 35.1941 22.7001 35.1518C22.7783 35.0675 22.8911 34.9551 23.0376 34.8316C23.3292 34.5857 23.7635 34.2885 24.3328 34.0895C25.5119 33.6773 27.1335 33.733 29.0617 35.1867C30.7291 36.4221 31.9199 36.3636 32.6516 36.1057C33.038 35.9695 33.3351 35.764 33.5358 35.5914C33.6356 35.5056 33.7094 35.4297 33.7561 35.3781C33.7794 35.3524 33.7957 35.3329 33.805 35.3216C33.8093 35.3164 33.812 35.3129 33.8132 35.3113C33.8133 35.3112 33.8134 35.3111 33.8135 35.311L33.8137 35.3108L33.8139 35.3104L33.8246 35.296L33.8395 35.2788L34.3125 35.6873C33.8395 35.2788 33.8397 35.2785 33.8399 35.2783L33.8416 35.2764L33.8446 35.2729C33.8462 35.2712 33.848 35.2691 33.8501 35.2667L33.8533 35.2631C33.8603 35.2553 33.8697 35.2449 33.8813 35.2324C33.9046 35.2072 33.9372 35.173 33.9785 35.1318C34.061 35.0496 34.1795 34.9386 34.3298 34.8161C34.6277 34.5734 35.0656 34.2734 35.6098 34.0705C36.1583 33.8659 36.8246 33.757 37.5568 33.9165C38.2908 34.0763 39.0378 34.4944 39.7646 35.2558L38.8604 36.1189C38.2747 35.5053 37.7404 35.2358 37.2908 35.1378C36.8394 35.0395 36.4198 35.1025 36.0465 35.2417C35.6688 35.3825 35.3489 35.5981 35.1194 35.7851C35.0061 35.8775 34.9185 35.9598 34.8608 36.0172C34.8321 36.0459 34.8111 36.068 34.7983 36.0818C34.7963 36.084 34.7944 36.086 34.7928 36.0878C34.7873 36.0948 34.7808 36.1029 34.7733 36.1121C34.7515 36.1388 34.7213 36.1745 34.6828 36.217C34.606 36.3018 34.4952 36.415 34.3509 36.5391C34.0634 36.7864 33.6339 37.0848 33.0671 37.2846C31.8929 37.6985 30.2718 37.6399 28.3153 36.1894L28.3132 36.1878L28.3111 36.1863C26.6777 34.9541 25.4877 35.01 24.7453 35.2695C24.3536 35.4064 24.0497 35.6132 23.8433 35.7872C23.7407 35.8737 23.6646 35.9501 23.6161 36.0023C23.5919 36.0283 23.5749 36.0481 23.5652 36.0597C23.5619 36.0636 23.5595 36.0665 23.5579 36.0685C23.5567 36.0701 23.5554 36.0718 23.5541 36.0735C23.5474 36.0824 23.5386 36.0937 23.5277 36.1073C23.506 36.1345 23.476 36.1708 23.4376 36.2142C23.361 36.3008 23.2504 36.4163 23.1062 36.5432C22.8192 36.7959 22.3895 37.1016 21.8214 37.3065C20.642 37.7319 19.0165 37.6697 17.0598 36.1852C15.3915 34.9197 14.2045 34.9819 13.4777 35.244C13.0926 35.3829 12.7957 35.5927 12.5945 35.7698C12.4946 35.8577 12.4206 35.9355 12.3736 35.9886C12.3502 36.0151 12.3338 36.0351 12.3244 36.0469C12.3205 36.0517 12.3179 36.0551 12.3165 36.057C12.3145 36.0597 12.3123 36.0628 12.3097 36.0663C12.3031 36.0752 12.2945 36.0867 12.2838 36.1004C12.2626 36.1279 12.2331 36.1645 12.1955 36.2081C12.1204 36.2953 12.0118 36.4115 11.8697 36.5391C11.5868 36.7931 11.162 37.1003 10.5964 37.3059C9.42228 37.7329 7.79805 37.6681 5.81386 36.1883C4.11055 34.9181 2.92228 34.9829 2.20577 35.2434C1.82607 35.3815 1.53603 35.59 1.34043 35.7656C1.24323 35.8529 1.17164 35.93 1.12637 35.9826C1.10382 36.0087 1.08805 36.0285 1.07915 36.04C1.0747 36.0457 1.07199 36.0494 1.07103 36.0507C1.07055 36.0513 1.07051 36.0514 1.07091 36.0508L1.07183 36.0495L1.07255 36.0485L1.07296 36.0479ZM12.3155 36.0583C12.3151 36.0588 12.3152 36.0587 12.3158 36.0579L12.3155 36.0583ZM23.5558 36.071C23.5555 36.0715 23.5556 36.0714 23.5561 36.0706L23.5558 36.071Z" fill="#757575"/>
</svg>
