<svg width="18" height="18" viewBox="0 0 18 18" fill="none" xmlns="http://www.w3.org/2000/svg">
<path fill-rule="evenodd" clip-rule="evenodd" d="M6.21974 9.53026C6.07913 9.38962 6.00015 9.19889 6.00015 9.00001C6.00015 8.80114 6.07913 8.61041 6.21974 8.46976L10.4625 4.22701C10.5317 4.15538 10.6144 4.09824 10.7059 4.05894C10.7974 4.01963 10.8959 3.99894 10.9954 3.99808C11.095 3.99721 11.1938 4.01619 11.286 4.0539C11.3781 4.09161 11.4619 4.1473 11.5323 4.21772C11.6027 4.28814 11.6584 4.37188 11.6961 4.46405C11.7338 4.55622 11.7528 4.65498 11.7519 4.75456C11.7511 4.85415 11.7304 4.95256 11.6911 5.04407C11.6518 5.13557 11.5946 5.21833 11.523 5.28751L7.81049 9.00001L11.523 12.7125C11.6596 12.854 11.7352 13.0434 11.7335 13.2401C11.7318 13.4367 11.6529 13.6248 11.5139 13.7639C11.3748 13.9029 11.1867 13.9818 10.99 13.9835C10.7934 13.9852 10.6039 13.9096 10.4625 13.773L6.21974 9.53026Z" fill="#25466A"/>
</svg>
