<svg width="41" height="42" viewBox="0 0 41 42" fill="none" xmlns="http://www.w3.org/2000/svg">
<rect width="41" height="42" rx="20.5" fill="#5B7E9B" fill-opacity="0.1"/>
<path d="M10.4598 19.0865C10.4478 18.9484 10.4647 18.8094 10.5093 18.6781C10.5539 18.5469 10.6253 18.4264 10.7189 18.3243C10.8126 18.2221 10.9264 18.1405 11.0533 18.0847C11.1801 18.0289 11.3172 18 11.4558 18H13.3653C13.6305 18 13.8849 18.1054 14.0724 18.2929C14.2599 18.4804 14.3653 18.7348 14.3653 19V28.5C14.3653 28.7652 14.2599 29.0196 14.0724 29.2071C13.8849 29.3946 13.6305 29.5 13.3653 29.5H12.2823C12.032 29.5001 11.7908 29.4063 11.6063 29.2371C11.4218 29.068 11.3075 28.8358 11.2858 28.5865L10.4598 19.0865ZM17.3653 18.6875C17.3653 18.2695 17.6253 17.8955 18.0028 17.7175C18.8273 17.3285 20.2318 16.547 20.8653 15.4905C21.6818 14.1285 21.8358 11.668 21.8608 11.1045C21.8643 11.0255 21.8623 10.9465 21.8728 10.8685C22.0083 9.892 23.8928 11.0325 24.6153 12.2385C25.0078 12.8925 25.0578 13.752 25.0168 14.4235C24.9723 15.1415 24.7618 15.835 24.5553 16.524L24.1153 17.9925H29.5438C29.6983 17.9925 29.8507 18.0283 29.9891 18.0971C30.1274 18.1658 30.2479 18.2658 30.3412 18.3889C30.4344 18.5121 30.4979 18.6553 30.5265 18.8071C30.5552 18.9589 30.5483 19.1153 30.5063 19.264L27.8213 28.772C27.762 28.9817 27.6359 29.1663 27.462 29.2977C27.2882 29.4291 27.0762 29.5001 26.8583 29.5H18.3653C18.1001 29.5 17.8457 29.3946 17.6582 29.2071C17.4707 29.0196 17.3653 28.7652 17.3653 28.5V18.6875Z" stroke="#25466A" stroke-linecap="round" stroke-linejoin="round"/>
</svg>
