<svg width="31" height="24" viewBox="0 0 31 24" fill="none" xmlns="http://www.w3.org/2000/svg">
<g clip-path="url(#clip0_1292_5921)">
<path d="M5.61368 23.8815V22.2931C5.61368 21.684 5.24295 21.287 4.60749 21.287C4.28982 21.287 3.94562 21.3929 3.70731 21.7371C3.52206 21.4458 3.25734 21.287 2.86019 21.287C2.59535 21.287 2.33075 21.3663 2.11885 21.6576V21.3399H1.56287V23.8815H2.11885V22.4783C2.11885 22.0283 2.35716 21.8164 2.72789 21.8164C3.09838 21.8164 3.28387 22.0547 3.28387 22.4783V23.8815H3.83985V22.4783C3.83985 22.0283 4.10445 21.8164 4.44866 21.8164C4.81939 21.8164 5.00464 22.0547 5.00464 22.4783V23.8815H5.61368ZM13.8474 21.3399H12.9473V20.5722H12.3913V21.3399H11.8883V21.8428H12.3912V23.0079C12.3912 23.5904 12.6295 23.9345 13.265 23.9345C13.5033 23.9345 13.7679 23.8551 13.9534 23.7492L13.7944 23.2726C13.6356 23.3785 13.4503 23.405 13.3179 23.405C13.0532 23.405 12.9473 23.2462 12.9473 22.9813V21.8428H13.8474V21.3399ZM18.5601 21.2869C18.2424 21.2869 18.0306 21.4458 17.8982 21.6576V21.3399H17.3422V23.8815H17.8982V22.4519C17.8982 22.0283 18.0834 21.79 18.4276 21.79C18.5335 21.79 18.6659 21.8166 18.7718 21.843L18.9307 21.3135C18.8248 21.287 18.6659 21.287 18.5601 21.287M11.4382 21.5518C11.1734 21.3665 10.8027 21.2871 10.4056 21.2871C9.77026 21.2871 9.34671 21.6048 9.34671 22.1078C9.34671 22.5315 9.66437 22.7697 10.2204 22.8492L10.4851 22.8757C10.7763 22.9285 10.9352 23.008 10.9352 23.1404C10.9352 23.3257 10.7234 23.4581 10.3527 23.4581C9.98192 23.4581 9.69079 23.3257 9.50542 23.1934L9.2407 23.6169C9.53195 23.8287 9.9291 23.9346 10.3261 23.9346C11.0675 23.9346 11.4911 23.5905 11.4911 23.1139C11.4911 22.6638 11.1469 22.4255 10.6174 22.3461L10.3527 22.3196C10.1143 22.2931 9.9291 22.2402 9.9291 22.0814C9.9291 21.896 10.1143 21.7901 10.4056 21.7901C10.7234 21.7901 11.0411 21.9224 11.1999 22.0019L11.4382 21.5518ZM26.2115 21.2871C25.8937 21.2871 25.6819 21.4459 25.5495 21.6577V21.3401H24.9935V23.8816H25.5495V22.452C25.5495 22.0285 25.7348 21.7901 26.0789 21.7901C26.1849 21.7901 26.3174 21.8167 26.4232 21.8431L26.5821 21.3136C26.4762 21.2871 26.3174 21.2871 26.2115 21.2871ZM19.116 22.6109C19.116 23.3786 19.6455 23.9346 20.4663 23.9346C20.8369 23.9346 21.1016 23.8552 21.3664 23.6435L21.1016 23.1934C20.8899 23.3522 20.6781 23.4316 20.4398 23.4316C19.9897 23.4316 19.672 23.1139 19.672 22.6109C19.672 22.1343 19.9897 21.8166 20.4398 21.7901C20.6781 21.7901 20.8899 21.8695 21.1016 22.0285L21.3664 21.5784C21.1016 21.3665 20.8369 21.2871 20.4663 21.2871C19.6455 21.2871 19.116 21.8431 19.116 22.6109ZM24.2523 22.6109V21.3401H23.6963V21.6577C23.5109 21.4195 23.2462 21.2871 22.902 21.2871C22.1872 21.2871 21.6312 21.8431 21.6312 22.6109C21.6312 23.3786 22.1872 23.9346 22.902 23.9346C23.2726 23.9346 23.5375 23.8023 23.6963 23.564V23.8816H24.2523V22.6109ZM22.2136 22.6109C22.2136 22.1608 22.5049 21.7901 22.9814 21.7901C23.4314 21.7901 23.7492 22.1343 23.7492 22.6109C23.7492 23.0609 23.4314 23.4316 22.9814 23.4316C22.5049 23.405 22.2136 23.0609 22.2136 22.6109ZM15.5684 21.2871C14.827 21.2871 14.2975 21.8166 14.2975 22.6109C14.2975 23.4051 14.8269 23.9346 15.5948 23.9346C15.9654 23.9346 16.3361 23.8287 16.6274 23.5905L16.3625 23.1934C16.1508 23.3522 15.886 23.4581 15.6213 23.4581C15.2771 23.4581 14.9329 23.2993 14.8534 22.849H16.7333V22.6374C16.7598 21.8166 16.2833 21.2871 15.5684 21.2871ZM15.5683 21.7636C15.9123 21.7636 16.1508 21.9755 16.2036 22.3727H14.8799C14.9328 22.0285 15.1711 21.7636 15.5683 21.7636ZM29.3619 22.6109V20.334H28.8059V21.6577C28.6205 21.4195 28.3558 21.2871 28.0116 21.2871C27.2968 21.2871 26.7408 21.8431 26.7408 22.6109C26.7408 23.3786 27.2968 23.9346 28.0116 23.9346C28.3823 23.9346 28.647 23.8023 28.8059 23.564V23.8816H29.3619V22.6109ZM27.3233 22.6109C27.3233 22.1608 27.6144 21.7901 28.0911 21.7901C28.5412 21.7901 28.8588 22.1343 28.8588 22.6109C28.8588 23.0609 28.5412 23.4316 28.0911 23.4316C27.6144 23.405 27.3233 23.0609 27.3233 22.6109ZM8.73754 22.6109V21.3401H8.18156V21.6577C7.99619 21.4195 7.73147 21.2871 7.38727 21.2871C6.67245 21.2871 6.11647 21.8431 6.11647 22.6109C6.11647 23.3786 6.67245 23.9346 7.38727 23.9346C7.758 23.9346 8.02273 23.8023 8.18156 23.564V23.8816H8.73754V22.6109ZM6.67245 22.6109C6.67245 22.1608 6.96371 21.7901 7.44021 21.7901C7.8903 21.7901 8.20809 22.1343 8.20809 22.6109C8.20809 23.0609 7.8903 23.4316 7.44021 23.4316C6.96371 23.405 6.67245 23.0609 6.67245 22.6109Z" fill="black"/>
<path d="M11.2528 2.03906H19.5925V17.0241H11.2528V2.03906Z" fill="#FF5F00"/>
<path d="M11.7824 9.53114C11.7824 6.48651 13.212 3.78597 15.4094 2.03855C13.7946 0.767759 11.756 0 9.53208 0C4.2633 0 0.000823975 4.26247 0.000823975 9.53114C0.000823975 14.7998 4.2633 19.0623 9.53196 19.0623C11.7559 19.0623 13.7944 18.2945 15.4094 17.0236C13.212 15.3027 11.7824 12.5758 11.7824 9.53114Z" fill="#EB001B"/>
<path d="M30.8445 9.53114C30.8445 14.7997 26.5821 19.0623 21.3134 19.0623C19.0895 19.0623 17.0509 18.2945 15.4359 17.0236C17.6599 15.2763 19.0631 12.5758 19.0631 9.53114C19.0631 6.48651 17.6333 3.78597 15.4359 2.03855C17.0508 0.767759 19.0895 0 21.3134 0C26.5821 0 30.8445 4.28901 30.8445 9.53114Z" fill="#F79E1B"/>
</g>
<defs>
<clipPath id="clip0_1292_5921">
<rect width="30.876" height="24" fill="white"/>
</clipPath>
</defs>
</svg>
