<svg width="400" height="230" viewBox="0 0 400 230" fill="none" xmlns="http://www.w3.org/2000/svg">
<path d="M14.576 169.154C14.576 169.154 12.8255 173.259 22.4229 176.126C32.0202 178.993 37.3742 179.747 37.3742 179.747C37.3742 179.747 39.4264 180.592 38.4546 182.071C37.4828 183.55 34.3924 185.904 35.4004 187.938C36.4084 189.972 39.0582 190.353 42.6437 189.236C46.2291 188.119 54.1122 186.043 54.8365 185.856C55.5608 185.669 56.6473 185.886 56.1644 187.003C55.6815 188.119 50.3577 194.976 53.75 197.3C57.1423 199.624 66.6068 194.952 67.6329 194.457C68.6591 193.962 69.1842 194.095 69.5524 194.572C69.9206 195.049 67.9166 197.18 66.4861 199.19C65.0555 201.2 63.7518 203.783 65.8282 204.96C67.9046 206.137 75.4859 205.25 86.3206 195.906L91.0649 191.252L89.5076 184.757C85.3186 171.074 79.3912 166.281 77.0069 166.166C74.6227 166.052 74.3511 168.937 74.4839 171.4C74.6167 173.862 75.1659 176.741 74.6046 176.941C74.0432 177.14 73.5483 176.983 72.9266 176.011C72.3049 175.039 66.8181 166.046 62.6954 166.19C58.5728 166.335 59.3998 174.967 59.2307 176.174C59.0617 177.381 57.9873 176.971 57.4924 176.44C56.9974 175.908 51.4201 169.897 48.9876 167.066C46.555 164.235 44.1889 163.076 42.1789 164.307C40.1689 165.539 41.6055 169.136 41.6356 170.892C41.6658 172.649 39.4747 172.281 39.4747 172.281C39.4747 172.281 34.5312 170.072 24.8976 167.373C15.2641 164.675 14.5579 169.184 14.5579 169.184" fill="#EBEBEB"/>
<path d="M92.429 192.108C85.3608 190.104 72.8601 186.326 62.1099 183.145C51.3597 179.964 41.6356 177.109 34.5794 175.038L26.2195 172.624L23.9439 171.972L23.3403 171.797L23.1411 171.725L23.3403 171.773L23.9439 171.93L26.2255 172.533C28.2114 173.071 31.0544 173.873 34.6036 174.875C41.6718 176.885 51.414 179.734 62.1582 182.921C72.9024 186.109 85.4212 189.941 92.4713 191.97" fill="#E0E0E0"/>
<path d="M39.8369 184.842C39.9662 184.745 40.1059 184.662 40.2534 184.595C40.525 184.45 40.9234 184.245 41.4184 183.991C42.4083 183.502 43.7966 182.868 45.3358 182.18L49.2894 180.46L50.4966 179.935C50.6384 179.86 50.7882 179.801 50.9433 179.76C50.815 179.856 50.6775 179.939 50.5328 180.007C50.2612 180.152 49.8628 180.357 49.3618 180.611C48.3659 181.088 46.9474 181.709 45.4323 182.385L41.4908 184.13L40.2836 184.661C40.1426 184.739 39.9926 184.8 39.8369 184.842Z" fill="#E0E0E0"/>
<path d="M50.9374 179.164C50.8891 179.164 49.4465 176.387 47.7202 172.911C45.9939 169.434 44.6418 166.591 44.7021 166.561C44.7625 166.531 46.193 169.337 47.9194 172.814C49.6457 176.291 51.0159 179.134 50.9374 179.164Z" fill="#E0E0E0"/>
<path d="M67.2226 184.793C67.172 184.638 67.1357 184.478 67.114 184.316C67.0536 183.966 66.9691 183.525 66.8785 183.006C66.6794 181.896 66.3957 180.369 66.0214 178.691C65.6472 177.012 65.2669 175.51 64.9772 174.423C64.8384 173.91 64.7237 173.475 64.6331 173.131C64.5825 172.974 64.5481 172.812 64.5305 172.648C64.6053 172.795 64.6659 172.949 64.7116 173.107C64.8142 173.409 64.953 173.838 65.116 174.381C65.442 175.461 65.8524 176.964 66.2266 178.648C66.6009 180.332 66.8604 181.865 67.0234 182.982C67.1019 183.537 67.1622 183.99 67.1924 184.304C67.2252 184.465 67.2354 184.629 67.2226 184.793Z" fill="#E0E0E0"/>
<path d="M58.3132 192.145C58.4061 192.026 58.5136 191.918 58.6331 191.826C58.8806 191.596 59.1885 191.325 59.5506 190.999C60.3353 190.316 61.4218 189.375 62.6351 188.349C63.8483 187.323 64.9529 186.405 65.7617 185.747L66.7215 184.975C66.8359 184.872 66.9614 184.783 67.0957 184.709C67.0003 184.828 66.8931 184.937 66.7758 185.035L65.8583 185.856C65.0736 186.544 63.9811 187.48 62.7678 188.506C61.5546 189.532 60.456 190.455 59.6472 191.113L58.6814 191.886C58.5695 191.987 58.4458 192.074 58.3132 192.145Z" fill="#E0E0E0"/>
<path d="M72.0574 198.95C72.1801 198.8 72.3176 198.662 72.4678 198.54L73.675 197.483C74.671 196.596 76.0593 195.383 77.5985 194.055C79.1377 192.727 80.5441 191.526 81.5702 190.668L82.7774 189.66C82.9216 189.532 83.0772 189.417 83.2422 189.316C83.1182 189.464 82.9808 189.599 82.8317 189.721L81.6547 190.783C80.6588 191.664 79.2705 192.878 77.7313 194.212C76.1921 195.546 74.7857 196.735 73.7656 197.592L72.5584 198.6C72.4044 198.734 72.2364 198.852 72.0574 198.95Z" fill="#E0E0E0"/>
<path d="M82.8861 189.464C82.8192 189.267 82.7688 189.065 82.7352 188.86C82.6386 188.432 82.524 187.876 82.3731 187.206C82.0713 185.806 81.6427 183.881 81.1115 181.774C80.5803 179.667 80.0552 177.76 79.6629 176.384C79.4758 175.726 79.3188 175.177 79.2041 174.754C79.1374 174.557 79.087 174.355 79.0532 174.15C79.1421 174.346 79.2168 174.548 79.2766 174.754C79.4094 175.128 79.5904 175.678 79.8077 176.36C80.2303 177.724 80.7856 179.625 81.3167 181.744C81.8479 183.862 82.2523 185.794 82.524 187.176C82.6567 187.876 82.7594 188.45 82.8197 188.842C82.8627 189.047 82.8849 189.255 82.8861 189.464Z" fill="#E0E0E0"/>
<path d="M287.025 63.2579C278.575 57.59 276.523 46.8338 276.68 37.1218C276.68 35.5041 276.499 33.7959 277.241 32.3654C277.983 30.9348 279.77 29.9509 281.231 30.5847C282.438 31.128 282.993 32.5163 283.687 33.6631C284.612 35.1923 285.951 36.4273 287.551 37.2244C288.589 37.7435 289.868 38.0453 290.876 37.4658C292.265 36.6691 292.391 34.7375 292.355 33.1259L292.138 24.1201C292.014 22.5112 292.151 20.8929 292.542 19.3275C293.013 17.7883 294.094 16.3517 295.621 15.893C297.148 15.4342 299.055 16.2853 299.405 17.8607C299.476 18.5262 299.504 19.1956 299.49 19.8647C299.484 20.1989 299.578 20.5271 299.76 20.8077C299.942 21.0882 300.203 21.3084 300.51 21.4401C301.156 21.6212 301.79 21.1504 302.266 20.6735C303.896 19.0136 304.989 16.901 306.009 14.8004C307.029 12.6999 308.007 10.5752 309.486 8.76437C310.964 6.95355 313.023 5.51697 315.329 5.34796C317.634 5.17895 320.115 6.55517 320.761 8.81266C321.407 11.0701 320.097 13.4001 318.691 15.2592C316.602 18.0261 314.124 20.476 311.333 22.5326C310.798 22.8503 310.376 23.3273 310.125 23.8968C309.793 24.9772 310.832 26.0275 311.9 26.3595C313.107 26.7398 314.405 26.5949 315.667 26.7156C316.928 26.8363 318.292 27.3735 318.793 28.5264C319.481 30.1622 318.135 31.9127 316.795 33.0655C314.125 35.3823 311.074 37.2202 307.777 38.498C306.562 38.8567 305.422 39.4357 304.415 40.2062C303.474 41.0512 302.924 42.512 303.522 43.6347C304.12 44.7574 305.61 45.0954 306.848 44.8419C308.085 44.5884 309.184 43.8942 310.355 43.4295C312.558 42.5542 315.419 42.6568 316.868 44.5401C317.309 45.1932 317.593 45.9395 317.698 46.7207C317.803 47.5019 317.725 48.2968 317.471 49.043C316.959 50.529 316.152 51.8964 315.099 53.063C311.656 57.3407 307.138 60.6259 302.007 62.5819C296.9 64.4531 292.15 64.9963 287.013 63.2398" fill="#EBEBEB"/>
<path d="M289.44 57.1489C290.951 51.8366 292.765 46.6149 294.872 41.5095C295.428 40.1514 295.971 38.8054 296.514 37.4835C297.057 36.1616 297.589 34.8517 298.192 33.6083C299.359 31.2126 300.656 28.8832 302.079 26.6306C303.419 24.4758 304.772 22.4718 306.051 20.5946C307.331 18.7174 308.562 17.0273 309.751 15.5182C311.61 13.1235 313.656 10.8811 315.872 8.81218C316.65 8.08182 317.278 7.53254 317.683 7.17037L318.172 6.75389C318.226 6.70457 318.285 6.66013 318.347 6.62109C318.3 6.67909 318.248 6.73173 318.19 6.77803L317.719 7.21262C317.302 7.5929 316.693 8.15425 315.908 8.89669C313.729 10.9926 311.711 13.2505 309.872 15.651C308.701 17.1661 307.458 18.8743 306.208 20.7394C304.959 22.6046 303.601 24.6025 302.267 26.7755C300.857 29.0212 299.571 31.3425 298.416 33.729C297.812 34.9725 297.287 36.2702 296.744 37.5921L295.102 41.6182C292.991 46.7132 291.167 51.9224 289.639 57.2214" fill="#E0E0E0"/>
<path d="M298.271 33.5722C298.19 33.3516 298.133 33.1229 298.102 32.8901C298.011 32.4434 297.897 31.7976 297.77 31.0008C297.516 29.4013 297.239 27.18 296.937 24.7294C296.635 22.2787 296.333 20.0635 296.056 18.476C295.917 17.6793 295.796 17.0334 295.712 16.5928C295.653 16.3635 295.619 16.1289 295.609 15.8926C295.705 16.1092 295.775 16.336 295.82 16.5686C295.947 17.0032 296.092 17.643 296.261 18.4338C296.593 20.0212 296.937 22.2365 297.233 24.6931C297.528 27.1498 297.782 29.2987 297.981 30.9707C298.072 31.7252 298.156 32.3589 298.216 32.872C298.263 33.1023 298.281 33.3375 298.271 33.5722Z" fill="#E0E0E0"/>
<path d="M318.914 29.3341C318.645 29.4003 318.37 29.4387 318.093 29.4488C317.562 29.5092 316.789 29.5877 315.848 29.7144C313.952 29.9498 311.351 30.3723 308.496 30.9578C305.641 31.5433 303.063 32.2013 301.253 32.7264C300.329 32.9799 299.593 33.2093 299.08 33.3602C298.819 33.4607 298.547 33.5316 298.271 33.5714C298.518 33.4424 298.777 33.3353 299.043 33.2515C299.544 33.0644 300.251 32.8049 301.192 32.5212C303.003 31.9477 305.574 31.2657 308.435 30.6681C310.876 30.1519 313.342 29.763 315.824 29.5031C316.777 29.4005 317.55 29.3522 318.081 29.3341C318.358 29.3105 318.637 29.3105 318.914 29.3341Z" fill="#E0E0E0"/>
<path d="M289.657 56.7513C289.603 56.6703 289.554 56.5856 289.512 56.4978C289.416 56.2986 289.295 56.0512 289.144 55.7554C288.83 55.1095 288.395 54.1619 287.876 52.9848C286.838 50.6308 285.498 47.3291 284.074 43.6712C282.649 40.0134 281.345 36.7056 280.355 34.3334C279.873 33.1805 279.468 32.2268 279.148 31.5267L278.834 30.7601C278.791 30.6718 278.759 30.5786 278.738 30.4824C278.738 30.4824 278.798 30.5669 278.889 30.7359L279.257 31.4784C279.571 32.1242 280.005 33.0719 280.524 34.2489C281.563 36.603 282.903 39.8987 284.327 43.5626C285.752 47.2264 287.08 50.5101 288.07 52.9245C288.552 54.0774 288.951 55.025 289.277 55.7312L289.591 56.4978C289.627 56.5781 289.649 56.6637 289.657 56.7513Z" fill="#E0E0E0"/>
<path d="M317.025 47.3906C316.941 47.4446 316.849 47.4854 316.753 47.5113L315.956 47.795L313.029 48.797C310.554 49.6481 307.15 50.8674 303.371 52.2134C299.593 53.5595 296.194 54.7425 293.713 55.5453C292.47 55.9437 291.456 56.2576 290.756 56.4628L289.941 56.6922C289.847 56.7225 289.75 56.7428 289.651 56.7525C289.735 56.6985 289.827 56.6578 289.923 56.6318L290.72 56.3481C291.456 56.1007 292.446 55.7445 293.647 55.3401C296.122 54.4951 299.526 53.2758 303.305 51.9297C307.083 50.5837 310.482 49.4006 312.962 48.5978C314.206 48.1995 315.22 47.8856 315.92 47.6804L316.735 47.451C316.829 47.4206 316.926 47.4004 317.025 47.3906Z" fill="#E0E0E0"/>
<path d="M379.323 103.766C379.25 104.585 379.013 105.381 378.627 106.107C378.24 106.833 377.711 107.474 377.071 107.991C375.78 109.018 374.271 109.737 372.659 110.092C369.575 110.864 365.953 110.303 362.911 109.373C364.154 106.072 367.74 104.074 369.611 103.18C372.581 101.762 378.816 101.001 379.323 103.784" fill="#EBEBEB"/>
<path d="M359.114 114.105C359.896 113.62 360.793 113.35 361.713 113.323C362.633 113.295 363.544 113.511 364.354 113.948C365.155 114.399 365.86 115.005 366.426 115.73C366.991 116.456 367.407 117.286 367.649 118.174C367.803 118.57 367.869 118.995 367.842 119.419C367.815 119.844 367.696 120.257 367.492 120.63C367.245 120.943 366.919 121.185 366.548 121.33C366.177 121.476 365.774 121.519 365.38 121.457C364.595 121.319 363.86 120.978 363.249 120.467C361.082 118.813 359.295 116.815 359.114 114.099" fill="#EBEBEB"/>
<path d="M351.165 113.718C351.837 113.519 352.529 113.389 353.229 113.332C353.993 113.241 354.765 113.241 355.529 113.332C356.461 113.413 357.386 113.557 358.299 113.761C359.976 114.137 361.535 114.921 362.838 116.042C363.22 116.393 363.566 116.781 363.87 117.201C363.994 117.348 364.09 117.516 364.154 117.696C364.1 117.732 363.659 117.05 362.675 116.235C361.364 115.205 359.841 114.477 358.215 114.105C357.316 113.908 356.407 113.759 355.492 113.658C354.75 113.559 354 113.534 353.253 113.586C352.561 113.683 351.863 113.727 351.165 113.718Z" fill="#E0E0E0"/>
<path d="M374.633 104.762C374.327 104.945 374.006 105.103 373.673 105.233C373.07 105.51 372.146 105.909 371.017 106.385C368.772 107.339 365.645 108.625 362.162 109.965C358.68 111.305 355.487 112.415 353.163 113.176C351.998 113.556 351.056 113.852 350.398 114.045C350.063 114.165 349.717 114.253 349.366 114.311C349.684 114.15 350.015 114.016 350.356 113.912L353.078 112.941C355.378 112.12 358.553 110.961 362.036 109.627L370.927 106.15L373.625 105.106C373.95 104.962 374.287 104.846 374.633 104.762Z" fill="#E0E0E0"/>
<path d="M356.567 110.773C358.099 109.579 359.325 108.038 360.142 106.277C360.96 104.515 361.346 102.584 361.269 100.644C361.221 99.6542 360.913 98.5013 359.983 98.1753C359.054 97.8494 358.082 98.5556 357.448 99.3101C356.141 100.904 355.335 102.851 355.133 104.903C354.931 106.955 355.342 109.02 356.313 110.839" fill="#EBEBEB"/>
<path d="M359.084 102.533C359.116 102.719 359.116 102.909 359.084 103.095C359.084 103.457 359.024 103.97 358.945 104.61C358.744 106.287 358.239 107.913 357.454 109.408C356.993 110.225 356.404 110.963 355.71 111.593C354.75 112.44 353.611 113.059 352.378 113.404C352.202 113.469 352.016 113.506 351.829 113.513C351.829 113.44 352.577 113.229 353.694 112.644C354.348 112.293 354.956 111.864 355.505 111.364C356.161 110.749 356.719 110.036 357.158 109.251C357.922 107.789 358.446 106.214 358.71 104.585C358.797 103.895 358.922 103.21 359.084 102.533Z" fill="#E0E0E0"/>
<path d="M36.6921 0.012041C37.6659 -0.0441765 38.641 0.0968623 39.5589 0.426698C40.4768 0.756533 41.3187 1.26837 42.034 1.93151C43.4597 3.27432 44.5582 4.92631 45.2452 6.76035C46.6757 10.2371 46.6335 14.571 46.0661 18.2892C41.9857 17.4019 39.0401 13.5509 37.6699 11.4987C35.503 8.26334 33.5533 1.09854 36.6921 0.030153" fill="#EBEBEB"/>
<path d="M52.2229 21.9168C51.521 21.0826 51.0516 20.0781 50.8619 19.0045C50.6722 17.931 50.769 16.8264 51.1424 15.8022C51.5347 14.7862 52.1253 13.8585 52.8797 13.073C53.6342 12.2874 54.5373 11.6599 55.5367 11.2269C56.4542 10.8104 57.5407 10.5448 58.44 10.9915C58.8499 11.2252 59.1894 11.5647 59.423 11.9746C59.6567 12.3845 59.7758 12.8497 59.768 13.3214C59.7426 14.2655 59.4677 15.186 58.9712 15.9894C57.4079 18.8022 55.3496 21.2407 52.2229 21.9168Z" fill="#EBEBEB"/>
<path d="M53.1523 31.2928C52.8049 30.537 52.534 29.7484 52.3434 28.9387C52.1049 28.0602 51.9712 27.1566 51.9451 26.2466C51.8834 25.1425 51.8934 24.0356 51.9752 22.9328C52.1302 20.904 52.7833 18.9448 53.8766 17.2288C54.2199 16.7208 54.6121 16.2478 55.0476 15.8163C55.3735 15.5266 55.5607 15.3878 55.5848 15.4059C55.609 15.424 54.9148 16.094 54.1301 17.3857C53.143 19.0945 52.5491 21.0019 52.3917 22.969C52.3143 24.0558 52.2962 25.1459 52.3374 26.2346C52.343 27.1198 52.4422 28.0019 52.6332 28.8663C52.8646 29.6615 53.038 30.4725 53.1523 31.2928Z" fill="#E0E0E0"/>
<path d="M38.6599 5.3418C38.929 5.66291 39.1674 6.00847 39.3722 6.37396C39.8128 7.05604 40.4285 8.05199 41.183 9.28938C42.686 11.7642 44.7262 15.1987 46.881 19.0557C49.0359 22.9128 50.895 26.4499 52.1807 29.0454C52.8265 30.3371 53.3336 31.3934 53.6716 32.1298C53.8691 32.4999 54.0308 32.8879 54.1545 33.2887C53.9142 32.9443 53.7023 32.5809 53.5207 32.2023L51.9151 29.1842C50.563 26.631 48.6677 23.112 46.5128 19.267L40.9234 9.46443C40.2353 8.25721 39.6679 7.25523 39.2333 6.48261C39.0104 6.11918 38.8186 5.73755 38.6599 5.3418Z" fill="#E0E0E0"/>
<path d="M48.7765 25.4662C47.117 23.873 45.1008 22.6995 42.8959 22.0432C40.6911 21.387 38.3613 21.2672 36.1007 21.6936C34.9539 21.917 33.6863 22.4723 33.4328 23.6191C33.1793 24.766 34.1994 25.774 35.1893 26.3957C37.2816 27.658 39.7013 28.2716 42.1424 28.1588C44.5834 28.046 46.9362 27.2119 48.9032 25.7619" fill="#EBEBEB"/>
<path d="M38.7083 23.9495C38.9177 23.876 39.1382 23.8392 39.3601 23.8408C39.7827 23.7925 40.3983 23.7624 41.171 23.7503C43.1687 23.6954 45.1595 24.0085 47.044 24.6738C48.0796 25.0698 49.0424 25.6348 49.8931 26.3458C50.5858 26.9298 51.1951 27.6061 51.7039 28.3558C52.0426 28.8545 52.3337 29.384 52.5731 29.9372C52.6779 30.1259 52.7532 30.3294 52.7964 30.5408C52.7179 30.5771 52.3437 29.7079 51.4624 28.5007C50.9373 27.8019 50.3293 27.1695 49.6516 26.6174C48.819 25.9563 47.891 25.4251 46.8992 25.042C45.0563 24.3991 43.1225 24.0547 41.171 24.0219C40.3494 24.0437 39.5272 24.0195 38.7083 23.9495Z" fill="#E0E0E0"/>
<path d="M179.892 222.282C179.556 221.48 179.386 220.619 179.391 219.75C179.396 218.881 179.577 218.022 179.922 217.224C180.621 215.627 181.678 214.212 183.012 213.089C185.511 210.856 189.163 209.606 192.465 208.973C192.924 212.673 190.563 216.294 189.248 218.027C187.171 220.815 181.727 224.582 179.892 222.252" fill="#EBEBEB"/>
<path d="M193.69 202.698C193.199 203.539 192.493 204.235 191.644 204.713C190.795 205.191 189.835 205.435 188.861 205.42C187.89 205.393 186.933 205.172 186.048 204.771C185.163 204.37 184.367 203.797 183.706 203.084C183.368 202.79 183.098 202.425 182.915 202.015C182.733 201.605 182.642 201.161 182.65 200.712C182.725 200.298 182.909 199.912 183.184 199.593C183.459 199.275 183.815 199.036 184.213 198.901C185.013 198.644 185.867 198.602 186.688 198.781C189.525 199.257 192.175 200.241 193.678 202.692" fill="#EBEBEB"/>
<path d="M201.313 199.154C200.785 199.674 200.202 200.135 199.575 200.531C198.908 200.992 198.189 201.373 197.432 201.665C196.522 202.045 195.589 202.366 194.638 202.625C192.884 203.098 191.041 203.132 189.272 202.722C188.743 202.583 188.23 202.393 187.738 202.154C187.4 201.967 187.225 201.852 187.237 201.828C187.249 201.804 188.01 202.184 189.332 202.462C191.063 202.785 192.845 202.717 194.547 202.263C195.481 202.003 196.402 201.697 197.306 201.345C198.049 201.076 198.761 200.728 199.43 200.307C200.032 199.882 200.661 199.497 201.313 199.154Z" fill="#E0E0E0"/>
<path d="M183.809 219.048C184.004 218.726 184.226 218.421 184.473 218.137C184.913 217.569 185.571 216.755 186.386 215.759C188.016 213.761 190.304 211.026 192.905 208.063C195.507 205.099 197.933 202.497 199.732 200.644C200.625 199.715 201.362 198.972 201.881 198.471C202.137 198.197 202.415 197.945 202.714 197.717C202.498 198.023 202.256 198.31 201.989 198.574C201.452 199.178 200.782 199.914 199.925 200.825C198.175 202.721 195.784 205.358 193.183 208.316L186.591 215.928L184.581 218.233C184.347 218.526 184.089 218.799 183.809 219.048Z" fill="#E0E0E0"/>
<path d="M197.692 204.56C196.851 206.428 196.467 208.47 196.572 210.515C196.677 212.561 197.268 214.553 198.295 216.325C198.82 217.224 199.678 218.135 200.71 217.997C201.742 217.858 202.297 216.711 202.521 215.691C202.956 213.56 202.751 211.347 201.931 209.332C201.112 207.317 199.714 205.59 197.915 204.367" fill="#EBEBEB"/>
<path d="M199.4 213.484C199.4 213.484 199.273 213.309 199.11 212.965C198.947 212.621 198.742 212.12 198.507 211.486C197.87 209.821 197.543 208.053 197.541 206.271C197.569 205.281 197.757 204.303 198.096 203.373C198.384 202.621 198.774 201.912 199.255 201.267C199.573 200.83 199.933 200.426 200.33 200.059C200.607 199.8 200.77 199.667 200.788 199.685C200.807 199.703 200.227 200.289 199.473 201.412C199.041 202.059 198.688 202.756 198.422 203.488C198.115 204.385 197.944 205.323 197.915 206.271C197.923 208.013 198.209 209.743 198.76 211.395C199.014 212.078 199.227 212.776 199.4 213.484Z" fill="#E0E0E0"/>
<path d="M0.638645 87.4282C-1.90254 72.7606 3.19793 56.5598 14.9019 47.3729C26.6058 38.186 44.7985 37.504 56.1402 47.1375C64.1138 53.916 67.8441 64.2618 72.5945 73.5875C77.3449 82.9132 84.5399 92.3536 94.8796 93.9653C103.801 95.3535 112.771 90.4764 121.722 91.6474C130.462 92.7882 137.778 99.9349 140.295 108.379C142.812 116.824 140.899 126.21 136.42 133.779C131.941 141.348 124.951 147.246 117.376 151.712C92.936 166.084 60.5043 165.595 36.4928 150.547C12.4814 135.499 -2.04137 106.484 0.27648 78.2172" fill="#00ADEE"/>
<g opacity="0.7">
<path d="M0.638645 87.4282C-1.90254 72.7606 3.19793 56.5598 14.9019 47.3729C26.6058 38.186 44.7985 37.504 56.1402 47.1375C64.1138 53.916 67.8441 64.2618 72.5945 73.5875C77.3449 82.9132 84.5399 92.3536 94.8796 93.9653C103.801 95.3535 112.771 90.4764 121.722 91.6474C130.462 92.7882 137.778 99.9349 140.295 108.379C142.812 116.824 140.899 126.21 136.42 133.779C131.941 141.348 124.951 147.246 117.376 151.712C92.936 166.084 60.5043 165.595 36.4928 150.547C12.4814 135.499 -2.04137 106.484 0.27648 78.2172" fill="white"/>
</g>
<path d="M142.226 218.713C150.164 213.28 153.894 201.353 148.932 193.126C143.91 185.641 136.112 179.671 127.203 178.41C118.293 177.148 108.4 181.367 104.429 189.462C101.924 194.556 101.918 200.713 103.994 205.995C106.181 211.285 110.036 215.717 114.974 218.616C123.177 223.578 134.313 224.133 142.226 218.713Z" fill="#00ADEE"/>
<g opacity="0.7">
<path d="M142.227 218.714C150.164 213.282 153.895 201.355 148.933 193.128C143.911 185.643 136.112 179.673 127.203 178.412C118.294 177.15 108.401 181.369 104.429 189.464C101.924 194.558 101.918 200.715 103.994 205.996C106.181 211.287 110.037 215.719 114.974 218.618C123.177 223.58 134.314 224.135 142.227 218.714Z" fill="white"/>
</g>
<path d="M399.966 168.715C399.477 156.009 393.182 143.411 382.643 136.301C372.104 129.191 357.43 128.219 346.571 134.828C339.805 138.945 334.897 145.5 330.811 152.284C328.572 156.003 326.236 160.101 322.21 161.725C316.976 163.844 311.224 160.958 305.689 159.854C299.228 158.562 292.518 159.771 286.915 163.238C281.312 166.705 277.235 172.171 275.509 178.529C270.68 198.563 284.726 212.862 299.743 221.542C316.53 231.248 337.771 231.236 356.024 224.765C368.005 220.54 379.172 213.538 387.333 203.79C395.493 194.042 400.461 181.421 399.966 168.715Z" fill="#00ADEE"/>
<g opacity="0.7">
<path d="M399.966 168.715C399.477 156.009 393.182 143.411 382.643 136.301C372.104 129.191 357.43 128.219 346.571 134.828C339.805 138.945 334.897 145.5 330.811 152.284C328.572 156.003 326.236 160.101 322.21 161.725C316.976 163.844 311.224 160.958 305.689 159.854C299.228 158.562 292.518 159.771 286.915 163.238C281.312 166.705 277.235 172.171 275.509 178.529C270.68 198.563 284.726 212.862 299.743 221.542C316.53 231.248 337.771 231.236 356.024 224.765C368.005 220.54 379.172 213.538 387.333 203.79C395.493 194.042 400.461 181.421 399.966 168.715Z" fill="white"/>
</g>
<path d="M371.114 60.1696C369.563 50.029 359.784 40.9146 349.577 41.8924C340.046 43.2747 330.696 48.0251 325.36 56.041C320.025 64.0568 319.524 75.5072 325.481 83.0704C329.23 87.8329 335.139 90.6879 341.175 91.1286C347.279 91.4655 353.326 89.7996 358.396 86.3842C366.997 80.7707 372.665 70.3223 371.114 60.1696Z" fill="#00ADEE"/>
<g opacity="0.7">
<path d="M371.114 60.1716C369.563 50.031 359.784 40.9165 349.577 41.8944C340.046 43.2766 330.697 48.027 325.361 56.0429C320.025 64.0588 319.524 75.5092 325.481 83.0724C329.23 87.8348 335.139 90.6899 341.175 91.1305C347.279 91.4675 353.326 89.8016 358.396 86.3862C366.997 80.7726 372.665 70.3242 371.114 60.1716Z" fill="white"/>
</g>
<path d="M342.938 167.832C341.732 167.836 340.532 167.663 339.376 167.319C327.908 163.884 328.511 155.609 328.976 148.957C329.423 142.758 329.441 138.859 324.328 136.939C317.562 134.404 314.779 136.867 310.56 140.597C305.538 145.04 299.297 150.569 284.146 148.323C276.299 147.159 263.624 143.012 248.105 129.865C242.571 125.211 237.455 120.08 232.816 114.534L235.158 112.65C235.393 112.94 258.566 141.497 284.587 145.348C298.349 147.388 303.776 142.583 308.568 138.346C312.866 134.543 316.922 130.952 325.385 134.121C332.857 136.927 332.393 143.428 331.976 149.169C331.493 155.887 331.077 161.687 340.239 164.434C350.561 167.524 364.136 151.154 372.23 141.4C375.128 137.917 377.138 135.394 378.743 134.084L381.013 135.895C380.011 137.102 377.222 140.12 374.542 143.326C366.297 153.279 354.213 167.832 342.938 167.832Z" fill="#00ADEE"/>
<path d="M300.389 144.069C300.389 144.069 300.268 144.184 300.027 144.335C299.689 144.559 299.336 144.761 298.971 144.938C297.764 145.529 296.489 145.967 295.174 146.242C293.86 146.512 292.518 146.616 291.178 146.55C290.774 146.529 290.371 146.486 289.971 146.423C289.822 146.411 289.675 146.376 289.536 146.321C289.536 146.272 290.176 146.321 291.19 146.321C293.839 146.334 296.461 145.791 298.886 144.727C299.81 144.305 300.365 143.997 300.389 144.069Z" fill="white"/>
<path d="M318.039 134.96C317.71 134.972 317.382 134.96 317.055 134.924C315.478 134.901 313.943 135.431 312.715 136.421C312.479 136.65 312.227 136.862 311.96 137.054C312.099 136.748 312.306 136.478 312.564 136.264C313.16 135.702 313.869 135.273 314.643 135.007C315.417 134.741 316.24 134.642 317.055 134.718C317.397 134.721 317.734 134.804 318.039 134.96Z" fill="white"/>
<path d="M337.263 163.467C336.789 163.411 336.329 163.27 335.905 163.05C334.857 162.568 333.914 161.884 333.131 161.036C332.348 160.189 331.74 159.196 331.342 158.113C331.158 157.674 331.054 157.206 331.034 156.73C331.082 156.73 331.203 157.244 331.541 158.034C331.983 159.063 332.595 160.01 333.352 160.835C334.113 161.656 335.009 162.34 336.002 162.857C336.762 163.255 337.282 163.418 337.263 163.467Z" fill="white"/>
<path d="M379.293 135.178C377.855 136.901 376.263 138.489 374.536 139.922C375.982 138.207 377.573 136.619 379.293 135.178Z" fill="white"/>
<path d="M235.478 115.199C234.859 115.88 233.995 116.287 233.076 116.331C232.157 116.375 231.258 116.053 230.576 115.434L225.277 110.605L229.949 105.469L235.242 110.298C235.923 110.916 236.33 111.78 236.375 112.7C236.419 113.619 236.096 114.518 235.478 115.199Z" fill="#00ADEE"/>
<path d="M235.478 115.197C235.655 114.937 235.819 114.666 235.966 114.388C236.339 113.6 236.398 112.7 236.129 111.871C235.948 111.298 235.617 110.783 235.17 110.38L233.57 108.95C232.441 107.923 231.186 106.795 229.852 105.594H230.057L227.721 108.165L225.385 110.73V110.525L229.079 113.887L230.661 115.342C231.103 115.747 231.644 116.028 232.23 116.157C233.082 116.343 233.974 116.199 234.723 115.752C234.987 115.578 235.241 115.389 235.484 115.185C235.29 115.444 235.051 115.665 234.777 115.837C234.016 116.338 233.087 116.518 232.194 116.338C231.568 116.216 230.987 115.928 230.51 115.505C230.009 115.058 229.478 114.575 228.91 114.074L225.186 110.712L225.077 110.616L225.18 110.507L227.51 107.936L229.846 105.376L229.942 105.268L230.051 105.364L233.745 108.75L235.327 110.205C235.795 110.639 236.138 111.192 236.317 111.805C236.579 112.675 236.488 113.614 236.063 114.418C235.92 114.713 235.721 114.978 235.478 115.197Z" fill="#25466A"/>
<path d="M208.701 86.2002L199.563 78.643C199.392 78.502 199.251 78.3287 199.148 78.1331C199.044 77.9376 198.98 77.7235 198.96 77.5032C198.939 77.2829 198.962 77.0607 199.027 76.8492C199.092 76.6377 199.198 76.4412 199.34 76.2708C199.481 76.1003 199.654 75.9593 199.849 75.8558C200.045 75.7523 200.259 75.6883 200.479 75.6676C200.7 75.6468 200.922 75.6697 201.133 75.7349C201.345 75.8001 201.541 75.9063 201.712 76.0475L210.844 83.6046L208.701 86.2002Z" fill="#00ADEE"/>
<path d="M200.106 97.2417L190.98 89.6845C190.809 89.5439 190.667 89.371 190.563 89.1756C190.459 88.9803 190.395 88.7663 190.373 88.546C190.352 88.3257 190.374 88.1033 190.439 87.8917C190.504 87.68 190.61 87.4831 190.75 87.3124C190.891 87.1412 191.064 86.9995 191.26 86.8956C191.455 86.7916 191.669 86.7274 191.89 86.7066C192.11 86.6858 192.333 86.7089 192.544 86.7746C192.756 86.8402 192.952 86.9471 193.123 87.089L202.261 94.6402L200.106 97.2417Z" fill="#00ADEE"/>
<g opacity="0.6">
<path d="M208.702 86.2002L199.563 78.643C199.393 78.502 199.252 78.3287 199.148 78.1331C199.045 77.9376 198.981 77.7235 198.96 77.5032C198.939 77.2829 198.962 77.0607 199.027 76.8492C199.092 76.6377 199.199 76.4412 199.34 76.2708C199.481 76.1003 199.654 75.9593 199.85 75.8558C200.045 75.7523 200.259 75.6883 200.48 75.6676C200.7 75.6468 200.922 75.6697 201.134 75.7349C201.345 75.8001 201.542 75.9063 201.712 76.0475L210.844 83.6046L208.702 86.2002Z" fill="white"/>
</g>
<g opacity="0.6">
<path d="M200.106 97.2397L190.98 89.6826C190.809 89.542 190.667 89.3691 190.563 89.1737C190.459 88.9783 190.395 88.7644 190.373 88.5441C190.352 88.3237 190.374 88.1014 190.439 87.8897C190.504 87.678 190.61 87.4812 190.75 87.3104C190.891 87.1392 191.064 86.9976 191.26 86.8936C191.455 86.7896 191.669 86.7254 191.89 86.7047C192.11 86.6839 192.333 86.707 192.544 86.7726C192.756 86.8383 192.952 86.9451 193.123 87.0871L202.261 94.6382L200.106 97.2397Z" fill="white"/>
</g>
<path d="M208.702 86.2006C208.743 86.1312 208.79 86.0646 208.84 86.0014L209.251 85.4702L210.778 83.5447V83.6715L206.486 80.1826L203.8 77.9734L202.358 76.7662L201.615 76.1626C201.389 75.9679 201.109 75.8459 200.812 75.8125C200.562 75.7804 200.307 75.811 200.071 75.9016C199.835 75.9922 199.625 76.14 199.46 76.3316C199.301 76.5188 199.188 76.7411 199.131 76.9804C199.075 77.2197 199.076 77.469 199.134 77.7078C199.192 77.9326 199.304 78.1398 199.46 78.3115C199.631 78.4901 199.814 78.6555 200.01 78.8064L201.144 79.748L205.056 83.0377L207.706 85.2952L208.43 85.8988C208.522 85.9729 208.609 86.0536 208.689 86.1402C208.599 86.0883 208.514 86.0276 208.436 85.9591L207.712 85.3555C207.042 84.8183 206.124 84.088 205.014 83.1886L200.993 79.9231L199.835 78.9754C199.623 78.8127 199.421 78.6373 199.231 78.4503C198.976 78.174 198.813 77.8251 198.765 77.4519C198.717 77.0787 198.786 76.6999 198.963 76.368C199.14 76.0361 199.417 75.7677 199.753 75.6C200.09 75.4323 200.471 75.3737 200.843 75.4323C201.195 75.4777 201.528 75.6221 201.802 75.8487L202.539 76.4523L203.975 77.6596L206.649 79.8869L210.875 83.4421L210.947 83.5025L210.887 83.5689L209.251 85.4763L208.816 85.9591C208.788 86.0441 208.75 86.1252 208.702 86.2006Z" fill="#25466A"/>
<path d="M200.106 97.2403C200.147 97.1689 200.196 97.1021 200.251 97.0411C200.36 96.8962 200.492 96.7211 200.661 96.5099L202.189 94.5844V94.7111L197.897 91.2163L195.211 89.0131L193.768 87.8059L193.026 87.2023C192.795 87.0113 192.514 86.8899 192.217 86.8522C191.966 86.8224 191.711 86.8547 191.475 86.9463C191.24 87.0378 191.03 87.1858 190.865 87.3773C190.705 87.564 190.592 87.7866 190.536 88.0262C190.481 88.2658 190.484 88.5154 190.545 88.7536C190.602 88.9774 190.712 89.1843 190.865 89.3572C191.038 89.5338 191.223 89.6972 191.42 89.8461L192.549 90.7937L196.466 94.0834L199.116 96.3409L199.841 96.9445C199.934 97.0154 200.019 97.0963 200.094 97.1859C200.094 97.1859 200.01 97.1316 199.847 97.0048L199.116 96.4314L196.418 94.2645L192.404 90.999L191.245 90.0453C191.031 89.8861 190.829 89.7105 190.642 89.5201C190.454 89.3059 190.321 89.049 190.255 88.7717C190.182 88.4886 190.178 88.1919 190.244 87.907C190.311 87.6222 190.445 87.3576 190.636 87.1359C190.835 86.912 191.086 86.7401 191.367 86.6349C191.648 86.5298 191.95 86.4945 192.247 86.5323C192.6 86.578 192.933 86.7224 193.207 86.9488C193.454 87.16 193.702 87.3592 193.949 87.5524L195.386 88.7596L198.06 90.9809L202.285 94.5421L202.352 94.6025L202.297 94.6689C201.609 95.4596 201.06 96.0994 200.655 96.5702L200.227 97.0592C200.166 97.192 200.106 97.2463 200.106 97.2403Z" fill="#25466A"/>
<path d="M229.466 95.7796L229.707 95.4899C230.217 94.8755 230.482 94.0939 230.449 93.2959C230.417 92.4979 230.09 91.7402 229.532 91.1691C228.974 90.5981 228.223 90.2541 227.426 90.2038C226.629 90.1534 225.842 90.4002 225.216 90.8965L211.84 79.7539L196.539 98.0613L210.229 108.926C209.804 109.59 209.637 110.385 209.758 111.163C209.879 111.941 210.281 112.648 210.887 113.151C211.536 113.688 212.369 113.949 213.208 113.88C214.048 113.81 214.826 113.414 215.377 112.777C217.31 114.235 219.734 114.882 222.136 114.581C224.537 114.28 226.727 113.055 228.24 111.166L230.437 108.425C231.904 106.585 232.619 104.257 232.439 101.911C232.258 99.565 231.196 97.3742 229.466 95.7796Z" fill="#00ADEE"/>
<path d="M229.466 95.78L229.581 95.8826L229.9 96.1904C230.078 96.3539 230.241 96.5316 230.389 96.7216L230.685 97.0838L230.987 97.5244C231.52 98.294 231.928 99.1437 232.194 100.041C232.596 101.397 232.684 102.826 232.45 104.22C232.217 105.614 231.669 106.937 230.848 108.087C230.359 108.782 229.792 109.44 229.236 110.158C228.677 110.916 228.057 111.629 227.383 112.289C225.853 113.72 223.883 114.593 221.794 114.763C219.482 114.964 217.176 114.307 215.317 112.916H215.504C214.94 113.56 214.153 113.968 213.301 114.057C212.859 114.104 212.411 114.061 211.985 113.933C211.559 113.804 211.163 113.592 210.82 113.309C210.187 112.782 209.768 112.043 209.641 111.23C209.515 110.416 209.689 109.584 210.132 108.89L210.163 109.077L199.545 100.609L196.449 98.1461L196.328 98.0555L196.424 97.9348C202.002 91.2952 207.211 85.0539 211.744 79.6456L211.828 79.543L211.925 79.6275L225.271 90.8002H225.168C225.656 90.4163 226.243 90.1782 226.86 90.1136C227.478 90.049 228.101 90.1604 228.658 90.435C229.214 90.7097 229.682 91.1363 230.007 91.6655C230.331 92.1948 230.5 92.8051 230.492 93.4259C230.48 94.077 230.27 94.709 229.888 95.2367C229.792 95.3698 229.687 95.4968 229.574 95.617L229.46 95.7437C229.46 95.7437 229.605 95.5627 229.852 95.2126C230.208 94.6757 230.397 94.0457 230.395 93.4018C230.393 92.8941 230.27 92.3943 230.036 91.9439C229.802 91.4935 229.464 91.1055 229.049 90.8123C228.524 90.4254 227.891 90.2142 227.239 90.2087C226.514 90.2 225.809 90.4408 225.241 90.8908L225.186 90.933L225.132 90.8908L211.732 79.7844H211.913L196.654 98.134V97.9228L199.744 100.385L210.338 108.836L210.44 108.914L210.368 109.023C209.958 109.656 209.793 110.417 209.904 111.162C210.016 111.908 210.395 112.587 210.971 113.073C211.593 113.588 212.392 113.838 213.196 113.772C214 113.705 214.746 113.327 215.275 112.717L215.36 112.627L215.456 112.699C217.179 113.985 219.298 114.627 221.445 114.513C223.592 114.4 225.631 113.538 227.208 112.077C227.865 111.425 228.47 110.722 229.019 109.977C229.581 109.265 230.16 108.601 230.643 107.925C231.722 106.416 232.323 104.618 232.368 102.763C232.414 100.909 231.901 99.0839 230.896 97.5244C230.794 97.3675 230.697 97.2165 230.601 97.0777L230.311 96.7155C230.166 96.5203 230.009 96.3348 229.84 96.1602L229.532 95.8403C229.484 95.8001 229.462 95.78 229.466 95.78Z" fill="#25466A"/>
<path d="M214.152 96.1312L204.714 88.3262L203.187 90.1728L212.625 97.9778L214.152 96.1312Z" fill="#E0E0E0"/>
<path d="M229.465 95.7793C229.317 96.0306 229.147 96.2689 228.958 96.4915C228.62 96.9443 228.119 97.5841 227.492 98.3688C226.242 99.9442 224.474 102.087 222.5 104.435C220.526 106.783 218.77 108.865 217.436 110.441L215.902 112.252C215.721 112.483 215.519 112.697 215.299 112.892C215.447 112.64 215.617 112.402 215.806 112.179C216.144 111.727 216.645 111.087 217.273 110.302C218.522 108.727 220.291 106.584 222.264 104.266L227.329 98.2299L228.868 96.4191C229.046 96.1874 229.247 95.9732 229.465 95.7793Z" fill="#25466A"/>
<path d="M225.216 90.873C225.058 91.1386 224.877 91.3891 224.673 91.6215C224.305 92.0923 223.762 92.7684 223.092 93.5953C221.739 95.2492 219.844 97.5067 217.732 99.9815C215.619 102.456 213.724 104.653 212.299 106.313C211.623 107.086 211.092 107.732 210.645 108.221C210.451 108.463 210.237 108.689 210.005 108.897C210.17 108.634 210.353 108.384 210.555 108.148C210.923 107.677 211.46 107.001 212.136 106.174C213.488 104.521 215.384 102.263 217.496 99.7883L222.929 93.4625L224.582 91.5491C224.776 91.3078 224.988 91.0818 225.216 90.873Z" fill="#25466A"/>
<path d="M81.6665 137.386C79.0422 137.385 76.4255 137.102 73.8619 136.541C68.5381 135.37 64.3672 133.65 61.1862 131.295C57.2137 132.682 53.0487 133.437 48.8424 133.535C35.1526 133.903 22.7606 129.623 7.56784 117.328C6.80327 115.694 6.06687 113.966 5.35864 112.143C19.984 123.98 35.8166 130.855 48.7639 130.529C52.0713 130.442 55.3529 129.92 58.5243 128.978C54.9932 125.296 53.2125 120.485 53.2367 114.642C53.2367 108.238 55.9891 105.334 58.2707 104.031C61.5 102.177 65.9184 102.431 69.7936 104.688C74.0671 107.181 76.6083 111.395 76.5902 115.964C76.5608 117.838 76.1067 119.681 75.2619 121.353C74.4171 123.026 73.2036 124.486 71.713 125.622C69.4912 127.326 67.0836 128.774 64.5362 129.937C71.8229 133.935 80.2758 135.267 88.439 133.704C101.302 131.151 112.046 126.587 120.37 120.141C126.885 115.134 132.117 108.65 135.635 101.224C139.153 93.7983 140.855 85.6427 140.603 77.4297V77.3753C139.86 62.4964 131.174 47.9616 118.462 40.3441C107.44 33.7346 93.3161 31.9238 78.6968 35.2436C69.6125 37.308 57.2506 42.2032 49.9651 53.8105C42.1182 66.3173 44.2429 81.836 50.7196 89.0491C55.3372 94.1978 64.1861 92.3387 71.3026 90.8599L73.6446 90.377C81.2923 88.8559 112.324 74.303 112.444 74.2607L113.102 76.7355C112.601 76.9105 82.089 91.7653 74.2301 93.3286C73.4816 93.4735 72.709 93.6365 71.9183 93.8055C64.0714 95.4533 54.2568 97.5056 48.4802 91.0711C44.3033 86.4113 41.9794 79.6871 41.9372 72.136C41.8909 65.1178 43.7878 58.2237 47.4179 52.217C55.2648 39.7405 68.3932 34.5072 78.0328 32.298C93.4066 28.8092 108.316 30.7407 120.008 37.7305C133.528 45.8792 142.763 61.3737 143.584 77.2003C143.651 78.0091 144.46 89.5501 138.285 102.612C134.579 110.436 129.063 117.264 122.193 122.531C113.495 129.267 102.334 134 88.9943 136.668C86.5812 137.147 84.1267 137.388 81.6665 137.386ZM63.1298 105.811C61.9531 105.793 60.7921 106.082 59.7616 106.65C57.474 107.96 56.2607 110.731 56.2426 114.666C56.2426 120.298 57.987 124.65 61.6751 127.885C64.6042 126.72 67.3585 125.156 69.86 123.237C70.987 122.383 71.9062 121.285 72.5491 120.026C73.1919 118.766 73.5417 117.378 73.5721 115.964C73.5721 112.481 71.6044 109.246 68.2664 107.302C66.7146 106.363 64.9431 105.849 63.1298 105.811Z" fill="#00ADEE"/>
<path d="M63.5887 132.853C63.1824 132.739 62.8 132.553 62.46 132.304C61.6014 131.761 60.7843 131.156 60.0154 130.493C59.2339 129.848 58.5052 129.141 57.8363 128.38C57.5353 128.081 57.2955 127.727 57.1301 127.336C57.1663 127.336 57.45 127.698 57.9933 128.241C58.5365 128.785 59.3091 129.509 60.2025 130.263C61.0958 131.018 61.9469 131.67 62.5746 132.11C62.9298 132.334 63.2687 132.582 63.5887 132.853Z" fill="#25466A"/>
<path d="M66.7516 131.091C66.2809 131.065 65.8198 130.948 65.3935 130.747C64.3472 130.316 63.3708 129.732 62.4962 129.014C61.6177 128.305 60.8256 127.494 60.1361 126.6C59.8275 126.239 59.5789 125.832 59.3997 125.393C59.4359 125.393 59.7377 125.803 60.299 126.449C61.0324 127.289 61.8405 128.061 62.7135 128.755C63.5704 129.456 64.5087 130.052 65.5081 130.529C66.2445 130.916 66.7637 131.042 66.7516 131.091Z" fill="#25466A"/>
<path d="M54.7036 120.69C54.6116 120.54 54.5463 120.374 54.5104 120.201C54.3696 119.745 54.2528 119.282 54.1603 118.813C53.5509 115.703 53.7779 112.487 54.8182 109.494C54.9711 109.043 55.1505 108.601 55.3555 108.172C55.4182 108.008 55.5035 107.853 55.609 107.713C55.6573 107.713 55.3615 108.419 55.0054 109.56C54.555 111.049 54.2696 112.584 54.1543 114.135C54.05 115.685 54.1188 117.242 54.3595 118.777C54.5527 119.96 54.7519 120.678 54.7036 120.69Z" fill="white"/>
<path d="M47.1887 131.496C46.7182 131.649 46.2284 131.734 45.734 131.749C43.3528 131.949 40.9574 131.608 38.7261 130.753C38.2561 130.599 37.8094 130.382 37.3982 130.107C37.8741 130.226 38.3418 130.375 38.7986 130.554C39.912 130.918 41.0552 131.185 42.215 131.351C43.3765 131.513 44.5497 131.576 45.7219 131.538C46.2095 131.494 46.6994 131.48 47.1887 131.496Z" fill="white"/>
<path d="M130.408 111.473C130.163 111.942 129.867 112.383 129.526 112.789C127.976 114.815 126.189 116.649 124.203 118.251C123.808 118.603 123.375 118.909 122.911 119.163C123.265 118.785 123.646 118.434 124.052 118.112C124.776 117.466 125.76 116.555 126.798 115.499C127.836 114.442 128.718 113.422 129.345 112.68C129.67 112.252 130.025 111.849 130.408 111.473Z" fill="white"/>
<path d="M44.3153 80.7437C44.1845 80.4878 44.0814 80.2187 44.0074 79.9409C43.765 79.2021 43.5635 78.4505 43.4038 77.6895C43.1357 76.5635 42.9341 75.4227 42.8002 74.2731C42.4839 71.4494 42.5591 68.5955 43.0236 65.7924C43.2145 64.6495 43.4725 63.5188 43.7962 62.4062C44.0102 61.6555 44.262 60.9162 44.5507 60.1909C44.6398 59.9179 44.7571 59.6549 44.9008 59.4062C44.8426 59.6879 44.7619 59.9645 44.6593 60.2332C44.4782 60.7523 44.2489 61.5128 44.0014 62.4605C43.7066 63.572 43.4708 64.6982 43.2952 65.8346C43.0886 67.2347 42.9617 68.6454 42.9149 70.0599C42.8832 71.4703 42.9377 72.8813 43.0779 74.2851C43.1926 75.4284 43.3679 76.5648 43.603 77.6895C43.8022 78.6492 43.9893 79.4218 44.1402 79.947C44.2196 80.2075 44.2781 80.4739 44.3153 80.7437Z" fill="white"/>
<path d="M47.9614 53.6465C47.8105 54.221 47.5636 54.7659 47.2311 55.2581C46.9825 55.7988 46.6459 56.2944 46.2351 56.7249C46.3898 56.1506 46.6386 55.6061 46.9715 55.1133C47.2218 54.575 47.5559 54.0799 47.9614 53.6465Z" fill="white"/>
<path d="M155.246 78.4432L149.88 50.8584C149.76 50.3346 149.441 49.8779 148.991 49.5849C148.54 49.2919 147.994 49.1855 147.466 49.2881C146.939 49.3908 146.472 49.6945 146.164 50.1351C145.857 50.5757 145.732 51.1186 145.818 51.6491L146.065 52.9046L134.965 55.6329C133.788 55.9215 132.699 56.4945 131.795 57.3017C130.891 58.1088 130.199 59.1255 129.78 60.2626L123.086 61.9104C121.972 62.1846 121.012 62.8898 120.418 63.8711C119.824 64.8524 119.644 66.0295 119.917 67.1437L120.521 69.5581L113.971 71.1758C113.537 71.2828 113.129 71.4742 112.769 71.7391C112.409 72.0041 112.104 72.3373 111.873 72.7199C111.642 73.1024 111.488 73.5268 111.421 73.9687C111.354 74.4106 111.375 74.8614 111.482 75.2954C111.589 75.7293 111.78 76.138 112.045 76.498C112.31 76.858 112.643 77.1623 113.026 77.3935C113.408 77.6247 113.833 77.7783 114.274 77.8455C114.716 77.9127 115.167 77.8922 115.601 77.7852L122.156 76.1736L122.621 78.0629C122.895 79.1768 123.601 80.1363 124.582 80.7306C125.563 81.3248 126.74 81.5051 127.854 81.2318L134.669 79.5538V79.4995C135.562 80.2632 136.624 80.8033 137.767 81.0751C138.91 81.347 140.101 81.3428 141.242 81.0628L151.093 78.6484L151.208 79.252C151.328 79.7758 151.647 80.2324 152.097 80.5255C152.547 80.8185 153.094 80.9249 153.622 80.8222C154.149 80.7196 154.616 80.4158 154.924 79.9753C155.231 79.5347 155.355 78.9918 155.27 78.4613L155.246 78.4432Z" fill="#00ADEE"/>
<path d="M155.246 78.4443C155.288 78.5955 155.306 78.7523 155.3 78.9091C155.292 79.3765 155.126 79.8275 154.83 80.1887C154.585 80.4807 154.267 80.7019 153.908 80.8293C153.55 80.9567 153.163 80.9856 152.789 80.913C152.424 80.8353 152.085 80.6619 151.808 80.4106C151.532 80.1593 151.327 79.839 151.214 79.4825C151.136 79.2169 151.099 78.9453 151.039 78.6676L151.117 78.7159L143.874 80.5267L141.707 81.07C140.94 81.2904 140.145 81.4002 139.347 81.3959C137.6 81.3624 135.918 80.7222 134.591 79.5851L134.772 79.4704V79.5187L134.802 79.6334H134.687C132.388 80.1947 129.979 80.8406 127.39 81.414C126.699 81.5025 125.997 81.4286 125.34 81.1981C124.683 80.9675 124.089 80.5868 123.605 80.0861C123.103 79.5696 122.736 78.9372 122.537 78.2451C122.35 77.557 122.193 76.8689 122.018 76.1747L122.181 76.2773L116.652 77.6717C116.175 77.7743 115.722 77.9191 115.209 77.9976C114.555 78.0772 113.892 77.9727 113.294 77.6959C112.697 77.419 112.188 76.9808 111.826 76.4305C111.464 75.8803 111.263 75.2399 111.245 74.5815C111.228 73.9231 111.394 73.2729 111.726 72.704C112.006 72.2431 112.382 71.8485 112.829 71.5473C113.276 71.2461 113.783 71.0456 114.316 70.9596L120.484 69.4445L120.376 69.6196C120.255 69.1186 120.128 68.5995 119.995 68.0743C119.839 67.5353 119.728 66.9841 119.663 66.4265C119.581 65.2762 119.946 64.1385 120.684 63.2515C121.044 62.8157 121.484 62.4531 121.981 62.1831C122.476 61.9292 123.005 61.7463 123.551 61.6399L129.744 60.1188L129.647 60.2094C130.238 58.6298 131.335 57.2904 132.768 56.4006C133.467 55.975 134.229 55.6633 135.025 55.4771L137.319 54.9097L146.035 52.779L145.938 52.9299C145.872 52.6039 145.812 52.2719 145.745 51.946C145.659 51.6132 145.637 51.2671 145.679 50.9259C145.733 50.5884 145.865 50.2682 146.066 49.991C146.266 49.7137 146.528 49.4872 146.831 49.3294C147.134 49.1716 147.47 49.087 147.812 49.0822C148.154 49.0775 148.492 49.1528 148.8 49.3022C149.101 49.4398 149.366 49.6447 149.575 49.9011C149.785 50.1575 149.932 50.4585 150.007 50.781L151.329 57.6078C152.15 61.8934 152.868 65.6358 153.459 68.7323C154.051 71.8288 154.504 74.2432 154.824 75.9152C154.974 76.7361 155.089 77.3699 155.168 77.8105C155.204 78.0218 155.234 78.1787 155.252 78.2994C155.258 78.3556 155.258 78.4122 155.252 78.4684C155.232 78.4159 155.218 78.3612 155.21 78.3055C155.21 78.1847 155.149 78.0278 155.107 77.8226L154.715 75.9272C154.383 74.2613 153.9 71.8348 153.284 68.7624C152.669 65.6901 151.938 61.9296 151.093 57.6501C150.671 55.5093 150.222 53.2377 149.747 50.8353C149.681 50.5509 149.551 50.2852 149.367 50.0584C149.183 49.8315 148.949 49.6493 148.685 49.5255C148.412 49.3958 148.113 49.3318 147.811 49.3387C147.509 49.3456 147.213 49.4232 146.947 49.5653C146.68 49.7073 146.451 49.9098 146.277 50.1566C146.103 50.4034 145.989 50.6875 145.944 50.9862C145.902 51.299 145.922 51.6172 146.005 51.9218C146.071 52.2478 146.138 52.5737 146.198 52.9057V53.0264L146.077 53.0566L137.367 55.2115C135.864 55.628 134.247 55.8151 132.901 56.6662C131.516 57.5221 130.455 58.8127 129.883 60.3361L129.852 60.4085H129.78L123.587 61.9357C123.066 62.0343 122.562 62.2071 122.09 62.4487C121.629 62.7026 121.22 63.0404 120.883 63.4447C120.193 64.2715 119.851 65.3342 119.929 66.4084C119.991 66.95 120.1 67.4852 120.255 68.0079C120.382 68.5391 120.515 69.0582 120.635 69.5592L120.672 69.698L120.527 69.7343L114.394 71.2493C113.898 71.3215 113.424 71.5029 113.006 71.7806C112.589 72.0583 112.238 72.4252 111.98 72.8549C111.682 73.3758 111.534 73.9693 111.553 74.5692C111.573 75.1691 111.758 75.7519 112.089 76.2525C112.42 76.7532 112.884 77.1521 113.428 77.4048C113.973 77.6575 114.577 77.7541 115.173 77.6837C115.631 77.6234 116.114 77.4725 116.585 77.3638L122.108 76.0117L122.241 75.9816L122.271 76.1083C122.446 76.8025 122.603 77.5027 122.784 78.1727C122.971 78.8235 123.315 79.4185 123.786 79.905C124.241 80.3772 124.8 80.737 125.418 80.956C126.036 81.1749 126.697 81.247 127.347 81.1665C129.889 80.5991 132.339 79.9593 134.627 79.4101L134.548 79.5489V79.5006L134.464 79.1565L134.729 79.3859C136.018 80.49 137.651 81.1111 139.347 81.1424C140.127 81.149 140.903 81.0433 141.653 80.8285L143.82 80.3034L151.063 78.5469H151.129V78.6133C151.19 78.8909 151.226 79.1746 151.298 79.4221C151.371 79.6659 151.49 79.8934 151.649 80.0921C151.943 80.4507 152.349 80.7013 152.801 80.8044C153.091 80.864 153.39 80.8602 153.678 80.7932C153.966 80.7263 154.236 80.5977 154.469 80.4165C154.703 80.2352 154.894 80.0055 155.03 79.7432C155.166 79.4809 155.244 79.1922 155.258 78.897C155.262 78.746 155.258 78.5949 155.246 78.4443Z" fill="#25466A"/>
<path d="M151.311 78.5883C151.232 78.5883 149.94 72.8782 148.425 65.8039C146.91 58.7297 145.739 52.9713 145.824 52.9532C145.908 52.9351 147.194 58.6572 148.715 65.7375C150.236 72.8178 151.395 78.5702 151.311 78.5883Z" fill="#25466A"/>
<path d="M134.645 79.4816C134.567 79.4816 133.438 75.202 132.074 69.8843C130.71 64.5665 129.714 60.2266 129.792 60.2266C129.871 60.2266 130.999 64.5061 132.364 69.836C133.728 75.1658 134.724 79.4816 134.645 79.4816Z" fill="#25466A"/>
<path d="M122.144 76.1734C121.702 75.1269 121.38 74.0334 121.185 72.9139C120.896 71.8178 120.674 70.7051 120.521 69.582C120.96 70.6312 121.28 71.7267 121.474 72.8475C121.764 73.9418 121.987 75.0524 122.144 76.1734Z" fill="#25466A"/>
<path d="M128.096 61.851C128.096 61.8932 127.45 61.9898 126.412 62.2071C125.893 62.3158 125.277 62.4546 124.601 62.6417C123.874 62.8285 123.172 63.1042 122.512 63.4626C121.842 63.7668 121.313 64.3151 121.034 64.9958C120.898 65.5906 120.886 66.2069 120.997 66.8066C121.13 67.8508 121.305 68.4907 121.263 68.5027C121.018 67.9759 120.857 67.4137 120.786 66.8368C120.649 66.2084 120.649 65.5578 120.786 64.9294C120.894 64.549 121.102 64.2049 121.39 63.9334C121.685 63.6503 122.016 63.4068 122.374 63.2091C123.053 62.8346 123.78 62.5543 124.535 62.3761C125.223 62.2011 125.85 62.0864 126.345 62.0019C126.92 61.8743 127.508 61.8235 128.096 61.851Z" fill="white"/>
<path d="M143.971 54.5293C143.79 54.6168 143.597 54.6759 143.398 54.7044C143.029 54.7949 142.486 54.9217 141.816 55.0666L136.589 56.1651C135.642 56.3624 134.724 56.683 133.861 57.1188C133.161 57.4829 132.544 57.9886 132.05 58.6037C131.608 59.1849 131.301 59.857 131.15 60.5714C131.119 60.3696 131.134 60.1633 131.193 59.9678C131.325 59.4285 131.566 58.9214 131.899 58.4769C132.39 57.8185 133.018 57.2748 133.74 56.8834C134.618 56.4155 135.56 56.076 136.535 55.8754C138.587 55.4348 140.44 55.1088 141.792 54.8613C142.462 54.7406 142.999 54.6501 143.392 54.5897C143.582 54.5484 143.776 54.5282 143.971 54.5293Z" fill="white"/>
<path d="M119.374 71.0862C119.024 71.3238 118.626 71.4824 118.209 71.551C117.454 71.7562 116.398 71.8408 115.257 72.0822C114.73 72.1892 114.22 72.3679 113.742 72.6134C113.356 72.8142 113.007 73.0796 112.71 73.3981C112.454 73.7149 112.233 74.059 112.052 74.4242C112.079 73.9924 112.253 73.583 112.547 73.2653C112.84 72.9018 113.201 72.5984 113.609 72.3719C114.102 72.0898 114.635 71.8861 115.191 71.7683C116.356 71.5208 117.418 71.4725 118.161 71.3216C118.903 71.1707 119.356 71.0319 119.374 71.0862Z" fill="white"/>
<path d="M148.492 49.8322C148.492 49.8805 148.268 49.8745 147.949 49.959C147.541 50.0696 147.174 50.296 146.892 50.6109C146.621 50.9384 146.455 51.3402 146.415 51.7638C146.379 52.0897 146.415 52.307 146.373 52.313C146.331 52.3191 146.222 52.1259 146.204 51.7577C146.184 51.2693 146.347 50.7911 146.663 50.4177C146.984 50.0505 147.428 49.8142 147.912 49.7537C148.281 49.7115 148.498 49.796 148.492 49.8322Z" fill="white"/>
<path d="M236.432 45.7676C236.399 45.7969 236.362 45.8213 236.323 45.84L235.979 46.0271L234.645 46.7213L229.695 49.2504L213.084 57.6164L212.975 57.6767L212.897 57.5741C212.438 56.9162 211.949 56.222 211.448 55.5219L209.39 52.6004L209.583 52.6426L194.101 61.5821L189.489 64.2138L188.234 64.9079C188.101 64.9804 187.998 65.0407 187.908 65.083C187.817 65.1252 187.793 65.1433 187.793 65.1373C187.793 65.1313 187.793 65.1373 187.896 65.0588L188.209 64.8596L189.417 64.1172L193.986 61.413L209.414 52.3891L209.529 52.3167L209.607 52.4314C210.271 53.3609 210.965 54.3509 211.678 55.3468C212.173 56.053 212.662 56.7472 213.126 57.3991L212.939 57.3508L229.587 49.0693L234.578 46.6247L235.937 45.9728L236.287 45.8159L236.432 45.7676Z" fill="#25466A"/>
<path d="M232.031 67.5703C231.926 67.6115 231.817 67.6418 231.705 67.6609L230.751 67.8721L227.214 68.6206L215.378 70.9143L215.233 70.9445V70.7996L214.967 69.3328C214.913 69.0009 214.852 68.6689 214.798 68.3671L214.967 68.4878C210.168 69.3087 205.913 70.2986 202.895 71.1195C201.368 71.5179 200.149 71.862 199.273 72.0974L198.302 72.369C198.19 72.4053 198.074 72.4296 197.958 72.4414C198.062 72.3867 198.171 72.3422 198.283 72.3086L199.237 71.9887C200.076 71.7171 201.289 71.3429 202.811 70.9203C206.796 69.8067 210.835 68.8961 214.913 68.192H215.058V68.3369C215.112 68.6447 215.172 68.9767 215.233 69.3027C215.323 69.8097 215.408 70.3046 215.492 70.7694L215.317 70.6487L227.172 68.4455L230.721 67.8419L231.687 67.685C231.795 67.6297 231.911 67.591 232.031 67.5703Z" fill="#25466A"/>
<path d="M191.565 46.6194C191.638 46.6557 190.105 49.9755 188.131 54.0317C186.157 58.088 184.509 61.3474 184.431 61.3112C184.352 61.275 185.898 57.9612 187.865 53.8989C189.833 49.8367 191.493 46.5832 191.565 46.6194Z" fill="#25466A"/>
<path d="M209.589 62.8928C209.589 62.9712 205.792 64.1543 201.06 65.5366C196.328 66.9188 192.465 67.951 192.447 67.8967C192.428 67.8423 196.237 66.6351 200.976 65.2529C205.714 63.8706 209.565 62.8143 209.589 62.8928Z" fill="#25466A"/>
<path d="M180.049 36.2305C180.152 36.4227 180.235 36.6249 180.296 36.8341C180.453 37.2807 180.658 37.8723 180.9 38.5966C181.425 40.1539 182.137 42.3027 182.982 44.8319L183.043 45.0129H182.849L178.135 44.9164L178.286 44.7413C178.395 45.3449 178.516 45.9485 178.636 46.6185C179.409 50.8438 180.103 54.7189 180.622 57.5559C180.858 58.9261 181.051 60.0488 181.19 60.8757C181.244 61.2379 181.292 61.5397 181.328 61.7811C181.353 61.8858 181.363 61.9935 181.359 62.101C181.315 62.0027 181.285 61.8993 181.268 61.7932C181.22 61.5517 181.153 61.256 181.075 60.8938L180.417 57.5921C179.88 54.7612 179.149 50.9162 178.34 46.6668C178.226 46.027 178.105 45.3992 177.996 44.7956L177.96 44.6206H178.141L182.855 44.7413L182.729 44.9224L180.749 38.6509C180.526 37.9145 180.344 37.317 180.212 36.8401C180.144 36.6406 180.09 36.437 180.049 36.2305Z" fill="#25466A"/>
<path d="M159.206 81.7136C159.17 81.6412 162.224 80.1322 166.045 78.3455C169.866 76.5588 172.974 75.1705 173.011 75.2429C173.047 75.3154 169.993 76.8304 166.172 78.6171C162.351 80.4038 159.242 81.786 159.206 81.7136Z" fill="#25466A"/>
<path d="M173.439 86.088C174.228 84.9055 175.1 83.78 176.047 82.7199C176.923 81.5996 177.873 80.539 178.89 79.5449C178.101 80.7295 177.228 81.8552 176.276 82.913C175.405 84.0356 174.457 85.0964 173.439 86.088Z" fill="#25466A"/>
<path d="M181.111 106.817C181.033 106.817 181.552 100.931 182.282 93.6881C183.012 86.4448 183.664 80.5778 183.749 80.5899C183.833 80.6019 183.302 86.475 182.578 93.7183C181.854 100.962 181.196 106.823 181.111 106.817Z" fill="#25466A"/>
<path d="M170.638 54.8105C171.188 55.5823 171.656 56.4098 172.033 57.2793C172.499 58.1037 172.876 58.9759 173.155 59.8808C172.609 59.108 172.144 58.2807 171.767 57.4121C171.302 56.5861 170.924 55.7143 170.638 54.8105Z" fill="#25466A"/>
</svg>
