<svg width="40" height="40" viewBox="0 0 40 40" fill="none" xmlns="http://www.w3.org/2000/svg">
<path d="M37.256 11.7293H25.0174C25.5757 11.2293 26.0687 10.6982 26.4566 10.0266C27.0848 8.93836 27.3706 7.73257 27.2619 6.62677C27.1447 5.43863 26.5933 4.5039 25.7079 3.99279C23.9579 2.98205 21.4442 4.04602 20.1057 6.36373C19.9039 6.71325 19.7409 7.07192 19.6145 7.43199C19.488 7.07192 19.3249 6.71361 19.1233 6.36415C18.495 5.27593 17.5914 4.42409 16.5796 3.96544C15.493 3.47361 14.4071 3.48303 13.5211 3.99385C12.6356 4.50488 12.0842 5.44081 11.967 6.62895C11.8583 7.73475 12.1441 8.93836 12.7724 10.0266C13.1601 10.6982 13.6532 11.2293 14.2113 11.7293H2.58936C2.22085 11.7293 2 12.0365 2 12.4046V15.7379C2 16.1061 2.22085 16.3959 2.58936 16.3959H4.00004V35.738C4.00004 36.1061 4.22089 36.396 4.5894 36.396H16.5894H22.5894H35.2561C35.6246 36.396 36 36.1061 36 35.738V16.3959H37.256C37.6245 16.3959 38 16.1061 38 15.7379V12.4046C38 12.0365 37.6245 11.7293 37.256 11.7293ZM21.2606 7.03093C22.0014 5.74737 23.2111 4.94075 24.228 4.94075C24.5203 4.94075 24.7964 5.00747 25.0412 5.14873C25.5438 5.43877 25.8615 6.01104 25.9351 6.75938C26.0171 7.59012 25.7919 8.51522 25.3016 9.36418C24.8114 10.2131 24.1226 10.8707 23.3622 11.2154C22.6779 11.525 22.0237 11.5374 21.5211 11.2467C20.4253 10.6146 20.3061 8.6839 21.2606 7.03093ZM19.6144 10.9612C19.7358 11.2425 19.8909 11.5626 20.0781 11.7293H19.1507C19.3379 11.5626 19.4928 11.2425 19.6144 10.9612ZM13.9217 9.36432C13.4315 8.51536 13.2011 7.59019 13.2832 6.75952C13.3567 6.01111 13.6667 5.43884 14.1667 5.14887V5.14852C14.5 5.00853 14.6972 4.93892 14.9961 4.93892C15.3177 4.93892 15.6694 5.01929 16.0235 5.18016C16.784 5.5249 17.4754 6.18211 17.9656 7.03107C18.92 8.68404 18.8022 10.6147 17.7065 11.2469C17.2051 11.5375 16.5515 11.5271 15.8653 11.2156C15.1056 10.8708 14.412 10.2136 13.9217 9.36432ZM16 35.0626H5.3333V16.3959H16V35.0626ZM22 35.0626H17.3333V16.3959H22V35.0626ZM34.6667 35.0626H23.3333V16.3959H34.6666L34.6667 35.0626ZM36.6667 15.0626H35.256H22.5893H16.5894H4.58933H3.33334V13.0626H36.6667V15.0626Z" fill="#25466A"/>
</svg>
