<svg width="545" height="344" viewBox="0 0 545 344" fill="none" xmlns="http://www.w3.org/2000/svg">
<path d="M34.1624 257.013C34.1624 257.013 31.8913 262.338 44.3432 266.058C56.7952 269.778 63.7417 270.757 63.7417 270.757C63.7417 270.757 66.4044 271.853 65.1435 273.772C63.8827 275.691 59.873 278.745 61.1808 281.384C62.4887 284.023 65.9267 284.517 70.5786 283.068C75.2304 281.619 85.4583 278.925 86.3981 278.682C87.3378 278.44 88.7475 278.721 88.121 280.17C87.4945 281.619 80.5871 290.516 84.9884 293.531C89.3897 296.546 101.669 290.484 103.001 289.842C104.332 289.2 105.013 289.372 105.491 289.991C105.969 290.61 103.369 293.374 101.513 295.982C99.6567 298.59 97.9651 301.942 100.659 303.469C103.353 304.996 113.189 303.845 127.247 291.722L133.402 285.684L131.382 277.257C125.947 259.503 118.256 253.285 115.163 253.136C112.07 252.987 111.717 256.731 111.889 259.926C112.062 263.121 112.774 266.857 112.046 267.115C111.318 267.374 110.676 267.17 109.869 265.909C109.062 264.648 101.943 252.979 96.5946 253.167C91.2457 253.355 92.3186 264.554 92.0993 266.121C91.8801 267.687 90.4861 267.154 89.8439 266.465C89.2017 265.776 81.9655 257.976 78.8094 254.303C75.6533 250.63 72.5834 249.126 69.9755 250.724C67.3677 252.322 69.2315 256.989 69.2707 259.268C69.3099 261.547 66.467 261.069 66.467 261.069C66.467 261.069 60.0531 258.203 47.5541 254.702C35.0552 251.202 34.1389 257.052 34.1389 257.052" fill="#EBEBEB"/>
<path d="M135.172 286.796C126.002 284.196 109.783 279.294 95.8349 275.167C81.8871 271.04 69.2707 267.335 60.1157 264.649L49.2692 261.516L46.3167 260.671L45.5336 260.444L45.2751 260.35L45.5336 260.412L46.3167 260.616L49.277 261.399C51.8536 262.096 55.5422 263.138 60.147 264.438C69.3177 267.045 81.9576 270.742 95.8976 274.877C109.838 279.012 126.08 283.985 135.227 286.616" fill="#E0E0E0"/>
<path d="M66.937 277.366C67.1047 277.239 67.286 277.131 67.4774 277.044C67.8298 276.857 68.3467 276.59 68.9888 276.261C70.2732 275.627 72.0744 274.805 74.0714 273.912L79.201 271.68L80.7673 270.999C80.9513 270.901 81.1457 270.825 81.3469 270.771C81.1804 270.896 81.002 271.003 80.8143 271.093C80.4619 271.281 79.945 271.547 79.295 271.876C78.0028 272.494 76.1624 273.301 74.1968 274.178L69.0828 276.441L67.5165 277.131C67.3337 277.232 67.139 277.311 66.937 277.366Z" fill="#E0E0E0"/>
<path d="M81.3391 269.997C81.2764 269.997 79.4047 266.394 77.1649 261.884C74.9252 257.373 73.1709 253.684 73.2492 253.645C73.3275 253.606 75.1836 257.247 77.4234 261.758C79.6632 266.269 81.4409 269.958 81.3391 269.997Z" fill="#E0E0E0"/>
<path d="M102.468 277.304C102.403 277.102 102.355 276.895 102.327 276.685C102.249 276.231 102.139 275.659 102.022 274.986C101.763 273.545 101.395 271.563 100.91 269.386C100.424 267.209 99.9308 265.259 99.5549 263.849C99.3747 263.184 99.2259 262.62 99.1085 262.173C99.0428 261.97 98.9982 261.76 98.9753 261.547C99.0723 261.737 99.151 261.937 99.2103 262.142C99.3434 262.534 99.5235 263.09 99.735 263.794C100.158 265.196 100.69 267.146 101.176 269.331C101.662 271.516 101.998 273.505 102.21 274.954C102.312 275.675 102.39 276.262 102.429 276.669C102.472 276.878 102.485 277.091 102.468 277.304Z" fill="#E0E0E0"/>
<path d="M90.9089 286.842C91.0294 286.687 91.1688 286.547 91.324 286.427C91.6451 286.129 92.0445 285.777 92.5144 285.354C93.5325 284.469 94.9421 283.247 96.5162 281.916C98.0904 280.584 99.5235 279.394 100.573 278.54L101.818 277.538C101.967 277.405 102.129 277.29 102.304 277.193C102.18 277.348 102.041 277.49 101.889 277.616L100.698 278.681C99.6801 279.574 98.2627 280.788 96.6885 282.119C95.1144 283.451 93.6891 284.649 92.6397 285.503L91.3867 286.505C91.2414 286.636 91.081 286.749 90.9089 286.842Z" fill="#E0E0E0"/>
<path d="M108.741 295.669C108.9 295.474 109.079 295.296 109.274 295.136L110.84 293.766C112.132 292.615 113.933 291.041 115.93 289.318C117.927 287.595 119.752 286.036 121.084 284.924L122.65 283.616C122.837 283.45 123.039 283.3 123.253 283.17C123.092 283.361 122.914 283.537 122.72 283.695L121.193 285.073C119.901 286.216 118.1 287.79 116.103 289.521C114.106 291.252 112.281 292.795 110.958 293.907L109.391 295.215C109.191 295.389 108.974 295.541 108.741 295.669Z" fill="#E0E0E0"/>
<path d="M122.791 283.366C122.704 283.111 122.639 282.849 122.595 282.583C122.47 282.027 122.321 281.307 122.125 280.437C121.734 278.621 121.177 276.122 120.488 273.389C119.799 270.656 119.118 268.181 118.609 266.396C118.366 265.542 118.162 264.829 118.014 264.281C117.927 264.026 117.862 263.764 117.818 263.498C117.933 263.752 118.03 264.013 118.108 264.281C118.28 264.767 118.515 265.479 118.797 266.364C119.345 268.134 120.065 270.601 120.755 273.35C121.444 276.099 121.968 278.605 122.321 280.398C122.493 281.307 122.626 282.051 122.705 282.56C122.76 282.825 122.789 283.095 122.791 283.366Z" fill="#E0E0E0"/>
<path d="M430.448 100.153C419.484 92.7992 416.822 78.8436 417.025 66.2428C417.025 64.144 416.79 61.9277 417.754 60.0716C418.717 58.2156 421.035 56.9391 422.93 57.7614C424.496 58.4662 425.217 60.2674 426.118 61.7554C427.317 63.7394 429.055 65.3418 431.13 66.376C432.477 67.0495 434.137 67.441 435.445 66.6892C437.246 65.6555 437.411 63.1494 437.364 61.0584L437.082 49.3739C436.921 47.2864 437.098 45.1867 437.606 43.1557C438.217 41.1587 439.619 39.2948 441.6 38.6997C443.582 38.1045 446.056 39.2087 446.511 41.2527C446.602 42.1162 446.639 42.9846 446.62 43.8527C446.613 44.2863 446.735 44.7122 446.971 45.0762C447.207 45.4402 447.545 45.7258 447.944 45.8967C448.782 46.1317 449.604 45.5208 450.223 44.9022C452.337 42.7485 453.755 40.0075 455.078 37.2822C456.402 34.5568 457.67 31.8002 459.589 29.4507C461.508 27.1013 464.178 25.2374 467.17 25.0181C470.162 24.7989 473.38 26.5844 474.218 29.5134C475.056 32.4423 473.357 35.4653 471.532 37.8773C468.822 41.4673 465.607 44.6459 461.986 47.3142C461.292 47.7264 460.744 48.3452 460.419 49.0841C459.989 50.486 461.336 51.8486 462.722 52.2794C464.288 52.7727 465.972 52.5848 467.609 52.7414C469.245 52.8981 471.015 53.595 471.665 55.0909C472.558 57.2132 470.812 59.4843 469.073 60.9801C465.608 63.986 461.65 66.3705 457.373 68.0284C455.795 68.4938 454.317 69.2451 453.011 70.2447C451.789 71.3411 451.076 73.2363 451.852 74.6929C452.627 76.1496 454.561 76.5882 456.167 76.2592C457.772 75.9303 459.198 75.0297 460.717 74.4267C463.575 73.2911 467.287 73.4243 469.167 75.8677C469.74 76.715 470.108 77.6833 470.244 78.6969C470.38 79.7105 470.279 80.7417 469.95 81.7099C469.286 83.638 468.239 85.412 466.872 86.9256C462.405 92.4757 456.543 96.738 449.886 99.2758C443.261 101.704 437.097 102.408 430.433 100.129" fill="#EBEBEB"/>
<path d="M433.581 92.2269C435.542 85.3344 437.895 78.5596 440.629 71.9356C441.35 70.1736 442.055 68.4271 442.759 66.7121C443.464 64.997 444.153 63.2976 444.937 61.6843C446.45 58.576 448.133 55.5537 449.98 52.6311C451.719 49.8353 453.473 47.2353 455.133 44.7997C456.793 42.3641 458.391 40.1713 459.934 38.2135C462.345 35.1065 465 32.197 467.875 29.5127C468.885 28.5651 469.7 27.8525 470.224 27.3826L470.859 26.8422C470.929 26.7782 471.005 26.7206 471.086 26.6699C471.026 26.7452 470.957 26.8135 470.882 26.8735L470.271 27.4374C469.731 27.9308 468.94 28.6591 467.922 29.6224C465.094 32.3418 462.476 35.2712 460.09 38.3858C458.571 40.3514 456.958 42.5677 455.337 44.9876C453.716 47.4076 451.953 49.9998 450.223 52.8191C448.394 55.7328 446.726 58.7446 445.226 61.8409C444.443 63.4542 443.762 65.138 443.057 66.853L440.927 72.0766C438.188 78.6871 435.822 85.4458 433.839 92.3209" fill="#E0E0E0"/>
<path d="M445.038 61.6395C444.934 61.3532 444.86 61.0565 444.819 60.7545C444.702 60.175 444.553 59.337 444.388 58.3033C444.059 56.2279 443.699 53.346 443.308 50.1664C442.916 46.9868 442.524 44.1127 442.164 42.053C441.984 41.0193 441.827 40.1813 441.718 39.6096C441.642 39.3122 441.598 39.0078 441.585 38.7012C441.709 38.9823 441.801 39.2765 441.859 39.5783C442.023 40.1422 442.211 40.9723 442.43 41.9982C442.861 44.0579 443.308 46.932 443.691 50.1194C444.075 53.3068 444.404 56.0948 444.662 58.2641C444.78 59.243 444.889 60.0653 444.968 60.731C445.028 61.0299 445.052 61.3349 445.038 61.6395Z" fill="#E0E0E0"/>
<path d="M471.822 56.1402C471.473 56.226 471.116 56.2759 470.757 56.289C470.068 56.3673 469.065 56.4691 467.843 56.6336C465.384 56.939 462.009 57.4872 458.305 58.2468C454.6 59.0065 451.256 59.8601 448.907 60.5415C447.709 60.8704 446.753 61.168 446.088 61.3638C445.749 61.4942 445.397 61.5862 445.038 61.6379C445.36 61.4704 445.695 61.3315 446.041 61.2228C446.691 60.98 447.607 60.6433 448.829 60.2752C451.178 59.5312 454.514 58.6463 458.226 57.8709C461.393 57.2011 464.593 56.6966 467.812 56.3595C469.049 56.2263 470.052 56.1637 470.741 56.1402C471.101 56.1095 471.462 56.1095 471.822 56.1402Z" fill="#E0E0E0"/>
<path d="M433.863 91.7113C433.793 91.6062 433.73 91.4963 433.675 91.3824C433.55 91.124 433.393 90.8029 433.197 90.4191C432.79 89.5812 432.226 88.3516 431.553 86.8245C430.206 83.7702 428.467 79.4864 426.619 74.7406C424.771 69.9947 423.079 65.7031 421.795 62.6254C421.168 61.1296 420.643 59.8922 420.228 58.9837L419.821 57.9891C419.765 57.8746 419.723 57.7536 419.696 57.6289C419.696 57.6289 419.774 57.7385 419.892 57.9578L420.369 58.9211C420.776 59.7591 421.34 60.9886 422.014 62.5157C423.361 65.57 425.099 69.8459 426.948 74.5996C428.796 79.3533 430.519 83.6136 431.803 86.7462C432.43 88.242 432.947 89.4715 433.369 90.3878L433.777 91.3824C433.823 91.4865 433.853 91.5976 433.863 91.7113Z" fill="#E0E0E0"/>
<path d="M469.371 79.5645C469.262 79.6345 469.143 79.6874 469.018 79.7211L467.984 80.0892L464.186 81.3892C460.975 82.4934 456.558 84.0754 451.656 85.8218C446.753 87.5682 442.344 89.1031 439.126 90.1447C437.512 90.6616 436.197 91.0688 435.288 91.3351L434.231 91.6327C434.109 91.6721 433.983 91.6983 433.855 91.711C433.964 91.6409 434.082 91.5881 434.207 91.5544L435.241 91.1863C436.197 90.8652 437.481 90.4032 439.039 89.8785C442.25 88.7821 446.667 87.2001 451.57 85.4537C456.472 83.7073 460.881 82.1723 464.1 81.1307C465.713 80.6139 467.029 80.2066 467.937 79.9404L468.995 79.6428C469.117 79.6034 469.243 79.5771 469.371 79.5645Z" fill="#E0E0E0"/>
<path d="M544.124 148.083C544.03 149.146 543.723 150.179 543.221 151.121C542.719 152.062 542.033 152.894 541.203 153.565C539.528 154.898 537.569 155.83 535.478 156.29C531.477 157.292 526.778 156.564 522.831 155.358C524.444 151.074 529.096 148.482 531.524 147.323C535.377 145.483 543.466 144.496 544.124 148.106" fill="#EBEBEB"/>
<path d="M517.905 161.499C518.92 160.87 520.083 160.519 521.276 160.484C522.47 160.448 523.652 160.728 524.702 161.295C525.743 161.88 526.657 162.666 527.391 163.607C528.125 164.548 528.665 165.626 528.978 166.777C529.178 167.291 529.264 167.843 529.229 168.394C529.194 168.944 529.039 169.48 528.775 169.965C528.454 170.371 528.032 170.684 527.55 170.873C527.068 171.061 526.545 171.118 526.034 171.038C525.016 170.859 524.063 170.416 523.269 169.753C520.458 167.607 518.14 165.015 517.905 161.491" fill="#EBEBEB"/>
<path d="M507.591 160.996C508.464 160.737 509.361 160.569 510.269 160.495C511.26 160.377 512.262 160.377 513.253 160.495C514.462 160.601 515.663 160.786 516.847 161.051C519.024 161.54 521.046 162.556 522.737 164.011C523.233 164.466 523.681 164.97 524.076 165.515C524.236 165.706 524.36 165.923 524.444 166.157C524.373 166.204 523.802 165.319 522.525 164.262C520.824 162.925 518.847 161.981 516.738 161.497C515.571 161.243 514.392 161.049 513.206 160.918C512.243 160.789 511.27 160.757 510.3 160.824C509.403 160.95 508.497 161.008 507.591 160.996Z" fill="#E0E0E0"/>
<path d="M538.039 149.373C537.642 149.611 537.226 149.816 536.794 149.984C536.011 150.344 534.813 150.861 533.348 151.48C530.435 152.717 526.378 154.385 521.86 156.124C517.341 157.862 513.198 159.303 510.183 160.29C508.671 160.783 507.45 161.167 506.596 161.418C506.161 161.573 505.713 161.688 505.257 161.762C505.669 161.553 506.099 161.38 506.541 161.246L510.073 159.985C513.057 158.92 517.176 157.416 521.695 155.685L533.231 151.174L536.731 149.819C537.153 149.632 537.591 149.483 538.039 149.373Z" fill="#E0E0E0"/>
<path d="M514.6 157.175C516.588 155.626 518.178 153.627 519.239 151.342C520.3 149.056 520.801 146.551 520.701 144.034C520.638 142.749 520.238 141.253 519.032 140.83C517.826 140.408 516.566 141.324 515.743 142.303C514.047 144.371 513.002 146.896 512.74 149.559C512.477 152.221 513.01 154.901 514.271 157.261" fill="#EBEBEB"/>
<path d="M517.865 146.484C517.907 146.725 517.907 146.972 517.865 147.213C517.865 147.683 517.787 148.348 517.685 149.178C517.425 151.354 516.769 153.464 515.751 155.404C515.153 156.464 514.389 157.421 513.488 158.239C512.242 159.338 510.764 160.141 509.165 160.589C508.936 160.673 508.696 160.721 508.452 160.73C508.452 160.636 509.423 160.362 510.872 159.602C511.721 159.148 512.51 158.59 513.221 157.942C514.074 157.144 514.797 156.219 515.367 155.201C516.358 153.304 517.037 151.26 517.38 149.147C517.493 148.251 517.656 147.362 517.865 146.484Z" fill="#E0E0E0"/>
<path d="M74.7355 0.124997C75.9989 0.0520585 77.264 0.235048 78.455 0.662991C79.646 1.09093 80.7382 1.75501 81.6663 2.61539C83.516 4.35761 84.9413 6.50098 85.8326 8.88054C87.6887 13.3915 87.6338 19.0144 86.8977 23.8386C81.6036 22.6874 77.7819 17.6909 76.0042 15.0282C73.1927 10.8306 70.6631 1.53466 74.7355 0.148497" fill="#EBEBEB"/>
<path d="M94.8858 28.5459C93.9752 27.4636 93.3661 26.1603 93.12 24.7674C92.8739 23.3746 92.9994 21.9415 93.484 20.6126C93.993 19.2944 94.7592 18.0907 95.738 17.0715C96.7168 16.0524 97.8887 15.2382 99.1853 14.6764C100.376 14.136 101.785 13.7914 102.952 14.371C103.484 14.6741 103.924 15.1147 104.228 15.6465C104.531 16.1783 104.685 16.7819 104.675 17.3939C104.642 18.6188 104.286 19.8131 103.641 20.8554C101.613 24.5048 98.9425 27.6688 94.8858 28.5459Z" fill="#EBEBEB"/>
<path d="M96.0918 40.7081C95.6411 39.7275 95.2896 38.7044 95.0424 37.6539C94.7329 36.5141 94.5594 35.3416 94.5255 34.1611C94.4454 32.7286 94.4585 31.2924 94.5647 29.8616C94.7657 27.2293 95.613 24.6873 97.0316 22.4609C97.4769 21.8019 97.9858 21.1881 98.5509 20.6283C98.9738 20.2524 99.2165 20.0723 99.2479 20.0958C99.2792 20.1193 98.3786 20.9886 97.3605 22.6645C96.0797 24.8816 95.3092 27.3563 95.105 29.9086C95.0046 31.3185 94.9811 32.7329 95.0346 34.1454C95.0418 35.2939 95.1705 36.4384 95.4183 37.5599C95.7185 38.5917 95.9436 39.6438 96.0918 40.7081Z" fill="#E0E0E0"/>
<path d="M77.2886 7.03906C77.6377 7.45569 77.947 7.90403 78.2127 8.37824C78.7844 9.26319 79.5832 10.5554 80.5621 12.1608C82.5121 15.3717 85.1592 19.8278 87.955 24.8321C90.7508 29.8364 93.1629 34.4256 94.831 37.7931C95.669 39.469 96.3268 40.8396 96.7654 41.795C97.0216 42.2751 97.2314 42.7786 97.3919 43.2986C97.0802 42.8517 96.8052 42.3803 96.5696 41.889L94.4864 37.9732C92.7322 34.6605 90.2731 30.0948 87.4773 25.1062L80.2254 12.3879C79.3326 10.8216 78.5964 9.52163 78.0326 8.5192C77.7433 8.04768 77.4944 7.55253 77.2886 7.03906Z" fill="#E0E0E0"/>
<path d="M90.4141 33.149C88.261 31.082 85.6452 29.5594 82.7845 28.708C79.9238 27.8566 76.9011 27.7011 73.9681 28.2544C72.4801 28.5442 70.8355 29.2647 70.5066 30.7526C70.1777 32.2406 71.5012 33.5485 72.7855 34.3551C75.5003 35.9929 78.6397 36.7889 81.8068 36.6426C84.9739 36.4962 88.0265 35.414 90.5786 33.5328" fill="#EBEBEB"/>
<path d="M77.3512 31.1844C77.6229 31.089 77.909 31.0413 78.197 31.0434C78.7452 30.9808 79.544 30.9416 80.5464 30.9259C83.1384 30.8548 85.7214 31.2609 88.1664 32.1241C89.51 32.6379 90.7591 33.3709 91.8628 34.2935C92.7616 35.0512 93.5521 35.9287 94.2123 36.9013C94.6518 37.5483 95.0294 38.2353 95.34 38.9532C95.476 39.1979 95.5737 39.462 95.6298 39.7363C95.528 39.7833 95.0424 38.6556 93.899 37.0893C93.2177 36.1827 92.4288 35.3622 91.5496 34.6459C90.4693 33.7881 89.2652 33.099 87.9785 32.6019C85.5874 31.7677 83.0784 31.3209 80.5464 31.2784C79.4804 31.3066 78.4137 31.2752 77.3512 31.1844Z" fill="#E0E0E0"/>
<path d="M297.718 302.397C297.282 301.357 297.061 300.24 297.068 299.112C297.075 297.984 297.309 296.869 297.757 295.834C298.663 293.762 300.035 291.926 301.766 290.47C305.009 287.572 309.747 285.951 314.03 285.129C314.626 289.93 311.564 294.628 309.856 296.876C307.162 300.494 300.098 305.381 297.718 302.358" fill="#EBEBEB"/>
<path d="M315.62 276.985C314.983 278.077 314.067 278.979 312.966 279.6C311.865 280.22 310.619 280.537 309.355 280.517C308.095 280.482 306.854 280.196 305.706 279.675C304.557 279.155 303.524 278.411 302.667 277.486C302.228 277.105 301.877 276.631 301.641 276.1C301.404 275.568 301.286 274.991 301.296 274.409C301.394 273.872 301.633 273.37 301.99 272.957C302.347 272.544 302.808 272.234 303.325 272.059C304.363 271.725 305.47 271.671 306.536 271.903C310.216 272.521 313.654 273.798 315.604 276.977" fill="#EBEBEB"/>
<path d="M325.511 272.387C324.825 273.061 324.069 273.659 323.256 274.172C322.391 274.772 321.457 275.266 320.476 275.645C319.295 276.137 318.084 276.553 316.85 276.89C314.575 277.504 312.183 277.547 309.888 277.015C309.202 276.836 308.536 276.589 307.898 276.279C307.46 276.036 307.233 275.887 307.248 275.856C307.264 275.825 308.251 276.318 309.966 276.678C312.212 277.098 314.524 277.009 316.732 276.42C317.944 276.083 319.139 275.686 320.311 275.23C321.275 274.88 322.2 274.429 323.068 273.883C323.849 273.331 324.665 272.832 325.511 272.387Z" fill="#E0E0E0"/>
<path d="M302.8 298.2C303.054 297.782 303.342 297.387 303.662 297.017C304.233 296.281 305.087 295.224 306.144 293.932C308.259 291.339 311.227 287.792 314.602 283.947C317.977 280.101 321.126 276.726 323.459 274.322C324.618 273.116 325.574 272.152 326.247 271.502C326.58 271.146 326.941 270.819 327.328 270.523C327.049 270.921 326.734 271.293 326.388 271.635C325.691 272.419 324.822 273.374 323.71 274.557C321.439 277.016 318.338 280.438 314.962 284.275L306.41 294.151L303.803 297.142C303.499 297.523 303.164 297.876 302.8 298.2Z" fill="#E0E0E0"/>
<path d="M320.812 279.405C319.722 281.828 319.224 284.477 319.36 287.131C319.496 289.786 320.262 292.369 321.596 294.668C322.277 295.835 323.389 297.018 324.728 296.838C326.067 296.658 326.788 295.17 327.078 293.846C327.642 291.081 327.377 288.21 326.313 285.596C325.25 282.981 323.437 280.74 321.102 279.154" fill="#EBEBEB"/>
<path d="M323.029 290.979C323.029 290.979 322.864 290.752 322.653 290.306C322.441 289.859 322.175 289.209 321.87 288.387C321.044 286.226 320.619 283.933 320.617 281.62C320.653 280.337 320.897 279.068 321.337 277.861C321.711 276.886 322.216 275.966 322.841 275.128C323.253 274.562 323.72 274.037 324.235 273.562C324.595 273.225 324.806 273.053 324.83 273.076C324.853 273.1 324.102 273.859 323.123 275.316C322.563 276.157 322.105 277.061 321.76 278.01C321.362 279.174 321.14 280.391 321.102 281.62C321.113 283.881 321.483 286.125 322.199 288.269C322.527 289.156 322.804 290.061 323.029 290.979Z" fill="#E0E0E0"/>
<path d="M308.064 24.4292C308.54 25.0027 308.896 25.6664 309.109 26.3804C309.323 27.0945 309.39 27.8443 309.306 28.5849C309.133 30.0699 308.62 31.495 307.807 32.7497C306.317 35.207 303.635 37.1462 301.086 38.4929C299.784 35.5733 300.812 32.0122 301.457 30.262C302.462 27.4551 305.984 23.0028 308.072 24.454" fill="#EBEBEB"/>
<path d="M301.654 43.9475C301.846 43.1347 302.251 42.3876 302.827 41.7827C303.403 41.1779 304.13 40.7372 304.932 40.5057C305.735 40.2848 306.575 40.2262 307.401 40.3335C308.227 40.4408 309.024 40.7117 309.744 41.1305C310.096 41.2871 310.409 41.5187 310.661 41.8091C310.913 42.0995 311.099 42.4416 311.205 42.8114C311.247 43.1697 311.192 43.5327 311.047 43.8627C310.901 44.1928 310.669 44.4777 310.376 44.6879C309.785 45.0993 309.095 45.3472 308.377 45.4067C305.931 45.7261 303.511 45.5828 301.665 43.9495" fill="#EBEBEB"/>
<path d="M296.289 48.7635C296.593 48.2052 296.955 47.6809 297.37 47.1995C297.801 46.6538 298.296 46.1612 298.843 45.7323C299.494 45.1929 300.18 44.6962 300.895 44.2454C302.214 43.4181 303.718 42.9293 305.271 42.8223C305.739 42.8034 306.208 42.8307 306.671 42.9037C306.995 42.9725 307.167 43.0227 307.163 43.0455C307.159 43.0684 306.44 42.947 305.287 43.0503C303.786 43.2188 302.342 43.7209 301.06 44.5197C300.359 44.9665 299.68 45.4481 299.027 45.9629C298.485 46.3698 297.988 46.8336 297.545 47.3464C297.158 47.8456 296.738 48.319 296.289 48.7635Z" fill="#E0E0E0"/>
<path d="M305.662 28.063C305.582 28.3759 305.477 28.6816 305.346 28.9768C305.127 29.5524 304.791 30.3854 304.372 31.4063C303.536 33.4529 302.345 36.2682 300.953 39.3502C299.562 42.4322 298.224 45.1733 297.213 47.1435C296.713 48.1295 296.295 48.9228 295.995 49.4636C295.853 49.7528 295.688 50.0295 295.5 50.291C295.6 49.9855 295.727 49.6896 295.88 49.4067C296.169 48.7772 296.534 48.0055 297.009 47.0434C297.97 45.0507 299.269 42.2889 300.662 39.2118L304.162 31.3191L305.233 28.9248C305.351 28.6259 305.495 28.3376 305.662 28.063Z" fill="#E0E0E0"/>
<path d="M297.904 43.4192C298.126 41.6767 297.93 39.9065 297.331 38.2551C296.733 36.6037 295.75 35.1186 294.463 33.9226C293.807 33.3166 292.876 32.7837 292.064 33.1561C291.253 33.5284 291.085 34.608 291.157 35.5005C291.333 37.3574 292.056 39.1205 293.232 40.5678C294.409 42.015 295.988 43.0817 297.77 43.6335" fill="#EBEBEB"/>
<path d="M294.269 36.5311C294.269 36.5311 294.417 36.6429 294.637 36.8843C294.857 37.1256 295.15 37.4851 295.502 37.9459C296.441 39.1521 297.152 40.5195 297.6 41.9809C297.825 42.7994 297.916 43.6486 297.87 44.496C297.823 45.1849 297.68 45.8638 297.447 46.5138C297.296 46.9514 297.102 47.3731 296.869 47.7729C296.706 48.0553 296.606 48.205 296.586 48.1947C296.567 48.1844 296.895 47.5591 297.233 46.4495C297.425 45.8101 297.539 45.1502 297.574 44.4836C297.601 43.6711 297.507 42.8591 297.293 42.0747C296.85 40.6479 296.183 39.3008 295.317 38.0836C294.938 37.5868 294.588 37.0684 294.269 36.5311Z" fill="#E0E0E0"/>
<path d="M72.3699 65.9579C84.2469 50.7276 104.26 41.5027 123.291 44.7378C142.323 47.9729 158.84 64.8578 159.473 84.1545C159.913 97.7258 153.225 110.33 148.406 123.026C143.588 135.721 140.791 150.865 148.258 162.205C154.703 171.987 167.209 176.352 173.889 185.974C180.413 195.366 179.925 208.626 174.006 218.408C168.088 228.189 157.401 234.534 146.224 236.83C135.046 239.127 123.286 237.553 112.389 234.169C77.2712 223.218 49.4637 191.631 42.9862 155.44C36.5086 119.25 51.7243 79.9977 80.9041 57.5788" fill="#00ADEE"/>
<g opacity="0.7">
<path d="M72.3699 65.9579C84.2469 50.7276 104.26 41.5027 123.291 44.7378C142.323 47.9729 158.84 64.8578 159.473 84.1545C159.913 97.7258 153.225 110.33 148.406 123.026C143.588 135.721 140.791 150.865 148.258 162.205C154.703 171.987 167.209 176.352 173.889 185.974C180.413 195.366 179.925 208.626 174.006 218.408C168.088 228.189 157.401 234.534 146.224 236.83C135.046 239.127 123.286 237.553 112.389 234.169C77.2712 223.218 49.4637 191.631 42.9862 155.44C36.5086 119.25 51.7243 79.9977 80.9041 57.5788" fill="white"/>
</g>
<path d="M211.557 308.576C221.855 301.528 226.695 286.053 220.257 275.379C213.742 265.668 203.623 257.923 192.064 256.286C180.505 254.649 167.669 260.123 162.516 270.625C159.266 277.235 159.258 285.223 161.952 292.075C164.79 298.94 169.792 304.69 176.198 308.451C186.841 314.888 201.29 315.609 211.557 308.576Z" fill="#00ADEE"/>
<g opacity="0.7">
<path d="M211.557 308.576C221.855 301.528 226.695 286.053 220.257 275.379C213.742 265.668 203.623 257.923 192.064 256.286C180.505 254.649 167.669 260.123 162.516 270.625C159.266 277.235 159.258 285.223 161.952 292.075C164.79 298.94 169.792 304.69 176.198 308.451C186.841 314.888 201.29 315.609 211.557 308.576Z" fill="white"/>
</g>
<path d="M173.196 74.4195C175.743 72.7192 176.94 68.9862 175.348 66.4112C173.736 64.0685 171.234 62.2001 168.375 61.8053C165.515 61.4104 162.341 62.731 161.066 65.2644C160.262 66.8589 160.26 68.7859 160.927 70.439C161.628 72.095 162.866 73.4821 164.45 74.3893C167.083 75.9422 170.656 76.116 173.196 74.4195Z" fill="#00ADEE"/>
<g opacity="0.7">
<path d="M172.881 74.4195C175.365 72.7192 176.533 68.9862 174.98 66.4112C173.408 64.0685 170.967 62.2001 168.179 61.8053C165.39 61.4104 162.294 62.731 161.051 65.2644C160.267 66.8589 160.265 68.7859 160.915 70.439C161.599 72.095 162.806 73.4821 164.351 74.3893C166.919 75.9422 170.404 76.116 172.881 74.4195Z" fill="white"/>
</g>
<path d="M538.732 264.738C538.098 248.253 529.93 231.909 516.256 222.684C502.582 213.458 483.544 212.197 469.455 220.773C460.676 226.114 454.309 234.619 449.007 243.421C446.102 248.245 443.071 253.563 437.848 255.67C431.058 258.418 423.594 254.675 416.413 253.242C408.03 251.565 399.324 253.135 392.055 257.633C384.786 262.131 379.496 269.223 377.256 277.472C370.991 303.465 389.214 322.018 408.699 333.279C430.478 345.872 458.037 345.856 481.719 337.461C497.265 331.979 511.753 322.895 522.341 310.247C532.929 297.599 539.374 281.224 538.732 264.738Z" fill="#00ADEE"/>
<g opacity="0.7">
<path d="M538.732 264.738C538.098 248.253 529.93 231.909 516.256 222.684C502.582 213.458 483.544 212.197 469.455 220.773C460.676 226.114 454.309 234.619 449.007 243.421C446.102 248.245 443.071 253.563 437.848 255.67C431.058 258.418 423.594 254.675 416.413 253.242C408.03 251.565 399.324 253.135 392.055 257.633C384.786 262.131 379.496 269.223 377.256 277.472C370.991 303.465 389.214 322.018 408.699 333.279C430.478 345.872 458.037 345.856 481.719 337.461C497.265 331.979 511.753 322.895 522.341 310.247C532.929 297.599 539.374 281.224 538.732 264.738Z" fill="white"/>
</g>
<path d="M494.78 160.807C492.768 147.65 480.081 135.825 466.838 137.094C454.472 138.887 442.341 145.05 435.418 155.45C428.495 165.851 427.845 180.707 435.575 190.52C440.438 196.699 448.105 200.403 455.936 200.975C463.856 201.412 471.701 199.25 478.279 194.819C489.439 187.536 496.793 173.98 494.78 160.807Z" fill="#00ADEE"/>
<g opacity="0.7">
<path d="M494.78 160.807C492.768 147.65 480.081 135.825 466.838 137.094C454.472 138.887 442.341 145.05 435.418 155.45C428.495 165.851 427.845 180.707 435.575 190.52C440.438 196.699 448.105 200.403 455.936 200.975C463.856 201.412 471.701 199.25 478.279 194.819C489.439 187.536 496.793 173.98 494.78 160.807Z" fill="white"/>
</g>
</svg>
