<svg width="40" height="40" viewBox="0 0 40 40" fill="none" xmlns="http://www.w3.org/2000/svg">
<g clip-path="url(#clip0_849_11995)">
<path d="M3.94216 33.0273C4.71994 33.0398 5.34008 33.3791 5.85373 33.9429C6.17528 34.2947 6.51354 34.6069 7.03554 34.6173C7.22403 34.6294 7.413 34.6024 7.59052 34.5379C7.76805 34.4734 7.93029 34.3728 8.06702 34.2425C8.23615 34.0796 8.39588 33.9084 8.56292 33.7445C9.53385 32.7882 10.9526 32.7945 11.9194 33.7581C12.076 33.9147 12.2169 34.0869 12.3808 34.2342C12.6415 34.4868 12.9899 34.6287 13.3529 34.6301C13.7159 34.6314 14.0654 34.4922 14.3279 34.2415C14.5221 34.0682 14.6923 33.8687 14.8823 33.6902C15.8219 32.7986 17.1352 32.7986 18.0832 33.6902C18.2628 33.8594 18.4256 34.0473 18.6052 34.2122C19.1982 34.7614 19.976 34.7697 20.5815 34.2331C20.7663 34.0692 20.9292 33.8813 21.1035 33.7111C22.0588 32.8049 23.3241 32.7872 24.3034 33.6704C24.4965 33.8447 24.6667 34.0431 24.8598 34.2174C25.4758 34.7697 26.2609 34.7635 26.8685 34.2018C27.0115 34.0692 27.1368 33.9189 27.2736 33.7842C28.2455 32.7966 29.6748 32.784 30.6582 33.7539C30.7783 33.8719 30.8879 34.0013 31.008 34.1214C31.6991 34.8136 32.5604 34.8042 33.2453 34.0984C33.3716 33.9679 33.4917 33.8301 33.6253 33.7059C34.6108 32.7892 35.9075 32.7997 36.8857 33.7309C36.9995 33.8353 37.1091 33.9502 37.2156 34.064C37.5205 34.3866 37.865 34.6152 38.3306 34.634C38.6104 34.6455 38.815 34.799 38.7963 35.1007C38.7775 35.4024 38.5467 35.4964 38.268 35.4943C37.8072 35.4928 37.3615 35.3303 37.0079 35.0349C36.7469 34.8209 36.5109 34.5766 36.2635 34.3469C35.6267 33.7518 34.8823 33.7445 34.2371 34.3333C34.0836 34.4732 33.9458 34.6298 33.7976 34.777C32.8204 35.7511 31.387 35.7459 30.415 34.7624C30.3231 34.6705 30.2385 34.5714 30.1488 34.4774C29.418 33.7174 28.5546 33.7142 27.8321 34.467C27.7277 34.5797 27.6233 34.6987 27.5095 34.8073C27.2946 35.0267 27.0382 35.2011 26.7552 35.3204C26.4721 35.4396 26.1682 35.5012 25.8611 35.5017C25.554 35.5022 25.2498 35.4415 24.9664 35.3232C24.683 35.2049 24.426 35.0313 24.2105 34.8125C24.0424 34.6497 23.8868 34.4722 23.7146 34.3145C23.109 33.7581 22.3574 33.7591 21.7487 34.3145C21.5858 34.4638 21.4355 34.6277 21.2799 34.7854C20.3038 35.7438 18.8986 35.7386 17.9245 34.7739C17.7575 34.6089 17.6009 34.4336 17.4255 34.278C16.8534 33.7737 16.1215 33.7685 15.5463 34.2686C15.3698 34.421 15.2143 34.5985 15.0493 34.7645C14.0607 35.7574 12.6199 35.749 11.6386 34.7447C11.5112 34.6142 11.3932 34.4743 11.2606 34.349C10.6342 33.7591 9.82303 33.757 9.19454 34.349C9.00453 34.5275 8.83436 34.7269 8.64018 34.8992C7.69431 35.7448 6.42062 35.7219 5.49981 34.848C5.31085 34.6685 5.13441 34.4753 4.94023 34.3031C4.32531 33.7581 3.57467 33.7685 2.97123 34.3281C2.78018 34.5045 2.60479 34.6977 2.41373 34.8741C1.98674 35.2656 1.49397 35.5057 0.899927 35.5005C0.630574 35.5005 0.433257 35.3826 0.414465 35.1007C0.406942 35.0445 0.411633 34.9874 0.428216 34.9332C0.444799 34.879 0.472883 34.8291 0.510549 34.7868C0.548216 34.7444 0.594576 34.7107 0.646462 34.688C0.698348 34.6652 0.754536 34.6539 0.811186 34.6549C1.43759 34.6413 1.83327 34.2582 2.22268 33.8458C2.69248 33.3363 3.23745 33.0179 3.94216 33.0273Z" fill="#25466A" stroke="#25466A" stroke-width="0.3"/>
<path d="M4.00583 37.5143C4.55811 37.5334 5.08688 37.7425 5.50293 38.1062C5.61986 38.2106 5.72635 38.3244 5.83284 38.4382C6.69205 39.3601 7.55336 39.3496 8.39169 38.408C9.42735 37.2439 10.9046 37.2105 11.9841 38.3265C12.0562 38.4006 12.1282 38.4769 12.2013 38.551C12.9634 39.3089 13.7088 39.3162 14.4814 38.5729C14.6317 38.4278 14.7758 38.2764 14.9282 38.1355C15.3341 37.7397 15.8762 37.5145 16.443 37.5061C17.0098 37.4978 17.5583 37.7069 17.9757 38.0906C18.1323 38.2284 18.2753 38.3798 18.4204 38.5301C19.1992 39.334 20.0605 39.3194 20.8216 38.4925C20.9746 38.3155 21.143 38.1523 21.3248 38.005C21.7604 37.6647 22.3045 37.4938 22.8563 37.524C23.4082 37.5541 23.9304 37.7832 24.3263 38.1689C24.5445 38.3777 24.7439 38.6042 24.9715 38.7953C25.2133 39.0098 25.5248 39.1289 25.848 39.1304C26.1711 39.132 26.4838 39.0158 26.7275 38.8036C26.9698 38.6084 27.1827 38.3756 27.4103 38.1626C28.3311 37.2971 29.6174 37.2909 30.5423 38.1501C30.724 38.3182 30.8921 38.4998 31.0727 38.6721C31.7325 39.286 32.4988 39.2807 33.1607 38.6596C33.2933 38.5353 33.4207 38.4038 33.5501 38.2764C34.5941 37.247 35.9513 37.2491 36.9703 38.3077C37.3879 38.7389 37.8055 39.1241 38.4486 39.1555C38.6835 39.1659 38.8161 39.3643 38.7952 39.5971C38.7733 39.8549 38.5958 39.9917 38.3442 39.9948C37.8024 40.0007 37.2792 39.7981 36.8826 39.429C36.6874 39.2578 36.5109 39.0657 36.3209 38.8872C35.611 38.2148 34.851 38.2221 34.1546 38.907C34.0158 39.0438 33.8863 39.191 33.7433 39.3246C32.7431 40.2642 31.2909 40.2099 30.3596 39.2014C30.242 39.0624 30.1169 38.93 29.9848 38.8047C29.3584 38.2597 28.5901 38.2639 27.9699 38.8151C27.8483 38.9329 27.733 39.057 27.6243 39.1868C26.668 40.2245 25.1939 40.2684 24.1791 39.286C24.011 39.1231 23.8565 38.9456 23.6832 38.788C23.1038 38.2607 22.3615 38.2587 21.78 38.7796C21.5576 38.979 21.3488 39.1972 21.1265 39.3956C20.7158 39.7863 20.1706 40.0042 19.6038 40.0042C19.0369 40.0042 18.4918 39.7863 18.0811 39.3956C17.8587 39.1951 17.6499 38.978 17.4276 38.7796C16.868 38.2795 16.1643 38.2576 15.5797 38.7285C15.3573 38.908 15.1621 39.12 14.9533 39.3173C14.0231 40.2026 12.7963 40.236 11.8212 39.3966C11.6744 39.2679 11.535 39.1309 11.4036 38.9863C10.6655 38.195 9.775 38.1939 9.02958 38.9863C8.89595 39.1283 8.76649 39.2766 8.62033 39.4039C8.17921 39.8011 7.60148 40.012 7.00824 39.9926C6.41501 39.9731 5.85234 39.7247 5.4382 39.2995C5.21688 39.0803 5.0206 38.8339 4.75856 38.6575C4.18853 38.2775 3.63312 38.2848 3.10172 38.7128C2.82819 38.9331 2.57972 39.1868 2.32498 39.4248C1.95069 39.7759 1.46186 39.9796 0.948983 39.998C0.666058 40.0126 0.444729 39.9103 0.426981 39.6054C0.409233 39.3006 0.584626 39.1471 0.880079 39.1356C1.45846 39.1127 1.81968 38.7368 2.18091 38.3558C2.71544 37.793 3.3314 37.508 4.00583 37.5143Z" fill="#25466A" stroke="#25466A" stroke-width="0.3"/>
<path d="M39.5386 26.4373C39.4268 26.1983 39.2107 26.1659 38.979 26.1701C38.8485 26.1701 38.719 26.1701 38.5885 26.1701C34.0708 26.1701 29.5533 26.1701 25.0363 26.1701C24.7868 26.1701 24.5748 26.1701 24.4099 25.9007C23.1247 23.8179 21.8218 21.7466 20.5241 19.6722C20.4479 19.55 20.3727 19.4331 20.4113 19.2734C20.5304 18.7722 20.4656 18.2628 20.4667 17.7564C20.4667 17.2751 20.2078 16.9766 19.7296 16.9818C19.3329 16.987 19.2285 16.8095 19.1585 16.4692C18.3491 12.5194 17.5313 8.56989 16.7051 4.62077C16.6714 4.49831 16.6675 4.36954 16.6938 4.24527C16.7202 4.12101 16.776 4.00488 16.8565 3.90667C17.247 3.38466 17.1822 2.752 16.7354 2.26445C16.3178 1.8103 15.7091 1.6892 15.1757 2.01597C14.9178 2.17466 14.7706 2.11202 14.566 1.94916C13.5173 1.10537 12.2941 0.505213 10.985 0.192097C10.7094 0.126325 10.4171 0.134677 10.1582 0H8.20275C8.14429 0.0803884 8.03989 0.0772564 7.95428 0.0929164C7.06515 0.235826 6.20687 0.529215 5.4163 0.960484C2.63925 2.52649 0.98868 4.85671 0.777792 8.08895C0.636851 10.2605 1.41359 12.147 2.73321 13.831C2.89086 14.0314 2.93366 14.1703 2.80003 14.4104C2.50666 14.9501 2.63821 15.5557 3.10383 15.9639C3.56946 16.3721 4.17081 16.441 4.68133 16.0683C4.77658 15.9938 4.88816 15.9431 5.00686 15.9202C5.12557 15.8974 5.24801 15.903 5.3641 15.9367C6.61065 16.205 7.86032 16.4587 9.10895 16.7187C11.8484 17.2873 14.5872 17.857 17.3253 18.4277C17.4714 18.459 17.6917 18.4361 17.7095 18.625C17.7376 18.9382 17.841 19.2431 17.6051 19.5542C16.3523 21.187 15.1148 22.8296 13.8926 24.4819C13.8241 24.5832 13.7301 24.6646 13.6202 24.7182C13.5102 24.7717 13.3881 24.7953 13.2662 24.7868C11.7701 24.7763 10.273 24.7815 8.77696 24.7815C7.05852 24.7815 5.34009 24.7815 3.62166 24.7815C3.37006 24.7815 3.10488 24.7909 2.99526 25.077C2.88564 25.3631 3.07773 25.5353 3.27818 25.7034C3.75064 26.0918 4.1909 26.5177 4.59467 26.9771C5.51521 28.01 6.24198 29.2004 6.7401 30.4912C6.85494 30.7867 6.79857 30.8952 6.47493 30.8754C6.18991 30.8576 5.90177 30.8754 5.61571 30.8754C4.88491 30.8754 4.88491 30.8754 4.85463 30.13C4.84419 29.8544 4.77529 29.6247 4.45478 29.608C4.13427 29.5913 3.99124 29.8074 3.98915 30.1081C3.98915 30.8493 3.98915 31.5916 3.98915 32.3339C3.98915 32.6304 4.11025 32.8621 4.43703 32.8559C4.7377 32.8486 4.86194 32.6335 4.85463 32.3464C4.83375 31.7064 4.90892 31.7712 5.48103 31.7712C12.9791 31.7712 20.4775 31.7712 27.9762 31.7712C28.8216 31.7841 29.6669 31.7381 30.5058 31.6333C34.0012 31.1427 36.9599 29.6205 39.36 27.0251C39.5145 26.8591 39.6555 26.6848 39.5386 26.4373ZM19.0886 17.8629C19.597 17.888 19.6043 17.8734 19.6043 18.3515C19.6043 18.8297 19.6043 18.8422 19.099 18.8422C18.5937 18.8422 18.6219 18.8359 18.5937 18.3432C18.5718 17.9569 18.7221 17.8452 19.0886 17.8629ZM3.29593 13.238C2.45191 12.1774 1.90602 10.9109 1.71453 9.569C1.52305 8.22714 1.6929 6.85849 2.20657 5.60414C2.72025 4.34978 3.55916 3.25512 4.63683 2.433C5.7145 1.61088 6.99193 1.09104 8.33743 0.927076C10.4547 0.670251 12.3203 1.29039 13.9907 2.56094C14.2235 2.73634 14.2716 2.87415 14.0325 3.10905C10.6409 6.48745 7.25515 9.87281 3.87535 13.2651C3.64358 13.4969 3.50473 13.5052 3.29593 13.238ZM4.46626 15.1172C4.32114 15.2634 4.1896 15.4356 3.95261 15.4356C3.87438 15.4324 3.7984 15.4085 3.73238 15.3664C3.66636 15.3243 3.61265 15.2655 3.57671 15.196C3.54076 15.1264 3.52386 15.0486 3.52773 14.9704C3.53159 14.8922 3.55607 14.8164 3.59869 14.7507C3.67697 14.6449 3.76582 14.5473 3.86387 14.4595C7.66126 10.6593 11.46 6.85946 15.2602 3.05998C15.3393 2.97291 15.4252 2.89227 15.517 2.81881C15.5984 2.75066 15.7033 2.71718 15.8092 2.72557C15.915 2.73397 16.0133 2.78357 16.0829 2.86371C16.1237 2.89715 16.1573 2.9384 16.1819 2.98503C16.2065 3.03166 16.2215 3.08274 16.2261 3.13526C16.2306 3.18778 16.2247 3.24068 16.2085 3.29086C16.1924 3.34104 16.1663 3.38749 16.132 3.42747C16.0591 3.51885 15.9799 3.60501 15.895 3.68534C12.0858 7.49247 8.27618 11.3017 4.46626 15.113V15.1172ZM14.8854 17.0413C11.981 16.4399 9.07728 15.8376 6.17425 15.2341C6.04166 15.207 5.84539 15.2341 5.80467 15.088C5.77127 14.9658 5.94248 14.8844 6.03122 14.7946C7.41871 13.4029 8.8135 12.0186 10.1947 10.6186C10.4035 10.4025 10.5371 10.3983 10.7553 10.6186C12.9659 12.8458 15.1812 15.0653 17.4015 17.2772C17.4537 17.3119 17.4972 17.3583 17.5286 17.4126C17.5599 17.467 17.5782 17.5278 17.5821 17.5904L14.8854 17.0413ZM11.4162 10.0673C11.1218 9.77815 11.1594 9.63721 11.4287 9.37203C12.8204 8.00543 14.1922 6.6169 15.5734 5.23882C15.6496 5.1626 15.7123 5.01749 15.849 5.07178C15.9534 5.11458 15.9378 5.25134 15.9534 5.34948C16.7434 9.142 17.5323 12.9352 18.3202 16.7291C18.3241 16.7778 18.3241 16.8267 18.3202 16.8753C18.149 16.8283 18.079 16.7114 17.9903 16.6216C15.8042 14.4355 13.6201 12.241 11.4162 10.0673ZM15.0911 24.3159C16.1455 22.9107 17.2021 21.5075 18.2607 20.1065C18.7169 19.502 19.3976 19.5198 19.7912 20.1482C20.8958 21.9126 21.9996 23.6773 23.1028 25.4424C23.1769 25.5625 23.2448 25.6856 23.3784 25.9164L21.0816 25.3474C20.9302 25.3098 20.7747 25.2837 20.6285 25.2315C18.9038 24.6114 17.1102 24.8024 15.3343 24.7753C15.1746 24.7753 14.9502 24.863 14.8708 24.7001C14.8071 24.5644 15.0003 24.436 15.0911 24.3159ZM16.4306 30.936C13.6709 30.936 10.9119 30.936 8.15369 30.936C7.91356 30.936 7.76532 30.8629 7.68388 30.6227C7.06374 28.7937 6.03853 27.212 4.69907 25.8308C4.66944 25.7906 4.64457 25.7472 4.62495 25.7013C4.76276 25.5823 4.91205 25.6303 5.04255 25.6303C9.46844 25.6303 13.8933 25.6303 18.3171 25.6303C18.9539 25.6303 19.5406 25.8621 20.1462 26.0041C21.0576 26.2191 21.9648 26.4509 22.8721 26.6816C22.965 26.7056 23.1122 26.6879 23.1278 26.8163C23.1435 26.9447 23.0057 26.9698 22.919 27.0251C20.9271 28.2779 18.9348 29.5332 16.9421 30.7908C16.7894 30.888 16.6116 30.9384 16.4306 30.936ZM37.1718 27.9083C35.129 29.5457 32.6593 30.5628 30.0559 30.8389C29.5521 30.8943 29.0457 30.9222 28.5389 30.9224C25.3116 30.93 22.0852 30.93 18.86 30.9224C18.7139 30.9259 18.5696 30.8898 18.4424 30.818C18.5958 30.7136 18.7462 30.6092 18.9017 30.5131C20.6633 29.4051 22.4245 28.2971 24.1854 27.189C24.3725 27.0704 24.5904 27.0098 24.8118 27.0147C29.1048 27.0147 33.3974 27.0147 37.6896 27.0147C37.8013 27.0147 37.913 27.0314 38.0665 27.0429C37.8285 27.4573 37.4808 27.6661 37.1676 27.9125L37.1718 27.9083Z" fill="#25466A" stroke="#25466A" stroke-width="0.3"/>
</g>
<defs>
<clipPath id="clip0_849_11995">
<rect width="39.1627" height="40" fill="white" transform="translate(0.41864)"/>
</clipPath>
</defs>
</svg>
