<svg width="18" height="18" viewBox="0 0 18 18" fill="none" xmlns="http://www.w3.org/2000/svg">
<path d="M3.69991 6.07499C3.69991 5.53793 3.91326 5.02286 4.29302 4.6431C4.67278 4.26334 5.18785 4.04999 5.72491 4.04999C6.26197 4.04999 6.77704 4.26334 7.1568 4.6431C7.53656 5.02286 7.74991 5.53793 7.74991 6.07499C7.74991 6.61206 7.53656 7.12712 7.1568 7.50689C6.77704 7.88665 6.26197 8.09999 5.72491 8.09999C5.18785 8.09999 4.67278 7.88665 4.29302 7.50689C3.91326 7.12712 3.69991 6.61206 3.69991 6.07499ZM5.72491 3.14999C4.94915 3.14999 4.20517 3.45816 3.65662 4.00671C3.10808 4.55525 2.79991 5.29924 2.79991 6.07499C2.79991 6.85075 3.10808 7.59474 3.65662 8.14328C4.20517 8.69183 4.94915 8.99999 5.72491 8.99999C6.50067 8.99999 7.24465 8.69183 7.7932 8.14328C8.34174 7.59474 8.64991 6.85075 8.64991 6.07499C8.64991 5.29924 8.34174 4.55525 7.7932 4.00671C7.24465 3.45816 6.50067 3.14999 5.72491 3.14999ZM10.8432 13.6305C11.3274 13.8285 11.9367 13.95 12.6999 13.95C14.3928 13.95 15.3288 13.3488 15.822 12.6594C16.0799 12.2979 16.2413 11.8766 16.2909 11.4354C16.2953 11.3944 16.2983 11.3533 16.2999 11.3121V11.25C16.2999 11.0727 16.265 10.8972 16.1971 10.7334C16.1293 10.5696 16.0299 10.4208 15.9045 10.2954C15.7791 10.17 15.6303 10.0706 15.4665 10.0028C15.3027 9.93491 15.1272 9.89999 14.9499 9.89999H10.7829C10.9989 10.161 11.1609 10.4661 11.2554 10.8H14.9499C15.0693 10.8 15.1837 10.8474 15.2681 10.9318C15.3525 11.0162 15.3999 11.1306 15.3999 11.25V11.2986L15.3954 11.3436C15.3616 11.6291 15.2564 11.9015 15.0894 12.1356C14.7951 12.5487 14.1561 13.05 12.6999 13.05C12.0411 13.05 11.5497 12.9474 11.1816 12.7971C11.1078 13.0491 11.0007 13.3335 10.8432 13.6305ZM0.999908 11.7C0.999908 11.2226 1.18955 10.7648 1.52712 10.4272C1.86468 10.0896 2.32252 9.89999 2.79991 9.89999H8.64991C9.1273 9.89999 9.58514 10.0896 9.9227 10.4272C10.2603 10.7648 10.4499 11.2226 10.4499 11.7V11.7756L10.4481 11.8116L10.4391 11.9331C10.3753 12.5164 10.1682 13.0748 9.83611 13.5585C9.20521 14.472 7.98661 15.3 5.72491 15.3C3.46321 15.3 2.24461 14.472 1.61371 13.5594C1.28152 13.0754 1.07435 12.5167 1.01071 11.9331C1.00557 11.8807 1.00197 11.8282 0.999908 11.7756V11.7ZM1.89991 11.754V11.7702L1.90621 11.8449C1.95505 12.2763 2.10894 12.6892 2.35441 13.0473C2.79271 13.6809 3.71161 14.4 5.72491 14.4C7.73821 14.4 8.65711 13.6809 9.09541 13.0473C9.34088 12.6892 9.49477 12.2763 9.54361 11.8449C9.54721 11.8107 9.54901 11.7858 9.54901 11.7702L9.54991 11.7549V11.7C9.54991 11.4613 9.45509 11.2324 9.2863 11.0636C9.11752 10.8948 8.8886 10.8 8.64991 10.8H2.79991C2.56121 10.8 2.3323 10.8948 2.16351 11.0636C1.99473 11.2324 1.89991 11.4613 1.89991 11.7V11.754ZM11.3499 6.74999C11.3499 6.39195 11.4921 6.04857 11.7453 5.7954C11.9985 5.54223 12.3419 5.39999 12.6999 5.39999C13.058 5.39999 13.4013 5.54223 13.6545 5.7954C13.9077 6.04857 14.0499 6.39195 14.0499 6.74999C14.0499 7.10804 13.9077 7.45141 13.6545 7.70459C13.4013 7.95776 13.058 8.09999 12.6999 8.09999C12.3419 8.09999 11.9985 7.95776 11.7453 7.70459C11.4921 7.45141 11.3499 7.10804 11.3499 6.74999ZM12.6999 4.49999C12.1032 4.49999 11.5309 4.73705 11.1089 5.159C10.687 5.58096 10.4499 6.15326 10.4499 6.74999C10.4499 7.34673 10.687 7.91903 11.1089 8.34098C11.5309 8.76294 12.1032 8.99999 12.6999 8.99999C13.2966 8.99999 13.8689 8.76294 14.2909 8.34098C14.7129 7.91903 14.9499 7.34673 14.9499 6.74999C14.9499 6.15326 14.7129 5.58096 14.2909 5.159C13.8689 4.73705 13.2966 4.49999 12.6999 4.49999Z" fill="#757575" stroke="#757575" stroke-width="0.3"/>
</svg>
