<svg width="24" height="24" viewBox="0 0 24 24" fill="none" xmlns="http://www.w3.org/2000/svg">
<path d="M4.72799 16.1368C3.18299 14.5908 2.40999 13.8188 2.12299 12.8158C1.83499 11.8128 2.08099 10.7478 2.57299 8.61876L2.85599 7.39076C3.26899 5.59876 3.47599 4.70276 4.08899 4.08876C4.70199 3.47476 5.59899 3.26876 7.39099 2.85576L8.61899 2.57176C10.749 2.08076 11.813 1.83476 12.816 2.12176C13.819 2.40976 14.591 3.18276 16.136 4.72776L17.966 6.55776C20.657 9.24776 22 10.5918 22 12.2618C22 13.9328 20.656 15.2768 17.967 17.9658C15.277 20.6558 13.933 21.9998 12.262 21.9998C10.592 21.9998 9.24699 20.6558 6.55799 17.9668L4.72799 16.1368Z" stroke="#25466A" stroke-width="1.2"/>
<path d="M15.39 15.39C15.975 14.803 16.054 13.933 15.566 13.444C15.078 12.955 14.207 13.035 13.621 13.621C13.036 14.207 12.165 14.286 11.677 13.798C11.189 13.31 11.268 12.439 11.854 11.854M11.854 11.854L11.5 11.5M11.854 11.854C12.185 11.522 12.607 11.354 13 11.357M15.743 15.743L15.389 15.389C14.989 15.79 14.454 15.954 14 15.86" stroke="#25466A" stroke-width="1.2" stroke-linecap="round"/>
<path d="M10.0212 10.2931C10.8023 9.51207 10.8023 8.24574 10.0212 7.46469C9.24016 6.68364 7.97383 6.68364 7.19278 7.46469C6.41173 8.24574 6.41173 9.51207 7.19278 10.2931C7.97383 11.0742 9.24016 11.0742 10.0212 10.2931Z" stroke="#25466A" stroke-width="1.2"/>
</svg>
