<svg width="28" height="28" viewBox="0 0 28 28" fill="none" xmlns="http://www.w3.org/2000/svg">
<path d="M19.3332 11.3333C19.3332 12.7478 18.7713 14.1044 17.7711 15.1046C16.7709 16.1048 15.4143 16.6667 13.9998 16.6667C12.5853 16.6667 11.2288 16.1048 10.2286 15.1046C9.22841 14.1044 8.6665 12.7478 8.6665 11.3333C8.6665 9.91885 9.22841 8.56229 10.2286 7.5621C11.2288 6.5619 12.5853 6 13.9998 6C15.4143 6 16.7709 6.5619 17.7711 7.5621C18.7713 8.56229 19.3332 9.91885 19.3332 11.3333Z" fill="#25466A"/>
<path fill-rule="evenodd" clip-rule="evenodd" d="M13.4558 27.3227C6.3445 27.0374 0.666504 21.1814 0.666504 14.0001C0.666504 6.63608 6.63584 0.666748 13.9998 0.666748C21.3638 0.666748 27.3332 6.63608 27.3332 14.0001C27.3332 21.3641 21.3638 27.3334 13.9998 27.3334H13.8172C13.6963 27.3334 13.5758 27.3299 13.4558 27.3227ZM5.44384 22.4134C5.34415 22.1271 5.31021 21.8221 5.34456 21.5209C5.3789 21.2197 5.48064 20.9301 5.64222 20.6736C5.8038 20.4171 6.02108 20.2003 6.27792 20.0393C6.53476 19.8782 6.82457 19.7771 7.12584 19.7434C12.3232 19.1681 15.7085 19.2201 20.8805 19.7554C21.1822 19.7868 21.4727 19.8867 21.73 20.0473C21.9872 20.208 22.2044 20.4253 22.365 20.6826C22.5256 20.9398 22.6254 21.2304 22.6567 21.5321C22.688 21.8338 22.6501 22.1386 22.5458 22.4234C24.7626 20.1808 26.004 17.1534 25.9998 14.0001C25.9998 7.37275 20.6272 2.00008 13.9998 2.00008C7.3725 2.00008 1.99984 7.37275 1.99984 14.0001C1.99984 17.2774 3.31384 20.2481 5.44384 22.4134Z" fill="#25466A"/>
</svg>
