<svg width="18" height="19" viewBox="0 0 18 19" fill="none" xmlns="http://www.w3.org/2000/svg">
<g clip-path="url(#clip0_948_4906)">
<path d="M10.6947 18.0423C10.6947 18.2951 10.4898 18.5 10.237 18.5H7.76277C7.50996 18.5 7.30505 18.2951 7.30505 18.0423C7.30505 17.7895 7.50996 17.5846 7.76277 17.5846H10.237C10.4898 17.5846 10.6947 17.7895 10.6947 18.0423ZM14.7324 13.6701V14.9888C14.7324 15.9682 13.9355 16.7651 12.9559 16.7651H5.04395C4.06447 16.7651 3.26758 15.9683 3.26758 14.9888V13.6701C3.26758 13.4173 3.47249 13.2124 3.7253 13.2124H3.84706C3.84599 13.1993 3.84538 13.1859 3.84538 13.1725V11.9459C3.84472 11.9187 3.84655 11.8917 3.85072 11.8652C3.86109 11.7976 3.88627 11.7349 3.92283 11.6805C3.95869 11.6268 4.00619 11.5803 4.06356 11.5453C4.0868 11.531 4.11136 11.5187 4.1371 11.5087C4.31836 11.4333 4.49855 11.3553 4.67645 11.2755V5.6829C4.67645 4.77371 5.25496 3.97503 6.08008 3.66775C6.07912 3.64272 6.07866 3.6177 6.07866 3.59248V2.462C6.07861 1.38015 6.95876 0.5 8.04056 0.5H9.95918C11.041 0.5 11.9211 1.38015 11.9211 2.462V3.59253C11.9211 3.6177 11.9206 3.64278 11.9197 3.6677C12.2449 3.78864 12.5366 3.98709 12.7691 4.24499C12.7773 4.22973 12.7853 4.21452 12.7935 4.19927C12.9113 3.97569 13.1882 3.89 13.4119 4.00804C13.6355 4.12598 13.7211 4.4029 13.6031 4.62647C12.7464 6.25017 11.5023 7.75465 9.90537 9.09807C8.63072 10.1703 7.18385 11.0965 5.59195 11.8603V13.2124H12.4079V7.70354C12.4079 7.45072 12.6129 7.24582 12.8657 7.24582C13.1185 7.24582 13.3234 7.45072 13.3234 7.70354V13.2124H14.2747C14.5275 13.2124 14.7324 13.4173 14.7324 13.6701ZM6.99405 3.59253C6.99405 3.68621 7.00641 3.77709 7.0296 3.8636C7.03331 3.87479 7.03662 3.88618 7.03942 3.89778C7.17033 4.32641 7.56956 4.63909 8.04051 4.63909H9.95913C10.43 4.63909 10.8293 4.32651 10.9603 3.89793C10.9632 3.88618 10.9665 3.87464 10.9702 3.86335C10.9933 3.77694 11.0057 3.68616 11.0057 3.59253V2.462C11.0057 1.88492 10.5362 1.41545 9.95913 1.41545H8.04051C7.46347 1.41545 6.99405 1.88492 6.99405 2.462V3.59253ZM5.59189 10.838C8.44931 9.3875 10.7965 7.37205 12.2625 5.10434C12.1297 4.85661 11.9193 4.66401 11.6692 4.55354C11.3325 5.15052 10.6921 5.55448 9.95913 5.55448H8.04051C7.30759 5.55448 6.66724 5.15046 6.33046 4.55349C5.89287 4.74675 5.59189 5.18606 5.59189 5.6829V10.838ZM13.817 14.1278H12.8725C12.8702 14.1278 12.8679 14.1279 12.8656 14.1279H5.13417C5.13188 14.1279 5.12959 14.1279 5.12726 14.1278H4.18302V14.9888C4.18302 15.4635 4.56924 15.8497 5.04395 15.8497H12.9559C13.4307 15.8497 13.817 15.4635 13.817 14.9888V14.1278Z" fill="white"/>
</g>
<defs>
<clipPath id="clip0_948_4906">
<rect width="18" height="18" fill="white" transform="translate(0 0.5)"/>
</clipPath>
</defs>
</svg>
