<svg width="24" height="24" viewBox="0 0 24 24" fill="none" xmlns="http://www.w3.org/2000/svg">
<path d="M8.07427 11.357H15.9257L15.1628 10.4981C15.0575 10.3698 15.006 10.2056 15.019 10.0401C15.032 9.87451 15.1086 9.72043 15.2327 9.61008C15.3568 9.49973 15.5187 9.44168 15.6847 9.44808C15.8506 9.45449 16.0076 9.52485 16.1228 9.64443L17.8354 11.5704C17.9393 11.6862 17.9977 11.8358 17.9998 11.9913C18.0018 12.1469 17.9474 12.2979 17.8466 12.4164L17.838 12.4267L16.1237 14.3553C16.0105 14.4828 15.8513 14.5602 15.681 14.5703C15.5108 14.5804 15.3435 14.5225 15.216 14.4093C15.0885 14.2961 15.0111 14.1368 15.001 13.9666C14.9909 13.7964 15.0488 13.6291 15.162 13.5016L15.9248 12.6427H8.07427L8.83713 13.5016C8.94243 13.63 8.99397 13.7941 8.98095 13.9597C8.96793 14.1252 8.89136 14.2793 8.76727 14.3896C8.64319 14.5 8.48121 14.558 8.31528 14.5516C8.14935 14.5452 7.99234 14.4749 7.87712 14.3553L6.16284 12.4267C6.05837 12.3091 6.00067 12.1572 6.00067 11.9999C6.00067 11.8425 6.05837 11.6906 6.16284 11.573L7.87712 9.64443C7.99234 9.52485 8.14935 9.45449 8.31528 9.44808C8.48121 9.44168 8.64319 9.49973 8.76727 9.61008C8.89136 9.72043 8.96793 9.87451 8.98095 10.0401C8.99397 10.2056 8.94243 10.3698 8.83713 10.4981L8.07427 11.357ZM2.57141 18.2141C2.57141 19.0666 2.91006 19.8842 3.51285 20.487C4.11565 21.0898 4.93322 21.4284 5.7857 21.4284H18.2143C19.0667 21.4284 19.8843 21.0898 20.4871 20.487C21.0899 19.8842 21.4286 19.0666 21.4286 18.2141V5.78557C21.4286 4.93309 21.0899 4.11553 20.4871 3.51273C19.8843 2.90994 19.0667 2.57129 18.2143 2.57129H5.7857C4.93322 2.57129 4.11565 2.90994 3.51285 3.51273C2.91006 4.11553 2.57141 4.93309 2.57141 5.78557V18.2141ZM3.85713 5.78557C3.85713 5.27409 4.06031 4.78355 4.42199 4.42187C4.78367 4.06019 5.27421 3.857 5.7857 3.857H6.42855V9.983L7.23598 9.07443C7.37046 8.92466 7.53294 8.80266 7.71427 8.71529V3.857H16.2857V8.71529C16.4623 8.79929 16.626 8.91929 16.764 9.07529L17.5714 9.98386V3.857H18.2143C18.7258 3.857 19.2163 4.06019 19.578 4.42187C19.9396 4.78355 20.1428 5.27409 20.1428 5.78557V18.2141C20.1428 18.7256 19.9396 19.2162 19.578 19.5779C19.2163 19.9395 18.7258 20.1427 18.2143 20.1427H17.5714V14.0167L16.764 14.9253C16.6295 15.0751 16.467 15.1971 16.2857 15.2844V20.1427H7.71427V15.2844C7.53287 15.1968 7.37038 15.0745 7.23598 14.9244L6.42855 14.0159V20.1427H5.7857C5.27421 20.1427 4.78367 19.9395 4.42199 19.5779C4.06031 19.2162 3.85713 18.7256 3.85713 18.2141V5.78557Z" fill="#25466A"/>
</svg>
