<svg width="27" height="27" viewBox="0 0 27 27" fill="none" xmlns="http://www.w3.org/2000/svg">
<path d="M19.6268 14.4097L19.6267 14.4097C19.553 14.4558 19.5296 14.494 19.5218 14.5252C19.5131 14.5599 19.5178 14.6087 19.5471 14.6877C20.0552 15.8129 20.8526 16.4111 21.5787 16.8559C21.7125 16.9379 21.846 17.0158 21.9753 17.0912C22.1927 17.2181 22.3982 17.338 22.5734 17.4587C22.8551 17.6527 23.0851 17.865 23.1883 18.1467M19.6268 14.4097L23.0946 18.1816M19.6268 14.4097L19.629 14.4083C19.7462 14.3306 19.8593 14.2575 19.9679 14.1873C20.2256 14.0207 20.4577 13.8707 20.6585 13.7162C20.9472 13.4941 21.1807 13.2563 21.352 12.931C21.6041 12.4611 21.6382 11.9109 21.4438 11.4073C21.1786 10.7049 20.5109 10.2599 19.7037 10.2599C19.5037 10.2599 19.3312 10.2883 19.2103 10.3124C19.2165 9.89248 19.2039 9.45578 19.1642 9.01864C19.0211 7.33544 18.4246 6.43864 17.8073 5.73321L17.8067 5.7325C17.4409 5.32235 15.9967 3.81406 13.2687 3.81406C10.5407 3.81406 9.09659 5.32235 8.73078 5.7325L8.73015 5.73321C8.11287 6.43868 7.5163 7.33555 7.37327 9.01893L7.37326 9.01893L7.37314 9.02059C7.34345 9.45605 7.33176 9.89106 7.32986 10.3092C7.20466 10.2833 7.03651 10.2599 6.83374 10.2599C6.0387 10.2599 5.35924 10.6929 5.09369 11.4075C4.89903 11.9007 4.93371 12.4618 5.18555 12.9312C5.48291 13.4875 5.94721 13.7867 6.56124 14.1824C6.67193 14.2537 6.78747 14.3281 6.90778 14.4078C6.98423 14.4605 7.00807 14.4994 7.01581 14.5297C7.02415 14.5624 7.01996 14.6079 6.99045 14.6875C6.47695 15.8129 5.67934 16.4112 4.95467 16.8559C4.82174 16.9375 4.68922 17.015 4.56087 17.0901C4.3433 17.2174 4.13772 17.3377 3.96244 17.4588C3.68149 17.6528 3.45222 17.8652 3.34913 18.1468C3.1712 18.6218 3.29452 19.1489 3.71779 19.5837C4.04258 19.9198 4.50146 20.1346 4.89731 20.2834C5.05998 20.3445 5.21473 20.3955 5.34662 20.4389C5.37585 20.4485 5.40396 20.4577 5.43079 20.4667C5.50536 20.4914 5.56923 20.5133 5.6211 20.5334C5.6706 20.5526 5.70361 20.5682 5.72314 20.5803C5.74923 20.6034 5.77376 20.6419 5.80323 20.7061C5.81714 20.7365 5.83091 20.7696 5.84644 20.8069L5.85035 20.8163C5.86724 20.8569 5.88591 20.9015 5.90745 20.9481C5.99481 21.1371 6.12905 21.3592 6.4076 21.5565L6.40894 21.5574C6.84783 21.8577 7.3314 21.8782 7.8165 21.889M19.6268 14.4097L20.8157 20.5795M23.1883 18.1467C23.1884 18.1469 23.1884 18.147 23.1885 18.1472L23.0946 18.1816M23.1883 18.1467C23.1883 18.1466 23.1882 18.1465 23.1882 18.1465L23.0946 18.1816M23.1883 18.1467C23.3663 18.6217 23.243 19.1489 22.8196 19.5838M23.0946 18.1816C23.2571 18.6149 23.1487 19.1024 22.7479 19.5141M22.8196 19.5838C22.8196 19.5837 22.8197 19.5836 22.8198 19.5835L22.7479 19.5141M22.8196 19.5838C22.4948 19.9199 22.036 20.1346 21.6402 20.2834C21.4775 20.3445 21.3228 20.3955 21.1909 20.4389C21.1616 20.4485 21.1335 20.4577 21.1067 20.4667C21.0321 20.4914 20.9683 20.5133 20.9164 20.5334C20.868 20.5522 20.8354 20.5674 20.8157 20.5795M22.8196 19.5838L22.7479 19.5141M22.7479 19.5141L20.8157 20.5795M20.8157 20.5795C20.8173 20.578 20.8189 20.5765 20.8204 20.5752L20.7546 20.4999L20.81 20.5831C20.8118 20.5819 20.8137 20.5807 20.8157 20.5795ZM20.8157 20.5795C20.792 20.6024 20.7692 20.6405 20.741 20.7046C20.7292 20.7315 20.7176 20.7602 20.7046 20.7921C20.7015 20.7998 20.6983 20.8076 20.695 20.8157C20.6784 20.8565 20.6598 20.9013 20.6382 20.9481C20.5504 21.138 20.4131 21.36 20.1291 21.5571L20.1285 21.5574C19.7065 21.8462 19.2417 21.8664 18.7793 21.8865C18.7603 21.8873 18.7413 21.8881 18.7224 21.889L18.7217 21.889C18.0166 21.9159 17.5939 21.9884 17.2831 22.0924C17.0025 22.1864 16.8092 22.3069 16.5725 22.4545C16.5474 22.4702 16.5218 22.4861 16.4956 22.5024L16.4955 22.5024C15.8092 22.9273 14.8577 23.5141 13.2687 23.5141C11.6798 23.5141 10.7283 22.9273 10.0419 22.5024L10.0419 22.5024C10.0157 22.4861 9.99009 22.4702 9.965 22.4545C9.72825 22.3069 9.53503 22.1864 9.2544 22.0924C8.94365 21.9884 8.52115 21.916 7.8165 21.889M7.8165 21.889C7.81679 21.889 7.81707 21.889 7.81736 21.889L7.81958 21.7891L7.81576 21.889C7.81601 21.889 7.81625 21.889 7.8165 21.889ZM8.64506 9.13326C8.76186 7.74228 9.24708 7.08986 9.68133 6.5919C9.97984 6.27217 11.1352 5.07617 13.2677 5.09741L13.2697 5.09739C15.4039 5.07616 16.5593 6.27416 16.8447 6.59123C17.2791 7.08929 17.7647 7.74166 17.8816 9.13326L17.8817 9.13395C17.9361 9.73329 17.9292 10.1694 17.9126 11.2104C17.9096 11.3996 17.9063 11.6088 17.9029 11.8426L17.9011 11.9735L18.0278 11.9409C18.3858 11.8489 18.6576 11.7781 18.8669 11.7235C19.1019 11.6623 19.258 11.6217 19.3687 11.5945C19.5735 11.5443 19.6112 11.5432 19.7037 11.5432C19.852 11.5432 20.133 11.5764 20.2384 11.8575L20.2384 11.8575L20.2396 11.8605C20.3043 12.0177 20.2938 12.1792 20.2138 12.3126L20.2138 12.3126L20.212 12.3159C20.2066 12.3256 20.2017 12.3347 20.197 12.3432C20.1741 12.3853 20.1586 12.4137 20.1349 12.4453C20.1073 12.4819 20.0667 12.5246 19.9884 12.5886C19.8295 12.7187 19.5311 12.9241 18.9124 13.3312C18.6202 13.5203 18.4036 13.7786 18.2993 14.0945C18.1949 14.4106 18.206 14.7754 18.3533 15.1722L18.3531 15.1723L18.356 15.1787C19.1425 16.9132 20.4259 17.669 21.2733 18.168C21.293 18.1797 21.3125 18.1912 21.3318 18.2025C21.3761 18.2291 21.4224 18.2565 21.4692 18.2842C21.5679 18.3426 21.6692 18.4025 21.7602 18.4598C21.827 18.5019 21.886 18.5412 21.9323 18.5759C21.9469 18.5869 21.9594 18.5968 21.9701 18.6056C21.9502 18.6321 21.9262 18.6624 21.904 18.6892C21.7225 18.8788 21.4066 19.0071 21.0488 19.1341C21.0042 19.1499 20.959 19.1657 20.9135 19.1816C20.6048 19.2895 20.2821 19.4022 20.0483 19.5614L20.0479 19.5608L20.0387 19.5688C19.7652 19.8082 19.6489 20.022 19.5753 20.1937C19.5588 20.2322 19.5458 20.2648 19.5342 20.294C19.5185 20.3335 19.5053 20.3668 19.4891 20.4001C19.464 20.4516 19.4404 20.4825 19.4089 20.504L19.4085 20.5043C19.358 20.5393 19.2799 20.5639 19.1553 20.5809C19.039 20.5968 18.8952 20.6048 18.7146 20.6148L18.6818 20.6166C18.6815 20.6166 18.6812 20.6167 18.6808 20.6167C17.9176 20.644 17.391 20.7287 16.9696 20.8608C16.5472 20.9933 16.2354 21.1718 15.9028 21.379C15.1367 21.8504 14.5432 22.0624 14.1113 22.1572C13.7386 22.239 13.4846 22.2344 13.3329 22.2316C13.309 22.2311 13.2876 22.2307 13.2687 22.2307C13.25 22.2307 13.2289 22.2311 13.2052 22.2315C13.0537 22.2343 12.7997 22.2389 12.4279 22.1559C11.9975 22.0598 11.4067 21.8453 10.646 21.3685L10.6458 21.3684C10.3129 21.161 10.0038 20.9851 9.58263 20.854C9.16253 20.7232 8.63592 20.6385 7.86716 20.6058L7.86569 20.6058C7.67079 20.6004 7.51626 20.5923 7.39405 20.5743C7.27086 20.5561 7.19144 20.5292 7.13983 20.4935L7.13938 20.4932C7.10748 20.4714 7.08313 20.4399 7.0572 20.3882C7.04017 20.3542 7.02594 20.3195 7.00899 20.2781C6.99742 20.2499 6.98458 20.2186 6.96871 20.1823C6.89401 20.0113 6.77811 19.7979 6.51038 19.5587L6.51105 19.5579L6.49921 19.55C6.26266 19.3923 5.94245 19.2801 5.63637 19.1729C5.58897 19.1563 5.5419 19.1398 5.49554 19.1233C5.13791 18.9959 4.82335 18.8671 4.64212 18.6761L4.64215 18.676L4.64029 18.6742C4.61531 18.6492 4.59112 18.6192 4.57035 18.5915C4.58059 18.5829 4.59246 18.5733 4.60607 18.5629C4.65234 18.5274 4.71133 18.4871 4.77786 18.4445C4.91077 18.3595 5.06853 18.2685 5.20344 18.193L5.20345 18.193L5.20538 18.1919C5.22475 18.1804 5.24437 18.1689 5.26423 18.1572C6.11156 17.6582 7.39503 16.9024 8.18149 15.1679L8.18171 15.168L8.18415 15.1614C8.33153 14.7646 8.34258 14.3998 8.23818 14.0836C8.13384 13.7677 7.91713 13.5093 7.62474 13.3201L7.624 13.3196C6.99978 12.9234 6.69906 12.7208 6.53926 12.5911C6.46062 12.5273 6.41987 12.4841 6.39223 12.447C6.36897 12.4158 6.35377 12.3878 6.33186 12.3474C6.32679 12.338 6.32136 12.328 6.31538 12.3171C6.27932 12.2467 6.25825 12.1696 6.25351 12.0907C6.24875 12.0113 6.26059 11.9319 6.28827 11.8573C6.39361 11.5768 6.68474 11.5432 6.82291 11.5432C6.91564 11.5432 6.95616 11.5444 7.16216 11.5946C7.28708 11.625 7.46895 11.6725 7.75408 11.747C7.94905 11.798 8.19231 11.8615 8.49867 11.9409L8.62561 11.9737L8.62373 11.8426C8.62039 11.6088 8.61706 11.3996 8.61405 11.2103C8.59746 10.1694 8.59052 9.73328 8.645 9.13395L8.64506 9.13326Z" fill="white" stroke="white" stroke-width="0.2"/>
</svg>
