<svg width="34" height="34" viewBox="0 0 34 34" fill="none" xmlns="http://www.w3.org/2000/svg">
<rect width="34" height="34" rx="17" fill="#F8F8F8"/>
<path d="M18.225 13.2748C18.3422 13.3918 18.501 13.4576 18.6666 13.4576C18.8323 13.4576 18.9911 13.3918 19.1083 13.2748L19.7083 12.6748V21.1664C19.7083 21.3322 19.7741 21.4912 19.8914 21.6084C20.0086 21.7256 20.1675 21.7914 20.3333 21.7914C20.4991 21.7914 20.658 21.7256 20.7752 21.6084C20.8925 21.4912 20.9583 21.3322 20.9583 21.1664V12.6748L21.5583 13.2748C21.6155 13.3362 21.6845 13.3854 21.7612 13.4196C21.8378 13.4538 21.9206 13.4721 22.0045 13.4736C22.0884 13.4751 22.1718 13.4596 22.2496 13.4282C22.3275 13.3968 22.3981 13.35 22.4575 13.2906C22.5168 13.2313 22.5636 13.1606 22.5951 13.0828C22.6265 13.005 22.6419 12.9216 22.6405 12.8377C22.639 12.7538 22.6206 12.671 22.5864 12.5943C22.5523 12.5177 22.503 12.4487 22.4416 12.3914L20.775 10.7248C20.6578 10.6077 20.4989 10.542 20.3333 10.542C20.1677 10.542 20.0088 10.6077 19.8916 10.7248L18.225 12.3914C18.1079 12.5086 18.0422 12.6675 18.0422 12.8331C18.0422 12.9987 18.1079 13.1576 18.225 13.2748ZM14.2916 21.3248L14.8916 20.7248C14.9489 20.6634 15.0179 20.6141 15.0945 20.58C15.1712 20.5458 15.2539 20.5274 15.3379 20.526C15.4218 20.5245 15.5051 20.5399 15.583 20.5713C15.6608 20.6028 15.7315 20.6496 15.7908 20.7089C15.8502 20.7683 15.897 20.839 15.9284 20.9168C15.9598 20.9946 15.9753 21.078 15.9738 21.1619C15.9723 21.2458 15.9539 21.3286 15.9198 21.4052C15.8856 21.4819 15.8364 21.5509 15.775 21.6081L14.1083 23.2748C13.9911 23.3918 13.8323 23.4576 13.6666 23.4576C13.501 23.4576 13.3422 23.3918 13.225 23.2748L11.5583 21.6081C11.4969 21.5509 11.4476 21.4819 11.4135 21.4052C11.3793 21.3286 11.361 21.2458 11.3595 21.1619C11.358 21.078 11.3734 20.9946 11.4049 20.9168C11.4363 20.839 11.4831 20.7683 11.5424 20.7089C11.6018 20.6496 11.6725 20.6028 11.7503 20.5713C11.8281 20.5399 11.9115 20.5245 11.9954 20.526C12.0793 20.5274 12.1621 20.5458 12.2387 20.58C12.3154 20.6141 12.3844 20.6634 12.4416 20.7248L13.0416 21.3248V12.8331C13.0416 12.6673 13.1075 12.5084 13.2247 12.3912C13.3419 12.274 13.5009 12.2081 13.6666 12.2081C13.8324 12.2081 13.9914 12.274 14.1086 12.3912C14.2258 12.5084 14.2916 12.6673 14.2916 12.8331V21.3248Z" fill="#25466A"/>
</svg>
