<svg width="22" height="23" viewBox="0 0 22 23" fill="none" xmlns="http://www.w3.org/2000/svg">
<path d="M7.4014 10.911H14.5985L13.8993 10.1237C13.8027 10.006 13.7555 9.85553 13.7674 9.70379C13.7794 9.55204 13.8495 9.4108 13.9633 9.30965C14.077 9.20849 14.2255 9.15528 14.3776 9.16115C14.5297 9.16702 14.6736 9.23152 14.7793 9.34114L16.3491 11.1066C16.4444 11.2128 16.4979 11.3499 16.4998 11.4925C16.5017 11.6351 16.4518 11.7735 16.3593 11.8821L16.3515 11.8916L14.78 13.6594C14.6763 13.7763 14.5303 13.8472 14.3743 13.8565C14.2182 13.8658 14.0649 13.8127 13.948 13.7089C13.8311 13.6051 13.7602 13.4592 13.7509 13.3031C13.7416 13.1471 13.7947 12.9938 13.8985 12.8768L14.5978 12.0896H7.4014L8.10069 12.8768C8.19722 12.9945 8.24447 13.145 8.23253 13.2968C8.22059 13.4485 8.1504 13.5898 8.03666 13.6909C7.92291 13.7921 7.77444 13.8453 7.62233 13.8394C7.47023 13.8335 7.3263 13.769 7.22069 13.6594L5.64926 11.8916C5.55349 11.7837 5.5006 11.6445 5.5006 11.5003C5.5006 11.3561 5.55349 11.2168 5.64926 11.109L7.22069 9.34114C7.3263 9.23152 7.47023 9.16702 7.62233 9.16115C7.77444 9.15528 7.92291 9.20849 8.03666 9.30965C8.1504 9.4108 8.22059 9.55204 8.23253 9.70379C8.24447 9.85553 8.19722 10.006 8.10069 10.1237L7.4014 10.911ZM2.35712 17.1967C2.35712 17.9781 2.66754 18.7276 3.22011 19.2801C3.77267 19.8327 4.5221 20.1431 5.30354 20.1431H16.6964C17.4778 20.1431 18.2273 19.8327 18.7798 19.2801C19.3324 18.7276 19.6428 17.9781 19.6428 17.1967V5.80385C19.6428 5.02241 19.3324 4.27297 18.7798 3.72041C18.2273 3.16785 17.4778 2.85742 16.6964 2.85742H5.30354C4.5221 2.85742 3.77267 3.16785 3.22011 3.72041C2.66754 4.27297 2.35712 5.02241 2.35712 5.80385V17.1967ZM3.53569 5.80385C3.53569 5.33499 3.72194 4.88532 4.05348 4.55379C4.38502 4.22225 4.83468 4.03599 5.30354 4.03599H5.89283V9.65149L6.63297 8.81863C6.75624 8.68135 6.90518 8.56951 7.0714 8.48942V4.03599H14.9285V8.48942C15.0904 8.56642 15.2405 8.67642 15.367 8.81942L16.1071 9.65228V4.03599H16.6964C17.1653 4.03599 17.6149 4.22225 17.9465 4.55379C18.278 4.88532 18.4643 5.33499 18.4643 5.80385V17.1967C18.4643 17.6656 18.278 18.1152 17.9465 18.4468C17.6149 18.7783 17.1653 18.9646 16.6964 18.9646H16.1071V13.3491L15.367 14.1819C15.2437 14.3192 15.0948 14.431 14.9285 14.5111V18.9646H7.0714V14.5111C6.90512 14.4308 6.75617 14.3187 6.63297 14.1811L5.89283 13.3483V18.9646H5.30354C4.83468 18.9646 4.38502 18.7783 4.05348 18.4468C3.72194 18.1152 3.53569 17.6656 3.53569 17.1967V5.80385Z" fill="#757575"/>
</svg>
