<svg width="27" height="27" viewBox="0 0 27 27" fill="none" xmlns="http://www.w3.org/2000/svg">
<path d="M18.2522 6.96906C17.5118 6.12355 17.1037 5.03791 17.1038 3.91406H13.7563V17.3474C13.7311 18.0745 13.4243 18.7634 12.9008 19.2687C12.3774 19.774 11.6781 20.0562 10.9505 20.0557C9.41218 20.0557 8.13385 18.7991 8.13385 17.2391C8.13385 15.3757 9.93218 13.9782 11.7847 14.5524V11.1291C8.04718 10.6307 4.77551 13.5341 4.77551 17.2391C4.77551 20.8466 7.76551 23.4141 10.9397 23.4141C14.3413 23.4141 17.1038 20.6516 17.1038 17.2391V10.4249C18.4613 11.3997 20.091 11.9228 21.7622 11.9199V8.5724C21.7622 8.5724 19.7255 8.6699 18.2522 6.96906Z" fill="white"/>
</svg>
