<svg width="18" height="19" viewBox="0 0 18 19" fill="none" xmlns="http://www.w3.org/2000/svg">
<path fill-rule="evenodd" clip-rule="evenodd" d="M12.7059 3.17447C12.7059 1.99071 11.79 1.0293 10.657 1.0293H7.35351C6.22269 1.0293 5.30469 1.99071 5.30469 3.17447V6.91847L7.44457 9.48824L5.30469 12.0802V15.8031C5.30469 16.9868 6.22163 17.9472 7.35351 17.9472H10.657C11.7889 17.9472 12.7059 16.9868 12.7059 15.8031V12.0146L10.4887 9.50095L12.7059 6.98518V3.17447ZM11.647 6.32341L9.52939 9.48824L11.647 12.6764V15.8528C11.647 16.4384 11.1737 16.9117 10.5882 16.9117H7.41175C6.82622 16.9117 6.35292 16.4384 6.35292 15.8528V12.6764L8.47057 9.48824L6.35292 6.34459V3.14694C6.35292 2.56141 6.82622 2.08812 7.41175 2.08812H10.5882C11.1737 2.08812 11.647 2.56141 11.647 3.14694V6.32341Z" fill="white"/>
<path fill-rule="evenodd" clip-rule="evenodd" d="M10.5882 15.8527H7.41174V13.7351L8.99998 11.6396L10.5882 13.7351V15.8527Z" fill="white"/>
<path fill-rule="evenodd" clip-rule="evenodd" d="M10.5882 5.26465L9.02221 7.36006L7.41174 5.26465H10.5882Z" fill="white"/>
</svg>
