<svg width="34" height="34" viewBox="0 0 34 34" fill="none" xmlns="http://www.w3.org/2000/svg">
<rect width="34" height="34" rx="17" fill="#F8F8F8"/>
<path d="M13.429 21.6667H20.571C20.7494 21.6664 20.9216 21.7284 21.0534 21.8407C21.1853 21.9529 21.2674 22.1072 21.2835 22.2731C21.2997 22.439 21.2487 22.6045 21.1406 22.7371C21.0325 22.8697 20.8751 22.9597 20.6995 22.9893L20.571 23H13.429C13.2506 23.0003 13.0784 22.9382 12.9466 22.826C12.8147 22.7137 12.7326 22.5595 12.7165 22.3936C12.7003 22.2277 12.7513 22.0621 12.8594 21.9296C12.9675 21.797 13.1249 21.707 13.3005 21.6773L13.429 21.6667ZM10.5723 16.3333H23.4277C23.6062 16.333 23.7783 16.3951 23.9102 16.5073C24.0421 16.6196 24.1242 16.7738 24.1403 16.9398C24.1564 17.1057 24.1054 17.2712 23.9973 17.4038C23.8892 17.5363 23.7319 17.6263 23.5563 17.656L23.4277 17.6667H10.5723C10.3938 17.667 10.2217 17.6049 10.0898 17.4927C9.9579 17.3804 9.87582 17.2262 9.85969 17.0602C9.84356 16.8943 9.89457 16.7288 10.0027 16.5962C10.1108 16.4637 10.2681 16.3737 10.4437 16.344L10.5723 16.3333ZM7.71551 11H26.2845C26.463 10.9997 26.6351 11.0618 26.767 11.174C26.8989 11.2863 26.981 11.4405 26.9971 11.6064C27.0132 11.7723 26.9622 11.9379 26.8541 12.0704C26.746 12.203 26.5887 12.293 26.413 12.3227L26.2845 12.3333H7.71551C7.53704 12.3336 7.36491 12.2716 7.23302 12.1593C7.10114 12.0471 7.01905 11.8928 7.00292 11.7269C6.9868 11.561 7.0378 11.3955 7.1459 11.2629C7.25399 11.1303 7.41134 11.0403 7.58695 11.0107L7.71551 11Z" fill="#25466A"/>
</svg>
