<svg width="40" height="40" viewBox="0 0 40 40" fill="none" xmlns="http://www.w3.org/2000/svg">
<g clip-path="url(#clip0_292_13606)">
<path fill-rule="evenodd" clip-rule="evenodd" d="M0 -3.33398H40V43.9993H0V-3.33398Z" fill="#E30A17"/>
<path fill-rule="evenodd" clip-rule="evenodd" d="M25.4375 20.8014C25.4375 24.9389 22.025 28.2951 17.8125 28.2951C13.6 28.2951 10.1875 24.9389 10.1875 20.7951C10.1875 16.6514 13.6 13.3076 17.8125 13.3076C22.025 13.3076 25.4375 16.6639 25.4375 20.8014Z" fill="white"/>
<path fill-rule="evenodd" clip-rule="evenodd" d="M25.8109 20.8014C25.8109 24.1139 23.0859 26.7951 19.7172 26.7951C16.3484 26.7951 13.6172 24.1076 13.6172 20.7951C13.6172 17.4826 16.3484 14.8076 19.7172 14.8076C23.0859 14.8076 25.8172 17.4889 25.8172 20.8014H25.8109Z" fill="#E30A17"/>
<path fill-rule="evenodd" clip-rule="evenodd" d="M26.9172 17.3021L26.8547 20.0709L24.2734 20.7709L26.8234 21.6771L26.7609 24.2209L28.4172 22.2334L30.9297 23.1084L29.4797 20.9771L31.2484 18.8584L28.5297 19.6084L26.9172 17.2959V17.3021Z" fill="white"/>
</g>
<defs>
<clipPath id="clip0_292_13606">
<rect width="40" height="40" rx="20" fill="white"/>
</clipPath>
</defs>
</svg>
