<svg width="40" height="40" viewBox="0 0 40 40" fill="none" xmlns="http://www.w3.org/2000/svg">
<g clip-path="url(#clip0_296_13712)">
<path d="M16.0778 4.25897C16.0899 4.25025 16.1018 4.24203 16.1139 4.2334C16.0954 4.2468 16.0749 4.26177 16.0539 4.27706C16.0618 4.27122 16.0696 4.26506 16.0778 4.25897Z" fill="#757575" stroke="white"/>
<path d="M0.0194511 17.7613C0.0194511 16.0722 0.286278 14.3857 0.810387 12.7799C1.33795 11.1635 2.12313 9.63573 3.11206 8.25351C4.14138 6.81487 5.3876 5.53502 6.77739 4.44223C8.15937 3.35578 9.68557 2.4563 11.3001 1.76165C12.9426 1.05492 14.6746 0.560491 16.4401 0.279852C18.2541 -0.00851569 20.1039 -0.0732278 21.9337 0.0820155C23.7298 0.234299 25.5079 0.601933 27.213 1.1873C28.8807 1.75984 30.4772 2.54067 31.9456 3.51735C33.4197 4.49774 34.7668 5.67423 35.9199 7.01838C37.0384 8.32225 37.9705 9.78662 38.6539 11.3638C39.3232 12.9088 39.7498 14.5564 39.9093 16.2328C39.9682 16.8538 39.9899 17.4774 39.9769 18.101L39.9751 18.1597L34.7013 19.894L29.8012 18.2767L24.9011 19.894L21.439 18.7513V31.8871H18.5611V18.7518L15.1011 19.8939L10.2008 18.2766L5.30019 19.8939L0.0234833 18.1507L0.0240555 18.101C0.0218353 17.9879 0.0194511 17.8748 0.0194511 17.7613ZM30.6167 6.79917C31.2567 7.61839 31.8206 8.48374 32.2935 9.41019C33.2204 11.2258 33.8223 13.2094 34.0805 15.2314C34.143 15.7202 34.1846 16.2094 34.2143 16.7011L34.2227 16.8444C34.2251 16.8914 34.2287 16.9429 34.229 16.9808L34.235 17.2265L34.236 17.2707L34.7013 17.4243L37.4565 16.5149C36.9393 10.9444 32.9889 6.20821 27.4604 3.92602C27.7934 4.1403 28.117 4.367 28.4302 4.60956C28.8257 4.9365 29.2181 5.26581 29.5782 5.6323C29.9432 6.00396 30.2958 6.38853 30.6167 6.79917ZM25.3175 17.287L29.653 15.856C29.6206 15.4791 29.5714 15.1045 29.5224 14.7297L29.4918 14.5168C29.3513 13.494 29.1047 12.471 28.7905 11.4884C28.4782 10.5117 28.082 9.57143 27.6149 8.65921C27.4843 8.40398 27.3399 8.15385 27.1903 7.90923C27.1939 7.9149 27.1912 7.91038 27.1734 7.88135C27.179 7.89056 27.1846 7.90002 27.1903 7.90923C27.1827 7.89739 27.1475 7.84098 27.156 7.85397C27.0001 7.60671 26.844 7.36077 26.6818 7.1173C26.5784 6.97448 26.4753 6.8314 26.3721 6.68841C26.3003 6.59739 26.2291 6.5071 26.1585 6.41772C25.9268 6.10427 25.6553 5.81015 25.3851 5.52984C25.1159 5.25068 24.8318 4.98616 24.5347 4.73701C23.9621 4.25706 23.3422 3.83664 22.6824 3.48619C24.219 6.27884 25.264 11.3971 25.3175 17.287ZM14.6835 17.2866C14.737 11.3969 15.782 6.27876 17.3186 3.48619C16.9392 3.68772 16.5312 3.93366 16.1139 4.23354C16.1967 4.17327 16.2359 4.14449 16.0779 4.25911C15.7478 4.49954 15.9117 4.38065 16.0538 4.27729C15.6635 4.56311 15.2912 4.87302 14.941 5.20677C14.7473 5.39145 14.5602 5.58321 14.3809 5.78178C14.1956 5.98661 14.0069 6.19563 13.8426 6.41772C13.7721 6.5071 13.7007 6.59739 13.6289 6.68841C13.5257 6.8314 13.4226 6.97448 13.3192 7.1173C12.7552 7.96382 12.2337 8.84759 11.8462 9.79089C11.6508 10.2667 11.4611 10.7413 11.2961 11.2288C11.1319 11.7136 10.9913 12.2065 10.8698 12.7037C10.724 13.3008 10.5929 13.9077 10.5092 14.5169L10.4786 14.7297C10.4296 15.1046 10.3804 15.4789 10.348 15.8558L14.6835 17.2866ZM5.30027 17.4244L5.76502 17.271L5.76601 17.2266L5.77201 16.9809C5.77225 16.9429 5.77587 16.8915 5.77842 16.8444L5.78673 16.7012C5.91163 14.6335 6.33403 12.5932 7.12332 10.6738C7.90463 8.77392 9.03212 7.01954 10.4882 5.56668C10.8298 5.22577 11.1992 4.91701 11.5709 4.60973C11.8841 4.36716 12.2079 4.14046 12.5408 3.92618C7.01215 6.20846 3.06182 10.9444 2.5447 16.515L5.30027 17.4244Z" fill="#757575"/>
<path d="M27.1903 7.90923C27.3399 8.15385 27.4843 8.40398 27.6149 8.65921C28.082 9.57143 28.4782 10.5117 28.7905 11.4884C29.1047 12.471 29.3513 13.494 29.4918 14.5168L29.5224 14.7297C29.5714 15.1045 29.6206 15.4791 29.653 15.856L25.3175 17.287C25.264 11.3971 24.219 6.27884 22.6824 3.48619C23.3422 3.83664 23.9621 4.25706 24.5347 4.73701C24.8318 4.98616 25.1159 5.25068 25.3851 5.52984C25.6553 5.81015 25.9268 6.10427 26.1585 6.41772C26.2291 6.5071 26.3003 6.59739 26.3721 6.68841C26.4753 6.8314 26.5784 6.97448 26.6818 7.1173C26.844 7.36078 27.0001 7.60671 27.156 7.85397C27.1475 7.84098 27.1827 7.89738 27.1903 7.90923ZM27.1903 7.90923C27.1939 7.9149 27.1912 7.91038 27.1734 7.88135C27.179 7.89056 27.1846 7.90002 27.1903 7.90923ZM0.0194513 17.7613C0.0194513 16.0722 0.286277 14.3857 0.810388 12.7799C1.33795 11.1635 2.12313 9.63573 3.11207 8.25351C4.14138 6.81487 5.3876 5.53502 6.77739 4.44223C8.15937 3.35578 9.68557 2.4563 11.3001 1.76165C12.9426 1.05492 14.6746 0.560491 16.4401 0.279852C18.2541 -0.00851569 20.1039 -0.0732278 21.9337 0.0820155C23.7298 0.234299 25.5079 0.601933 27.213 1.1873C28.8807 1.75984 30.4772 2.54067 31.9456 3.51735C33.4197 4.49774 34.7668 5.67423 35.9199 7.01838C37.0384 8.32225 37.9705 9.78662 38.6539 11.3638C39.3232 12.9088 39.7498 14.5564 39.9093 16.2328C39.9682 16.8538 39.9899 17.4774 39.9769 18.101L39.9751 18.1597L34.7013 19.894L29.8012 18.2767L24.9011 19.894L21.439 18.7513V31.8871H18.5611V18.7518L15.1011 19.8939L10.2008 18.2766L5.30019 19.8939L0.0234827 18.1507L0.0240564 18.101C0.0218363 17.9879 0.0194513 17.8748 0.0194513 17.7613ZM30.6167 6.79917C31.2567 7.61839 31.8206 8.48374 32.2935 9.41019C33.2204 11.2258 33.8223 13.2094 34.0805 15.2314C34.143 15.7202 34.1846 16.2094 34.2143 16.7011L34.2227 16.8444C34.2251 16.8914 34.2287 16.9429 34.229 16.9808L34.235 17.2265L34.236 17.2707L34.7013 17.4243L37.4565 16.5149C36.9393 10.9444 32.9889 6.20821 27.4604 3.92602C27.7934 4.1403 28.117 4.367 28.4302 4.60956C28.8257 4.9365 29.2181 5.26581 29.5782 5.63229C29.9432 6.00396 30.2958 6.38853 30.6167 6.79917ZM14.6835 17.2866C14.737 11.3969 15.782 6.27876 17.3186 3.48619C16.9392 3.68772 16.5312 3.93366 16.1139 4.23354C16.1967 4.17327 16.2359 4.14449 16.0778 4.25911C15.7478 4.49954 15.9117 4.38065 16.0538 4.27729C15.6635 4.56311 15.2912 4.87302 14.941 5.20677C14.7473 5.39145 14.5602 5.58321 14.3809 5.78178C14.1956 5.98661 14.0069 6.19563 13.8426 6.41772C13.7721 6.5071 13.7007 6.59739 13.6289 6.68841C13.5257 6.8314 13.4226 6.97448 13.3192 7.1173C12.7552 7.96382 12.2337 8.84759 11.8462 9.79089C11.6508 10.2667 11.4611 10.7413 11.2961 11.2288C11.1319 11.7136 10.9913 12.2065 10.8698 12.7037C10.724 13.3008 10.5929 13.9077 10.5092 14.5169L10.4786 14.7297C10.4296 15.1046 10.3804 15.4789 10.348 15.8558L14.6835 17.2866ZM5.30027 17.4244L5.76502 17.271L5.76601 17.2266L5.77201 16.9809C5.77226 16.9429 5.77587 16.8915 5.77842 16.8444L5.78673 16.7012C5.91163 14.6335 6.33403 12.5932 7.12332 10.6738C7.90463 8.77392 9.03212 7.01954 10.4882 5.56668C10.8298 5.22577 11.1992 4.91701 11.5709 4.60973C11.8841 4.36716 12.2079 4.14046 12.5408 3.92618C7.01214 6.20846 3.06183 10.9444 2.5447 16.515L5.30027 17.4244Z" stroke="white"/>
<path d="M10.4432 34.2507H36.4409L38.7328 36.5426V40.0003H35.4437V37.5397H12.1856V40.0003H8.89653V37.3553L1.26716 29.7261L3.59277 27.4004L10.4432 34.2507Z" fill="#757575" stroke="white"/>
</g>
<defs>
<clipPath id="clip0_296_13712">
<rect width="40" height="40" fill="white" transform="matrix(-1 0 0 1 40 0)"/>
</clipPath>
</defs>
</svg>
