<svg width="22" height="23" viewBox="0 0 22 23" fill="none" xmlns="http://www.w3.org/2000/svg">
<path d="M4.52211 7.92461C4.52211 7.2682 4.78287 6.63867 5.24702 6.17452C5.71117 5.71037 6.3407 5.44961 6.99711 5.44961C7.65352 5.44961 8.28304 5.71037 8.7472 6.17452C9.21135 6.63867 9.47211 7.2682 9.47211 7.92461C9.47211 8.58102 9.21135 9.21055 8.7472 9.6747C8.28304 10.1389 7.65352 10.3996 6.99711 10.3996C6.3407 10.3996 5.71117 10.1389 5.24702 9.6747C4.78287 9.21055 4.52211 8.58102 4.52211 7.92461ZM6.99711 4.34961C6.04896 4.34961 5.13964 4.72626 4.4692 5.3967C3.79876 6.06715 3.42211 6.97646 3.42211 7.92461C3.42211 8.87276 3.79876 9.78207 4.4692 10.4525C5.13964 11.123 6.04896 11.4996 6.99711 11.4996C7.94526 11.4996 8.85457 11.123 9.52501 10.4525C10.1955 9.78207 10.5721 8.87276 10.5721 7.92461C10.5721 6.97646 10.1955 6.06715 9.52501 5.3967C8.85457 4.72626 7.94526 4.34961 6.99711 4.34961ZM13.2528 17.1591C13.8446 17.4011 14.5893 17.5496 15.5221 17.5496C17.5912 17.5496 18.7352 16.8148 19.338 15.9722C19.6532 15.5304 19.8504 15.0155 19.9111 14.4762C19.9165 14.4261 19.9202 14.3759 19.9221 14.3255V14.2496C19.9221 14.0329 19.8794 13.8184 19.7965 13.6182C19.7136 13.418 19.592 13.2361 19.4388 13.0829C19.2856 12.9297 19.1037 12.8081 18.9035 12.7252C18.7033 12.6423 18.4888 12.5996 18.2721 12.5996H13.1791C13.4431 12.9186 13.6411 13.2915 13.7566 13.6996H18.2721C18.418 13.6996 18.5579 13.7576 18.661 13.8607C18.7642 13.9638 18.8221 14.1037 18.8221 14.2496V14.309L18.8166 14.364C18.7753 14.713 18.6467 15.0459 18.4426 15.332C18.0829 15.8369 17.3019 16.4496 15.5221 16.4496C14.7169 16.4496 14.1163 16.3242 13.6664 16.1405C13.5762 16.4485 13.4453 16.7961 13.2528 17.1591ZM1.22211 14.7996C1.22211 14.2161 1.45389 13.6566 1.86647 13.244C2.27905 12.8314 2.83863 12.5996 3.42211 12.5996H10.5721C11.1556 12.5996 11.7152 12.8314 12.1277 13.244C12.5403 13.6566 12.7721 14.2161 12.7721 14.7996V14.892L12.7699 14.936L12.7589 15.0845C12.6809 15.7974 12.4277 16.4799 12.0219 17.0711C11.2508 18.1876 9.76141 19.1996 6.99711 19.1996C4.23281 19.1996 2.74341 18.1876 1.97231 17.0722C1.5663 16.4807 1.31309 15.7978 1.23531 15.0845C1.22903 15.0205 1.22463 14.9563 1.22211 14.892V14.7996ZM2.32211 14.8656V14.8854L2.32981 14.9767C2.3895 15.504 2.57759 16.0086 2.87761 16.4463C3.41331 17.2207 4.53641 18.0996 6.99711 18.0996C9.45781 18.0996 10.5809 17.2207 11.1166 16.4463C11.4166 16.0086 11.6047 15.504 11.6644 14.9767C11.6688 14.9349 11.671 14.9045 11.671 14.8854L11.6721 14.8667V14.7996C11.6721 14.5079 11.5562 14.2281 11.3499 14.0218C11.1436 13.8155 10.8638 13.6996 10.5721 13.6996H3.42211C3.13037 13.6996 2.85058 13.8155 2.64429 14.0218C2.438 14.2281 2.32211 14.5079 2.32211 14.7996V14.8656ZM13.8721 8.74961C13.8721 8.312 14.0459 7.89232 14.3554 7.58288C14.6648 7.27345 15.0845 7.09961 15.5221 7.09961C15.9597 7.09961 16.3794 7.27345 16.6888 7.58288C16.9983 7.89232 17.1721 8.312 17.1721 8.74961C17.1721 9.18722 16.9983 9.6069 16.6888 9.91634C16.3794 10.2258 15.9597 10.3996 15.5221 10.3996C15.0845 10.3996 14.6648 10.2258 14.3554 9.91634C14.0459 9.6069 13.8721 9.18722 13.8721 8.74961ZM15.5221 5.99961C14.7928 5.99961 14.0933 6.28934 13.5776 6.80507C13.0618 7.32079 12.7721 8.02026 12.7721 8.74961C12.7721 9.47896 13.0618 10.1784 13.5776 10.6942C14.0933 11.2099 14.7928 11.4996 15.5221 11.4996C16.2515 11.4996 16.9509 11.2099 17.4667 10.6942C17.9824 10.1784 18.2721 9.47896 18.2721 8.74961C18.2721 8.02026 17.9824 7.32079 17.4667 6.80507C16.9509 6.28934 16.2515 5.99961 15.5221 5.99961Z" fill="#757575" stroke="#757575" stroke-width="0.3"/>
</svg>
