<svg width="40" height="18" viewBox="0 0 40 18" fill="none" xmlns="http://www.w3.org/2000/svg">
<path d="M15.187 0.228116L9.9502 12.7211H6.53377L3.95668 2.75052C3.80043 2.13789 3.66466 1.91243 3.18921 1.65337C2.41205 1.2312 1.12866 0.836374 0.000579834 0.590759L0.0766707 0.228116H5.57709C6.27706 0.228116 6.90735 0.694192 7.06765 1.50119L8.42932 8.73107L11.7911 0.228116H15.187ZM19.8056 0.228116L17.1334 12.7211H13.901L16.5735 0.228116H19.8056ZM28.5734 8.64217C28.5868 5.34558 24.0151 5.16262 24.045 3.6897C24.0559 3.24191 24.4825 2.76521 25.4162 2.64334C25.8786 2.5835 27.1564 2.53584 28.6037 3.20269L29.1699 0.551854C28.3923 0.270615 27.3916 0 26.1468 0C22.9516 0 20.704 1.69712 20.686 4.12922C20.6651 5.92821 22.2914 6.93083 23.5145 7.53003C24.7743 8.14188 25.1968 8.53514 25.191 9.082C25.182 9.92025 24.1848 10.2913 23.2578 10.3051C21.6322 10.3309 20.6899 9.86572 19.9383 9.51557L19.3516 12.2542C20.1078 12.6008 21.5015 12.9019 22.945 12.9172C26.3418 12.9172 28.5634 11.2394 28.5734 8.64217ZM37.0106 12.7212H39.999L37.3882 0.228116H34.631C34.0091 0.228116 33.4865 0.58904 33.2546 1.14386L28.4048 12.7211H31.7989L32.4721 10.8549H36.6189L37.0106 12.7212ZM33.4029 8.295L35.1047 3.60346L36.0823 8.295H33.4029Z" fill="#1A1F71"/>
</svg>
