<svg width="54" height="54" viewBox="0 0 54 54" fill="none" xmlns="http://www.w3.org/2000/svg">
<rect y="0.271484" width="53.5583" height="53.6667" rx="26.7792" fill="#4CAF50" fill-opacity="0.2"/>
<path d="M26.8225 16.2715C20.9075 16.2715 16.0867 21.0924 16.0867 27.0074C16.0867 28.9032 16.585 30.7449 17.5167 32.3699L16 37.9382L21.6875 36.4432C23.2583 37.299 25.0242 37.754 26.8225 37.754C32.7375 37.754 37.5583 32.9332 37.5583 27.0182C37.5583 24.1474 36.4425 21.4499 34.4167 19.424C33.4233 18.421 32.2403 17.6257 30.9365 17.0844C29.6327 16.5432 28.2342 16.2669 26.8225 16.2715ZM26.8333 18.0807C29.2167 18.0807 31.4483 19.0124 33.1383 20.7024C33.9675 21.5317 34.6249 22.5164 35.0729 23.6002C35.5209 24.684 35.7507 25.8455 35.7492 27.0182C35.7492 31.9365 31.7408 35.934 26.8225 35.934C25.2192 35.934 23.6483 35.5115 22.2833 34.6882L21.9583 34.504L18.5783 35.3924L19.4775 32.099L19.2608 31.7524C18.3666 30.3315 17.8933 28.6863 17.8958 27.0074C17.9067 22.089 21.9042 18.0807 26.8333 18.0807ZM23.02 22.0457C22.8467 22.0457 22.5542 22.1107 22.305 22.3815C22.0667 22.6524 21.3625 23.3132 21.3625 24.624C21.3625 25.9457 22.3267 27.2132 22.4458 27.3974C22.5975 27.5815 24.3525 30.2899 27.05 31.4382C27.6892 31.7307 28.1875 31.8932 28.5775 32.0124C29.2167 32.2182 29.8017 32.1857 30.2675 32.1207C30.7875 32.0449 31.8492 31.4707 32.0767 30.8424C32.3042 30.214 32.3042 29.6832 32.2392 29.564C32.1633 29.4557 31.99 29.3907 31.7192 29.2715C31.4483 29.1199 30.1267 28.4699 29.8883 28.3832C29.6392 28.2965 29.4875 28.2532 29.2817 28.5132C29.1083 28.784 28.5883 29.3907 28.4367 29.564C28.2742 29.7482 28.1225 29.7699 27.8625 29.6399C27.5808 29.499 26.7142 29.2174 25.6958 28.3074C24.8942 27.5924 24.3633 26.7149 24.2008 26.444C24.0708 26.184 24.19 26.0215 24.32 25.9024C24.4392 25.7832 24.6125 25.5882 24.7208 25.4257C24.8617 25.274 24.905 25.1549 24.9917 24.9815C25.0783 24.7974 25.035 24.6457 24.97 24.5157C24.905 24.3965 24.3633 23.0532 24.1358 22.5224C23.9192 22.0024 23.7025 22.0674 23.5292 22.0565C23.3775 22.0565 23.2042 22.0457 23.02 22.0457Z" fill="#25466A"/>
</svg>
