<svg width="39" height="38" viewBox="0 0 39 38" fill="none" xmlns="http://www.w3.org/2000/svg">
<g opacity="0.9">
<rect width="39.0002" height="38.0002" rx="19.0001" fill="white"/>
<path fill-rule="evenodd" clip-rule="evenodd" d="M15.2473 10.147C16.2786 9.71986 17.3839 9.5 18.5002 9.5C19.6165 9.5 20.7218 9.71986 21.7531 10.147C22.7844 10.5742 23.7214 11.2003 24.5108 11.9897C25.3001 12.779 25.9262 13.716 26.3534 14.7473C26.7805 15.7786 27.0004 16.8839 27.0004 18.0002C27.0004 19.1165 26.7805 20.2218 26.3534 21.2531C25.9901 22.1301 25.4829 22.939 24.8539 23.6468L28.8538 27.6467C29.049 27.8419 29.049 28.1585 28.8538 28.3538C28.6585 28.549 28.3419 28.549 28.1467 28.3538L24.1468 24.3539C22.5954 25.7328 20.5874 26.5004 18.5002 26.5004C16.2458 26.5004 14.0837 25.6049 12.4897 24.0108C10.8956 22.4167 10 20.2546 10 18.0002C10 15.7458 10.8956 13.5838 12.4897 11.9897C13.279 11.2003 14.216 10.5742 15.2473 10.147ZM18.5002 10.5C17.5153 10.5 16.54 10.694 15.63 11.0709C14.72 11.4478 13.8932 12.0003 13.1968 12.6968C11.7902 14.1033 11 16.011 11 18.0002C11 19.9894 11.7902 21.8971 13.1968 23.3037C14.6033 24.7102 16.511 25.5004 18.5002 25.5004C20.4894 25.5004 22.3971 24.7102 23.8037 23.3037C24.5001 22.6072 25.0526 21.7804 25.4295 20.8704C25.8064 19.9604 26.0004 18.9851 26.0004 18.0002C26.0004 17.0153 25.8064 16.04 25.4295 15.13C25.0526 14.22 24.5001 13.3932 23.8037 12.6968C23.1072 12.0003 22.2804 11.4478 21.3704 11.0709C20.4604 10.694 19.4851 10.5 18.5002 10.5ZM18.5002 14.5002C18.7763 14.5002 19.0002 14.7241 19.0002 15.0002V17.5002H21.5002C21.7763 17.5002 22.0002 17.7241 22.0002 18.0002C22.0002 18.2763 21.7763 18.5002 21.5002 18.5002H19.0002V21.0002C19.0002 21.2763 18.7763 21.5002 18.5002 21.5002C18.2241 21.5002 18.0002 21.2763 18.0002 21.0002V18.5002H15.5002C15.2241 18.5002 15.0002 18.2763 15.0002 18.0002C15.0002 17.7241 15.2241 17.5002 15.5002 17.5002H18.0002V15.0002C18.0002 14.7241 18.2241 14.5002 18.5002 14.5002Z" fill="#25466A"/>
</g>
</svg>
