<svg width="238" height="59" viewBox="0 0 238 59" fill="none" xmlns="http://www.w3.org/2000/svg">
<path d="M43.8036 12.667C43.6336 12.3694 43.4636 12.0719 43.2794 11.7885C39.3262 5.46902 32.4258 0.906539 23.5417 0.835693C20.2969 0.977385 17.208 1.64334 14.4025 2.79104C14.36 2.80521 14.3175 2.81938 14.2892 2.83355C13.6657 3.0886 13.0565 3.37198 12.4614 3.6837C12.3055 3.76872 12.1496 3.85373 11.9938 3.93875C7.74302 6.2625 4.35658 9.81897 2.33038 14.3956C2.20286 14.6648 2.08951 14.9482 1.97615 15.2316C1.4944 16.4643 1.09766 17.7679 0.814277 19.1423C0.5734 20.2192 0.389202 21.2677 0.275849 22.302C0.24751 22.5146 0.233342 22.7129 0.219173 22.9255C0.0208041 25.3342 0.176663 27.6297 0.672585 29.7975C0.743431 30.1376 0.842618 30.4777 0.927633 30.8036C2.24537 35.4794 5.19256 39.5885 9.62752 43.0883C13.7933 46.3755 17.3356 50.1587 20.0561 54.7212C20.467 55.4155 20.8779 56.1239 21.3171 56.804C22.5073 58.6035 24.6327 58.6177 25.8371 56.8465C26.163 56.379 26.4464 55.883 26.7297 55.3871C29.4927 50.3004 33.3043 46.2055 37.9376 42.734C48.1819 34.8985 49.1454 22.0612 43.8036 12.667ZM37.7251 27.4738C37.6967 27.6297 37.6542 27.7855 37.6117 27.9414C29.3936 15.7134 20.1127 21.1827 20.1127 21.1827C25.6387 22.0328 26.4322 32.603 18.625 35.5219C16.5988 36.2729 14.3034 35.7203 12.8439 34.1333C12.8298 34.1191 12.8298 34.1191 12.8156 34.105C12.2772 33.5099 11.7812 32.8723 11.3562 32.2063C9.89674 29.9392 9.06075 27.2471 9.08909 24.3566C9.11743 23.719 9.18828 23.1097 9.27329 22.5146C9.27329 22.4721 9.28746 22.4437 9.28746 22.4012C10.0809 17.272 12.9289 13.7438 16.5279 11.8168C16.5846 11.7885 16.6554 11.746 16.7121 11.7176C25.1003 7.4102 37.4417 11.661 38.0084 24.4699C38.0368 25.4901 37.9376 26.4961 37.7251 27.4738Z" fill="white"/>
<path d="M17.4064 12.8228C17.3497 12.8511 17.293 12.8795 17.2363 12.9078C13.9916 14.6364 11.427 17.8245 10.7043 22.4578C10.7043 22.4862 10.6902 22.5287 10.6902 22.557C10.6052 23.0955 10.5485 23.6481 10.5201 24.229C10.5201 24.8099 10.5485 25.3625 10.6193 25.9293C10.6193 25.8443 10.6193 25.7451 10.6193 25.6601C10.6477 25.065 10.7043 24.4699 10.7893 23.9173C10.7893 23.8889 10.8035 23.8464 10.8035 23.8181C11.5545 18.9722 14.2466 15.6425 17.6472 13.8288C17.7039 13.8005 17.7606 13.7721 17.8173 13.7296C22.4789 11.335 28.4442 11.7459 32.6666 14.9623C28.6425 11.0091 22.2806 10.3148 17.4064 12.8228Z" fill="white"/>
<path d="M22.2523 23.2798C20.0419 20.4176 16.4996 22.4013 17.5197 23.5773C18.8233 25.1218 19.6168 21.9621 22.2523 23.2798Z" fill="white"/>
<path d="M167.121 16.2544C164.145 16.2544 163.23 16.8839 163.23 17.6661C163.23 18.5628 164.183 19.0207 166.95 19.5358C173.245 20.7186 175.649 22.4356 175.649 25.6598C175.649 29.4944 172.692 31.7265 166.778 31.7265C163.878 31.7265 160.826 31.3832 157.964 30.6582V26.2703C160.406 26.9571 163.554 27.4722 166.664 27.4722C169.621 27.4722 170.193 26.8045 170.193 25.9841C170.193 25.0874 169.239 24.6296 166.377 24.1526C160.158 23.0652 157.792 21.1192 157.792 17.876C157.792 14.1176 161.093 12 166.95 12C169.582 12 171.815 12.3434 174.485 13.0684V17.4563C171.547 16.6359 169.43 16.2544 167.121 16.2544Z" fill="white"/>
<path d="M195.91 18.5821C195.91 23.1035 193.621 25.2212 188.928 25.2212H182.937V31.4597H177.9V12.2864H188.928C193.621 12.2864 195.91 14.3659 195.91 18.5821ZM188.107 21.2148C189.71 21.2148 190.568 20.4136 190.568 18.5821C190.568 17.0559 189.71 16.2927 188.107 16.2927H182.956V21.2148H188.107Z" fill="white"/>
<path d="M207.967 31.7265C201.061 31.7265 197.627 28.7694 197.627 21.9586C197.627 14.9761 201.061 12.019 207.967 12.019C214.873 12.019 218.269 14.9761 218.269 21.9586C218.269 28.7694 214.873 31.7265 207.967 31.7265ZM202.835 21.8632C202.835 25.7551 204.381 27.4721 207.967 27.4721C211.516 27.4721 213.061 25.7551 213.061 21.8632C213.061 17.9713 211.516 16.2543 207.967 16.2543C204.4 16.2543 202.835 17.9713 202.835 21.8632Z" fill="white"/>
<path d="M237.404 16.2927H230.727V31.4597H225.691V16.2927H219.013V12.2864H237.385V16.2927H237.404Z" fill="white"/>
<path d="M65.9322 38.27L68.7939 42.906L71.6556 38.27H72.743L69.2708 43.8217V46.6071H68.3551V43.8217L64.8638 38.27H65.9322Z" fill="white"/>
<path d="M77.5315 46.7217C74.8988 46.7217 73.5633 45.2718 73.5633 42.4292C73.5633 39.6248 74.8797 38.1558 77.5315 38.1558C80.1643 38.1558 81.4997 39.6057 81.4997 42.4292C81.4997 45.2527 80.1643 46.7217 77.5315 46.7217ZM74.5172 42.4292C74.5172 44.7186 75.4902 45.8823 77.5315 45.8823C79.5538 45.8823 80.5459 44.7186 80.5459 42.4292C80.5459 40.1399 79.5538 38.9761 77.5315 38.9761C75.4902 38.9761 74.5172 40.1399 74.5172 42.4292Z" fill="white"/>
<path d="M83.7509 38.27V43.402C83.7509 45.2525 84.8956 45.8821 86.2501 45.8821C87.5856 45.8821 88.7493 45.2525 88.7493 43.402V38.27H89.6841V43.3447C89.6841 45.5578 88.3105 46.7406 86.2692 46.7406C84.2279 46.7406 82.8542 45.5769 82.8542 43.3447V38.27H83.7509Z" fill="white"/>
<path d="M97.8686 40.8456C97.8686 42.2383 97.239 43.0968 95.9799 43.3639L98.1166 46.588H96.991L94.9497 43.4592H92.2406V46.588H91.3058V38.251H95.0451C96.9147 38.2701 97.8686 39.0713 97.8686 40.8456ZM95.0069 42.6771C96.2851 42.6771 96.8956 42.0093 96.8956 40.8647C96.8956 39.6246 96.2851 39.0904 95.0069 39.0904H92.2215V42.6961H95.0069V42.6771Z" fill="white"/>
<path d="M103.21 38.27V43.402C103.21 45.2525 104.355 45.8821 105.71 45.8821C107.045 45.8821 108.209 45.2525 108.209 43.402V38.27H109.144V43.3447C109.144 45.5578 107.77 46.7406 105.729 46.7406C103.687 46.7406 102.314 45.5769 102.314 43.3447V38.27H103.21Z" fill="white"/>
<path d="M113.837 38.1558C114.485 38.1558 114.772 38.4992 114.981 39.0715L117.824 46.6073H116.794L116.05 44.6232H111.624L110.88 46.6073H109.85L112.692 39.0715C112.902 38.4992 113.188 38.1558 113.837 38.1558ZM115.764 43.8219L114.161 39.5294C114.066 39.2623 113.97 39.1669 113.837 39.1669C113.722 39.1669 113.627 39.2432 113.512 39.5484L111.91 43.8219H115.764Z" fill="white"/>
<path d="M124.711 38.27V39.0713H119.675V42.0284H124.501V42.8296H119.675V44.5657C119.675 45.3098 120.113 45.8058 120.819 45.8058H124.73V46.6071H120.609C119.503 46.6071 118.74 45.8439 118.74 44.6993V38.27H124.711Z" fill="white"/>
<path d="M132.667 38.1558C133.315 38.1558 133.601 38.4992 133.811 39.0715L136.654 46.6073H135.624L134.88 44.6232H130.454L129.71 46.6073H128.679L131.522 39.0715C131.732 38.4992 132.018 38.1558 132.667 38.1558ZM134.574 43.8219L132.972 39.5294C132.876 39.2623 132.781 39.1669 132.648 39.1669C132.533 39.1669 132.438 39.2432 132.323 39.5484L130.721 43.8219H134.574Z" fill="white"/>
<path d="M145.029 42.429C145.029 45.2144 143.713 46.6071 141.061 46.6071H137.799V38.27H141.061C143.713 38.27 145.029 39.6436 145.029 42.429ZM141.023 45.7867C143.045 45.7867 144.094 44.642 144.094 42.429C144.094 40.1969 143.064 39.0713 141.023 39.0713H138.734V45.7867H141.023Z" fill="white"/>
<path d="M146.67 38.27L149.303 45.3098C149.417 45.5959 149.493 45.6723 149.627 45.6723C149.76 45.6723 149.837 45.5959 149.951 45.3098L152.584 38.27H153.614L150.772 45.8058C150.562 46.3591 150.276 46.7215 149.627 46.7215C148.997 46.7215 148.692 46.3781 148.482 45.8058L145.64 38.27H146.67Z" fill="white"/>
<path d="M160.73 38.27V39.0713H155.694V42.0284H160.52V42.8296H155.694V44.5657C155.694 45.3098 156.132 45.8058 156.838 45.8058H160.749V46.6071H156.628C155.522 46.6071 154.759 45.8439 154.759 44.6993V38.27H160.73Z" fill="white"/>
<path d="M163.134 38.27L168.228 45.1572V38.27H169.125V46.6071H168.228L163.134 39.7199V46.6071H162.238V38.27H163.134Z" fill="white"/>
<path d="M177.328 39.0713H174.333V46.6071H173.417V39.0713H170.422V38.27H177.328V39.0713Z" fill="white"/>
<path d="M179.541 38.27V43.402C179.541 45.2525 180.686 45.8821 182.04 45.8821C183.376 45.8821 184.539 45.2525 184.539 43.402V38.27H185.474V43.3447C185.474 45.5578 184.101 46.7406 182.059 46.7406C180.018 46.7406 178.644 45.5769 178.644 43.3447V38.27H179.541Z" fill="white"/>
<path d="M193.659 40.8456C193.659 42.2383 193.029 43.0968 191.77 43.3639L193.907 46.588H192.781L190.74 43.4592H188.031V46.588H187.096V38.251H190.835C192.705 38.2701 193.659 39.0713 193.659 40.8456ZM190.797 42.6771C192.075 42.6771 192.686 42.0093 192.686 40.8647C192.686 39.6246 192.075 39.0904 190.797 39.0904H188.012V42.6961H190.797V42.6771Z" fill="white"/>
<path d="M201.137 38.27V39.0713H196.101V42.0284H200.927V42.8296H196.101V44.5657C196.101 45.3098 196.539 45.8058 197.245 45.8058H201.156V46.6071H197.035C195.929 46.6071 195.166 45.8439 195.166 44.6993V38.27H201.137Z" fill="white"/>
<path d="M208.635 38.976C207.071 38.976 206.25 39.4529 206.25 40.3877C206.25 41.3416 207.052 41.666 208.559 41.9521C210.772 42.3909 211.802 42.9442 211.802 44.4132C211.802 45.9203 210.676 46.7025 208.425 46.7025C207.452 46.7025 206.365 46.569 205.468 46.2828V45.4052C206.384 45.6914 207.452 45.844 208.425 45.844C210.028 45.844 210.848 45.3671 210.848 44.4323C210.848 43.4784 210.047 43.154 208.425 42.8297C206.308 42.41 205.296 41.8567 205.296 40.4068C205.296 38.8424 206.498 38.0984 208.635 38.0984C209.627 38.0984 210.619 38.2319 211.42 38.5181V39.3766C210.466 39.1286 209.513 38.976 208.635 38.976Z" fill="white"/>
<path d="M219.948 41.0554C219.948 42.8678 219.032 43.8026 217.144 43.8026H214.072V46.6071H213.137V38.27H217.124C219.013 38.27 219.948 39.1858 219.948 41.0554ZM217.086 43.0013C218.345 43.0013 218.975 42.3336 218.975 41.0554C218.975 39.739 218.345 39.0713 217.086 39.0713H214.072V43.0013H217.086Z" fill="white"/>
<path d="M225.004 46.7217C222.371 46.7217 221.035 45.2718 221.035 42.4292C221.035 39.6248 222.352 38.1558 225.004 38.1558C227.636 38.1558 228.972 39.6057 228.972 42.4292C228.972 45.2527 227.655 46.7217 225.004 46.7217ZM221.989 42.4292C221.989 44.7186 222.962 45.8823 225.004 45.8823C227.026 45.8823 228.018 44.7186 228.018 42.4292C228.018 40.1399 227.026 38.9761 225.004 38.9761C222.962 38.9761 221.989 40.1399 221.989 42.4292Z" fill="white"/>
<path d="M236.565 39.0713H233.57V46.6071H232.654V39.0713H229.659V38.27H236.565V39.0713Z" fill="white"/>
<path d="M64.921 27.0906C64.921 29.5516 66.7334 31.4785 69.3089 31.4785H79.1531V28.8076H70.1102C68.8701 28.8076 68.0116 27.8537 68.0116 26.5373V23.2178H78.7143V20.5278H68.0116V14.938H79.2103V12.2671H64.921V27.0906ZM96.018 26.5755L85.487 12.2861H82.5108V31.4594H85.487V17.1701L96.018 31.4594H98.9941V12.2861H96.018V26.5755ZM150.886 12.2861L145.163 21.9396L139.439 12.2861H135.738L143.636 25.0492V31.4594H146.67V25.0492L154.568 12.2861H150.886ZM125.818 12.019C119.656 12.019 116.603 15.2241 116.603 21.9014C116.603 28.5214 119.675 31.7265 125.818 31.7265C131.999 31.7265 135.07 28.5214 135.07 21.9014C135.051 15.2241 131.999 12.019 125.818 12.019ZM125.818 28.9221C121.754 28.9221 119.751 26.5946 119.751 21.8823C119.751 17.1701 121.754 14.8426 125.818 14.8426C129.919 14.8426 131.923 17.1701 131.923 21.8823C131.923 26.5946 129.9 28.9221 125.818 28.9221ZM103.516 14.938H110.365V25.1828C110.365 27.9872 108.819 28.903 106.53 28.903C105.442 28.903 103.573 28.6931 101.894 28.2925V31.1923C103.21 31.4785 105.271 31.7074 106.625 31.7074C110.842 31.7074 113.436 29.2655 113.436 24.9539V12.2671H103.535V14.938H103.516Z" fill="white"/>
</svg>
