<svg width="178" height="45" viewBox="0 0 178 45" fill="none" xmlns="http://www.w3.org/2000/svg">
<path d="M33.5446 9.08847C33.414 8.8599 33.2834 8.63132 33.1419 8.41364C30.1052 3.5592 24.8045 0.054422 17.98 0C15.4874 0.108844 13.1146 0.620411 10.9595 1.50205C10.9269 1.51293 10.8942 1.52382 10.8724 1.5347C10.3935 1.73062 9.9255 1.94831 9.46836 2.18776C9.34863 2.25307 9.2289 2.31838 9.10917 2.38368C5.84385 4.16872 3.24248 6.90071 1.68602 10.4164C1.58806 10.6232 1.50098 10.8409 1.41391 11.0585C1.04384 12.0055 0.739072 13.0069 0.521384 14.0626C0.336349 14.8899 0.194854 15.6953 0.107779 16.4899C0.0860097 16.6531 0.075126 16.8055 0.0642416 16.9688C-0.0881399 18.8191 0.0315864 20.5824 0.41254 22.2477C0.466962 22.5089 0.543155 22.7702 0.608461 23.0205C1.62071 26.6123 3.88466 29.7688 7.29148 32.4573C10.4915 34.9824 13.2126 37.8886 15.3024 41.3934C15.618 41.9267 15.9337 42.4709 16.2711 42.9934C17.1854 44.3757 18.8181 44.3866 19.7432 43.026C19.9936 42.6668 20.2113 42.2859 20.4289 41.9049C22.5514 37.9974 25.4793 34.8518 29.0385 32.1852C36.9079 26.1661 37.6481 16.3048 33.5446 9.08847ZM28.8752 20.4627C28.8535 20.5824 28.8208 20.7021 28.7882 20.8218C22.4752 11.4286 15.3459 15.63 15.3459 15.63C19.5908 16.2831 20.2004 24.4028 14.2031 26.645C12.6466 27.2219 10.8833 26.7974 9.76223 25.5783C9.75135 25.5674 9.75135 25.5674 9.74047 25.5566C9.32686 25.0994 8.94591 24.6096 8.61937 24.0981C7.49828 22.3565 6.8561 20.2885 6.87787 18.0681C6.89964 17.5783 6.95406 17.1103 7.01937 16.6531C7.01937 16.6205 7.03025 16.5987 7.03025 16.5661C7.63978 12.6259 9.82754 9.91568 12.5922 8.43541C12.6357 8.41364 12.6901 8.38098 12.7337 8.35922C19.1772 5.05036 28.6575 8.31568 29.0929 18.1552C29.1147 18.9388 29.0385 19.7116 28.8752 20.4627Z" fill="url(#paint0_linear_703_3939)"/>
<path d="M13.267 9.20825C13.2235 9.23002 13.1799 9.25179 13.1364 9.27356C10.6439 10.6015 8.67379 13.0504 8.11869 16.6096C8.11869 16.6314 8.1078 16.6641 8.1078 16.6858C8.0425 17.0994 7.99896 17.5239 7.97719 17.9702C7.97719 18.4164 7.99896 18.8409 8.05338 19.2763C8.05338 19.211 8.05338 19.1348 8.05338 19.0695C8.07515 18.6124 8.11868 18.1552 8.18399 17.7307C8.18399 17.709 8.19488 17.6763 8.19488 17.6545C8.77175 13.9321 10.8398 11.3742 13.452 9.98104C13.4956 9.95927 13.5391 9.9375 13.5827 9.90485C17.1636 8.06539 21.7459 8.38104 24.9895 10.8518C21.8983 7.81505 17.0112 7.28171 13.267 9.20825Z" fill="#00ADEE"/>
<path d="M16.9895 17.2408C15.2915 15.0422 12.5704 16.566 13.3541 17.4694C14.3554 18.6558 14.965 16.2286 16.9895 17.2408Z" fill="url(#paint1_linear_703_3939)"/>
<path d="M124.529 12.184C122.302 12.184 121.617 12.6551 121.617 13.2405C121.617 13.9116 122.331 14.2543 124.401 14.6398C129.113 15.525 130.912 16.81 130.912 19.223C130.912 22.0928 128.699 23.7633 124.272 23.7633C122.102 23.7633 119.818 23.5063 117.676 22.9638V19.6798C119.504 20.1938 121.859 20.5793 124.187 20.5793C126.4 20.5793 126.828 20.0796 126.828 19.4657C126.828 18.7946 126.114 18.4519 123.973 18.095C119.318 17.2812 117.548 15.8248 117.548 13.3976C117.548 10.5848 120.018 9 124.401 9C126.371 9 128.042 9.257 130.041 9.79956V13.0835C127.842 12.4695 126.257 12.184 124.529 12.184Z" fill="#00ADEE"/>
<path d="M146.075 13.9258C146.075 17.3097 144.361 18.8945 140.849 18.8945H136.366V23.5634H132.596V9.21411H140.849C144.361 9.21411 146.075 10.7704 146.075 13.9258ZM140.235 15.8962C141.434 15.8962 142.077 15.2965 142.077 13.9258C142.077 12.7836 141.434 12.2125 140.235 12.2125H136.38V15.8962H140.235Z" fill="#00ADEE"/>
<path d="M155.098 23.7633C149.93 23.7633 147.36 21.5502 147.36 16.453C147.36 11.2273 149.93 9.01428 155.098 9.01428C160.267 9.01428 162.808 11.2273 162.808 16.453C162.808 21.5502 160.267 23.7633 155.098 23.7633ZM151.258 16.3817C151.258 19.2943 152.414 20.5794 155.098 20.5794C157.754 20.5794 158.911 19.2943 158.911 16.3817C158.911 13.469 157.754 12.184 155.098 12.184C152.428 12.184 151.258 13.469 151.258 16.3817Z" fill="#00ADEE"/>
<path d="M177.129 12.2125H172.132V23.5634H168.362V12.2125H163.365V9.21411H177.115V12.2125H177.129Z" fill="#00ADEE"/>
<path d="M48.7996 28.6606L50.9412 32.1302L53.0829 28.6606H53.8968L51.2982 32.8155V34.9001H50.6129V32.8155L48 28.6606H48.7996Z" fill="#25466A"/>
<path d="M57.4805 34.9857C55.5102 34.9857 54.5107 33.9006 54.5107 31.7732C54.5107 29.6744 55.4959 28.575 57.4805 28.575C59.4509 28.575 60.4503 29.6601 60.4503 31.7732C60.4503 33.8863 59.4509 34.9857 57.4805 34.9857ZM55.2246 31.7732C55.2246 33.4865 55.9528 34.3575 57.4805 34.3575C58.994 34.3575 59.7364 33.4865 59.7364 31.7732C59.7364 30.0599 58.994 29.1889 57.4805 29.1889C55.9528 29.1889 55.2246 30.0599 55.2246 31.7732Z" fill="#25466A"/>
<path d="M62.1351 28.6606V32.5014C62.1351 33.8863 62.9918 34.3575 64.0055 34.3575C65.0049 34.3575 65.8759 33.8863 65.8759 32.5014V28.6606H66.5755V32.4586C66.5755 34.1148 65.5475 35 64.0198 35C62.492 35 61.464 34.1291 61.464 32.4586V28.6606H62.1351Z" fill="#25466A"/>
<path d="M72.7007 30.5881C72.7007 31.6304 72.2295 32.2729 71.2872 32.4728L72.8863 34.8858H72.0439L70.5162 32.5442H68.4887V34.8858H67.7891V28.6464H70.5876C71.9868 28.6606 72.7007 29.2603 72.7007 30.5881ZM70.559 31.9588C71.5156 31.9588 71.9725 31.4591 71.9725 30.6024C71.9725 29.6744 71.5156 29.2746 70.559 29.2746H68.4745V31.9731H70.559V31.9588Z" fill="#25466A"/>
<path d="M76.6985 28.6606V32.5014C76.6985 33.8863 77.5552 34.3575 78.5689 34.3575C79.5684 34.3575 80.4393 33.8863 80.4393 32.5014V28.6606H81.1389V32.4586C81.1389 34.1148 80.1109 35 78.5832 35C77.0555 35 76.0275 34.1291 76.0275 32.4586V28.6606H76.6985Z" fill="#25466A"/>
<path d="M84.6513 28.575C85.1368 28.575 85.3509 28.832 85.508 29.2603L87.6354 34.9H86.8644L86.3075 33.4152H82.9951L82.4382 34.9H81.6672L83.7946 29.2603C83.9517 28.832 84.1659 28.575 84.6513 28.575ZM86.0934 32.8155L84.894 29.603C84.8226 29.4031 84.7513 29.3317 84.6513 29.3317C84.5656 29.3317 84.4943 29.3888 84.4086 29.6172L83.2092 32.8155H86.0934Z" fill="#25466A"/>
<path d="M92.7897 28.6606V29.2603H89.0203V31.4734H92.6326V32.0731H89.0203V33.3723C89.0203 33.9292 89.3487 34.3004 89.877 34.3004H92.804V34.9001H89.7199C88.8918 34.9001 88.3207 34.329 88.3207 33.4723V28.6606H92.7897Z" fill="#25466A"/>
<path d="M98.7436 28.575C99.229 28.575 99.4432 28.832 99.6002 29.2603L101.728 34.9H100.957L100.4 33.4152H97.0873L96.5305 34.9H95.7595L97.8869 29.2603C98.0439 28.832 98.2581 28.575 98.7436 28.575ZM100.171 32.8155L98.972 29.603C98.9006 29.4031 98.8292 29.3317 98.7293 29.3317C98.6436 29.3317 98.5722 29.3888 98.4866 29.6172L97.2872 32.8155H100.171Z" fill="#25466A"/>
<path d="M107.996 31.7732C107.996 33.8578 107.01 34.9001 105.026 34.9001H102.584V28.6606H105.026C107.01 28.6606 107.996 29.6887 107.996 31.7732ZM104.997 34.2861C106.511 34.2861 107.296 33.4295 107.296 31.7732C107.296 30.1027 106.525 29.2603 104.997 29.2603H103.284V34.2861H104.997Z" fill="#25466A"/>
<path d="M109.224 28.6606L111.194 33.9292C111.28 34.1434 111.337 34.2005 111.437 34.2005C111.537 34.2005 111.594 34.1434 111.679 33.9292L113.65 28.6606H114.421L112.293 34.3004C112.136 34.7145 111.922 34.9857 111.437 34.9857C110.965 34.9857 110.737 34.7287 110.58 34.3004L108.453 28.6606H109.224Z" fill="#25466A"/>
<path d="M119.746 28.6606V29.2603H115.977V31.4734H119.589V32.0731H115.977V33.3723C115.977 33.9292 116.305 34.3004 116.834 34.3004H119.761V34.9001H116.677C115.848 34.9001 115.277 34.329 115.277 33.4723V28.6606H119.746Z" fill="#25466A"/>
<path d="M121.545 28.6606L125.358 33.815V28.6606H126.029V34.9001H125.358L121.545 29.7458V34.9001H120.874V28.6606H121.545Z" fill="#25466A"/>
<path d="M132.168 29.2603H129.926V34.9001H129.241V29.2603H126.999V28.6606H132.168V29.2603Z" fill="#25466A"/>
<path d="M133.824 28.6606V32.5014C133.824 33.8863 134.681 34.3575 135.695 34.3575C136.694 34.3575 137.565 33.8863 137.565 32.5014V28.6606H138.265V32.4586C138.265 34.1148 137.237 35 135.709 35C134.181 35 133.153 34.1291 133.153 32.4586V28.6606H133.824Z" fill="#25466A"/>
<path d="M144.39 30.5881C144.39 31.6304 143.919 32.2729 142.976 32.4728L144.576 34.8858H143.733L142.205 32.5442H140.178V34.8858H139.478V28.6464H142.277C143.676 28.6606 144.39 29.2603 144.39 30.5881ZM142.248 31.9588C143.205 31.9588 143.662 31.4591 143.662 30.6024C143.662 29.6744 143.205 29.2746 142.248 29.2746H140.164V31.9731H142.248V31.9588Z" fill="#25466A"/>
<path d="M149.987 28.6606V29.2603H146.217V31.4734H149.83V32.0731H146.217V33.3723C146.217 33.9292 146.546 34.3004 147.074 34.3004H150.001V34.9001H146.917C146.089 34.9001 145.518 34.329 145.518 33.4723V28.6606H149.987Z" fill="#25466A"/>
<path d="M155.598 29.1889C154.427 29.1889 153.813 29.5458 153.813 30.2454C153.813 30.9593 154.413 31.2021 155.541 31.4162C157.197 31.7446 157.968 32.1587 157.968 33.2581C157.968 34.386 157.126 34.9714 155.441 34.9714C154.713 34.9714 153.899 34.8715 153.228 34.6573V34.0005C153.913 34.2147 154.713 34.3289 155.441 34.3289C156.64 34.3289 157.254 33.972 157.254 33.2724C157.254 32.5585 156.655 32.3157 155.441 32.073C153.856 31.7589 153.099 31.3448 153.099 30.2597C153.099 29.0889 153.999 28.5321 155.598 28.5321C156.341 28.5321 157.083 28.6321 157.683 28.8462V29.4887C156.969 29.3031 156.255 29.1889 155.598 29.1889Z" fill="#25466A"/>
<path d="M164.065 30.7452C164.065 32.1016 163.379 32.8012 161.966 32.8012H159.667V34.9001H158.968V28.6606H161.952C163.365 28.6606 164.065 29.346 164.065 30.7452ZM161.923 32.2016C162.865 32.2016 163.337 31.7018 163.337 30.7452C163.337 29.76 162.865 29.2603 161.923 29.2603H159.667V32.2016H161.923Z" fill="#25466A"/>
<path d="M167.848 34.9857C165.878 34.9857 164.879 33.9006 164.879 31.7732C164.879 29.6744 165.864 28.575 167.848 28.575C169.819 28.575 170.818 29.6601 170.818 31.7732C170.818 33.8863 169.833 34.9857 167.848 34.9857ZM165.593 31.7732C165.593 33.4865 166.321 34.3575 167.848 34.3575C169.362 34.3575 170.104 33.4865 170.104 31.7732C170.104 30.0599 169.362 29.1889 167.848 29.1889C166.321 29.1889 165.593 30.0599 165.593 31.7732Z" fill="#25466A"/>
<path d="M176.501 29.2603H174.259V34.9001H173.574V29.2603H171.332V28.6606H176.501V29.2603Z" fill="#25466A"/>
<path d="M48.0428 20.2938C48.0428 22.1356 49.3992 23.5777 51.3268 23.5777H58.6941V21.5788H51.9264C50.9984 21.5788 50.3559 20.8649 50.3559 19.8797V17.3954H58.3657V15.3822H50.3559V11.1988H58.737V9.19989H48.0428V20.2938ZM71.3158 19.9083L63.4344 9.21418H61.207V23.5634H63.4344V12.8693L71.3158 23.5634H73.5431V9.21418H71.3158V19.9083ZM112.379 9.21418L108.096 16.4388L103.812 9.21418H101.042L106.953 18.7661V23.5634H109.224V18.7661L115.135 9.21418H112.379ZM93.6178 9.01428C89.0061 9.01428 86.7216 11.413 86.7216 16.4102C86.7216 21.3646 89.0203 23.7633 93.6178 23.7633C98.2438 23.7633 100.543 21.3646 100.543 16.4102C100.528 11.413 98.2438 9.01428 93.6178 9.01428ZM93.6178 21.6645C90.5766 21.6645 89.0774 19.9226 89.0774 16.3959C89.0774 12.8693 90.5766 11.1274 93.6178 11.1274C96.6876 11.1274 98.1867 12.8693 98.1867 16.3959C98.1867 19.9226 96.6733 21.6645 93.6178 21.6645ZM76.927 11.1988H82.0527V18.866C82.0527 20.9649 80.8962 21.6502 79.1829 21.6502C78.369 21.6502 76.9698 21.4931 75.7134 21.1933V23.3635C76.6985 23.5777 78.2405 23.749 79.2543 23.749C82.4097 23.749 84.3515 21.9215 84.3515 18.6947V9.19989H76.9413V11.1988H76.927Z" fill="url(#paint2_linear_703_3939)"/>
<defs>
<linearGradient id="paint0_linear_703_3939" x1="17.9953" y1="0.00777146" x2="17.9953" y2="44.0561" gradientUnits="userSpaceOnUse">
<stop offset="0.1378" stop-color="#00ADEE"/>
<stop offset="1" stop-color="#25466A"/>
</linearGradient>
<linearGradient id="paint1_linear_703_3939" x1="16.0867" y1="16.1762" x2="13.8778" y2="18.0793" gradientUnits="userSpaceOnUse">
<stop offset="0.1378" stop-color="#00ADEE"/>
<stop offset="1" stop-color="#25466A"/>
</linearGradient>
<linearGradient id="paint2_linear_703_3939" x1="81.5922" y1="-7.19144" x2="81.5922" y2="15.8182" gradientUnits="userSpaceOnUse">
<stop offset="0.1378" stop-color="#00ADEE"/>
<stop offset="1" stop-color="#25466A"/>
</linearGradient>
</defs>
</svg>

